/* XPM */
static char *result[] = {
/* columns rows colors chars-per-pixel */
"75 75 250 2 ",
"   c #0A090D",
".  c #070405",
"X  c #170A09",
"o  c #0C0C13",
"O  c #0B0A1A",
"+  c #140E19",
"@  c #14131A",
"#  c #1B1418",
"$  c #191111",
"%  c #230D0E",
"&  c #350906",
"*  c #261518",
"=  c #341D1A",
"-  c #301014",
";  c #3C261B",
":  c #0E0D22",
">  c #110D23",
",  c #160E26",
"<  c #141324",
"1  c #15132B",
"2  c #1C1A2C",
"3  c #191727",
"4  c #191634",
"5  c #271A25",
"6  c #221D36",
"7  c #2B1427",
"8  c #29222C",
"9  c #33262B",
"0  c #242334",
"q  c #24233B",
"w  c #2B2839",
"e  c #362937",
"r  c #3F332F",
"t  c #500E0E",
"y  c #770609",
"u  c #6A0507",
"i  c #462415",
"p  c #4E2917",
"a  c #6F3115",
"s  c #472A28",
"d  c #43333E",
"f  c #513331",
"g  c #783823",
"h  c #6E332E",
"j  c #571731",
"k  c #76521C",
"l  c #53423A",
"z  c #674A37",
"x  c #6B5A32",
"c  c #714F24",
"v  c #7F692F",
"b  c #181B43",
"n  c #231D46",
"m  c #162659",
"M  c #152346",
"N  c #292744",
"B  c #362F45",
"V  c #373547",
"C  c #3A3857",
"Z  c #2F314C",
"A  c #18366A",
"S  c #463A48",
"D  c #553C42",
"F  c #423C58",
"G  c #452E42",
"H  c #573954",
"J  c #3F405B",
"K  c #42435C",
"L  c #484557",
"P  c #564657",
"I  c #5A525D",
"U  c #6B4D44",
"Y  c #6E534F",
"T  c #4B4864",
"R  c #564D69",
"E  c #57586A",
"W  c #5B5876",
"Q  c #6F5C74",
"!  c #796C6B",
"~  c #7E6F55",
"^  c #8A0909",
"/  c #981A1C",
"(  c #91100F",
")  c #A61A19",
"_  c #8D350E",
"`  c #A5281D",
"'  c #BC3115",
"]  c #94332A",
"[  c #AB3628",
"{  c #B32A2B",
"}  c #A51B28",
"|  c #FE1C00",
" . c #FA1601",
".. c #C72A1A",
"X. c #C8371A",
"o. c #FE2400",
"O. c #FF2D01",
"+. c #F72602",
"@. c #FF3200",
"#. c #FF3B01",
"$. c #C83822",
"%. c #D21A0B",
"&. c #964917",
"*. c #8C4D1A",
"=. c #B05D17",
"-. c #905134",
";. c #956B2D",
":. c #AF7229",
">. c #AE453F",
",. c #D6501A",
"<. c #FF4B00",
"1. c #FB4403",
"2. c #FF5401",
"3. c #FF5C01",
"4. c #FF540B",
"5. c #FF6B03",
"6. c #FE6706",
"7. c #FF7401",
"8. c #FF7B02",
"9. c #FE710B",
"0. c #EF7319",
"q. c #D74928",
"w. c #D85829",
"e. c #DE5934",
"r. c #C64631",
"t. c #E8572F",
"y. c #DE6935",
"u. c #D8612F",
"i. c #E66536",
"p. c #E2792C",
"a. c #9B3A4B",
"s. c #8B4D4E",
"d. c #B75B45",
"f. c #B05C4C",
"g. c #8D6E4C",
"h. c #A56548",
"j. c #AA754A",
"k. c #B87756",
"l. c #AE6E53",
"z. c #835268",
"x. c #96716F",
"c. c #B16562",
"v. c #CE5B56",
"b. c #C67956",
"n. c #E77243",
"m. c #D67064",
"M. c #E17569",
"N. c #9A842F",
"B. c #B18C30",
"V. c #FF8702",
"C. c #FF9402",
"Z. c #FF9C03",
"A. c #F69807",
"S. c #EF8B13",
"D. c #FEA303",
"F. c #FFAB03",
"G. c #FFB704",
"H. c #FEB615",
"J. c #FDAD13",
"K. c #C9922F",
"L. c #EC963D",
"P. c #F19326",
"I. c #F8AB34",
"U. c #C8AA3D",
"Y. c #FFC201",
"T. c #FED506",
"R. c #FFCA13",
"E. c #FED11D",
"W. c #FFEC04",
"Q. c #FFE709",
"!. c #FFF016",
"~. c #FFEC12",
"^. c #F9DD30",
"/. c #FFE927",
"(. c #FFF334",
"). c #F9E633",
"_. c #B7924C",
"`. c #948875",
"'. c #AE8A6C",
"]. c #C89051",
"[. c #E78646",
"{. c #E99349",
"}. c #E89C55",
"|. c #ED9156",
" X c #CEAB50",
".X c #EDA559",
"XX c #F2AF53",
"oX c #C6986C",
"OX c #D4976A",
"+X c #C99976",
"@X c #D79C74",
"#X c #CD8D6C",
"$X c #E99662",
"%X c #DBA379",
"&X c #D0A478",
"*X c #F2AD65",
"=X c #F4BC6D",
"-X c #F1B265",
";X c #E5AA78",
":X c #F2BA75",
">X c #EAB474",
",X c #F4CF4E",
"<X c #FCE64A",
"1X c #F1CC72",
"2X c #FEF679",
"3X c #FCF067",
"4X c #165897",
"5X c #1B74B2",
"6X c #2D68A1",
"7X c #666685",
"8X c #757596",
"9X c #726F90",
"0X c #4B72B0",
"qX c #607094",
"wX c #2467D0",
"eX c #4F76C5",
"rX c #876885",
"tX c #8C748B",
"yX c #957C95",
"uX c #C57B8E",
"iX c #7987B2",
"pX c #5091B4",
"aX c #2CADEB",
"sX c #228FC8",
"dX c #7594CB",
"fX c #5798E4",
"gX c #908890",
"hX c #AF958A",
"jX c #8E8BA8",
"kX c #B7B2B0",
"lX c #A796B2",
"zX c #D9AB84",
"xX c #D0AD8D",
"cX c #E8B589",
"vX c #E9B88D",
"bX c #EBC297",
"nX c #F4CC8B",
"mX c #FDF495",
"MX c #F6E88D",
"NX c #F5D5A9",
"BX c #EACCA9",
"VX c #F5E9B0",
"CX c #D4C3AB",
"ZX c #919CC8",
"AX c #98ACD3",
"SX c #AAACCA",
"DX c #A094C4",
"FX c #ADCBF1",
"GX c #E7DFD0",
"HX c None",
/* pixels */
"HXHXHXHXHXHXHXHXHXHXHXHXHXHXHXHXHXHXHXHXHXHXHXHXHXHXHXHXHXHXHXHXHXHXHXHXHXHXHXHXHXHXHXHXHXHXHXHXHXHXHXHXHXHXHXHXHXHXHXHXHXHXHXHXHXHXHXHXHXHXHXHXHXHXHX",
"HXHXHXHXHXHXHXHXHXHXHXHXHXHXHXHXHXHXHXHXHXHXHXHXHXHXHXHXHXHXHXHXHXHXHXHXHXHXHXHXHXHXHXHXHXHXHXHXHXHXHXHXHXHXHXHXHXHXHXHXHXHXHXHXHXHXHXHXHXHXHXHXHXHXHX",
"HXHXHXHXHXHXHXHXHXHXHXHXHXHXHXHXHXHXHXHXHXHXHXHXHXHXHXHXHXHXHXHXHXHXHXHXHXHXHXHXHXHXHXHXHXHXHXHXHXHXHXHXHXHXHXHXHXHXHXHXHXHXHXHXHXHXHXHXHXHXHXHXHXHXHX",
"HXHXHXHXHXHXHXHXHXHXHXHXHXHXHXHXHXHXHXHXHXHXHXHXHXHXHXHXHXHXHXHXHXHXHXHXHXHXHXHXHXHXHXHXHXHXHXHXHXHXHXHXHXHXHXHXHXHXHXHXHXHXHXHXHXHXHXHXHXHXHXHXHXHXHX",
"HXHXHXHXHXHXHXHXHXHXHXHXHXHXHXHXHXHXHXHXHXHXHXHXHXHXHXHXHXHXHXHXHXHXHXHXHXHXHXHXHXHXHXHXHXHXHXHXHXHXHXHXHXHXHXHXHXHXHXHXHXHXHXHXHXHXHXHXHXHXHXHXHXHXHX",
"HXHXHXHXHXHXHXHXHXHXHXHXHXHXHXHXHXHXHXHXHXHXHXHXHXHXHXHXHXHXHXHXHXHXHXHXHXHXHXHXHXHXHXHXHXHXHXHXHXHXHXHXHXHXHXHXHXHXHXHXHXHXHXHXHXHXHXHXHXHXHXHXHXHXHX",
"HXHXHXHXHXHXHXHXHXHXHXHXHXHXHXHXHXHXHXHXHXHXHXHXHXHXHXHXHXHXHXHXHXHXHXHXHXHXHXHXHXHXHXo.HXHXHXHXHXHXHXHXHXHXHXHXHXHXHXHXHXHXHXHXHXHXHXHXHXHXHXHXHXHXHX",
"HXHXHXHXHXHXHXHXHXHXHXHXHXHXHXHXHXHXHXHXHXHXHXHXHXHXHXHXHXHXHXHXHXHXHXHXHXHXHXHXHXHXHXO.<.HXHXHXHXHXHXHXHXHXHXHXHXHXHXHXHXHXHXHXHXHXHXHXHXHXHXHXHXHXHX",
"HXHXHXHXHXHXHXHXHXHXHXHXHXHXHXHXHXHXHXHXHXHXHXHXHXHXHXHXHXHXHXHXHXHXHXHXHXHXHXHXHXHXHXHX3.HXHXHXHXHXHXHXHXHXHXHXHXHXHXHXHXHXHXHXHXHXHXHXHXHXHXHXHXHXHX",
"HXHXHXHXHXHXHXHXHXHXHXHXHXHXHXHXHXHXHXHXHXHXHXHXHXHXHXHXHXHXHXHXHXHXHXHXHXHXHXHXHX .HX| HXHXHXHXHXHXHXHXHXHXHXHXHXHXHXHXHXHXHXHXHXHXHXHXHXHXHXHXHXHXHX",
"HXHXHXHXHXHXHXHXHXHXHXHXHXHXHXHXHXHXHXHXHXHXHXHXHXHXHXHXHXHXHXHXHXHXHXHXHXHXHXHX@.<.HXHXO.o.HXHXHXHXHXHXHXHXHXHXHXHXHXHXHXHXHXHXHXHXHXHXHXHXHXHXHXHXHX",
"HXHXHXHXHXHXHXHXHXHXHXHXHXHXHXHXHXHXHXHXHXHXHXHXHXHXHXHXHXHXHXHXHXHXHXHX`.HXHXHXHXHX@.@.HX1. .HXHXHXHXHXHXHXHXHXHXHXHXHXHXHXHXHXHXHXHXHXHXHXHXHXHXHXHX",
"HXHXHXHXHXHXHXHXHXHXHXHXHXHXHXHXHXHXHXHXHXHXHXHXHXHXHXHXHXHXHXHXHXHXHXY 1XXX>X`.HXHXHX .3.3.3.HXHXHXHXHXHXHXHXHXHXHXHXHXHXHXHXHXHXHXHXHXHXHXHXHXHXHXHX",
"HXHXHXHXHXHXHXHXHXHXHXHXHXHXHXHXHXHXHXHXHXHXHXHXHXHXHXHXHXHXHXHXHXHXHX.Xp.-X[.X.w.y.{.#X1.Z.C.#.HXHXHXHXHXHXHXHXHXHXHXHXHXHXHXHXHXHXHXHXHXHXHXHXHXHXHX",
"HXHXHXHXHXHXHXHXHXHXHXHXHXHXHXHXHXHXHXHXHXHXHXHXHXHXHXHXHXHXHXHXHXHXoXe.i.|.:X:XX...X.,.{.K.V.#.HXo.HXHXHXHXHXHXHXHXHXHXHXHXHXHXHXHXHXHXHXHXHXHXHXHXHX",
"HXHXHXHXHXHXHXHXHXHXHXHXHXHXHXHXHXHXHXHXHXHXHXHXHXHXHXHXHXHXHXHXHXHXi.q.y.{..X-XnX$Xw.w.L.nX2.o.o.3.HXHXHXHXHXHXHXHXHXHXHXHXHXHXHXHXHXHXHXHXHXHXHXHXHX",
"HXHXHXHXHXHXHXHXHXHXHXHXHXHXHXHXHXHXHXHXHXHXHXHXHXHXHXHXGXNXhXHXs.t.$.q.u.[..X-X:X1X1XnX1Xn.HXHX#.<.HXHXHXHXHXHXHXHXHXHXHXHXHXHXHXHXHXHXHXHXHXHXHXHXHX",
"HXHXHXHXHXHXHXHXHXHXHXHXHXHXHXHXHXHXHXHXHXHXHXHXHXHXHXHXGX=X[.$.{ v.$.r.u.[.{.XX*X=X>X-XXXP.HXHXHX@.HXHXHXHXHXHXHXHXHXHXHXHXHXHXHXHXHXHXHXHXHXHXHXHXHX",
"HXHXHXHXHXHXHXHXHXHXHXHXHXHXHXHXHXHXHXHXHXHXHXHXHXHXHXHXHXnX*Xq.} { v.$.h.AXFXSX}.*X.X.XL.0.7.o.HXHXHXHXHXHXHXHXHXHXHXHXHXHXHXHXHXHXHXHXHXHXHXHXHXHXHX",
"HXHXHXHXHXHXHXHXHXHXHXHXHXHXHXHXHXHXHXHXHXHXHXHXHXHXHXHXHXkX1X|.} ^ { { eXsXaXfX! }.x.GXoXHX8.6.HXHXHXHXHXHXHXHXHXHXHXHXHXHXHXHXHXHXHXHXHXHXHXHXHXHXHX",
"HXHXHXHXHXHXHXHXHXHXHXHXHXHXHXHXHXHXHXHXHXHXHXHXHXHXHXHXHXHXCX:Xn.{ ) / 0XA aX5XdXf.fXaXfX;Xi.HXHXHXHXHXHXHXHXHXHXHXHXHXHXHXHXHXHXHXHXHXHXHXHXHXHXHXHX",
"HXHXHXHXHXHXHXHXHXHXHXHXHXHXHXHXHXHXHXHXHXHXHXHXHXHXHXHXHXHX$ vX=Xn.r.` AXeX5X4XiXrX4XsX4X[ [.1XHX| HXHXHXHXHXHXHXHXHXHXHXHXHXHXHXHXHXHXHXHXHXHXHXHXHX",
"HXHXHXHXHXHXHXHXHXHXHXHXHXHXHXHXHXHXHXHXHXHXHXHXHXHXHXHXHXHXX -.x.1X|.i.v.SXDXeX/ Q wXkX0X/ u.XX1XD.HXHXHXHXHX .HXHXHXHXHXHXHXHXHXHXHXHXHXHXHXHXHXHXHX",
"HXHXHXHXHXHXHXHXHXHXHXHXHXHXHXHXHXHXHXHXHXHXHXHXHXHXHXHXHX. & cX%   %X*Xn.$.{ ( ../ ZXwXlX_ w.L.nXo.HXHXHXHXHXHX .HXHXHXHXHXHXHXHXHXHXHXHXHXHXHXHXHXHX",
"HXHXHXHXHXHXHXHXHXHXHXHXHXHXHXHXHXHXHXHXHXHXHXHXHXHXHXHXHXHX`.l.i . . l 1X|.i.q.....) { $.q.y.L.nXHXHXHXHXHX|  .#.HXHXHXHXHXHXHXHXHXHXHXHXHXHXHXHXHXHX",
"HXHXHXHXHXHXHXHXHXHXHXHXHXHXHXHXHXHXHXHXHXHXHXHXHXHXHXHXHXX bX'.f . h I R z @X|.n.e.q.e.e.n.[.XX;XHXHXHXHXHX8.7.2.HXHXHXHXHXHXHXHXHXHXHXHXHXHXHXHXHXHX",
"HXHXHXHXHXHXHXHXHXHXHXHXHXHXHXHXHXHXHXHXHXo.HXHXHXHXHXHXHXHXvXBXvXs l.oXzXk.b.s.'.$X|.;XcXnXnXT.3.HXHXHXHXHXHX5.HXHXHXHXHXHXHXHXHXHXHXHXHXHXHXHXHXHXHX",
"HXHXHXHXHXHXHXHXHXHXHXHXHXHXHXHXHXHXHXHXHXHXHXHXHXHXHXHXHXGXcXvXcX#XY VXBXnXcX@X#Xz . 1.D.T.W.F.@.HXHX| HXHXHX8.HXHXHXHXHXHXHXHXHXHXHXHXHXHXHXHXHXHXHX",
"HXHXHXHXHXHXHXHXHXHXHXHXHXHXHXHXHXHXHXHXHXHXHXHXHXHXHXHXHXbXvX].@Xh.cXNXNXvXNXNXBX9 & F.Y.C.D.V.6.7.3.HXHXHXHXD.HXHXHXHXHXHXHXHXHXHXHXHXHXHXHXHXHXHXHX",
"HXHXHXHXHXHXHXHXHXHXHXHXHXHXHXHXHXHXHXHXHX#.#.O.HXHXHX^ xXcXcXf.-.B.@XzXzXzXbXvXxXt e 1X#.HX9.H.G.T.6.HXHXHX| <.HXHXHXHXHXHXHXHXHXHXHXHXHXHXHXHXHXHXHX",
"HXHXHXHXHXHXHXHXHXHXHXHXHXHXHXHXHXHXHXHXHXG.HXHXHXHX_ t OXvX%Xh B.; h zXzX+XvXg.h 7 G =.HXHX5.T.Q.C. .HXHX@.| HXHXHXHXHXHXHXHXHXHXHXHXHXHXHXHXHXHXHXHX",
"HXHXHXHXHXHXHXHXHXHXHXHXHXHXHXHXHXHXHXHXHX2.HXHXHXHX%.^ ] l.p & c o ;.s.l.+X-.4 7 5 ;.a HXHXV.W.F.3.HXHX1.3.o.HX| HXHXHXHXHXHXHXHXHXHXHXHXHXHXHXHXHXHX",
"HXHXHXHXHXHXHXHXHXHXHXHXHXHXHXHXHXHXHXHXHXHXHXHXHXHX^ u u ^ & t -.r _ m.>.m.M.[ + , &._ HX<.Z.W.G.C.7.8.Z.C.@.HXHXHXHXHXHXHXHXHXHXHXHXHXHXHXHXHXHXHXHX",
"HXHXHXHXHXHXHXHXHXHXHXHXHXHXHXHXHXHXHXHXHXHXHXHXHXU y t u y ^ ^  Xz _.` r.^ ] d., ,  XHX<.5.G.W.Q.G.T.T.Y.5.HXHXHXHXHXHXHXHXHXHXHXHXHXHXHXHXHXHXHXHXHX",
"HXHXHXHXHXHXHXHXHXHXHXHXHXHXHXHXHXHXHXHXHXHXHXHX| ! t y y u y h c 1  XbXh.f.k.bXh * 7 K.HXV.G./.!.T.W.T.Z.#.HXHXHXHXHXHXHXHXHXHXHXHXHXHXHXHXHXHXHXHXHX",
"HXHXHXHXHXHXHXHXHXHXHXHXHXHXHXHXHXHXHXHXHXHXHXHXk.V , + - y * 1 4 b B.l.oXVXoX_.j.7 e g S.D.G.~.(.!.Q.D.6.o.HXHXHXHXHXHXHXHXHXHXHXHXHXHXHXHXHXHXHXHXHX",
"HXHXHXHXHXHXHXHXHXHXHXHXHXHXHXHXHXHXHXHXHXHXHXHX! 0 < > 1 : : 4 b n 7 a a &X`.;.j.- =.A.F.T.R./.R.W.D.3.HXHXHXHXHXHXHXHXHXHXHXHXHXHXHXHXHXHXHXHXHXHXHX",
"HXHXHXHXHXHXHXHXHXHXHXHXHXHXHXHXHXHXHXHXHXHXHXHXP 2 > > 1 1 O 1 b N 4 *.g '.g.-.].;.H.T.G././.T.D.Z.5.HXHXHXHXHXHXHXHXHXHXHXHXHXHXHXHXHXHXHXHXHXHXHXHX",
"HXHXHXHXHXHXHXHXHXHXHXHXHXHXHXHXHXHXHXHXHXHXHXHXZ 1 > 1 j HX1 4 4 ~ g._.cX-.&.;X;X; 1X!.~.3X).F.V.3.@.HXHXHXHXHXHXHXHXHXHXHXHXHXHXHXHXHXHXHXHXHXHXHXHX",
"HXHXHXHXHXHXHXHXHXHXHXHXHXHXHXHXHXHXHXHXHXHXHXHXHX[ &.+.| HX+ > 4 ;.G _.zXcX_.vX;X= K.,X(.2XR.C.@.HXHXHXHXHXHXHXHXHXHXHXHXHXHXHXHXHXHXHXHXHXHXHXHXHXHX",
"HXHXHXHXHXHXHXHXHXHXHXHXHXHXHXHXHXHXHXHXHXHXHX| HX@.V.HXHXHXHX1 4 4 4 _.#X@X[ OXOXf _.P.mX2XE.C.HXHXHXHXHXHXHXHXHXHXHXHXHXHXHXHXHXHXHXHXHXHXHXHXHXHXHX",
"HXHXHXHXHXHXHXHXHXHXHXHXHXHXHXHXHXHXHXHXHXHXo.O.1.V.G.O.O.HXHX4 1 4 0  Xk.+XhXl.jXP g.1XMXmXE.V.HXHX#.HXHXHXHXHXHXHXHXHXHXHXHXHXHXHXHXHXHXHXHXHXHXHXHX",
"HXHXHXHXHXHXHXHXHXHXHXHXHXHXHXHXHXHXHXHXHXHXHXHX#.C.T.C.7.HXHX@ 4 N.8  X9XT C L iX;.B./.VXmX/.Z.HX2.HXHXHXHXHXHXHXHXHXHXHXHXHXHXHXHXHXHXHXHXHXHXHXHXHX",
"HXHXHXHXHXHXHXHXHXHXHXHXHXHXHXHXHXHXHXHXHXHXHXHXHX+.V.F.G.HXHX4 < B.x ;.x B.`.hXs.-.k <XmX(.~.D.HXHXHXHXHXHXHXHXHXHXHXHXHXHXHXHXHXHXHXHXHXHXHXHXHXHXHX",
"HXHXHXHXHXHXHXHXHXHXHXHXHXHXHXHXHXHXHXHXHXHXHXHXHXHXHXHX2.O.HX1 < < 3 :.;.U z./ x.P d U.<X~.Q.F.8.HXHXHXHXHXHXHXHXHXHXHXHXHXHXHXHXHXHXHXHXHXHXHXHXHXHX",
"HXHXHXHXHXHXHXHXHXHXHXHXHXHXHXHXHXHXHXHXHXHXHXHXHXHXHXHXHX7.N 1 : 1 = 7 e &.gXgX# S L '.^.W.T.C.3.HXHXHXHXHXHXHXHXHXHXHXHXHXHXHXHXHXHXHXHXHXHXHXHXHXHX",
"HXHXHXHXHXHXHXHXHXHXHXHXHXHXHXHXHXHXHXHXHXHX .HXHXHXHXHXHX6 4 1 1 3 a C  Xa L B w S d Y k Q.F.8.HXHXHXHXHXHXHXHXHXHXHXHXHXHXHXHXHXHXHXHXHXHXHXHXHXHXHX",
"HXHXHXHXHXHXHXHXHXHXHXHXHXHXHXHXHXHXHXHXHXHXHXHXHXHXO.HX2 4 2 1 1 p  X3XB.V B R 8 8 = f l S.5.HXHXHXHXHXHXHXHXHXHXHXHXHXHXHXHXHXHXHXHXHXHXHXHXHXHXHXHX",
"HXHXHXHXHXHXHXHXHXHXHXHXHXHXHXHXHXHXHXHXHXHXHXHXHXHXHX} N 4 2 1 ; k k l w L o 0 @ * # l 7X;.HXHXHXHXHXHXHXHXHXHXHXHXHXHXHXHXHXHXHXHXHXHXHXHXHXHXHXHXHX",
"HXHXHXHXHXHXHXHXHXHXHXHXHXHXHXHXHXHXHXHXHXHXHXHXHXo.Z C N 2 1 = & 3 K T K 3 @ <   # # = C = HXHXHXHXHXHXHXHXHXHXHXHXHXHXHXHXHXHXHXHXHXHXHXHXHXHXHXHXHX",
"HXHXHXHXHXHXHXHXHXHXHXHXHXHXHXHXHXHXHXHXHXHXHXHXHXT C N 4 2 9 p 8 C qXW Z < @ o   o $ ; E w k HXHXHXHXHXHXHXHXHXHXHXHXHXHXHXHXHXHXHXHXHXHXHXHXHXHXHXHX",
"HXHXHXHXHXHXHXHXHXHXHXHXHXHXHXHXHXHXHXHXHXHXHXHXR C N 1 2 7 &.6 C w w 2 3 @ M m M Z 6XpX0X$ v HXHXHXHXHXHXHXHXHXHXHXHXHXHXHXHXHXHXHXHXHXHXHXHXHXHXHXHX",
"HXHXHXHXHXHXHXHXHXHXHXHXHXHXHXHXHXHXHXHXHXHXHXa.C q 2 4 w K.n Z E 7XC 0 3 @ M m A m A # r   r HXHXHXHXHXHXHXHXHXHXHXHXHXHXHXHXHXHXHXHXHXHXHXHXHXHXHXHX",
"HXHXHXHXHXHXHXHXHXHXHXHXHXHXHXHXHXHXHXHXHXHXHXJ q 6 0 8 B.C C 7X7XK J 0 w @ o   o : 0 e 5 $ $ HXHXHXHXHXHXHXHXHXHXHXHXHXHXHXHXHXHXHXHXHXHXHXHXHXHXHXHX",
"HXHXHXHXHXHXHXHXHXHXHXHXHXHXHXHXHXHXHXHXHXHXW q N w w  XR N 7X8XqXE 0 J 3 @ < o   o @ w iX9 o HXHXHXHXHXHXHXHXHXHXHXHXHXHXHXHXHXHXHXHXHXHXHXHXHXHXHXHX",
"HXHXHXHXHXHXHXHXHXHXHXHXHXHXHXHXHXHXHXHXHXHXN w V w K.w C 8XF yXT V K 0 2 o   o @ < V K W V   x HXHXHXHXHXHXHXHXHXHXHXHXHXHXHXHXHXHXHXHXHXHXHXHXHXHXHX",
"HXHXHXHXHXHXHXHXHXHXHXHXHXHXHXHXHXHXHXHXHXHX6 Z C ;.- s F 8XjXB 8 V 6 0 # = $     o 3 J T 3 . ;.HXHXHXHXHXHXHXHXHXHXHXHXHXHXHXHXHXHXHXHXHXHXHXHXHXHXHX",
"HXHXHXHXHXHXHXHXHXHXHXHXHXHXHXHXHXHXHXHXHXHXZ K d *.a t U 8XDXSXkXjXL 8 i HXg.-.= $ # HXp i o ;.HXHXHXHXHXHXHXHXHXHXHXHXHXHXHXHXHXHXHXHXHXHXHXHXHXHXHX",
"HXHXHXHXHXHXHXHXHXHXHXHXHXHXHXHXHXHXHXHXHXHXW L _.HXHXHX] x.DXjXqXT w HXHXHXyXd.f.#XHXHXHXHX*.x HXHXHXHXHXHXHXHXHXHXHXHXHXHXHXHXHXHXHXHXHXHXHXHXHXHXHX",
"HXHXHXHXHXHXHXHXHXHXHXHXHXHXHXHXHXHXHXHXHXHXhXC _.<.HXxX|.s.z.rXQ G 5 HXHXHXrX-.l.+XL HXHXHXHXB.HXHXHXHXHXHXHXHXHXHXHXHXHXHXHXHXHXHXHXHXHXHXHXHXHXHXHX",
"HXHXHXHXHXHXHXHXHXHXHXHXHXHXHXHXHXHXHXHXHXHXHXl HXHXw.:X*X>Xb.g HXHXHXHXHXHXf 7 S 7XgXHXHXHXHXHXHXHXHXHXHXHXHXHXHXHXHXHXHXHXHXHXHXHXHXHXHXHXHXHXHXHXHX",
"HXHXHXHXHXHXHXHXHXHXHXHXHXHXHXHXHXHXHXHXHXHXHXVX1.O.w.-.*X>Xl.HXHXHXHXHXHXHXI * 9 R HXHXHXHXHXHXHXHXHXHXHXHXHXHXHXHXHXHXHXHXHXHXHXHXHXHXHXHXHXHXHXHXHX",
"HXHXHXHXHXHXHXHXHXHXHXHXHXHXHXHXHXHXHXHXHXHXHX-.9.4.' t.-.c.z.HXHXHXHXHXHXHXs s % e W d HXHXHXHXHXHXHXHXHXHXHXHXHXHXHXHXHXHXHXHXHXHXHXHXHXHXHXHXHXHXHX",
"HXHXHXHXHXHXHXHXHXHXHXHXHXHXHXHXHXHXHXHXHXHX1.HX9.H.S.9.c.t HXHXHXHXHXHXHXHXD = % L gX7X8XHXHXHXHXHXHXHXHXHXHXHXHXHXHXHXHXHXHXHXHXHXHXHXHXHXHXHXHXHXHX",
"HXHXHXHXHXHXHXHXHXHXHXHXHXHXHXHXHXHXHXHXHXHXHXHXHXH.^.P._ ,.HXHXHXHXHXHXHXHX- # * d 9 9XSXDXHXHXHXHXHXHXHXHXHXHXHXHXHXHXHXHXHXHXHXHXHXHXHXHXHXHXHXHXHX",
"HXHXHXHXHXHXHXHXHXHXHXHXHXHXHXHXHXHXHXHXHXHXHXHXHXS.<XI.p.HXHXHXHXHXHXHXHXHXHX* d * * B K V 0 HXHXHXHXHXHXHXHXHXHXHXHXHXHXHXHXHXHXHXHXHXHXHXHXHXHXHXHX",
"HXHXHXHXHXHXHXHXHXHXHXHXHXHXHXHXHXHXHXHXHXHXHXHX9.0.<X2XI.HXHXHXHXHXHXHXHXHXHXHX% P r @ o o L HXHXHXHXHXHXHXHXHXHXHXHXHXHXHXHXHXHXHXHXHXHXHXHXHXHXHXHX",
"HXHXHXHXHXHXHXHXHXHXHXHXHXHXHXHXHXHXHXHXHXHXHXHXw.p.^.MX,XX.4.HXHXHXHXHXHXHXHXHXHXHX5 W 8XiXiXHXHXHXHXHXHXHXHXHXHXHXHXHXHXHXHXHXHXHXHXHXHXHXHXHXHXHXHX",
"HXHXHXHXHXHXHXHXHXHXHXHXHXHXHXHXHXHXHXHXHXHXHXHXs.hX-X>XzX].HXHXHXHXHXHXHXHXHXHXHXHXHXHXHXHXHXHXHXHXHXHXHXHXHXHXHXHXHXHXHXHXHXHXHXHXHXHXHXHXHXHXHXHXHX",
"HXHXHXHXHXHXHXHXHXHXHXHXHXHXHXHXHXHXHXHXHXHXHXHXj ] ] -.h s HXHXHXHXHXHXHXHXHXHXHXHXHXHXHXHXHXHXHXHXHXHXHXHXHXHXHXHXHXHXHXHXHXHXHXHXHXHXHXHXHXHXHXHXHX",
"HXHXHXHXHXHXHXHXHXHXHXHXHXHXHXHXHXHXHXHXHXHXHXHX% & t & % P HXHXHXHXHXHXHXHXHXHXHXHXHXHXHXHXHXHXHXHXHXHXHXHXHXHXHXHXHXHXHXHXHXHXHXHXHXHXHXHXHXHXHXHXHX",
"HXHXHXHXHXHXHXHXHXHXHXHXHXHXHXHXHXHXHXHXHXHXHXHXrXY - f tXHXHXHXHXHXHXHXHXHXHXHXHXHXHXHXHXHXHXHXHXHXHXHXHXHXHXHXHXHXHXHXHXHXHXHXHXHXHXHXHXHXHXHXHXHXHX",
"HXHXHXHXHXHXHXHXHXHXHXHXHXHXHXHXHXHXHXHXHXHXHXHXHXL tXR HXHXHXHXHXHXHXHXHXHXHXHXHXHXHXHXHXHXHXHXHXHXHXHXHXHXHXHXHXHXHXHXHXHXHXHXHXHXHXHXHXHXHXHXHXHXHX",
"HXHXHXHXHXHXHXHXHXHXHXHXHXHXHXHXHXHXHXHXHXHXHXHXHXHXHXHXHXHXHXHXHXHXHXHXHXHXHXHXHXHXHXHXHXHXHXHXHXHXHXHXHXHXHXHXHXHXHXHXHXHXHXHXHXHXHXHXHXHXHXHXHXHXHX",
"HXHXHXHXHXHXHXHXHXHXHXHXHXHXHXHXHXHXHXHXHXHXHXHXHXHXHXHXHXHXHXHXHXHXHXHXHXHXHXHXHXHXHXHXHXHXHXHXHXHXHXHXHXHXHXHXHXHXHXHXHXHXHXHXHXHXHXHXHXHXHXHXHXHXHX"
};
