/* XPM */
static char *result[] = {
/* columns rows colors chars-per-pixel */
"75 75 66 1 ",
"  c #1C1618",
". c #1D1618",
"X c #1D1619",
"o c #1D1719",
"O c #1E1719",
"+ c #1F1719",
"@ c #1F171A",
"# c #20171A",
"$ c #20181A",
"% c #21181A",
"& c #22181A",
"* c #22181B",
"= c #23181B",
"- c #23191B",
"; c #24191B",
": c #24191C",
"> c #25191C",
", c #26191C",
"< c #261A1C",
"1 c #261A1D",
"2 c #271A1D",
"3 c #281A1D",
"4 c #291B1E",
"5 c #2A1B1E",
"6 c #2D1C1F",
"7 c #331E22",
"8 c #341E22",
"9 c #341F22",
"0 c #341F23",
"q c #351F23",
"w c #361F23",
"e c #361F24",
"r c #362024",
"t c #372024",
"y c #382024",
"u c #392024",
"i c #392025",
"p c #3A2125",
"a c #3B2125",
"s c #3B2126",
"d c #412328",
"f c #402428",
"g c #412428",
"h c #422428",
"j c #422429",
"k c #432429",
"l c #442429",
"z c #44242A",
"x c #44252A",
"c c #45252A",
"v c #46252A",
"b c #46252B",
"n c #47252B",
"m c #47262B",
"M c #48262B",
"N c #48262C",
"B c #49262C",
"V c #4A262C",
"C c #4A272C",
"Z c #4B272C",
"A c #4B272D",
"S c #4C272D",
"D c #4D272D",
"F c #4D282D",
"G c #4D282E",
"H c #4E282E",
/* pixels */
"HHHHHHHHHHHHHHHHHHHHHHHq   mHHHHHHHHHHHHHHHHHHHHHHHHHH=   HHHHHHHHHHHHHHHHH",
"GHHHHHHHHHHHHHHHDSSSHHHrOOXcGGGHHHHHHHHFFSSHHHGSSSHHHH;   HHHGHHHHHHHGSSSHH",
"8HHHHHHH3   HHHA   .HHHHHHH;   cHHHHHHB   OHHHq   BHHHHHHH   -HHHHHHHq   SH",
"8HHHHHHH3   HHHA   .HHHHHHH;   cHHHHHHB   OHHHq   BHHHHHHH   -HHHHHHHq   SH",
"7HHHHHHH3   HHHZ   .HHHHHHH:   cHHHHHHB   OHHHq   BHHHHHHH   -HHHHHHHq   SH",
"7HHHHHHH3   HHHZ   .HHHHHHH:   cHHHHHHB   OHHHq   BHHHHHHH   -HHHHHHHq   SH",
"HHHH3   jHHH   @HHHHHHHw   vHHHHHHH   %HHHS   qHHHHHHH-   HHHHHHHB   qHHHO ",
"HHHH3   jHHH   @HHHHHHHw   vHHHHHHH   %HHHS   qHHHHHHH-   HHHHHHHB   qHHHO ",
"HHHH3   jHHH   +HHHHHHHw   bHHHHHHH   %HHHS   qHHHHHHH-   HHHHHHHB   qHHHO ",
"HHHHpqqqMHHHq00wHHHHrrrq990CHHHHHHHqq0tHHHG988fHHHywwwqqqqHHHHHHHS998fHHHq9",
"HHHHHHHHHHHHHHHHHHHH   qHHHHHHHHHHHHHHHHHHHHHHHHHH#   mHHHHHHHHHHHHHHHHHHHH",
"HHHHHHHHHHHHHHHHHHHH   qHHHHHHHHHHHHHHHHHHHHHHHHHH#   mHHHHHHHHHHHHHHHHHHHH",
"HHHHHHHHHHHHHHHHHHHH   qHHHHHHHHHHHHHHHHHHHHHHHHHH+   MHHHHHHHHHHHHHHHHHHHH",
"HHHHHHHH6*==HHHS<122kkkq2<,BHHHHHHHHHHC>,<3HHHa221dccv4==*HHHHHHHHHHHa222GH",
"HHHHHHHH2   HHHS    HHHq   BHHHHHHHHHHC   .HHHq   SHHH*   HHHHHHHHHHHq   GH",
"HHHHHHHH2   HHHS    HHHq   CHHHHHHHHHHA    HHHq   SHHH&   HHHHHHHHHHHq   HH",
"HHHHHHHH2   HHHF    HHHq   CHHHHHHHHHHA    HHHq   FHHH%   HHHHHHHHHHHq   HH",
"a222MHHH2   HHHHkkkkHHHMkkkGHHH6111HHHA    HHHMkkkHHHHxlllHHHV2223HHHq   HH",
"q   nHHH2   HHHHHHHHHHHHHHHHHHH:   HHHA    HHHHHHHHHHHHHHHHHHB   .HHHq   HH",
"q   nHHH2   HHHHHHHHHHHHHHHHHHH:   HHHA    HHHHHHHHHHHHHHHHHHB   .HHHq   HH",
"q   bHHH2   HHHHHHHHHHHHHHHHHHH:   HHHA    HHHHHHHHHHHHHHHHHHB   XHHHq   HH",
"HHHHHHHHHHHHHHHHHHHHHHHq   CHHHHHHHHHHHHHHHHHHHHHHHHHH&   HHHHHHHHHHHHHHHHH",
"HHHHHHHHHHHHHHHHHHHHHHHq   BHHHHHHHHHHHHHHHHHHHHHHHHHH*   HHHHHHHHHHHHHHHHH",
"HHHHHHHHHHHHHHHHHHHHHHHq   BHHHHHHHHHHHHHHHHHHHHHHHHHH*   HHHHHHHHHHHHHHHHH",
"SHHHASSSHHHHSAACCCVVHHHt###cAASHHHHSSAAHHHHVVVVVVCHHHH>OOOSSSSHHHHCVVSHHHCC",
"0HHH1   jHHH        HHHHHHH=   cHHH   %HHHS       CHHHHHHH   =HHHC   qHHHO ",
"9HHH2   jHHH        HHHHHHH-   cHHH   %HHHS       CHHHHHHH   =HHHC   qHHHO ",
"9HHH2   jHHH       .HHHHHHH;   cHHH   %HHHS       VHHHHHHH   -HHHV   qHHHO ",
"0HHH3   jHHH  ...XoOHHHGFFG>.  cHHH   &HHHSoOOOOoXBHHHHHHH   -HHHBXoOwHHH#X",
"HHHHHHHHHHHHHHHHHHHHHHHw   vHHHHHHHHHHHHHHHHHHHHHHHHHH-   HHHHHHHHHHHHHHHHH",
"HHHHHHHHHHHHHHHHHHHHHHHw   vHHHHHHHHHHHHHHHHHHHHHHHHHH-   HHHHHHHHHHHHHHHHH",
"HHHHHHHHHHHHHHHHHHHHHHHw   vHHHHHHHHHHHHHHHHHHHHHHHHHH-   HHHHHHHHHHHHHHHHH",
"fHHHHHHHaqqqHHHSqqqwHHHgqqqqqqqBHHHHHHAqqqeHHHhqqqSHHHyqqqqqqyHHHHHHHhqqqFH",
"8HHHHHHH3   HHHA   .HHHHHHH;   cHHHHHHB   OHHHq   BHHHHHHH   -HHHHHHHq   SH",
"8HHHHHHH3   HHHA   .HHHHHHH;   cHHHHHHB   OHHHq   BHHHHHHH   -HHHHHHHq   SH",
"9HHHHHHH3   HHHA    HHHHHHH-   cHHHHHHB   OHHHq   VHHHHHHH   -HHHHHHHq   SH",
"SHHH5OOojFDSO+#-BBBBHHHy%%$kAASHHHHOO+:CVBm%%%qBBBHHHH>OoXFDSSHHHC%%%qBBB=%",
"HHHH<   jHHH   +HHHHHHHq   MHHHHHHH   $HHHD   qHHHHHHH*   HHHHHHHZ   qHHHo ",
"HHHH>   jHHH   OHHHHHHHq   MHHHHHHH   #HHHG   qHHHHHHH*   HHHHHHHA   qHHH. ",
"HHHH>   kHHH   OHHHHHHHq   BHHHHHHH   #HHHG   qHHHHHHH*   HHHHHHHA   qHHH. ",
"HHHHMMMNFHHHMMMmHHHH---qnnmHHHHHHHHMMMMHHHHnnnCHHH>=**kMNNHHHHHHHHnnnCHHHnn",
"HHHHHHHHHHHHHHHHHHHH   qHHHHHHHHHHHHHHHHHHHHHHHHHHO   NHHHHHHHHHHHHHHHHHHHH",
"HHHHHHHHHHHHHHHHHHHH   qHHHHHHHHHHHHHHHHHHHHHHHHHH.   BHHHHHHHHHHHHHHHHHHHH",
"HHHHHHHHHHHHHHHHHHHH   qHHHHHHHHHHHHHHHHHHHHHHHHHH.   BHHHHHHHHHHHHHHHHHHHH",
"HHHHHHHH2   HHHF    HHHq   AHHHHHHHHHHA    HHHq   GHHH%   HHHHHHHHHHHq   HH",
"HHHHHHHH2   HHHF    HHHq   CHHHHHHHHHHA    HHHq   GHHH%   HHHHHHHHHHHq   HH",
"HHHHHHHH2   HHHD    HHHq   CHHHHHHHHHHA    HHHq   SHHH&   HHHHHHHHHHHq   HH",
"ZnmMHHHH2   HHHS----HHHi--=VHHHBNNNHHHA   .HHHu---SHHH2*&&HHHHMMmnHHHq   GH",
"w   cHHH2   HHHHHHHHHHHHHHHHHHH>   HHHC   .HHHHHHHHHHHHHHHHHHM   +HHHq   GH",
"w   cHHH3   HHHHHHHHHHHHHHHHHHH>   HHHC   .HHHHHHHHHHHHHHHHHHM   +HHHq   GH",
"w   zHHH3   HHHHHHHHHHHHHHHHHHH>   HHHV   oHHHHHHHHHHHHHHHHHHM   @HHHq   DH",
"i%##kHHH4XoOHHHHHHHHHHHABBVHHHH2XXXHHHB#$%=HHHHHHHHHHHSSDFHHHm+##:HHHy%%%SH",
"HHHHHHHHHHHHHHHHHHHHHHHq   nHHHHHHHHHHHHHHHHHHHHHHHHHH-   HHHHHHHHHHHHHHHHH",
"HHHHHHHHHHHHHHHHHHHHHHHq   bHHHHHHHHHHHHHHHHHHHHHHHHHH-   HHHHHHHHHHHHHHHHH",
"HHHHHHHHHHHHHHHHHHHHHHHw   bHHHHHHHHHHHHHHHHHHHHHHHHHH-   HHHHHHHHHHHHHHHHH",
"fHHHsqqqMHHHqqqqqqqqHHHgqqqqqqqBHHHqqqyHHHFqqqqqqqSHHHyqqqqqqyHHHSqqqgHHHwq",
"7HHH3   jHHH       .HHHHHHH:   cHHH   %HHHS       BHHHHHHH   -HHHB   qHHHO ",
"7HHH3   jHHH       .HHHHHHH:   cHHH   %HHHS       BHHHHHHH   -HHHB   qHHHO ",
"7HHH3   jHHH       .HHHHHHH:   cHHH   %HHHS       BHHHHHHH   -HHHB   qHHHO ",
"GHHHHHHHHHHHHHGGGFDSHHHeXX.cGHHHHHHHHHGHHHHDSSSSDFHHHH-   HHHHHHHHFDSGHHHFF",
"HHHHHHHHHHHHHHHHHHHHHHHq   bHHHHHHHHHHHHHHHHHHHHHHHHHH-   HHHHHHHHHHHHHHHHH",
"HHHHHHHHHHHHHHHHHHHHHHHq   nHHHHHHHHHHHHHHHHHHHHHHHHHH=   HHHHHHHHHHHHHHHHH",
"HHHHHHHHHHHHHHHHHHHHHHHq   mHHHHHHHHHHHHHHHHHHHHHHHHHH=   HHHHHHHHHHHHHHHHH",
"wHHHHHHH4OOOHHHA##$$HHHSCCC>++OcHHHHHHV+##%HHHt$$#AHHHSSSSOOO>HHHHHHHt$$$FH",
"0HHHHHHH3   HHHS    HHHHHHH%   cHHHHHHC   .HHHq   AHHHHHHH   *HHHHHHHq   GH",
"0HHHHHHH2   HHHS    HHHHHHH%   vHHHHHHC   .HHHq   SHHHHHHH   *HHHHHHHq   GH",
"qHHHHHHH2   HHHS    HHHHHHH#   vHHHHHHA    HHHq   SHHHHHHH   &HHHHHHHq   HH",
"HHHH;   kHHH   XHHHHHHHq   CHHHHHHH   +HHHH   qHHHHHHH%   HHHHHHHF   qHHH  ",
"HHHH-   kHHH   XHHHHHHHq   ZHHHHHHH   +HHHH   qHHHHHHH%   HHHHHHHG   qHHH  ",
"HHHH-   kHHH   XHHHHHHHq   AHHHHHHH   +HHHH   qHHHHHHH%   HHHHHHHG   qHHH  ",
"HHHH6211cHHH2223HHHHkkkq222AHHHHHHH1124HHHH222pHHHkkkk5111HHHHHHHG222pHHH22",
"HHHHHHHHHHHHHHHHHHHH   qHHHHHHHHHHHHHHHHHHHHHHHHHHX   BHHHHHHHHHHHHHHHHHHHH",
"HHHHHHHHHHHHHHHHHHHH   qHHHHHHHHHHHHHHHHHHHHHHHHHHO   NHHHHHHHHHHHHHHHHHHHH",
"HHHHHHHHHHHHHHHHHHHH   qHHHHHHHHHHHHHHHHHHHHHHHHHHO   MHHHHHHHHHHHHHHHHHHHH",
"HHHHHHHHBMmmHHHHzlkk222qkzxHHHHHHHHHHHHcxzkHHHNkkl4>>:dmmMHHHHHHHHHHHNkkkHH"
};
