/* XPM */
static char *result[] = {
/* columns rows colors chars-per-pixel */
"75 75 20 1 ",
"  c #040303",
". c #050404",
"X c #060404",
"o c #060405",
"O c #070505",
"+ c #090607",
"@ c #090707",
"# c #090708",
"$ c #0A0808",
"% c #0E0B0C",
"& c #0F0C0D",
"* c #100C0D",
"= c #110D0E",
"- c #171214",
"; c #191315",
": c #191415",
"> c #191416",
", c #1A1416",
"< c #1B1517",
"1 c #1C1618",
/* pixels */
"                                                                           ",
"                                                                           ",
"                                                                           ",
"                                                                           ",
"                                                                           ",
"                                                                           ",
"                                                                           ",
"                                                                           ",
"                                                                           ",
"          O###+            .####             ####             ####.        ",
"          =111:            $1111            o1111o            1111$        ",
"          =111:            $1111            o1111o            1111$        ",
"          =111:            $1111            o1111o            1111$        ",
"          =111;            $111<            o1111o            <111$        ",
"                                                                           ",
"                                                                           ",
"                                                                           ",
"                                                                           ",
"                                                                           ",
"                                                                           ",
"                                                                           ",
"                                                                           ",
"                                                                           ",
"                                                                           ",
"                                                                           ",
"                                                                           ",
"          .XooX             XXoo             oXXo             ooXX         ",
"          =111:            $1111            o1111o            1111$        ",
"          =111:            $1111            o1111o            1111$        ",
"          =111:            $1111            o1111o            1111$        ",
"          =111:            $1111            o1111o            1111$        ",
"          .XooX             XXoo             oXXo             ooXX         ",
"                                                                           ",
"                                                                           ",
"                                                                           ",
"                                                                           ",
"                                                                           ",
"                                                                           ",
"                                                                           ",
"                                                                           ",
"                                                                           ",
"                                                                           ",
"                                                                           ",
"                                                                           ",
"          =111;            $111<            o1111o            <111$        ",
"          =111:            $1111            o1111o            1111$        ",
"          =111:            $1111            o1111o            1111$        ",
"          =111:            $1111            o1111o            1111$        ",
"          O###@            .####             ####             ####.        ",
"                                                                           ",
"                                                                           ",
"                                                                           ",
"                                                                           ",
"                                                                           ",
"                                                                           ",
"                                                                           ",
"                                                                           ",
"                                                                           ",
"                                                                           ",
"                                                                           ",
"                                                                           ",
"          *,,,-            #,,,>            X,,,,X            >,,,#        ",
"          =111;            $1111            o1111o            1111$        ",
"          =111;            $1111            o1111o            1111$        ",
"          =111:            $1111            o1111o            1111$        ",
"          $&&&%            O&&&&            .&&&&.            &&&&O        ",
"                                                                           ",
"                                                                           ",
"                                                                           ",
"                                                                           ",
"                                                                           ",
"                                                                           ",
"                                                                           ",
"                                                                           ",
"                                                                           "
};
