/* XPM */
static char *result[] = {
/* columns rows colors chars-per-pixel */
"75 75 42 1 ",
"  c #050204",
". c #090406",
"X c #0D0608",
"o c #0E080A",
"O c #12070B",
"+ c #14090C",
"@ c #1A0B0F",
"# c #0E0D12",
"$ c #100F14",
"% c #1E0D11",
"& c #161116",
"* c #1F1011",
"= c #1D151A",
"- c #1F181F",
"; c #220D13",
": c #280F16",
"> c #241114",
", c #2B1416",
"< c #251219",
"1 c #2E1618",
"2 c #2F181A",
"3 c #301719",
"4 c #33191B",
"5 c #391D1E",
"6 c #1D1C25",
"7 c #241C24",
"8 c #281F28",
"9 c #3C1E20",
"0 c #1F2133",
"q c #24222C",
"w c #3F2022",
"e c #242534",
"r c #282733",
"t c #262937",
"y c #282A36",
"u c #262A39",
"i c #442324",
"p c #4A2627",
"a c #4C2729",
"s c #4E282A",
"d c #51292B",
"f c None",
/* pixels */
"fffffffffffffffffffffffffffffffffffffffffffffffffffffffffffffffffffffffffff",
"fffffffffffffffffffffffffffffffffffffffffffffffffffffffffffffffffffffffffff",
"ffffffffffffffffffff  .   .       . fffffffffffffffffffffffffffffffffffffff",
"ffffffffffff       O,55>2wwwww5,2w2*        fffffffffffffffffffffffffffffff",
"fffffffffff++OO@@+O*5aa5isdsdda5idi2OO@@+X+@fffffffffffffffffffffffffffffff",
"fffffff    2p45asp4455545w55555455442waai2iio    ffffffffffffffffffffffffff",
"ffffff%2>@*5p9wpai4>@@@%%@&@*@*@@*@>2wpai5ii>@@1> fffffffffffffffffffffffff",
"fffff 2dw444222223;O.              .@>422444445siO ffffffffffffffffffffffff",
"ffffO9i944:@XOoOOXXXX  OO.O.O.OO. .X.OOOO.OO;355wi> fffffffffffffffffffffff",
"fff %pi34,%X       O@.X+@@@@@@@@O ++..      +;325s2 fffffffffffffffffffffff",
"fff o294,@ .O@X X+O@;XX%;;;;;;;;+ @;OOO.     O>255* fffffffffffffffffffffff",
"fff O141@.X@%%O +%%;;..;;;*;;;;;+ @;@;@.     .O>44* fffffffffffffffffffffff",
"fff o39:X O;;:+ @;;;>..>:;;;;;:>+.@;;;;.    .  @24> fffffffffffffffffffffff",
"fff +31%..O%:;@ @;+;,O.>,,,,,>,,@ *>@@;O   .   @,4* fffffffffffffffffffffff",
"fff O33%X.O+@;+ @>@>1.X111113133@ *1@;@.  .    @,4* fffffffffffffffffffffff",
"fff O33%X +..%@ @121,O.,1,1,,,13@.*33,;.      .+,4% fffffffffffffffffffffff",
"fff X44>X.++@;@ %311,X.,::@@@;:>+ %3,,%X       %14; fffffffffffffffffffffff",
"fff o14,X O@;;O %311,..@;@@++;>;+ >1,:;X .X .  %14% fffffffffffffffffffffff",
"fff X,,;X  O+.  %1111. . .@:,243@ %1,3,..%;%.  @>2% fffffffffffffffffffffff",
"fff X,,%X .O%O. %3,1,O   .O%,323@ ;3,3,XX;:;O .+>,% fffffffffffffffffffffff",
"fff O,,%..+%;:+ @1,1,O   . .;,,3@ >211,XX%;;+X.@,,@ fffffffffffffffffffffff",
"fff X,:;.#8&.;+.*2,1,.      .@>,@.*1,1<XX;+X+o +:,@ fffffffffffffffffffffff",
"fff X,,;.#t6O;+.@211,o   .   +:3@.@2,1:XX;+X+o.+:3% fffffffffffffffffffffff",
"fff O33%.#0ur<O @312,O    . .+;3@ *311,XX;;%+X +,3; fffffffffffffffffffffff",
"fff O44>.#eq7;O.*1*>,O     .O@;*O.*,*>,OX;;;+X %,5% fffffffffffffffffffffff",
"fff O34,.$r-O;+.*,@*,O     +::;@X *,@*,X.;;;@X %44* fffffffffffffffffffffff",
"fff O33;..%%;;+ *3>11O . .+>2433@.*1>,,XX;;%+X @,4> fffffffffffffffffffffff",
"fff O3,%. X%;;@.@,,>*.   .@,4444* @>,,>XX;;;@X +:4* fffffffffffffffffffffff",
"fff X>:;o.@@;;+ +:;@+.   .@:,3,3@ X@*>%.X;;;@X.+:1@ fffffffffffffffffffffff",
"fff X,,;..OOO;@ @,13>O  .@>31113@.@,31:.X;+OOX @>,@ fffffffffffffffffffffff",
"fff o,,%..OX.;+ *1344O .+::>>,,,@.>522,OX;+.+X +>1% fffffffffffffffffffffff",
"fff O41%X.$@;;+.*,@*,O.@;;@O@@;:O >,@>>XX;;%+X +,4* fffffffffffffffffffffff",
"fff O43:X.O%%+X *,**,XX>,>***>:>@ *,@>,X +%%+X.@13; fffffffffffffffffffffff",
"fff O34:X.O++X  *111,XX,11444111@ *111,O  X++X %39% fffffffffffffffffffffff",
"fff O43;X.O%%@O *111,XX,111131,1@ *111,XX+%%@X @,9% fffffffffffffffffffffff",
"fff o21%..+@%;@ %1,1,XX,11,,1111@.*211>XX;;@+X +:4* fffffffffffffffffffffff",
"fff O,,%X #XX;+ %111,XX,11,1,1,1@ *111,XX;O OX @;1@ fffffffffffffffffffffff",
"fff O,,;X.+O+;+.*3111XX,1,1,1,11@.*211,XX;@O+X @:1% fffffffffffffffffffffff",
"fff X<<%X.+%;;+ %,,1,XX,1,>1,,,3@.*1,1>XX;;;%. +:,% fffffffffffffffffffffff",
"fff O1:%..+@;;@.O@*>*XX,31111133@ @>**+.X;;%%..@>1% fffffffffffffffffffffff",
"fff X>1%X.O%;>+ O*,:>X.*,:,>,:>>+ @>,>@XX*>%@X +>1@ fffffffffffffffffffffff",
"fff X,,;. O%;:@ *543,X.+@>;;;;;+X.*2441XX*:%@. +>1@ fffffffffffffffffffffff",
"fff O1,;..O;;:+ >1*,1X.>,,,>>11,+ *1>11X.%:%+O.@,3@ fffffffffffffffffffffff",
"fff O33%. @@%;+ *,@*,XO4541,1345*.*,+*1XX;;%+..+,4> fffffffffffffffffffffff",
"fff X,,;..+..%@ *1,,,XX14,,1,111@.*1>1>XX;O.OX.+:1@ fffffffffffffffffffffff",
"fff X,,%..+OO%@ *111,XX>1,1,11,1@ *112,XX;@OOO.+:1@ fffffffffffffffffffffff",
"fff X,,;O.O%;:@ @1,1,XX,1,,,,,11@ *1,1,XX;;;@..+>1@ fffffffffffffffffffffff",
"fff O,:%. .O+O..*111,XX,1,11,111@.*111,X..++...+,1@ fffffffffffffffffffffff",
"fff O,,;.  O%X  *1,1,XX,1,,11,11@ @311,O X++.  +:1@ fffffffffffffffffffffff",
"fff X,,%X O%;%+ *111,XX111,111,1@.*112,..%;%+. %:,@ fffffffffffffffffffffff",
"fff X,:;. +++;@ @1*>,XX@>>***>>>+ *1*>,.X;%+%X O>,@ fffffffffffffffffffffff",
"fff X,,%X.+..%@ *,@*,O.O*>++O*>+..*,+>,oX;O OX %,1@ fffffffffffffffffffffff",
"fff X>,;X +@%;@.*1>,,XX>131,111,+ *2<,1XX;%@@. O:1@ fffffffffffffffffffffff",
"fff o,,;X +%;;+ @>,,>XX,44444441* @,:<;.X%;%O..%:,@ fffffffffffffffffffffff",
"fff X,,%X +%;;@ X@>@O.X,1,1,1111@ .@;%+ X;%O.  %:1@ fffffffffffffffffffffff",
"fff O,>@ X+;;;+ @,,,>XX,11,1,,,1* @,11%XX@OX   O%,@ fffffffffffffffffffffff",
"fff o,>O. +%;;+ >4454XX,11,,,,11@ >5242O OX    o@,@ fffffffffffffffffffffff",
"fff X>>OX X%;;+.*,@>1XX,11111111@ *,@,1O @X    .@,* fffffffffffffffffffffff",
"fff O,>@ o=;;;+.*,@>,XX>,*>>>>>,@.*,@*,X.OX   .O*,* fffffffffffffffffffffff",
"fff X,1%.$t7;;+ *1,1,XX*@O+OOOO>+ *311,X.OX    %>1@ fffffffffffffffffffffff",
"fff X,>@ #et8:+.*1131XX,,*>>>*>1@.*2111X.%+X   O;,@ fffffffffffffffffffffff",
"fff o,>O #0tq<+ @,,,>XX4421,1115*.@,,,>.X;;O. ..@1* fffffffffffffffffffffff",
"fff O1;O $u7%;@.X@*>>XX11,,,,1,2@.@;*@+ X;:%@X X@,@ fffffffffffffffffffffff",
"fff .;%O.#6;++O O%:,>XX11,11,112@ @,1,*..;;%@o X@>@ fffffffffffffffffffffff",
"fff .O@O..o%%.  @>44,XX,2,,1,111@ >2452O.;;;+X O@OX fffffffffffffffffffffff",
"fff .O+O.  oo   @;%>,O @%>>;;>%%X.*,*>2X.>;@@X X@OX fffffffffffffffffffffff",
"fff .+@o.    .  @;@;,O @>>>;;::%o >>@>,X.;>;@. XOOo fffffffffffffffffffffff",
"fff .o@+. .     @;,1,XX4441,,144% *1,1>X.;;;@X.O@OX fffffffffffffffffffffff",
"fff .O@+.       @;,1,XX342111244% %41,:XX;;;+O X@+X fffffffffffffffffffffff",
"fff .++oX  . .  +:,1,XX,1,,,,,,1@ %21:%.X;;%+X.XO@X fffffffffffffffffffffff",
"fff .@o. .  .  .@:;:;.X;:;:;>;::@ @:;:%.X;O.+X  .@o fffffffffffffffffffffff",
"fff .o.   ..    O%;;;..;;;;;;;;;O @;;:;.X:@X+O.  Xo fffffffffffffffffffffff",
"fff .    .   .   X%:;X.;;;;;;;:;@ @:;;;.X;;;@o    . fffffffffffffffffffffff",
"fffffffffffffffffffffffffffffffffffffffffffffffffffffffffffffffffffffffffff",
"fffffffffffffffffffffffffffffffffffffffffffffffffffffffffffffffffffffffffff"
};
