/* XPM */
static char *result[] = {
/* columns rows colors chars-per-pixel */
"75 75 196 2 ",
"   c #4A4849",
".  c #4E4C4D",
"X  c #565455",
"o  c #3D3B3C",
"O  c #333132",
"+  c #312F30",
"@  c #353334",
"#  c #363435",
"$  c #393836",
"%  c #363533",
"&  c #3B3A38",
"*  c #454442",
"=  c #444341",
"-  c #464543",
";  c #302F2D",
":  c #272624",
">  c #52514F",
",  c #565553",
"<  c #4F4E4C",
"1  c #595856",
"2  c #545351",
"3  c #41403E",
"4  c #434240",
"5  c #3F3E3C",
"6  c #3D3C3A",
"7  c #373634",
"8  c #302E2F",
"9  c #1D1B1C",
"0  c #535152",
"q  c #4C4A4B",
"w  c #575556",
"e  c #424041",
"r  c #343233",
"t  c #393738",
"y  c #373536",
"u  c #383637",
"i  c #3A3839",
"p  c #3C3A3B",
"a  c #454344",
"s  c #2D2B2C",
"d  c #514F50",
"f  c #323031",
"g  c #1B191A",
"h  c #4F4D4E",
"j  c #545253",
"k  c #2F2D2E",
"l  c #333230",
"z  c #474644",
"x  c #4A4947",
"c  c #4C4B49",
"v  c #403F3D",
"b  c #1C1B19",
"n  c #343331",
"m  c #535250",
"M  c #555452",
"N  c #575654",
"B  c #484745",
"V  c #3B393A",
"C  c #232122",
"Z  c #403E3F",
"A  c #555354",
"S  c #4D4B4C",
"D  c #413F40",
"F  c #444243",
"G  c #434142",
"H  c #252324",
"J  c #262425",
"K  c #525051",
"L  c #484647",
"P  c #2C2A2B",
"I  c #2E2C2D",
"U  c #1A1819",
"Y  c #504E4F",
"T  c #3C3B39",
"R  c #42413F",
"E  c #494846",
"W  c #21201E",
"Q  c #282725",
"!  c #585755",
"~  c #3E3D3B",
"^  c #3A3937",
"/  c #282627",
"(  c #191718",
")  c #3E3C3D",
"_  c #272526",
"`  c #1E1C1D",
"'  c #5A5859",
"]  c #2B292A",
"[  c #201E1F",
"{  c #181617",
"}  c #4D4C4A",
"|  c #2E2D2B",
" . c #22211F",
".. c #4E4D4B",
"X. c #5C5B59",
"o. c #3F3D3E",
"O. c #211F20",
"+. c #494748",
"@. c #383735",
"#. c #262523",
"$. c #31302E",
"%. c #2D2C2A",
"&. c #141213",
"*. c #222021",
"=. c #464445",
"-. c #1C1A1B",
";. c #2A2829",
":. c #242223",
">. c #151314",
",. c #292728",
"<. c #242321",
"1. c #232220",
"2. c #2F2E2C",
"3. c #32312F",
"4. c #585657",
"5. c #4B494A",
"6. c #2C2B29",
"7. c #353432",
"8. c #474546",
"9. c #4B4A48",
"0. c #2B2A28",
"q. c #504F4D",
"w. c #51504E",
"e. c #201F1D",
"r. c #2A2927",
"t. c #161415",
"y. c #1F1D1E",
"u. c #5C5A5B",
"i. c #1D1C1A",
"p. c #5B595A",
"a. c #1F1E1C",
"s. c #393937",
"d. c #31312F",
"f. c #4B4746",
"g. c #595554",
"h. c #565251",
"j. c #383836",
"k. c #30302E",
"l. c #514D4C",
"z. c #464241",
"x. c #1B1A18",
"c. c #5B5A58",
"v. c #1E1D1B",
"b. c #5E5D5B",
"n. c #323230",
"m. c #4C4847",
"M. c #191816",
"N. c #353533",
"B. c #444041",
"V. c #171614",
"C. c #1B1718",
"Z. c #595758",
"A. c #252422",
"S. c #171516",
"D. c #5A5957",
"F. c #5D5C5A",
"G. c #313131",
"H. c gray18",
"J. c #504C4D",
"K. c #514D4E",
"L. c #2D2D2D",
"P. c #4D494A",
"I. c #565253",
"U. c #534F50",
"Y. c #393536",
"T. c #292826",
"R. c #312D2E",
"E. c #302C2D",
"W. c #2F2F2F",
"Q. c #5F5D5E",
"!. c #5F5E5C",
"~. c #5D5B5C",
"^. c #1A1917",
"/. c #605E5F",
"(. c #181715",
"). c #54504F",
"_. c #4F4B4A",
"`. c #4A4645",
"'. c #3C3837",
"]. c #312D2C",
"[. c #524E4D",
"{. c #555150",
"}. c #2D2928",
"|. c #383433",
" X c #44403F",
".X c #332F2E",
"XX c #534F4E",
"oX c #3D3938",
"OX c #3A3635",
"+X c #373332",
"@X c #585453",
"#X c #504C4B",
"$X c #353535",
"%X c gray20",
"&X c gray22",
"*X c white",
/* pixels */
"  . X o O + @ # $ % & * = - - ; : > , < 1 2 - 3 3 4 5 6 5 & 7 $ # 8 9 @ 0 q . w e # r t y @ u i p o e a s 9 q 0 . d X # @ u r u u f # u # o # g + h . ",
"j   q d r k r O l $ 5 - z x c v b n m M , N B * = = 3 & $ v v $ p V C 9 Z A S . X D r r r y i y o F Z Z G H J . h 0 K L P + @ # @ @ t t y u y I U # h ",
"u S Y w G r f # $ & T R - = - E = W Q x > ! N ~ R ~ 5 = R & ^ ~ y f y / ( + S Y j G # t V f f ) G o D G o i _ ` G h K ' o 8 # O r O O # u @ # o ] [ _ ",
"{ C V . Y @ O r % & 5 = * 4 4 z } c |  .n ..X.< 4 - * 4 R 5 ^ $ f p f # r U [ ) . A G + u V @ t @ p o.Z r G D I U + e Y Y 8 8 O @ u # O r @ f k i H O.",
"k J ` C +.F 8 O ^ % @.^ @.7 7 $ 4 z > v #. .$...v & = - @.@.^ %.I @ O f O @ s &.*.) =.i u u # t p y + y O p p Z # H -.s q i I r 8 f f k ;.s r # # @ f ",
"# k s :.>.,.k r l % 7 l 5 2 ..T 3 B B * z $ <.1.2.v 6 @.T 3.; z 4.p y + I y @ @ ,.` O.8 t V t O 8 V A Y o e o.F p o.+ ` { k k 8 # f P k F w 5.I r t + ",
"O + s O P I ] r l 6.7 } 1 x @.5 3 z E } - 4 E 7 T v v 7.; 3 m m o s O # y u k r # + f y u y r + q A d r y F D e G p p o P I s @ I s i K w ) P 8 + # y ",
"f @ + s # 8 @ I : 3 m ..E 6 3.3 z 5 = - - B = - 4 4 $.$.c M E - f # O + O f r y # i u i i k u 4.d . o u L Z a a e o o.u t @ # ] I 5.X S 8.i k r u f u ",
"t # u 8 u O f J 3 ..E x R 3.= R * B 3 x c - } z x 3.3.c ..B x @.r u i y # r f @ i i t t ] o.Y . 5.q 8 F e a L e a D o.D u t s s   K q S o s O @ u t t ",
"# # r @ u u / i > z } 9.2.T 3 x E x - 4 x c B c 6 0.x < B q.& ; V i u r O O O @ @ p e ] # 5.0 h K f p o.q   5.8.) 8.F =.i y ,.F . a h F I r t i t i i ",
"p ) t p r I I h B x z n $ 4 = ..x 9.x * 9.w.c E | 3 } B } z $.n V i i t y # y @ V t r I q j . . p + F a +.S . =.+.  F o Z k y q   0 8.r # u y u u i i ",
"o o i o O ;.a 5.} - 5 ; v 3 x B < < c c z x ..@.l < < } 3 $.& ~ D Z o V # @ t y f t ] ) h 0 L p f p e +.L +.+.q =.8.a D u ]   q L F O s t y i V t p o ",
"p Z ) V ] O 0 L ^ | $.T 3 4 v E x } > , > q.E %.E q.B 7.$.~ = 5 i ) V V i V ) u D 8 k 0 h ) # f Z e G t G 5.  S 5.q e =./ G h   V _ k + V @ I @ y V ) ",
"V o.t u ;.=.i / | n 7 6 ~ ; ~ v x x < 9.q.> ^ ; x @.; 7.= = @.6 O o.V t p ) D i r _ a D 8 8 o e 8.F + ) D G L   S +.  o ,.  r ] ,.P u r r I y 8 8 O y ",
"y e Z r >.,._ @ $ ^ 5 6 $ e.q...* * ..} 2 } 0. .%.@.4 E 4 z B r.f q +.) t y o p t t./ ] O Z a     D y.a h Z G q Y   h ;.9 s ,.s k f # r :.O.K G i @ O ",
"t V ) D @ r @ # ^ T T v 3 W 0., N ..z x < } - 6 z E 4 B 9.- = & (   ' 0 8.i p p Z f y D o 8.G   +.L + H w u.d F +.. h G r i V y u r O r r -.i A 0 a t ",
"L V p o.e t V t ^ & 3 $ ~ 3.i.4 q.m N 9.* x } B x x E z * 4 R v J ] 5.d p.. & 3 5 ~ v 3 3 4 - E 9.v * a.~ w.N X.x - q.B z R T & s.d.l 3.7 Q i.9.f.g.h.",
"A d o p V F t u 7 % $ ^ ~ 7 Q r.} E < M * z E c c 9.E z * 4 3 v y -.D 0 a ' N T ^ 3 = R = = R 4 = < z l  .q.} > X...5 q.B - v $ j.k.l 3.% 2. .n l.z.l.",
"=.d Y ) V D D y $ % n T T & 7 x.6 q.9.< c.R z B 9.x B - = R v v e ] y.Y K +.0 A 6 ~ v 3 3 3 3 3 z * 9.z v.T > < } b.< 3 B 4 v 6 j.n.3.; 3.l Q v.= c m.",
"S =.Y +.D t D i $ $ % T ^ T R 6.e.* w.9...1 3 9.B z - * 4 R 3 v p p 9 ;.. j L K } ~ T 4 R v 3 v 4 } B E ^ M.= ! } ..N * z z 4 & s.N.3.2.; 7.$. .<.E l.",
"q . Y K i p o o.@.^ $ T 6 T 5 5 Q x.- w.} ..> 5 * * - - * = R 3 ) D y ` ,.8.w S q.R @.T 4 4 v 3 E R q.z B % a.^ m > M > v z 5 ~ i t O f f f r + ` _ B.",
"_ o q 0 S e V Z & T T T ~ ^ 7.6 v 7.V.$.E M 2 * 4 * z B B - 4 3 o V Z @ J ` o.L q.2 v n R z v * * * - - z z 7 v.; z m 1 c ~ 5 R V V @ f 8 P s f r :.C.",
"C O.s Z Z.G i Z 3 5 6 & $ $ $ % 6 v 3 #.v.7.2 ! 3 4 z B z = 5 T y r V i i ;.g ,.a 0 x & v * R = ~ - * $ 6 v = v A.e.7 < , v * T o i y 8 s 8 k I k t ] ",
"# O C O.;.o.e e 4 v T $ 3.T E ^ 6 3 = * & A.v.@.5 3 * z * v ^ % G =.@ ) p p r J S.,.T ~ $ 5 * 3 v l $ E ~ 5 v = = 7 1.e.3.* T v o.t u k 8 ) o O @ f t ",
"# u y t C ;.o e E ~ l 6 , N R @.~ * B B x z ^ 6.l E - * 3 n R D.K o y o.Z p i y # / J O o G ~ @.7 c F.E ^ 4 * = - T 4 $ Q 2.~ - o.f k D A Y i ;.+ O # ",
"# @ i # o i D a 7 ^ } , > R 7.= * z - * E ..9.* x z * l & ! 1 > o # t ) p i p i p O @ ) G u n = , 1 - % ~ = 4 = v z R T R 6 - * r p q w . i s ] 8 f r ",
"# f y o G ) F @ % , 2 q.9.7 @.4 - - * = B } < } B = $.= , q.w.* r y o ) u t V u # V o.t O 8 . A 2 < % 7 z * 4 4 5 = 6 3 R v T 3.o K A q =.O H k I 8 G.",
"O f y ) u o.@ f > 2 < q.~ l * v = R R 4 * B x E E | 3 M > m E @.V V o i # y u r @ ) @ O ] +.0 . < 5 n T ~ 6 3 ~ 6 & & = ^ 5 $.@.A q q   t I 8 8 s I H.",
"I + i # t o / 5.M 9.N B 7 v 4 z * R 3 R R z 9.E 5 | q.> } N 6 l o i t u @ r @ r y r r _ e 0 8.K E l % T $ 5 v @.^ T T T T n ; } J.K.Y D s k @ I s s L.",
"I 8 r y p P V w q.m x l T 9.4 E z = * * 4 - z v 6.} q.2 w.@.n & ) p p p t r r y @ 8 ] f 0 S h 5.% ; & ~ 5 = 5 6 & $ ~ % ^ : 4 > P.I.G P k @ + 8 I I H.",
"+ 8 k t r P d q w.R 3.6 = 4 E * * * E E * * 5 $.~ N , E 7 $.v R ) ) ) ) p t u t # O C h S h G s % & 6 & T ~ 5 4 ~ @.5 ^ 3.7 N < U.Y.s r r + O @ H.H.H.",
"f + @ + ,.8.. L $.7.T z c * R 4 - - E E * - ~ %.m c 5 ; l 6 ~ ~ p V t u V o p i # / e L L r P r ^ ~ @.^ T T R v 4 = 5 $ T.9.E 3 R.E.# p u @ @ f W.W.W.",
"+ 8 O k C V 8 s O G L =.G J a ) 6 5 - 3 z 4 r.%.$ 2.l T 5 4 T : + Z p u o V V u O :.t @ J r i ) & 5 0.~ 5 T 3 = E R v $.T.^ 6.6.r V G i I P Z O f I + ",
"k r O k O.;.8 V Z D e =.G O.S Q.} ~ ~ 4 * ~ %.#.@.% T 3 ~ ~ & 2._ X Y a t 8 o.@ f ` _ s f ) o Z = ~ v.@.F.} v R - z - ; #.Q ^ @.) o o.V @ :.K w D y I ",
"y f k @ I k p ) o e Z   e 8 :.w c.X.* ^ 3 R v ^ & 5 * * v 6 & % U G ' u.S G O V p r @ y i o p e 4 T l A.} M c.B R & z ^ % $ T & i i V Z u -.y 0 u.A e ",
"K F O I r # p V p e o.F Z F -.o 2 m !.m 3 R v R 3 = * 4 3 5 T ^ ;.[ h h ' ~.L i V o t y V ) ) p 6 3 5 e.3.> ! ! 2 4 v v ~ B % & u p # ) @ ] 9 8.. Y w ",
"0 j G P f r f p ) V ) o.G e o :...m > c.M ~ ^ v R = 3 ~ ~ 6 T T t y.+ j Y w Z.8.@ y y t y t o.p & 4 & % W x < w.! , 3 v 6 6 ^ T t p r i @ V O.+ K   d ",
"5.h d Z k r u i V t o.e F F e H l 1 q.c F.< v v ~ 3 v T ^ ^ & 6 i I ` =.j K Y Z.e t i o.y f t p T 5 v R <.T.< q.< , > ~ ~ $ T ^ r @ O # y y k S.V d q ",
"K h d d k + p t p e o.=.F h F L v.; F.m q.!.= & ~ 3 4 3 6 6 ~ ~ Z u P S.+.K A j j p O u i i u y 5 3 3 ~ v ^.$.w.2 > c.* & $ @.7 @ @ O r # r i H { F w.",
"e K   w e O r o o.=.G q 5.8.h . 4  .r.} N , w.= R R * - 4 4 4 ~ o.Z p P g ) . K ' L o u t p i ) v = 3 v * & v.T.9.< > c.v $ ~ ^ y V # u @ y 8 # / -.$.",
"t.s 8.A K @ y o.e L =.a 5.  =.  2 B %.a.7 N D.x 4 * * 9.9.= R ~ 6 v v v 7.a.#.B 2 c.^ = ^ = 5 v R z B R z R R 0.i.$ ..! ..6 & ~ o ) y t u O y # 7 %. .",
"# [ U 8 Y F y t a L 8.+.a ) D Z c c w.R 1.e.~ ! R z 9.9.3 5 - & % @.& 5 3 $ T.b Q ....@.= R 5 R = 3 & ^ % c c R & Q a.T q.4 T 4 V i o.V 8 + y y 6 $ 7.",
"t V f ` *.,.@ =.o.G +.p y Y w ) ..m > w.} @.<. .n R 9.* 9.R ; * ! = ^ T ~ R 3 7 T.^.r.T z - 4 v 7 ^ m 1 5 z x x = B $ Q A.; v * a ) i + ) X E 3.& T 6 ",
"t V @ f r 8 r u Z u i 8./.' p a 9...w.} z z 4 $ ^ 9.B v l & D.1 z $ 6 z R 6 ~ ~ ~ ^ 7 & T 4 ^ % z b.1 7 R 9.c q.z 4 = - 3 ~ 4 * ) O y . Q.q n & T T T ",
"V t + i u O o o I D 4.Q.j D V L w.< > m ..x E * = z 7.l > F.w.q.@.& 5 5 ~ v 3 v 5 3 4 = R 3.v 2 D.m 4 $ E x } z 9.- x E 4 z B T I   j A ..$ $.7.6 T & ",
"r o.t t # p V ;.e X Y 0 q t a Y c w.} } m ..z 9.B @.2...! } q.~ % ~ 6 @.^ 6 6 ~ 5 ^ ~ 3 | ~ ! > ..w.$ 6 z < 9.E E 5 R z 9.c 5 ; 5.X A Y 6 $.$ 7 & ^ ^ ",
"u i t p V V k # X j 0 . V o K 5.q.9.} c E < w.z = $.x N q., E $.~ v v v ~ ^ & R 3 = ~ 7.l ..2 > 2 @.l x - c < c x x c c } 4 7 v 0 Y < z 7 l & ^ 6 6 6 ",
") t ) ) V # _ d K q K ) #   . d ....} } q...x 9.$.& > q.> c l T 4 3 v v ~ T T 6 5 5 R : ..> < 2 = 3.5 = 9.9...x 9.x * z c $ l D.K j < 7 $.~ 5 5 & T T ",
"o.o 5 & T Q B q.2 c 5 3.R x < q...> q.9.m ..< ~ ; w.2 q.B % 7 v 5 R 5 R T 3 6 3 5 5 : 3 m 2 q.5 n T R 3 - c ..< 9.} c z 3 0.w.w.2 } 7 7.$ ^ 3 & 6 6 T ",
") o ~ T | % w.} R 7.%.T x ..= x ..c m q.9.< 9.Q = , } T $.3.v 3 ~ $ R T 5 5 R $ v n 7.w.M - @.2.T T = ~ 3 3 z c < } c 5 ; 3 D...T 3.6.6 @.T n @.7 T 5 ",
"V Z Z ) : 5 = n r.n 5 B 6 n R 9.9.< } q.2 ..$ n < 6 0.; @.6 R n n % $ T 3 7 = * ^ %.3 * l T.$.6 v ^ %.@.6 ^ R x ..z E 5 %.c 3 3.| T ~ ~ l | 2.7 % @.& ",
"# o V f i.; 6.0.@.T v v 6 : x z R B E c 9.c | W 0.n 6 = 3 5 T T.6.< T ^ & ~ R $ & a.T.6.l $ 5 T 7 6 A.= B T ^ v 4 z B l M.| : % ~ 6 4 T 2.A...~ l 3.n ",
"u y ) u P 8 3.6 ^ & R R v v.@.X.! c B > > > & % R 4 v v 3 R T | g h Z.h V t t V i ,.f t Z u p ) Z t [ 8 A ' +.p F L 8.@ I i t o ^ 3 5 ^ % (.5 F.c v n ",
"F f i i V u ^ ^ & ^ $ 5 4 7.i.c 2 1 m - R w.w.E 9.B * - * 6 @.$ C J Y w A q ) i D o p o o.t V t t r y U ) A w X Z ) 8.=.D u o.i 4 & 7 5 7 : : E 2 > w.",
"w 8.) # V ) o.i @.6 @.T T 4 v.6.< ..1 ! B R c z - E - T ^ ~ ~ $ ;.-.G h K A q o.# p ) o.i o.) i u @ o.O.] L K Y u.+.o Z F V e p 7 3 & & & l ^.% E c ..",
"  w   y y i u p n @.7 T 7 v 7.a.4 w.< q.b.- v B 9.= 4 3 ^ @.7 7.# O.J L 5.d K Y ) y p F t p @ t t V r r 9 p Y Y d A =.o.e Z ) i T @.% $ T 7.: e.B c } ",
"+.q 0 D f t t @ f t 7 7 $ 6 ~ 0.a.9.> .., < * 4 * 5 3 6 & T 7 $ u P 9 8 h h 5.w =.i o o.) o # i t t y o ] *.e Y Y d A o.o Z ) t u @ u t # V O ` P L S ",
". L h K p s @ V @ r 7.l 6 v % T A.1.- q...N x R 3 R * 6 $ ~ & $ # V ] S.k d d q X Z @ i p V p t u p i t y C [ a h . K j y # i y r y # O f @ O P ( s a ",
",.=.h Y L t # # ) u o t @.5 ~ v 3 | b ^ < 2 X.5 4 R = 3 v 5 T ~ # y # f 9 y.G d j 0 p i a ) i i p y i O u o / g +   Y X G u y u t 8 u o.r 8 @ f s 9 9 ",
"( U 8 K 0 o y u i Z # t ~ n l $ 3 v T e.A.4 9.N T = z R 3 v ^ n # I f + 8 ,.9 P =.X G O p o i ) p r 8 + f @ @ + y.*.u Y A V u t # y + k # O P 8 y P H ",
"8 / { ( @ D @ t t i i u I # - % u o D D P -.s Z V V i o.D t f f i o.f + f P ;.` y.I Z V O i V t O I y Z u O u u u _ g y.D p 8 i r r O s ] t ) 8 / 8 f ",
"s ,.8 J 9 C ] u V r 8 + L w = n V i ) e o.# ;.` s p o.V + s o 0 j + f O ;.f @ 8 P ` C ;.y Z # k + e u.  k O # f r f u I { s @ r @ O ;.O Y K i ] s I I ",
"_ ;.,._ P s P r ] P e A j e 8 y V i i t ) p # ) O o.r ] t . X . t r s f + ;.k 8 8 f O @ # I s ) j ' L I k @ + i # r + r P # # y ] O F K . i s s ] ] P ",
"P s / s k k O ;.s h K S 5.t 8 @ y t t i p p p u i @ P o K Y q   + k + + 8 8 I I + @ r y 8 k 8.4.h S y r r + t + O @ y y V @ t ,.# S A . G f / s I s ,.",
"k P ] s 8 8 I / E > 9.} 5 2.% ^ ^ ~ n ^ T 7 3 6 6 <.^ > ..> 9.n O 8 + f f k P 8 O f r f ;.a d K 5.+.s i u i @ r u t r o u o P + )._._.`.'.].I + k P P ",
"I I 8 f O I _ F 2 E , E $.$ 6 T T ^ & & T ~ T & 6.$.w.q.9.q.^ ; t i t r 8 + + 8 8 t y H D j d Y . f o.i o u u y # @ o y ) V / K [.m.{.z.}.|.8 @ O 8 k ",
"r + k I + ;.f 0 q.} z 7 7 ~ ~ v 3 T ~ T & R 3 6 0.4 < q...~ l @.r i # # t + ] O r + ;.+ Y Y h Y # @ o.u o o o i ) t i i y s ) j ).[. X}.|..X@ V # r f ",
"f # # f s ;.S Y q.= 7.7.~ 3 E = R = v = 3 ~ ~ %.n ! m E 5 $.% @.i D i # t y r O f + _ L j Y =.f @ F D =.F ) V t y p V G I 8 ' q XXz.].oXOX+Xu # # @ r ",
"i i 8 f _ i j e % 2.7 ~ * 3 z 4 = z - x E * ~ 6.q.c 5 2.%.7 ~ 5 V # # ) p t o y u s + Y   u 8 t 8.F G p t i o.t o.Z o # ;.L . F l Q 6 & 5 2.y 8 @ y u ",
"O # s u *.o.f P $.5 - B 3 r.6 3 = 3 x B 9.9.n r.5 $.2.6 R R ~ | 8 o.t t o.i i ) O O.o r ] @ ) 8.8.a P t o.V i V o V o r / F I ] $.3 R T ; r.r r + f r ",
"r u O 8 &./ J t 6 4 * B ^  .c 1 B = x - 9.- r.1.| ~ 3 - 3 6 Z ;./ 4.K t p ) ) o t S.I + r D a 8.L   C F u.+.# ) i i V 8 g ,.O p 5 4 R T n 1.K S V @ 8 ",
"r O y r + + u @ & 3 * v 9.Q r., X., * v E B R 3 R 3 = 5 R - V u U o X ~.5.u o V i y + i o D o   +.=.y *.h /.X D u t o y u i p V ~ ~ 5 v ^ i.# X Z.5.o ",
"K Z + + @ # O i T v 4 - R 5 v.v M M b.} 5 * c v 4 4 e Z ) V i t J H +.K w X e i t # y t t i o ) o.=.i H # w d ' Y o O y V V i u t ) o # o P a.x < 2 @X",
"0 h e O + y r r 7.T 6 3 3 = 6.T.....M , m R 3 - 4 R D o.p V t u f { y w +.d ' G u @ @ y # y i V o ) Z 8 H G Y K w q o O f @ y y # @ # # p f  .2.E ..#X",
". A Y # k u y r 7.^ ^ R = z ~ x.5 > m M b.- 5 * G D o.o V i t u r / [ L d . 0 j t # # y @ @ u u o o a p 9 r K . d A L r + # # r $XG.%X&XV t 6.^.z c #X"
};
