/* XPM */
static char *result[] = {
/* columns rows colors chars-per-pixel */
"75 75 81 1 ",
"  c #020101",
". c #090502",
"X c #0E0A06",
"o c #040609",
"O c #060A0C",
"+ c #090B0D",
"@ c #120B07",
"# c #150E09",
"$ c #190F09",
"% c #17100A",
"& c #1C120B",
"* c #0B0E11",
"= c #0E1114",
"- c #111416",
"; c #131619",
": c #16191C",
"> c #191B1E",
", c #23140B",
"< c #26190F",
"1 c #29190E",
"2 c #261A10",
"3 c #2B1D12",
"4 c #321F12",
"5 c #2E2115",
"6 c #322316",
"7 c #3A2516",
"8 c #352619",
"9 c #392718",
"0 c #37281A",
"q c #3C2B1C",
"w c #1B1E21",
"e c #1E2124",
"r c #212326",
"t c #24262A",
"y c #26292D",
"u c #292A2E",
"i c #2C2D32",
"p c #2E3134",
"a c #313236",
"s c #34353A",
"d c #38373C",
"f c #36383C",
"g c #393A3E",
"h c #402817",
"j c #402618",
"k c #432D1C",
"l c #492E1D",
"z c #44301F",
"x c #4A311D",
"c c #51351F",
"v c #463220",
"b c #4B3522",
"n c #4E3824",
"m c #513622",
"M c #533B25",
"N c #593D26",
"B c #573F28",
"V c #583F28",
"C c #5E422A",
"Z c #62452D",
"A c #65492E",
"S c #6B4A2F",
"D c #674A30",
"F c #6B4C31",
"G c #704D32",
"H c #3C3D42",
"J c #403F44",
"K c #3E4045",
"L c #414246",
"P c #444549",
"I c #47494D",
"U c #494A4E",
"Y c #4C4D52",
"T c #4F5055",
"R c #515257",
"E c #53555A",
"W c #57595E",
"Q c #585A5F",
"! c #5C5D62",
"~ c #5E6065",
"^ c None",
/* pixels */
"^^^^^^^^^^^^^^^^^^^^^^^^^^^^^^^eeeeweeeee^^^^^^^^^^^^^^^^^^^^^^^^^^^^^^^^^^",
"^^^^^^^^^^^^^^^^^^^^^^^^^=**==egPKKKHKKKge=====^^^^^^^^^^^^^^^^^^^^^^^^^^^^",
"^^^^^^^^^^^^^^^^^^^^^^^^^eyir->KWWTTTTE!Ie=wtut^^^^^^^^^^^^^^^^^^^^^^^^^^^^",
"^^^^^^^^^^^^^^^^^^^^^^=*>gITKe;sTYPPPPITH>;sYTHe**=^^^^^^^^^^^^^^^^^^^^^^^^",
"^^^^^^^^^^^^^^^^^^^^^eeeyKQ~RfyusgHHgKgfpyaUQ!Uuwrr^^^^^^^^^^^^^^^^^^^^^^^^",
"^^^^^^^^^^^^^^^^^^+o=pgggLUUYYKt>ugggHarrgYYUUPggHgw++=^^^^^^^^^^^^^^^^^^^^",
"^^^^^^^^^^^^^^^^^eeetigPPLHsgUKe-epapau;wHUgfdLLPHateee^^^^^^^^^^^^^^^^^^^^",
"^^^^^^^^^^^^^^^^=iIYKueuHHayert:;:wwwee;;rtrrugJieesIIpw+^^^^^^^^^^^^^^^^^^",
"^^^^^^^^^^^^^^^:rHEQYguyipu>oo++*++++++**ooo+ripytiLEEKiw;^^^^^^^^^^^^^^^^^",
"^^^^^^^^^^^^^=:yHPPLPTPi;>:+                o-:;tKYULLILse-^^^^^^^^^^^^^^^^",
"^^^^^^^^^^^^^O;iPUHsKUPr+++o             ....ooo:HYIHgJYHw+^^^^^^^^^^^^^^^^",
"^^^^^^^^^^^^*+-yHPLHfar=    ^^^^^^^^^^^  @,,#o  O:pKLdHHs:++=^^^^^^^^^^^^^^",
"^^^^^^^^^^^wtyteysLgu:o    ^^^^^^^^^^^^.X2983&%@. =yHHiytryyt^^^^^^^^^^^^^^",
"^^^^^^^^^^=uIRKu;ydu;o ^^^^^^^^^^^^^^  @<qzvkzbq2o *ydu:>fTYsw*^^^^^^^^^^^^",
"^^^^^^^^^wtgR!THiiy;o  ^^^^^^^^^^^^^^  @4zvvbBCMq,X +riisPYKpue>^^^^^^^^^^^",
"^^^^^^^*:yHIKKPYYa-o ^^^^^^^^^^^^^^^^  @5qvvvMnbzq2. =uPTYawrgse=^^^^^^^^^^",
"^^^^^^^o-iUYHsHLJy+  ^^^^^^^^^^^^^^^^X@&5qvvqqCqkkq3$+wdUPp:tLg>+^^^^^^^^^^",
"^^^^^^^o-iKPsaspw* ^^^^^^^^^^^^^^^^ .%&18qvvvCvCk9kMk@o-iHgiaJs>+^^^^^^^^^^",
"^^^^^^^riipsHHpt;  ^^^^^^^^^^^^^^^^  %<38qvvvCCqk7lGBX owsPJpytye^^^^^^^^^^",
"^^^^^^:HPawesHat;o ^^^^^^^^^^^^^^^^  %<36qvqvvCvllcSMX Owaggt;rLHw+^^^^^^^^",
"^^^^^+:gTPiwwyy2*o^^^^^^^^^^^^^^^^ .%<3350zzbCCbxxcSN1X.-eyeetgYH>+^^^^^^^^",
"^^^^^^;iL!Upw-w+ ^^^^^^^^^^^^^^^^  #300558qzqbbCmxcZZz,.o=--tLRUiw*^^^^^^^^",
"^^^^^^;yHEEHew=  ^^^^^^^^^^^^^^^^  #5zq636qqvCCCMxcZAc,. +;tsYEIi:=^^^^^^^^",
"^^^^^^;yHKPUKy*o ^^^^^^^^^^^^^^^^  @5zq6<50qqqnCmxcZZl,. otLYULJi:=^^^^^^^^",
"^^^^^^;wtigYYp-  ^^^^^^^^^^^^^^^^  @5qq52500qvnCclcCCk,. +uYRPsuw;;^^^^^^^^",
"^^^^^^;;:ysLJu=o ^^^^^^^^^^^^^^^^  #3q032500qzbCcccZZl,. +tKPHiw;;;^^^^^^^^",
"^^^^^^;yiywpgu-o ^^^^^^^^^^^^^^^^  @<895250qqzbCCcNSGc,. +tgsyriu:=^^^^^^^^",
"^^^^^^:gYs;ray-o ^^^^^^^^^^^^^^^^  X2903250qqznCCccZZl,. +tsu;ePKw+^^^^^^^^",
"^^^^^^>gRPuerw-o ^^^^^^^^^^^^^^^^  @20q3250qqznCN74hq4#  *weetdTKw+^^^^^^^^",
"^^^^^^;iIEUi;;;+ ^^^^^^^^^^^^^^^^  X20852500qqMCl$.X@.  o=;;yHTYa>*^^^^^^^^",
"^^^^^^:yHTRLiw-o ^^^^^^^^^^^^^^^^  @28q3250qqzMCqO       =wygUYPu:=^^^^^^^^",
"^^^^^^;ydHJYIi=o ^^^^^^^^^^^^^^^^  @289525qqzbCZk@...    +yITUHgy:=^^^^^^^^",
"^^^^^^;uayyLTs=  ^^^^^^^^^^^^^^^^  @2883250qzCCCb328j3@  +iTWIgfy:-^^^^^^^^",
"^^^^^^:usr;uKi-  ^^^^^^^^^^^^^^^^  @<683250qqCAAC0zCZl,. +uITIHgu:=^^^^^^^^",
"^^^^^^>ugpeeye-+ ^^^^^^^^^^^^^^^^  @26632500zCCCcxcDGc,. +tKPLgHi>=^^^^^^^^",
"^^^^^^;ydgar;;-+ ^^^^^^^^^^^^^^^^  @26832500qCCCnkxCZl,. +tHLgssu:=^^^^^^^^",
"^^^^^^;:raHduw-o ^^^^^^^^^^^^^^^^  @268325008CZAnkxCCk,. +yLUJat>;;^^^^^^^^",
"^^^^^^;;>rpHHy=o ^^^^^^^^^^^^^^^^  @266325000CADCkkCZk,  +rgJdiw:;;^^^^^^^^",
"^^^^^^;uau>rur-o ^^^^^^^^^^^^^^^^  @:865350qqCADckxCZx,. *>rw>ysp>*^^^^^^^^",
"^^^^^^>gTg;=;>;o ^^^^^^^^^^^^^^^^  X2863w50qqCZDCqxCZx,. *>:=*yPKw+^^^^^^^^",
"^^^^^^:gRUiew>;+ ^^^^^^^^^^^^^^^^  X2005250qnCZDNllCZl,. *wypppHi>=^^^^^^^^",
"^^^^^^;iIYYLaw-o ^^^^^^^^^^^^^^^^  @268325qqqCAANhlCZk,. +yPEEKe;;;^^^^^^^^",
"^^^^^^:ygIYRLi=o ^^^^^^^^^^^^^^^^  #&%&&260qnCZAmhlCZl,. ouT!!Pi>;;^^^^^^^^",
"^^^^^^;ysHLYYi=  ^^^^^^^^^^^^^^^^  #%. @580qqCZCmklCZl,. +uIYKHHu;-^^^^^^^^",
"^^^^^^;ysgJYYp=  ^^^^^^^^^^^^^^^^ .##  @280qbCZCmhlZZl,. +yHPgadu>-^^^^^^^^",
"^^^^^^;ydHLYYp=o ^^^^^^^^^^^^^^^^  #&  #260qvCZZmklCZl,. +tHKgssu;=^^^^^^^^",
"^^^^^^;uHHHIYi=  ^^^^^^^^^^^^^^^^  #$. %560qvCCCmhxZZl,  +tHLHKLa>*^^^^^^^^",
"^^^^^^;yasaHHy=o ^^^^^^^^^^^^^^^^  #$  @280qvCCCnhlCZl,o +wiHHKLp;=^^^^^^^^",
"^^^^^^;>ww>wew;o ^^^^^^^^^^^^^^^^  %%  X36qqaCZZmhzCZl,. +:wweeew:-^^^^^^^^",
"^^^^^^:>>>>>>:-+ ^^^^^^^^^^^^^^^^  %&..%380qzCCCmkxZZl,. *ww:www:;;^^^^^^^^",
"^^^^^^;taggHst-o ^^^^^^^^^^^^^^^^  #<222250qbCZCmhxCZl,  +eafHsat;-^^^^^^^^",
"^^^^^^;uPYREYp-  ^^^^^^^^^^^^^^^^  X200525qqqCZZmhxCZl,. +uUEETIa>*^^^^^^^^",
"^^^^^^;uLITETp=o ^^^^^^^^^^^^^^^^  X3qq5250qvCZZmzxCZl,. OpE~EUPp>*^^^^^^^^",
"^^^^^^;ydHKTYi=  ^^^^^^^^^^^^^^^^  @2805250qqCZCxkxCZk,. OyKYPHHy:=^^^^^^^^",
"^^^^^^;ysHKYUp=o ^^^^^^^^^^^^^^^^  @3805250qnCACmqxCZh,. *:epKPHy;=^^^^^^^^",
"^^^^^^:ysHKUUp=  ^^^^^^^^^^^^^^^^  X280528qqqCAZMkxZSl,. *::eaHHu:=^^^^^^^^",
"^^^^^^;taddPLi=  ^^^^^^^^^^^^^^^^  @2883250qnCCCmxmSGm,. *eiuetiu:=^^^^^^^^",
"^^^^^^:yddsHHi=o ^^^^^^^^^^^^^^^^  @<683250qvCDCm7kNZk,. +uLdwwpi>=^^^^^^^^",
"^^^^^^:pLHHHHy=o ^^^^^^^^^^^^^^^^  @2663250qvnCCv<,33,.  *tKHiiHa>*^^^^^^^^",
"^^^^^^;iHdiiie-o ^^^^^^^^^^^^^^^^  @2663260vbCDAkX       *wiiiaHi>=^^^^^^^^",
"^^^^^^;>ew:;::;o ^^^^^^^^^^^^^^^^  @2665250qvMASvX       =:::www>;-^^^^^^^^",
"^^^^^^;>>weeww;o ^^^^^^^^^^^^^^^^  @2002250qbCAFb&X@$@   *wwwww>:;;^^^^^^^^",
"^^^^^^:epHHKgy-o ^^^^^^^^^^^^^^^^  #2085250qbCAFM98kl6$  *edLHgdy:=^^^^^^^^",
"^^^^^^:iPTRWTp=  ^^^^^^^^^^^^^^^^ .+&58225qvnCZABxxZSc,o +uU!EYIs:=^^^^^^^^",
"^^^^^^;iLIYQRi=  ^^^^^^^^^^^^^^^^^^.@&32<5qvMCCDBkxASx,. +yY!YILi:=^^^^^^^^",
"^^^^^^;udssPUp=o ^^^^^^^^^^^^^^^^^^  @$#&30kbBDDBklCZl,. OyURPHdy:=^^^^^^^^",
"^^^^^^;pdy>fYs=  ^^^^^^^^^^^^^^^^^^^^ . O&33qnFFNhlCZl,. +uURPHdy:=^^^^^^^^",
"^^^^^^;yuw>dIa=  ^^^^^^^^^^^^^^^^^^^^    @##,kCZmlxCZl,. +yIYPHgy>=^^^^^^^^",
"^^^^^^;;>wygPu=  ^^^^^^^^^^^^^^^^^^^^^^^^. .X3llllcZZl,. +tHPHssu:=^^^^^^^^",
"^^^^^^;;>ygLKu-o ^^^^^^^^^^^^^^^^^^^^^^^^    $,11jmSZl,. +tHHdsgi:=^^^^^^^^",
"^^^^^^;rpsgPKu=o ^^^^^^^^^^^^^^^^^^^^^^^^^^^^...$4mGZk,  +rdHdHLa>*^^^^^^^^",
"^^^^^^;ypauaar-o ^^^^^^^^^^^^^^^^^^^^^^^^^^^^^  .,4mNk,. *wuiipsu:=^^^^^^^^",
"^^^^^^;>ww>>ww-+ ^^^^^^^^^^^^^^^^^^^^^^^^^^^^^^^^.@4lh1. *:ww>>w:;;^^^^^^^^",
"^^^^^^;-=====;;o ^^^^^^^^^^^^^^^^^^^^^^^^^^^^^^^^  &jj1. *:-===*-;;^^^^^^^^",
"^^^^^^^^^^^^^^^^^^^^^^^^^^^^^^^**++****+*^^^^^^^^^^^^^^^^^^^^^^^^^^^^^^^^^^"
};
