/* XPM */
static char *result[] = {
/* columns rows colors chars-per-pixel */
"75 75 91 1 ",
"  c #020101",
". c #0B0603",
"X c #0D0905",
"o c #040709",
"O c #060A0C",
"+ c #090C0E",
"@ c #120C07",
"# c #1B0F07",
"$ c #130E09",
"% c #1B0F08",
"& c #15110F",
"* c #1D120A",
"= c #0B0E11",
"- c #0E1114",
"; c #111315",
": c #131619",
"> c #16191C",
", c #191B1E",
"< c #22130B",
"1 c #29170D",
"2 c #24180F",
"3 c #2C190E",
"4 c #301C0F",
"5 c #241A11",
"6 c #2C1C12",
"7 c #331D11",
"8 c #2F2015",
"9 c #362215",
"0 c #3B2415",
"q c #352619",
"w c #3C2618",
"e c #3D291A",
"r c #1B1E21",
"t c #1E2124",
"y c #212326",
"u c #24262A",
"i c #26292C",
"p c #292A2E",
"a c #2C2D32",
"s c #2F3135",
"d c #313236",
"f c #35363A",
"g c #38373C",
"h c #36383C",
"j c #393A3E",
"k c #412718",
"l c #442B1B",
"z c #492F1D",
"x c #4D321E",
"c c #51351F",
"v c #463220",
"b c #4C3421",
"n c #4F3824",
"m c #523620",
"M c #553923",
"N c #5A3C24",
"B c #553C28",
"V c #5C3F28",
"C c #5E4129",
"Z c #64452D",
"A c #68462E",
"S c #67482E",
"D c #68492F",
"F c #6D4D32",
"G c #714F32",
"H c #6F5034",
"J c #735235",
"K c #795536",
"L c #765538",
"P c #7A5738",
"I c #7D593A",
"U c #3C3D42",
"Y c #413F45",
"T c #3E4045",
"R c #414246",
"E c #44454A",
"W c #47484D",
"Q c #484A4E",
"! c #4B4D52",
"~ c #4F5055",
"^ c #505156",
"/ c #54555B",
"( c #56585D",
") c #58595F",
"_ c #5A5C62",
"` c #815C3C",
"' c #885F3D",
"] c #87603E",
"[ c #8A613F",
"{ c #8B6341",
"} c None",
/* pixels */
"}}}}}}}}}}}}}}}}}}}}}}}}}===-rfTTUTTUTTfy-++=}}}}}}}}}}}}}}}}}}}}}}}}}}}}}}",
"}}}}}}}}}}}}}}}}}}}}}}}}tiu,-,T(/~~~~/(Tt-,iit}}}}}}}}}}}}}}}}}}}}}}}}}}}}}",
"}}}}}}}}}}}}}}}}}}}}-++,h~!d>;h!WEEEE!~f,;d!Qfr+=;}}}}}}}}}}}}}}}}}}}}}}}}}",
"}}}}}}}}}}}}}}}}}}}}uytiE__QdiphUUUUTjfpusQ__Eitty}}}}}}}}}}}}}}}}}}}}}}}}}",
"}}}}}}}}}}}}}}}}-+OtfUjgT!Q~~UuydUjjjstyU!!QQRhhUf>oO-}}}}}}}}}}}}}}}}}}}}}",
"}}}}}}}}}}}}}}}},t,ufREETUhR!Rt,pfdddi;tU!EgjREETftttt}}}}}}}}}}}}}}}}}}}}}",
"}}}}}}}}}}}}}}+,sTRsytdRUsyyppt;rytty,>,iauufYEfuufEWhtO}}}}}}}}}}}}}}}}}}}",
"}}}}}}}}}}}}}},iT((Rituddu-OO+-===+-++--+O+:pddptaW__Ta>}}}}}}}}}}}}}}}}}}}",
"}}}}}}}}}}}};rsTEEEWWUu,,:o                o,r,yUQQEQWRat-}}}}}}}}}}}}}}}}}",
"}}}}}}}}}}}}=tj!WUjE!U,OX+ ..... .........X.OOo;hQEjgUQUrO}}}}}}}}}}}}}}}}}",
"}}}}}}}}}}-++rfEEUUfarO  .<3611113661111136*.  o,dRRgfUf,++-}}}}}}}}}}}}}}}",
"}}}}}}}}}}rtryusUUfu-o  .$kmxlllzzkllxxllxz0@.  o>dYUdaitttt}}}}}}}}}}}}}}}",
"}}}}}}}}O,sTEs,,aUa-  %<<wZGDCVZZNxcADZNCZZm611# o,dhsrrfW!jtO}}}}}}}}}}}}}",
"}}}}}}}}>iT((Uiypa>o %wzlM``LSFFGVccJ`JZSFFZllcz< O,psuaW/~ji,}}}}}}}}}}}}}",
"}}}}}};taUEEWQQUa:  <wVVcNP'JSFFFZzcJ`GASFFCxNDJz# o-uU!Qhuyddt=}}}}}}}}}}}",
"}}}}}}+tU~EhhTWUrX.<kVFZmNLIJZZDFVxcGPGAAFFVxVP`Aw< o,dWEs>tUUr+}}}}}}}}}}}",
"}}}}}}+tU!Udfduro.<kVFHZcNK`GAZFFCxMGIFDGJGNcNJ]JN0% .:aUjaaUf>O}}}}}}}}}}}",
"}}}}}}ruaUhhUaro  1mAFFVxNJ`JASFFCxMGIFDGJGCxcG`LZz1  orjEYgsitt}}}}}}}}}}}",
"}}}}=tjhrraUUarO  1xAHJCxNL`JZSDFCxmGIFDFJGCxcG]KZz<  orfREdrrgUt+}}}}}}}}}",
"}}}}=tEWpryaaurO $7NZFHZcNK`JZSFFCccGIFDHJGZcNG]LZz4# +,pdaura!Ut=}}}}}}}}}",
"}}}}-tj~Eftrr;X.%wAGFSJFmNL`JSAFFCxcGIFDGJHCxcK`GZZmw<.+>r:raW!fr-}}}}}}}}}",
"}}}}-,dQ/!fr>O  <mP`FFJSmNL`JSSFFNccFIFDFJHCxCJ`GFFZb7. =>raW/War-}}}}}}}}}",
"}}}}-rsTWWQUtO  <mL`LFHZmNPIHSFJFCxMJIFDFJHCxcJIFFFZb3. OyUW!EUar-}}}}}}}}}",
"}}}};,ushE/Qi+  <zG`PGFVxNL`FFFJFNcmJIFDFJGCxCP]LZZCz1. =a!/Wgsy,;}}}}}}}}}",
"}}}},;;tfE!YyO  <xG`JGGCbNJ`HSFLFCxmGIGSFLGNxNI[LZAVz1. =iR!Wdr:;,}}}}}}}}}",
"}}}};>rtidUUyO  <zG`LHHCmNP`JAFLFCcmGIFSFJFZcmCFFFFZb6. =ugYgit,,;}}}}}}}}}",
"}}}}=rhhrrahyO .<xG`LHHAcNK`GSFGFCxcGIFSFLFSN0*5BLJZb4. =igfyrjfr-}}}}}}}}}",
"}}}}+yW!aryu,+  <xG`LHHCcNK`GFFLFCxcGIGSFJHCl*. 6nMl0<. =riiyd~Ry=}}}}}}}}}",
"}}}}=tj!!gt;;-  <zJ`KGGCcNP`GAFLHNcMGIGZZHHn<   O@$@X.  -,;rf!!fr=}}}}}}}}}",
"}}}}-ra!_!s,,=  <xJ`KGGCcNJ`GAFJHNcmGIGZZFJbX          o-;,pW/Ear-}}}}}}}}}",
"}}}};raY!!Qft+  <zG`KGHCxNJ`LAFHJZcmGIHCZFJbX  .        -tfEQEUp,-}}}}}}}}}",
"}}}};rafdU~!uo  <zJ`JGHCcNJ`GAZFKSmmGIHZZFHn*.  .@@@@   =a!(QUgpr;}}}}}}}}}",
"}}}};raa,uRQuo .<xLIHSFZxNP`JZZFKSccGIHZZFDCz*  qCce0<. =a!/!Ufi,-}}}}}}}}}",
"}}}}=rddy,ipr+  <zGIFSSZcNK`JSSFHZccGIHZZDHDN024CLLSm3. =iE!EUUp,-}}}}}}}}}",
"}}}};rdjdu,>>=  <zLPHSFCcNP`JSSFHCcmGIHCZHJDMcCHHHLFx3X =uURUgjar-}}}}}}}}}",
"}}}};>ydUjp,,=  <zJIFSFCxNLIJZSSFNcmGIGZSHKZcNI[HSHSx1. =uUEUday,;}}}}}}}}}",
"}}}}>;;yfYYdr=  <xGPFSSCcNKIJSSFHNcmGIHDHGHCcNI[JDJDx1X =uU!Rar;;,}}}}}}}}}",
"}}}}>:,tidjgy+  <xK`HSHScNK`JZSFFNccGIHDHKGNxNGIHHJSx1X =yfhfpyr,;}}}}}}}}}",
"}}}}=thfy:tu,+  <b`'FZJFmNK`JSZHFNccGIHSGJGCxmJ`HDHSx3. -rt,;yUfr-}}}}}}}}}",
"}}}}+yE!p,>>,+  <kbZHSNllCKIJSZDHCccGIFDHJGNxNJIHFJFx1. -rtttaTfr-}}}}}}}}}",
"}}}}-rU!QTdi,+ .44@6AZ6O4ZIIGASFFCcmGIFSGGHCcNG]GFLDb6. =uUEQUi,:>}}}}}}}}}",
"}}}}-,dE^^QjyO @77*5vv5$7ZK`JZZFFNcmF]FFFGGCcNJIGDGZz1. +i!__Wt-;,}}}}}}}}}",
"}}}};,aUE!~RyO  <zVv**wbcNK`JAZDFCcmGIFZSHJZcmJIGFFZz3. +i!(/Rdt>;}}}}}}}}}",
"}}}};,ajjE^WuO  %N'ZO bJNcJ`JZAGFCcmGIGZZHJDcNJIJZAZz6. =iE!EUUar-}}}}}}}}}",
"}}}}-,ajjE^QuO  #M]CX vJNNK`JZZFFCxmHIHZZFJDcNJ]JZFCz3. +pYEjffar-}}}}}}}}}",
"}}}}-,sUYE^Euo  %xKBXXvFMNKIJSSDFCccFIFZZFJDcNJIJFSZx6. =ujRUUUar-}}}}}}}}}",
"}}}}-rsjjYWRyo  *cPBXXnGNNK`JZSFFCxmHIHZZDFCxNJ]JDFVz1. -yfUYEEdr-}}}}}}}}}",
"}}}};>upipaar+  <m]C. BKVmL`JSSFFCxmGIFSZFFNcmJIJSAZx6. -ryaaffir;}}}}}}}}}",
"}}}}>;,;;,:r>=  %N{Zo nKCMJ`JSZDFCxMJIHZSDDCxNJ`GSFZz3. -,::,:r:>;}}}}}}}}}",
"}}}}::,rrrrr>=  <xAb**eNxNK`JZSFFCxMJIFASDHCxNJ`JSFCz6. =,rrrr,>>;}}}}}}}}}",
"}}}};rajUTTdrO .6956nb5&4ZIIJSSDFVxmGIFASFDCxNJ`GFZZz6. =ufTUUfur-}}}}}}}}}",
"}}}}=rf!!/_Quo X77$wJF8@4ZIIHSSHFCxmGIFZSDGCxNJ`JAZZz6X =a!__!Qsr-}}}}}}}}}",
"}}}}-raYE!/Quo .<lVGPJCvxcK`JZSDFCxmGIFZSSFCxcJIFFFCz6. =a!_!EUa,-}}}}}}}}}",
"}}}};,ahjE~EuO  %m`{LFLFcNK`JAZGFVcmGIGZSFFCxNI[JZSZz1. =yfUTThi,;}}}}}}}}}",
"}}}}-rajUQ^EuO  <cK]PHJZccK`JZADFVxmJIFZZFFNxNI{JZSCz3. ->>yUEUi,-}}}}}}}}}",
"}}}}-ragjE!EuO  <xFIKFFCcZK`JZZGFZcmJIFZZFFZMMCFFJHZb3. =>:raUha,;}}}}}}}}}",
"}}}}-,pfgjEUyO  <zJPGDJSmNK`JZSFFVxmG`GZZFHDCw<8CIPAm6. =yaauuaar-}}}}}}}}}",
"}}}}-tsUfjYjyO  <zJ`GAGDmNK`JSSFFVcmG`FZZDJFx*  qCCvw<. =aEUirfsr-}}}}}}}}}",
"}}}}=tjEjgjft+  <lG`DDFZxNK`JZSDFVxcGIFAZHLC2.  X&*@@.  =ujUdfYfr-}}}}}}}}}",
"}}}}-,psaipu,+  <cJPGAFZxNKIJSSHFVxcGIFZZJLnX  .        -ruiiadpr;}}}}}}}}}",
"}}}};>>,,:;:>=  <zJPJSDCMNJ`HSHJDCxNGIDDDKKb.  .       o->,;:,,>:;}}}}}}}}}",
"}}}}>>,,rttr,=  <xJ`HDDZxNK`JSDKJCxcJIFDHKHM2.  X**@@.  -,rtrrr:>:}}}}}}}}}",
"}}}}-rpUUURft+  <xJIFSDZcNJ`JSZJJAccGIGDHJHCl*  6BBl9<  =uhTRjfpr-}}}}}}}}}",
"}}}}-rf!~()Quo .<xJIFSDZcNP`JSZJJZccJIFSFJHZN0&5nLLZc3@ =pQ((^Qdr;}}}}}}}}}",
"}}}}-,dRW^(Qio  *xJPFSFZxNK`JZZFLZccJIFSGJHCccCSGGJZx3@ =pQ(!WYa,;}}}}}}}}}",
"}}}}-rsfsgQEuo .<zG`FSFZcNK`JZZJLAccGIGSGJHCxNK[JZSZx1. =pW^QUfp,;}}}}}}}}}",
"}}}}-rda,yEQio  <cJIFSFCxNK`JSSFKZccGIGSGLGCcCK]JSHSx1. +pQ^QUgp,;}}}}}}}}}",
"}}}};,pu:yREio .<cGIFZFZmNLIJSSFJAcMGIGZFHFCccGPGFJDx1. +pE~EUgp,-}}}}}}}}}",
"}}}}::,rydRYy+  <zG`DAFCxNLIFZZFGZzcGIFAZFHCxMGIFDJDx3. +iREUffpr;}}}}}}}}}",
"}}}}:::ydYEjyO  <xK`GAFZmNK'LFZFFCxcJIGSSFHCxNL]LFLFx1. =ujYjfjar-}}}}}}}}}",
"}}}};,ifjRWUyo  <zK`LFGAmVI]KFFFFCxmJ`GASFGCxCK]LDFZx6. =ugjjjEdr=}}}}}}}}}",
"}}}}-,pappddrO  <lZAVNVMzcZFCNVCZNzcZFCVCCCclcZDZVVMz6. =tpapafpr-}}}}}}}}}",
"}}}}>>,,,,r,,= .3kllllllwwllllllllkklzllkkkwwkllkkkll3@o=,,,,,,,>;}}}}}}}}}",
"}}}},;-=-;-;;- .3076777700777731666611164070w7777770w7. ->;-;---;:}}}}}}}}}",
"}}}}}}}}}}}}}}}}}}}}}}}}}}}}}}&&&&&&&$&;}}}}}}}}}}}}}}}}}}}}}}}}}}}}}}}}}}}"
};
