/* XPM */
static char *result[] = {
/* columns rows colors chars-per-pixel */
"75 75 84 1 ",
"  c #6A6A6A",
". c gray42",
"X c #6C6C6C",
"o c #6D6D6D",
"O c gray43",
"+ c #6F6F6F",
"@ c gray44",
"# c #717171",
"$ c #727272",
"% c gray45",
"& c #747474",
"* c gray46",
"= c #767676",
"- c #777777",
"; c gray47",
": c #797979",
"> c gray48",
", c #7B7B7B",
"< c #7C7C7C",
"1 c gray49",
"2 c #7E7E7E",
"3 c gray50",
"4 c #808080",
"5 c #818181",
"6 c gray51",
"7 c #838383",
"8 c #848484",
"9 c gray52",
"0 c #868686",
"q c gray53",
"w c #888888",
"e c #898989",
"r c gray54",
"t c #8B8B8B",
"y c gray55",
"u c #8D8D8D",
"i c #8E8E8E",
"p c gray56",
"a c #909090",
"s c gray57",
"d c #929292",
"f c #939393",
"g c gray58",
"h c #959595",
"j c gray59",
"k c #979797",
"l c #989898",
"z c gray60",
"x c #9A9A9A",
"c c #9B9B9B",
"v c gray61",
"b c #9D9D9D",
"n c gray62",
"m c #9F9F9F",
"M c #A0A0A0",
"N c gray63",
"B c #A2A2A2",
"V c gray64",
"C c #A4A4A4",
"Z c #A5A5A5",
"A c gray65",
"S c #A7A7A7",
"D c gray66",
"F c #A9A9A9",
"G c #AAAAAA",
"H c gray67",
"J c #ACACAC",
"K c gray68",
"L c #AEAEAE",
"P c #AFAFAF",
"I c gray69",
"U c #B1B1B1",
"Y c #B2B2B2",
"T c gray70",
"R c #B4B4B4",
"E c gray71",
"W c #B6B6B6",
"Q c #B7B7B7",
"! c gray72",
"~ c #B9B9B9",
"^ c gray73",
"/ c #BBBBBB",
"( c #BCBCBC",
") c gray74",
/* pixels */
"1@#$%&*=-;1hg8777777778kj6444444445fle099999990akjggggggggghkjjjjjjjjjjjkf2",
"  .XoOO+@#$f9,,,,,,,,,,ip;--------;5z42222222236xdaaaaaaaaaszzzzzzzzzzzzxw,",
"..XoO+@#$%&hq1<<<<<<<<1ss>::::::::>7c65555555558bgdddddddddfvvvvvvvvvvvvbt1",
"ooO++#$%%**le3222222223ff<,,,,,,,,,9n87777777770Mjhhhhhhhhhjmmmmmmmmmmmmmp3",
"OO+@#$%&*=-xt5555555555jj2111111111qN0999999999wVzkkkkkkkkklNBBBBBBBBBBBBd5",
"++@#$%*=-;:bu7666666667ll4333333333eCwqqqqq0000rZcxxxxxxxxxcCZZZZZZZZZZZZj7",
"@@$%&*=-:>,ma9888888889cc6555555555tArewweeeeeeyDnvvvvvvvbbnDDDDDDDDDDDDFx9",
"#$%&*=-:>,<Bdq00000000qbb8777777766uFytttttttttiHNmMMmmmmmmMGGGGGGGGGGGGHbw",
"%%&*-;:><12CgeeeeeeeeeeMM0999988889aJpuuuuuiiiisLVBBBBBBBBBVKKKKKKKKKKKKKBt",
"&&*-;>,<134SjtrrrrrrrrtBVw00900000qdPspaaapppaagUACCZZZZZZCZIIIIIIIIIUUUYAu",
"**-;:,<1345HxiuuuuuuuuiASeeeeeeeeerjTgdsddddddfkTFAAAAAASSSDYYYYYYTTTTTTRJd",
"hyupafgjlxMPUAAAAAZAAASYYACCVVVVCCZYRJFFFFFFFFFURILLLLLKKKKPRRREEEEEEEERREI",
"zzxvmNCADGKPKDDDDDFFDDGYUIIIIUUIIIUTJvvvvvvvvvnESzzzzzzxxxbWLmnbbvccxxxRKjj",
"r>,<135679qCFAAAAAZZAAAPULLPPLLLLLPTchhhhhhhjjkLjhhhhjjkkkkTBvcxxzzzlkkJVgg",
"8;:><134579cFAAAAZAAAAAPUPLLLLLLPLPYchghhhhhhhkLjjjjkkkkkklTBcxxxzzlkkkJVjj",
"7;:><134579vFAAZAAAAAASUULLLLPPLLLPTvhhhhhhjjjkLkjkllllllzzRNccxxzzllkkKVll",
"6;:><134579bDZZAAAAAASSIULLPLLLPPPPTvjhhjjjjjjlLlllllzzxxxxRBvccxxzzzzlKCxx",
"5;:><134579mSAAAAAASSASIUPLLLPPLLPPTvjjjjjkkkkzPzzzzzxcccvvEBvvcccxxxxzLCvv",
"4;:><134579mDAAAAASAAASUUPLPPLLPPPPTbkjkkkkllzcPxxxcccvbbbnEBbvvvvvcccxPAnn",
"3;:><134578NDAAASAAAAASUIPPLLPPPPPITblkklllzzxvIccvvbbnnmmmWVnbbbbbbvvvPSMM",
"3;:><134569VDAASAAAASASUULLPPPPPPPITnlllzzxxccbIbbbbnmmMMMNWCmnnnnnnbbbIDBB",
"2;:><134470CDASAAAASSADYIPPPPPPPPIIRmzzzxxcvvvnUnnmmMMNNNBBQZMMMmmmmmnnUFCC",
"1;:,<133570ZGDSSSSSSSDDYYIIIIUIUUUURNccvvbnnnmMTMmMNBBBBVCC~DNNNNNNMMMNELSS",
"y<12345780wJYYYYYYYYYYYRREEEEEERRRWEWUUUUUUYYYR!QYYYTTTRRRQ^^QQQQQQQ!!~((//",
"zcvnMBCADGKIUYYTYYYTYTRUZCZZZZZZAAIQJFFFFGGGHHJ!WREEEWWWQQQ^^^^////(((((QLK",
"lxvnMBCADHKLUYTYYYTTRTEKCVCCCZZZASLQFSSDDFFFFGJQERRRREEWWWW~^^//////((((UJJ",
"lxvnmBCADHKLUYYYYTTRTRRLCCZZAAASSDL!GDDDFGGGGHK!EREEEWWWQQQ^^////(((((((YKK",
"lxvnmVCADHJPUTTYTTRTRREIAZAASSDDDFL~HGGGHHHHJJK~EEEEWWQQQQ!^////((((((()TLL",
"lxvnMVCAFHKLUYYTTRRRREEYSSSDDDFFGGL~JHHHJJJJKKL~WEWWWQQQQQ!^///(((((((()TPP",
"lxvbMVCAFHJPUYTRTRREEEWRSSDDFFGGGHP^KJJKKKKKLLP~WWWQQQQQ!!!///((((((((()RII",
"lxvnMVCSDHJPUTRTRREEEWQEFDFGGGHHJJP/LKLLLLLLPPI~QWWQQ!!!!!~/((((((((((()EUU",
"lxcnMVCSDHKPUTTRREEWWQQQGGGHJJJKKLI/ILLPPPPPIIU^QQQQ!!!!!~~//((((())))))WYU",
"lxcnMVZSDHKPYRTEREWWQQ!!HHJJKKLLPPU(UPPPIIIIUUY^!QQ!!!!!!~~/(((((())))))WYY",
"lxcnMVZADHKIYTREEWWQ!!~~KJKLLPPPIIY(YUIIUUUUUYY^!!Q!!!!~~~~/(((((((())))WTY",
"lxcnMVZADHKPYREEWWQ!!~~/PPPIIUYYTR!(RYYYYTYYYTT/!!!!!~~~~~^/((((((()))))QTT",
"lxcnMVZADJLIYREEWQQ!~~^/((((((((((((/QQ!!!!!!!!^^^^^^^^^///(((/(((((((()(WW",
"lxvnMVZSDKLIREWWQ!!~^^/////(((((((((ILLLPPLPPPPU!EWWWWWWQQ!/^PPPPIIIIIUW)))",
"zzcbmBVZSHKUBvbmMNBCZAD~((((((((((((ILLLLPPLLLLIQEEEEEWWWQW^!KKLLLLLPPPT)()",
"0><124579qtDpadghkzcvbmH(((((()(((((IPPPPPPPPPPUQEEEWEWWWWW^QLLLLLPPPPIY))(",
"4;>,<24570eBpadgjlzcvbmG(((((())))((IPPPPPPPPPPUQEEEEEWEWQW^!LKLLKLLPPPY(()",
"4;>,<24570eBaadgklxcvnmH(((((()()))(IPPPPPPIPPPUQEEEEEEWWWQ^QKKKKLLLLLPY()(",
"4;>,<24580eVasfhkzccbnMH)()((()(())(IPPPIIPPPPPUQREEEEEEWWW~QJJJJKKKKKLU(((",
"4;>,124580rVssghkzcvbnMH)(((((())()(IPPPPPPPPPPUQRRREEEEEEW~WJJJJJKKKKKU(((",
"4;:,124580rBsdghlzxvbnMH)(((((()())(IPPPPPPPPLLUQRRRRRRREEE~WHHHHHHJJJJI(((",
"4;:,124589eBssgjlxxvbnMH)(()(((())((PLPPPPPLLLLIWRRRRRRRRRE~EGFGGGHHHHHP//(",
"4;:,124580eVsdgjlzxvbnmH)((((((())((PLLLLLLLLKKIWTTTTTTTRRR!EFDFFFFFFGGL///",
"4;:,124670eBsdgjlxxcbnmG)(((((((())(PLLLPLLLKKKP!RRRRRRRRRE~QFDDFFFFFFGI///",
"4;:,134670eVssfjkzxcvnmG)((((((((())~WWWEEERRTT!ETTTTTTTTTR~~~~~~~~~~~~^^^^",
"u,<23579qeuLhgjlzcvbnmNY)((((((((((())((((///^^~PKKKKKKKKLLW~!!!!!!~~!~^!PP",
"zxvbMVZDGJPYRWQ!~~^///()((()())))))((((((///^^~!KHHHHHHHJJKELAAAASSSSSSEJAA",
"lxvnmVCSGJLUvlxcbnmNBVC!)^^^^^^~~~^)((((///^^^~!JGGGGGGGGHHRGCCCCCCCCCZUGCV",
"lxvnmVCSFJPPaadfhkzzxvbSAMNNNBBVVVZ^((((///^^~~!HFFFFFFFFFGRDBBBBBBBBBVIFBB",
"lxvnMBCSFJPLppsfgjlzzxvABnnmMMMNNNV!(((//^^^~~!QGDDSDDDDDDFTSMMMMMMMMMNPSMM",
"lxvnMBCAFJLLupadghklzxcZNbnnnmmmMMBQ(////^~~~!!QFASAAAAASSDTZnnnnnnmmmmLAnn",
"lxvnMBCAFJLLuupadghkllxCNvbbnnnmmmMW(///^^~~!!QWSZZZZZZZZAAYCvvvvvvvvvbKCvv",
"lxvnMVCADJLKuyiasfhjklzVMcvvvbbbbnmE//^^^~~!!QQWACVCCCCCCCZUBxxxxxxxxxcJBxz",
"lxvnMVCZDHLKyyuiasfhjkzBmxxccvvvvvnR/^^^~!!!QQWEZBBBBBBBVVCUNlllllllllzHNll",
"lxvnMVCASHLKttuuisdfhjkNnlzxxxccccvT^^~~!!QQQWWECNNNNNNNNBVImkjjjjkjjjkGmjj",
"lxvnMVCADGKKtrtuiiadfgjMbllzzzxxxxxY^~~!!QQWWEEEACCVVVCCCCZTnhhhhhhhhhjGMhh",
"lxvnMVCADGJKrrrtyiiaddgnvjjkllllllzU~!!QQQWWEEREERRRRRRRRRREFjjjjjjjjjjURSS",
"lxvnMVCADHKJerrrtyippsfnchhhjjjkjjkP!QQQWWEEERRRRRRRRRRRRRRRERRRRRRRRREERRR",
"lxvnMVCADHJLytyuuipaddfADkkklllzzzcWQWQWWEEERRRRTTTTTTRRRRRRRRRRRRRRRRRRRRR",
"lxvnMVZSDHJPUYUYYTTTREWWQQWWQQQQQQQWRRRTTTYYYYRTTTTTTTTTTTTTTTTTTTTTTTTTRTT",
"kjkzcbmNVZSLUYTYYTTRRREWWEWWWWWWWWWLHGGGFFFDDFLTYLLLLLPPPPPTTTTTTTTTTTTTPZC",
"dsdgjlxcbmNFUYYYTYYTRRRRREWEEEEEEEEHFFFFDDDDDDKTIKKKKKKKKKLUTTTTTTTTTTTTSmn",
"spsfgjlxcbmAPIIIIUUIIUUYYYYYTTYYYYYDSAAAZAAAZZGILHHHHHHHHHHPUUUUUUUUUUUUZvv",
"pupsdgjlzcbCJKKKKKKLLKKLLLLPPPPIPLPZVVVVVVVVVVDLHDDDDDFFDDFJLLLLLLLLLLLLBxx",
"utupadghkzxNFGGGGGGGHHHGGHHHHHHHHJJBMMMMMMMMmmZHSZZZZZZZZZAFHHHHHHHHHHHHmkk",
"trtupadfhjlmSSSSSSSSSSDDDDDDDDDDDDFmnnnbvbbbbbBDZVVVVVVVVVVSDDDDDDDDDDDDbgg",
"ewetyiasdgjvCZZZZZZZZZZZZZZZZCZZZZZvxxxxxccxxxmZBMMMMMMMMMMCZZZZZZZZZZZAxdd",
"w0wetyipsdfxNBBBBBBBBBBBBBBBBBBBNNBzkkkkkkkkllbVmbbbbbbbbnnNBBBBBBBBBBBBkap",
"090qertuiasknmmmmmmmmmmmmmmmmmmmmmmjggghhhhhhhxmvxxxxxccxxcnmmmmmmmmmmmmgyu",
"9789qwetyuphvvvvvvvvvvvvvvvvvvvvvvvgdddddsddddkvzkkkkkkkkklvvvvvvvvvvvvvdrr",
"756790qertydzzzzzzzzzzzzzzzzzzzzzzzdaaaaaaaaaahzkhhhhhhhhhhzzzzzzzzzzzzzsee",
"96780qweryufjjjjjjjjjjjjjjjjjjjjjjkjjjjjjjjjjjkjkjkjjjjjjjjjjjjjjjjjjjjjjhh"
};
