/* XPM */
static char *result[] = {
/* columns rows colors chars-per-pixel */
"75 75 236 2 ",
"   c #060606",
".  c #0A090A",
"X  c #08070B",
"o  c #120D0C",
"O  c #1C0B0A",
"+  c #1B120E",
"@  c #14120E",
"#  c #0D0A13",
"$  c #0F0D1A",
"%  c #130D15",
"&  c #130D1C",
"*  c #1B0D1A",
"=  c #0D1412",
"-  c #0F1915",
";  c #131213",
":  c #1C1412",
">  c #16121B",
",  c #19121C",
"<  c #121C19",
"1  c #181B16",
"2  c #0D110F",
"3  c #280908",
"4  c #340807",
"5  c #221512",
"6  c #2C1B15",
"7  c #271919",
"8  c #331919",
"9  c #320E16",
"0  c #14231D",
"q  c #29251A",
"w  c #3C231B",
"e  c #34251C",
"r  c #343319",
"t  c #150E23",
"y  c #190E26",
"u  c #1B0F2C",
"i  c #170C28",
"p  c #151125",
"a  c #1D1322",
"s  c #16122A",
"d  c #1A122D",
"f  c #1B1B23",
"g  c #1D0F31",
"h  c #1D1334",
"j  c #1E1639",
"k  c #1E193B",
"l  c #1C1837",
"z  c #231525",
"x  c #23152A",
"c  c #25192A",
"v  c #2A1A2D",
"b  c #291A28",
"n  c #381A26",
"m  c #211136",
"M  c #2D1C33",
"N  c #22123C",
"B  c #22183C",
"V  c #321E38",
"C  c #172B24",
"Z  c #192C26",
"A  c #172621",
"S  c #1C322A",
"D  c #252524",
"F  c #2A2929",
"G  c #392727",
"H  c #22342D",
"J  c #36213C",
"K  c #392C3B",
"L  c #283B34",
"P  c #393738",
"I  c #393829",
"U  c #570805",
"Y  c #48130A",
"T  c #6E1705",
"R  c #552208",
"E  c #43291F",
"W  c #4B2A1E",
"Q  c #44261A",
"!  c #492C16",
"~  c #6F300F",
"^  c #4D2D22",
"/  c #442A27",
"(  c #562D24",
")  c #4B3427",
"_  c #523225",
"`  c #5C3426",
"'  c #5C3A2B",
"]  c #55372B",
"[  c #483634",
"{  c #553837",
"}  c #432C3B",
"|  c #633B2C",
" . c #67382A",
".. c #733130",
"X. c #7F1F2B",
"o. c #2D423A",
"O. c #34433D",
"+. c #48461E",
"@. c #494829",
"#. c #5C5A2A",
"$. c #42423A",
"%. c #5B4334",
"&. c #73412F",
"*. c #684534",
"=. c #744432",
"-. c #794532",
";. c #7D4A36",
":. c #774D39",
">. c #6F5239",
",. c #6F6832",
"<. c #744007",
"1. c #251341",
"2. c #221A44",
"3. c #261C4B",
"4. c #281A4D",
"5. c #271748",
"6. c #2A1D53",
"7. c #2C1F58",
"8. c #3A2243",
"9. c #3C2346",
"0. c #2A2155",
"q. c #2C235C",
"w. c #272151",
"e. c #2A2149",
"r. c #312766",
"t. c #2F2462",
"y. c #42264C",
"u. c #4C2953",
"i. c #6C3348",
"p. c #384B43",
"a. c #3E514A",
"s. c #484946",
"d. c #42554E",
"f. c #415245",
"g. c #4A5B53",
"h. c #585856",
"j. c #554D4F",
"k. c #795B48",
"l. c #70514C",
"z. c #58645C",
"x. c #6E694F",
"c. c #5D6860",
"v. c #696A66",
"b. c #6B7169",
"n. c #73756E",
"m. c #79786E",
"M. c #7C7D74",
"N. c #787875",
"B. c #796F6B",
"V. c #842604",
"C. c #91310D",
"Z. c #933138",
"A. c #942D04",
"S. c #974708",
"D. c #B94D07",
"F. c #B04B0E",
"G. c #824E39",
"H. c #814B37",
"J. c #83523D",
"K. c #8D553E",
"L. c #8F4F35",
"P. c #B45C2C",
"I. c #BD6728",
"U. c #836631",
"Y. c #C65907",
"T. c #D56607",
"R. c #D76F16",
"E. c #D27728",
"W. c #E17207",
"Q. c #922942",
"!. c #8B5A43",
"~. c #935B43",
"^. c #965E46",
"/. c #8E5048",
"(. c #A04841",
"). c #9C6349",
"_. c #9A634A",
"`. c #98735B",
"'. c #8C6E55",
"]. c #A1654A",
"[. c #A46A4E",
"{. c #A96B4E",
"}. c #A86D51",
"|. c #AA7559",
" X c #B37455",
".X c #B37B5D",
"XX c #BB7B5B",
"oX c #B47758",
"OX c #B46F53",
"+X c #827974",
"@X c #A87B61",
"#X c #B47E61",
"$X c #C17F5E",
"%X c #848238",
"&X c #A09838",
"*X c #E88E3A",
"=X c #948E51",
"-X c #81817B",
";X c #95946B",
":X c #BD8363",
">X c #B58466",
",X c #BBB86D",
"<X c #E49951",
"1X c #C48463",
"2X c #CB8D6A",
"3X c #C78967",
"4X c #CD916E",
"5X c #C99675",
"6X c #D59A76",
"7X c #DB9E79",
"8X c #D69974",
"9X c #D1926F",
"0X c #DCA17C",
"qX c #E1A47E",
"wX c #D4874C",
"eX c #CAC567",
"rX c #898886",
"tX c #999896",
"yX c #908F8E",
"uX c #A1A09D",
"iX c #A9A8A8",
"pX c #B4B4B1",
"aX c #A6948C",
"sX c #DBA883",
"dX c #E5AA83",
"fX c #E7AB84",
"gX c #EDB28B",
"hX c #F1B68E",
"jX c #F2B88D",
"kX c #F6BC93",
"lX c #C2BFBD",
"zX c #DDC8AD",
"xX c #D9D9D8",
"cX c #C9C8C7",
"vX c #F0F0F0",
"bX c None",
/* pixels */
"bXbXbXbXbXbXbXbXbXbXbXbXbXbXbXbXbXbXbXbXbXbXbXbXbXbXbXbXbXbXbXbXbXbXbXbXbXbXbXbXbXbXbXbXbXbXbXbXbXbXbXbXbXbXbXbXbXbXbXbXbXbXbXbXbXbXbXbXbXbXbXbXbXbXbX",
"bXbXbXbXbXbXbXbXbXbXbXbXbXbXbXbXbXbXbXbXbXbXbXbXbXbXbXbXbXbXbXbXbXbXbXbXbXbXbXbXbXbXbXbXbXbXbXbXbXbXbXbXbXbXbXbXbXbXbXbXbXbXbXbXbXbXbXbXbXbXbXbXbXbXbX",
"bXbXbXbXbXbXbXbXbXbXbXbXbXbXbXbXbXbXbXbXbXbXbXbXbXbXbXbXbXbXbXbXbXbXbXbXbXbXbXbXbXbXbXbXbXbXbXbXbXbXbXbXbXbXbXbXbXbXbXbXbXbXbXbXbXbXbXbXbXbXbXbXbXbXbX",
"bXbXbXbXbXbXbXbXbXbXbXbXbXbXbXbXbXbXbXbXbXbXbXbXbXbXbXbXbXbXbXbXbXbXbXbX1 bXbXbXbXbXbXbXbXbXbXbXbXbXbXbX; bXbXbXbXbXbXbXbXbXbXbXbXbXbXbXbXbXbXbXbXbXbX",
"bXbXbXbXbXbXbXbXbXbXbXbXbXbXbXbXbXbXbXbXbXbXbXbXbXbXbXbXbXbXbXbXbXbXbXbXn.. bXbXbXbXbXbXbXbXbXbXbXbXbXD $.bXbXbXbXbXbXbXbXbXbXbXbXbXbXbXbXbXbXbXbXbXbX",
"bXbXbXbXbXbXbXbXbXbXbXbXbXbXbXbXbXbXbXbXbXbXbXbXbXbXbXbXbXbXbXbXbXbXbXbXm.. bXbXbXbXbXbXbXbXbXbXbXbX  M.  bXbXbXbXbXbXbXbXbXbXbXbXbXbXbXbXbXbXbXbXbXbX",
"bXbXbXbXbXbXbXbXbXbXbXbXbXbXbXbXbXbXbXbXbXbXbXbXbXbXbXbXbXbXbXbXbXbXbXbXc.. bXbXbXbXbXbXbXbXbXbXbXbX  M.  bXbXbXbXbXbXbXbXbXbXbXbXbXbXbXbXbXbXbXbXbXbX",
"bXbXbXbXbXbXbXbXbXbXbXbXbXbXbXbXbXbXbXbXbXbXbXbXbXbXbXbXbXbXbXbXbXbXbXv.P bXbXbX  bXbXbX  bXbXbXbXbX  M.s.bXbXbXbXbXbXbXbXbXbXbXbXbXbXbXbXbXbXbXbXbXbX",
"bXbXbXbXbXbXbXbXbXbXbXbXbXbXbXbXbXbXbXbXbXbXbXbXbXbXbXbXbXbXbXbXbXbXD rXF . bXbX  bX  bX  bX    bXbXbX$.rXbXbXbXbXbXbXbXbXbXbXbXbXbXbXbXbXbXbXbXbXbXbX",
"bXbXbXbXbXbXbXbXbXbXbXbXbXbXbXbXbXbXbXbXbXbXbXbXbXbXbXbXbX. bX. bXv.rXh.bX. bX. .   .   .     bXbXbXbX. rXbXbXbXbXbXbXbXbXbXbXbXbXbXbXbXbXbXbXbXbXbXbX",
"bXbXbXbXbXbXbXbXbXbXbXbXbXbXbXbXbXbXbXbXbXbXbXbXbXbX. bXbX  bX. 1 iXuXD bX  .   .     . .   bX  bX. bXbXs.D bXbXbXbXbXbXbXbXbXbXbXbXbXbXbXbXbXbXbXbXbX",
"bXbXbXbXbXbXbXbXbXbXbXbXbXbXbXbXbXbXbXbXbXbXbXbXbXbX. bX  bXX . -XxXs.X .   . .   .   .   . . . . . bXbXP yXbXbXbXbXbXbXbXbXbXbXbXbXbXbXbXbXbXbXbXbXbX",
"bXbXbXbXbXbXbXbXbXbXbXbXbXbXbXbXbXbXbXbXbXbXbXbXbXbX.   .     j.xXiXD . X X . X .   o %.5X>.. . X bXbXbXbXrXrXbXbXbXbXbXbXbXbXbXbXbXbXbXbXbXbXbXbXbXbX",
"bXbXbXbXbXbXbXbXbXbXbXbXbXbXbXbXbXbXbXbXbXbX.     bXbX.   X . h.xXrX1 . .   X .   q `.sXsXgX%..     bXbXbXs.-XbXbXbXbXbXbXbXbXbXbXbXbXbXbXbXbXbXbXbXbX",
"bXbXbXbXbXbXbXbXbXbXbXbXbXbXbXbXbXbXbXbXbXbXbX.   . .   X X X h.xXyX, .   . @ 1 D e .XgX6X.X' + F . bXbXbXF n.D bXbXbXbXbXbXbXbXbXbXbXbXbXbXbXbXbXbXbX",
"bXbXbXbXbXbXbXbXbXbXbXbXbXbXbXbXbXbXbXbXbX.   bX    # . . . . F tXxXrXF F z.pX-X. ] .X) { _.I . h.s.s.P s.pXtX; bXbXbXbXbXbXbXbXbXbXbXbXbXbXbXbXbXbXbX",
"bXbXbXbXbXbXbXbXbXbXbXbXbXbXbXbXbXbXbXbXbXbX. . & & h y t t . . $.uXxXvXvXxXn.X 7 #X@X^.#X@X[ X   h.yXpXcXpXrXbXbXbXbXbXbXbXbXbXbXbXbXbXbXbXbXbXbXbXbX",
"bXbXbXbXbXbXbXbXbXbXbXbXbXbXbXbXbXbXbXbXbXbXh u 5.t.t t 3.# & % . 1 h.yXtXs.] . 6 | ;.'.`.'.P y . . K s.rXn.F bXbXbXbXbXbXbXbXbXbXbXbXbXbXbXbXbXbXbXbX",
"bXbXbXbXbXbXbXbXbXbXbXbXbXbXbXbXbXbXbXbX# 2.6.6.1.4.s g 3.p t . . . . . . : :X: _ o n '.zXlXs.t & # 3.N t # $ # bXbXbXbXbXbXbXbXbXbXbXbXbXbXbXbXbXbXbX",
"bXbXbXbXbXbXbXbXbXbXbXbXbXbXbXbXbXbXbXbXk 1.7.q.1.5.k h m n & G G e k.7 5 + 4X:.*.o / sXzXaX{ 6 t # k d 2.t N t bXbXbXbXbXbXbXbXbXbXbXbXbXbXbXbXbXbXbX",
"bXbXbXbXbXbXbXbXbXbXbXbXbXbXbXbXbXbXbX3.0.6.7.5.1.7.: [ e *.1 k.>.) >Xe ( >..X].G e 5 ] >.e Q ;.6 w > k h # s 2.j # bXbXbXbXbXbXbXbXbXbXbXbXbXbXbXbXbX",
"bXbXbXbXbXbXbXbXbXbXbXbXbXbXbXbXbXbXbXh 1.2.q.y q.K !..X.X.X*._.*.G K._ ~.dXk._ `.[.e @ + . 6 #X*.6 + } / > 9 2.d u bXbXbXbXbXbXbXbXbXbXbXbXbXbXbXbXbX",
"bXbXbXbXbXbXbXbXbXbXbXbXbXbXbXbXbXbXs 6.q.2.q.{ a >XfXdX2X:XOX X[.J.-.-.7XsX: q fX7X;.` ' 6 Q 5X1X: 8 5 6 U R 5 9 i . bXbXbXbXbXbXbXbXbXbXbXbXbXbXbXbX",
"bXbXbXbXbXbXbXbXbXbXbXbXbXbXbXbXbXbXh h d 3.p #Xk.qXqXjXgX0X1XXX}.).{.{.#X^.. G.2XgX:X~.).!. .6X2X| + T T Y Y C.~ z s bXbXbXbXbXbXbXbXbXbXbXbXbXbXbXbX",
"bXbXbXbXbXbXbXbXbXbXbXbXbXbXbXbXbXy 1.1.a , ~.gXXX7XhXkXkX0X].K.OX3XfXjXgX: !.{.-.;.-. .&.~.H.[.H.S.R 3 Y.U U V.F.Y j t bXbXbXbXbXbXbXbXbXbXbXbXbXbXbX",
"bXbXbXbXbXbXbXbXbXbXbXbXbXbXbXbX$ 2.7.q.a 8 [.).}.kXkXkX0X.X` K.1XgXkXkXkX@ sXkXjXhX7X:X~.-.H.K.E.T.~ o R.Y.R ! R.~ t $ bXbXbXbXbXbXbXbXbXbXbXbXbXbXbX",
"bXbXbXbXbXbXbXbXbXbXbXbXbXbXbXbXbXX # h 7 |  .^.XXkXgXXXXX:.+ Q ).1X1XgXkX1 6XkXkXkXqX1X7XdX#X6XE.F.<.: Y.Y.S.4 C.~ h t bXbXbXbXbXbXbXbXbXbXbXbXbXbXbX",
"bXbXbXbXbXbXbXbXbXbXbXbXbXbXbXbXd B 4.d 6 _ + ~. X X X[.;.Q =.].3XqXgXjXkXsX`.kXkXkXkXkX7X].!.).*X$XY T.E.E.S.4 V.R & 2.t bXbXbXbXbXbXbXbXbXbXbXbXbXbX",
"bXbXbXbXbXbXbXbXbXbXbXbXbXbXbXp w.4.N n ..w + _ G.;.G.W o o 6 ( ;. X2X7XkXsX1 5XkXkXkXgX XK.). XqXjXO Y.W.T.U 3 Y * h p bXbXbXbXbXbXbXbXbXbXbXbXbXbXbX",
"bXbXbXbXbXbXbXbXbXbXbXbXbXbXbXbX& d N / -._ &.}.1X3X9X:.. + _ K.}.2XjXkXkXkXq e kXkXkXkXhX:XH.K.1XjX/ *X*XI.C.Y Y # h p bXbXbXbXbXbXbXbXbXbXbXbXbXbXbX",
"bXbXbXbXbXbXbXbXbXbXbXbXbXbXbXk 6.5.d / ~.G.[.7X7X7XjX>Xo . 6  .K.].9XfXkXkXq F kXkXkXdX.X~.J.).3XhX'.kXfX:XH.A.V.9 h t bXbXbXbXbXbXbXbXbXbXbXbXbXbXbX",
"bXbXbXbXbXbXbXbXbXbXbXbXbXbX& 2.2.j d G ~.]. XdXgX7XfX:Xo + 6 w -.]. X1X4XdX7 q dX0X5X[.-.=.>.-.!.9X%.0X2X~.~ Y.F.Y p p bXbXbXbXbXbXbXbXbXbXbXbXbXbXbX",
"bXbXbXbXbXbXbXbXbXbXbXbXbXbXbXt m 4.m 5 ^ _.XXhX2XdX1X!.@ w | W _ ^ G.K.G.).+ + ^.K.` Q E %.:._ E G.5 K.-.Q ~ E.Y.Q p & bXbXbXbXbXbXbXbXbXbXbXbXbXbXbX",
"bXbXbXbXbXbXbXbXbXbXbXbXbXbX& 3.6.0.v @ : ;. XgXdXgX3X| . / =.%.J.^ Q W | ` 2 ^ %.*.| J.`. X.X|.'.*.w 6 W O C.R.F.Y p s bXbXbXbXbXbXbXbXbXbXbXbXbXbXbX",
"bXbXbXbXbXbXbXbXbXbXbXbXbXbXbXp d 7.k 6 W ` }.qXkXgX.X7 . @ ^ ' =... . ._.>X2 3X!...L.XX3XXX X1X0X5X|.. e 5 C.R.P.! & h bXbXbXbXbXbXbXbXbXbXbXbXbXbXbX",
"bXbXbXbXbXbXbXbXbXbXbXbXbXbXbXk 0.1.b ` ).| =.XXdXdX` y d . + Q w _ ....).!.:./.Z.Z.Z.K.K.H.-.L.{.oX9Xe o 3 C.Y.S.* u t bXbXbXbXbXbXbXbXbXbXbXbXbXbXbX",
"bXbXbXbXbXbXbXbXbXbXbXbXbX# q.d k 2./ .XgX3XG  .;._ N N N g % 5 ( H._.( Z.+ Z.Z. . X1XgXfX1X]. X0XXX^ }.w O V.D.Y h 5.t   bXbXbXbXbXbXbXbXbXbXbXbXbXbX",
"bXbXbXbXbXbXbXbXbXbXbXbXbXbX& s & $ E :XhXkXXX5 : t 1.N 1.1.i 9 9 / ` ' + o Z.+ ).oXqXkXhX2X X7XkXgX&.5 w   4 U 4 h k # bXbXbXbXbXbXbXbXbXbXbXbXbXbXbX",
"bXbXbXbXbXbXbXbXbXbXbXbXbX3.q.6.1.% E :XhXkXgX] }.Q 1.1.1.N 1.u % 6 X.X.O ].Z.` =.|.XX1XXX~.=.{.:XXXK. .3   4 U 9 g h bXbXbXbXbXbXbXbXbXbXbXbXbXbXbXbX",
"bXbXbXbXbXbXbXbXbXbXbXbXbX  # 4.q.K ^ J.1XgXhXOXkX*.1.N 1.N i # % 8 X. . .OX2X` Z...;.G.G.;.=.G.;.-.K.o 4 U T T Q % j y bXbXbXbXbXbXbXbXbXbXbXbXbXbXbX",
"bXbXbXbXbXbXbXbXbXbXbXbXbXbXs w.5.G _ :.0XkXgX7XkX*.1.1.1.u , v M J V V b 8 >X% Z.).7XgXgX#X).6XqX X^ . F O A.T.L.} h d bXbXbXbXbXbXbXbXbXbXbXbXbXbXbX",
"bXbXbXbXbXbXbXbXbXbXbXbXbX$ q.4.h n =.~. XdXXX7XgX' 1.1.m y % , * m J y.9.K F h.'._.@X|.[.k.] !.|.| ; > 8.3 ~ T.<Xx.s 3.t bXbXbXbXbXbXbXbXbXbXbXbXbXbX",
"bXbXbXbXbXbXbXbXbXbXbXbXbX# k h u c *.G.].3X~.2X2X^ 1.1.g , V M V 9.y.M j.tXm.vXtXI rXiXn.rXn.x.yXF j.z V v R T.E.k.& $ bXbXbXbXbXbXbXbXbXbXbXbXbXbXbX",
"bXbXbXbXbXbXbXbXbXbXbXbXbXs t.e.F a ) *.' '._ !./.7 1.1.m % x v M 8.b , M.uXv.pXiXF rXxXuXtXiX-XrXj.B.F b z Y S.E.l.$ p bXbXbXbXbXbXbXbXbXbXbXbXbXbXbX",
"bXbXbXbXbXbXbXbXbXbXbXbXbXl h x @.r @.@.@ x.r x.aX$ j 1.p x V 8.V M a > P K K s.N.n.P h.h.s.h.y.h.j.F P > J 6 w U.#.F x.r bXbXbXbXbXbXbXbXbXbXbXbXbXbX",
"bXbXbXbXbXbXbXbXbXbXbXbXbX$ h 1.7 + r r @ @.: ,.zX; h h % 8.y.V z x z % M y.V ; P h.) ,.x.,.,.[ P z.v 8.> J q 5 #.#.+.#.bXbXbXbXbXbXbXbXbXbXbXbXbXbXbX",
"bXbXbXbXbXbXbXbXbXbXbXbXX 2.7.k 6.s 2 6 Q Q Q q I +.=Xt % V M % , M M M y.u.z 4 h.yX{ /.k./.(./ n.s.b u.c > 2 5 ^ F v e.2.bXbXbXbXbXbXbXbXbXbXbXbXbXbX",
"bXbXbXbXbXbXbXbXbXbXbXbXbX& k # p d z *.3X0XoXe # : F g % z . . % z M y.y.F * X.f s.i.Q.i.i.Q.n F v.; M J z 6 -.~.w t s & bXbXbXbXbXbXbXbXbXbXbXbXbXbX",
"bXbXbXbXbXbXbXbXbXbXbXbXbX# 6.5.1.6.x :.sXkX9XM N N N m ; M x J 9.y.y.J @ =XV Z.h.iXj.9 z 7 9 7 -XlX,.X ; > _ oX].Q & 3.2.bXbXbXbXbXbXbXbXbXbXbXbXbXbX",
"bXbXbXbXbXbXbXbXbXbXbXbXbX3.m k r.4.v |.kXkXjX%.o N N m , M . . . o . . ,X[ P 1 v.iXs.n.b.N.c.F tXD . m.3 5 -.K.$XK.n $ X bXbXbXbXbXbXbXbXbXbXbXbXbXbX",
"bXbXbXbXbXbXbXbXbXbXbXbXbXbX# k 4.u / .XgXgXkXgXqX[ N N 9.9.F % n n b 8 &Xq 1 a.O.p.n.M.n.z.z.z.O.2 @.eXo 1 [ :.8X X[ 2.2.bXbXbXbXbXbXbXbXbXbXbXbXbXbX",
"bXbXbXbXbXbXbXbXbXbXbXbXbX# 5.q.q.l _ .XqXgXjXkXkX7X7 v 9.1 q 1 1 P 0 r 1 %X2 Z p.f.a.d.a.L S C ; Z #.; #.,XG :X1X{.=.+ 6.> bXbXbXbXbXbXbXbXbXbXbXbXbX",
"bXbXbXbXbXbXbXbXbXbXbXbXbXk 5.k $ s *.9XgXdXkXkX8X7X4X/ 8.F #.,.;Xx.,.'.m.I H = X - < < 2 = = = H o.o.O.@.+.,.}._ _ =.v d # bXbXbXbXbXbXbXbXbXbXbXbXbX",
"bXbXbXbXbXbXbXbXbXbXbXbXbXbX# h t # ] 6XhXkXgXkX$XG.@XG J % % @.%X@.,.,.f.o.- = . % x a . . 2 = 0 C C C 0 @ e W e ^ ' V k $   bXbXbXbXbXbXbXbXbXbXbXbX",
"bXbXbXbXbXbXbXbXbXbXbXbXbXbXk 6.5.d n @X9XfX6X6X7X... z J , z < L z.O.p.a.D H 0 < % M b ; - 0 0 L L Z o.L o 6 ` G.&.] v B 2.bXbXbXbXbXbXbXbXbXbXbXbXbX",
"bXbXbXbXbXbXbXbXbXbXbXbXbXX k h u t M '.[.#X9X;.9X].= m V % , H a.g.c.n.g.d.A < A a M c f - Z C L p.o.a.o.o Q  .K.| v N h k bXbXbXbXbXbXbXbXbXbXbXbXbX",
"bXbXbXbXbXbXbXbXbXbXbXbXbXbX$ 4.k t g G ] _ ' 6 { i.u a x , < L g.b.M.c.O.O.f.H f M M M , 0 S H L o.o.o.H . z 8 G v g h 2.$ bXbXbXbXbXbXbXbXbXbXbXbXbX",
"bXbXbXbXbXbXbXbXbXbXbXbXbX# 3.3.h k d j u u g g N N N > > d < L z.-Xb.d.O.c.z.Z c M M M , < C S p.p.S S C . > & N g u 2.h bXbXbXbXbXbXbXbXbXbXbXbXbXbX",
"bXbXbXbXbXbXbXbXbXbXbXbXbXbXh k 6.k h j u y N h 1.1.N > % c C L O.g.d.d.b.M.o.@ M M M M , 2 0 Z S o.H L A - # u m t u j h bXbXbXbXbXbXbXbXbXbXbXbXbXbX",
"bXbXbXbXbXbXbXbXbXbXbXbXbXbX# 2.h # s s g p m g # 1.N > ; c L g.g.d.d.b.M.g.Z 2 M M M M , - = A C S S S C 0 $ m N N N 6.p . bXbXbXbXbXbXbXbXbXbXbXbXbX",
"bXbXbXbXbXbXbXbXbXbXbXbXbXbX# s h 6.6.2.N t 0.d t g N , M D L z.m.M.N.n.z.a.= v M M M M p < H H 0 S o.o.Z A $ N m u & h h l bXbXbXbXbXbXbXbXbXbXbXbXbX",
"bXbXbXbXbXbXbXbXbXbXbXbXbXbXbXs 0.2.q.q.s # q.l N y 1.u v b Z p.b.-XM.z.n.Z c M M M M M M f A p.a.a.o.Z Z C t N m m d w.p bXbXbXbXbXbXbXbXbXbXbXbXbXbX",
"bXbXbXbXbXbXbXbXbXbXbXbXbXbXbX3.2.3.k s p h t d N u N N p , > Z o.p.d.g.p.C v M M M M M M v f 0 C C C Z < y 1.d # t k h 3.$ bXbXbXbXbXbXbXbXbXbXbXbXbX",
"bXbXbXbXbXbXbXbXbXbXbXbXbXbX  & 5.k p 3.s w.t 6.1.h & N m u > < . = C C = ; M M M M M M M M M c 2   2 2 1.1.g 5.5.g N j 0.p bXbXbXbXbXbXbXbXbXbXbXbXbX",
"bXbXbXbXbXbXbXbXbXbXbXbXbXbXbXh 3.2.3.w.l 2.p w.q.s 1.h t 1.g > - . . . x c x b c v c c c x v x #   0 . N N m m 2.h h p & 3.# bXbXbXbXbXbXbXbXbXbXbXbX",
"bXbXbXbXbXbXbXbXbXbXbXbXbXbXbXh p k k w.h $ w.3.# d N i m N h f 0 2 $ h N & & t & & & & & * & g %   < . h h g t h 2.N h $ bXbXbXbXbXbXbXbXbXbXbXbXbXbX",
"bXbXbXbXbXbXbXbXbXbXbXbXbXbXbXbXbX> p 2.s s t.k d 2.h y h g i - - X g g N 1.N 1.m 1.N 1.N N N m #   < X m # h & j h h $ bXbXbXbXbXbXbXbXbXbXbXbXbXbXbX",
"bXbXbXbXbXbXbXbXbXbXbXbXbXbXbXbXbX. bX# bX0.q.u r.h B 3.u g i - ; X g y N m m N i m g 1.i i N & i X ; . g t t & h s $ # bXbXbXbXbXbXbXbXbXbXbXbXbXbXbX",
"bXbXbXbXbXbXbXbXbXbXbXbXbXbXbXbXbXbXbXbXbXk h j r.y 7.w.g N t = . # m h N i u N & u u N u y m i g . .   t N t i & bXbXbXbXbXbXbXbXbXbXbXbXbXbXbXbXbXbX",
"bXbXbXbXbXbXbXbXbXbXbXbXbXbXbXbXbXbXbXbXbXbXbX3.h $ r.N N g # # X & m h t m & N & m u i N i g m g u . . & & # % X bXbXbXbXbXbXbXbXbXbXbXbXbXbXbXbXbXbX",
"bXbXbXbXbXbXbXbXbXbXbXbXbXbXbXbXbXbXbXbXbXbXbXp bXbX3.& u s X . X # m g t N # m & g i & N y i g h g . X # bX  bXbXbXbXbXbXbXbXbXbXbXbXbXbXbXbXbXbXbXbX",
"bXbXbXbXbXbXbXbXbXbXbXbXbXbXbXbXbXbXbXbXbXbXbXbXbXbXbXbX# .   X X X m & # m bX$ bX# bXbX& # g & t bX  .   bXbXbXbXbXbXbXbXbXbXbXbXbXbXbXbXbXbXbXbXbXbX",
"bXbXbXbXbXbXbXbXbXbXbXbXbXbXbXbXbXbXbXbXbXbXbXbXbXbXbXbXbX  .   . bX. bXbXX bXbXbXbX. bXbXbXbXbXbXbX.   . .   bXbXbXbXbXbXbXbXbXbXbXbXbXbXbXbXbXbXbXbX",
"bXbXbXbXbXbXbXbXbXbXbXbXbXbXbXbXbXbXbXbXbXbXbXbXbXbXbXbX. X .   bXbXbXbXbXbXbXbXbXbXbXbXbXbXbXbXbXbXbXbXbXbXbXbXbXbXbXbXbXbXbXbXbXbXbXbXbXbXbXbXbXbXbX",
"bXbXbXbXbXbXbXbXbXbXbXbXbXbXbXbXbXbXbXbXbXbXbXbXbXbXbXbXbXbXbXbXbXbXbXbXbXbXbXbXbXbXbXbXbXbXbXbXbXbXbXbXbXbXbXbXbXbXbXbXbXbXbXbXbXbXbXbXbXbXbXbXbXbXbX"
};
