/* XPM */
static char *result[] = {
/* columns rows colors chars-per-pixel */
"75 75 239 2 ",
"   c #030203",
".  c #090407",
"X  c #06060A",
"o  c #0B060A",
"O  c #0D0A0C",
"+  c #0F0807",
"@  c #120B0E",
"#  c #15090B",
"$  c #0B0A13",
"%  c #0E0D1B",
"&  c #090711",
"*  c #140D12",
"=  c #1A0E15",
"-  c #110E1B",
";  c #1B0F1E",
":  c #151213",
">  c #1B1314",
",  c #14121E",
"<  c #1C1319",
"1  c #1B1A1B",
"2  c #171A17",
"3  c #15120C",
"4  c #230F16",
"5  c #21141B",
"6  c #241C1B",
"7  c #271918",
"8  c #361917",
"9  c #142418",
"0  c #2B221E",
"q  c #262618",
"w  c #352F1D",
"e  c #151224",
"r  c #1A1524",
"t  c #1C1B24",
"y  c #1A162C",
"u  c #1C1A2C",
"i  c #16142A",
"p  c #1C1A33",
"a  c #1D1B3A",
"s  c #171533",
"d  c #120F21",
"f  c #231D22",
"g  c #281A27",
"h  c #371927",
"j  c #221D35",
"k  c #221E3B",
"l  c #2B1E34",
"z  c #240F21",
"x  c #2A2D2C",
"c  c #282527",
"v  c #322623",
"b  c #352924",
"n  c #3A2C25",
"m  c #342D2C",
"M  c #3C2A2A",
"N  c #2D302F",
"B  c #393528",
"V  c #25213D",
"C  c #2C2634",
"Z  c #352637",
"A  c #2D3232",
"S  c #2E3832",
"D  c #313434",
"F  c #3C3D3B",
"G  c #363838",
"H  c #1F2228",
"J  c #411C1A",
"K  c #572B1A",
"L  c #481E2C",
"P  c #482728",
"I  c #42342D",
"U  c #403825",
"Y  c #452736",
"T  c #5A2736",
"R  c #4C3B33",
"E  c #463934",
"W  c #543D39",
"Q  c #572A26",
"!  c #78382C",
"~  c #662C32",
"^  c #733434",
"/  c #673730",
"(  c #75381E",
")  c #3C413D",
"_  c #46442B",
"`  c #42423D",
"'  c #4A4335",
"]  c #54423B",
"[  c #59463E",
"{  c #5B493D",
"}  c #524636",
"|  c #595736",
" . c #55532F",
".. c #644A3B",
"X. c #625B3D",
"o. c #744826",
"O. c #6B673C",
"+. c #211D43",
"@. c #252243",
"#. c #2A2445",
"$. c #2C274E",
"%. c #2D284E",
"&. c #282449",
"*. c #3D2B43",
"=. c #312B4B",
"-. c #383B45",
";. c #2C2750",
":. c #2D2851",
">. c #312B55",
",. c #332D5A",
"<. c #37335B",
"1. c #3B3662",
"2. c #1E1F43",
"3. c #422E49",
"4. c #45314C",
"5. c #47354B",
"6. c #4B3551",
"7. c #4C3954",
"8. c #523B59",
"9. c #592A45",
"0. c #753856",
"q. c #6C3449",
"w. c #3E4343",
"e. c #434543",
"r. c #464C4A",
"t. c #494E4C",
"y. c #454747",
"u. c #5B4740",
"i. c #5E4A41",
"p. c #544642",
"a. c #4B514C",
"s. c #57435C",
"d. c #4C5351",
"f. c #565756",
"g. c #4C4E55",
"h. c #634C44",
"j. c #6C4743",
"k. c #764B49",
"l. c #665046",
"z. c #6C564A",
"x. c #6B5649",
"c. c #725A4E",
"v. c #76584A",
"b. c #785D51",
"n. c #655158",
"m. c #787346",
"M. c #7C6255",
"N. c #7D675B",
"B. c #6C654E",
"V. c #5B4464",
"C. c #4E4F6F",
"Z. c #644B6C",
"A. c #6C5273",
"S. c #74577C",
"D. c #684E71",
"F. c #5C636A",
"G. c #666663",
"H. c #767979",
"J. c #71706E",
"K. c #803E2A",
"L. c #8A4429",
"P. c #944B26",
"I. c #8A4935",
"U. c #995234",
"Y. c #A3573D",
"T. c #B26839",
"R. c #C27539",
"E. c #853F4A",
"W. c #88424A",
"Q. c #944C4C",
"!. c #8F4C50",
"~. c #A65B45",
"^. c #827C4A",
"/. c #836559",
"(. c #866A5B",
"). c #8A6D5C",
"_. c #816757",
"`. c #8F6858",
"'. c #B16441",
"]. c #8E7160",
"[. c #937564",
"{. c #9C7D6A",
"}. c #977865",
"|. c #926B60",
" X c #AF7F65",
".X c #C47D4D",
"XX c #8D8A52",
"oX c #AB8F5B",
"OX c #84847D",
"+X c #9C8175",
"@X c #A4826E",
"#X c #A68570",
"$X c #A98772",
"%X c #AD8A74",
"&X c #AD8D79",
"*X c #B18D76",
"=X c #B28F78",
"-X c #B5917A",
";X c #BB957B",
":X c #BA926F",
">X c #ADA761",
",X c #7B5D84",
"<X c #775A80",
"1X c #787D85",
"2X c #6F6E84",
"3X c #82638D",
"4X c #886792",
"5X c #93709E",
"6X c #868786",
"7X c #928D8E",
"8X c #939288",
"9X c #888A92",
"0X c #959595",
"qX c #8F8F97",
"wX c #B99883",
"eX c #A7A599",
"rX c #969AA7",
"tX c #8B93A4",
"yX c #AAA9A7",
"uX c #B6B6AA",
"iX c #A5AAB5",
"pX c #B8B9B7",
"aX c #ADB1B1",
"sX c #C39C83",
"dX c #CAA189",
"fX c #C7BFBB",
"gX c #C3C3B7",
"hX c #BDBFC4",
"jX c #C7C7C6",
"kX c #D5D5C9",
"lX c #DBDBD6",
"zX c #CECCCE",
"xX c #E2E2D6",
"cX c #DBDDE4",
"vX c #E8E8E6",
"bX c #F3F4F3",
"nX c #F5F5E9",
"mX c #DDE2E9",
"MX c None",
/* pixels */
"MXMXMXMXMXMXMXMXMXMXMXMXMXMXMXMXMXMXMXMXMXMXMXMXMXMXMXMXMXMXMXMXMXMXMXMXMXMXMXMXMXMXMXMXMXMXMXMXMXMXMXMXMXMXMXMXMXMXMXMXMXMXMXMXMXMXMXMXMXMXMXMXMXMXMX",
"MXMXMXMXMXMXMXMXMXMXMXMXMXMXMXMXMXMXMXMXMXMXMXMXMXMXMXMXMXMXMXMXMXMXMXMXMXMXMXMXMXMXMXMXMXMXMXMXMXMXMXMXMXMXMXMXMXMXMXMXMXMXMXMXMXMXMXMXMXMXMXMXMXMXMX",
"MXMXMXMXMXMXMXMXMXMXMXMXMXMXMXMXMXMXMXMXMXMXMXMXMXMXMXMXf.MXMXMXMXMXMXMXMXMXMXMXMXMXD MXMXMXMXMXMXMXMXMXMXMXMXMXMXMXMXMXMXMXMXMXMXMXMXMXMXMXMXMXMXMXMX",
"MXMXMXMXMXMXMXMXMXMXMXMXMXMXMXMXMXMXMXMXMXMXMXMXMXMXMXMX7Xe.MXMXMXMXMXMXMXMXMXMXMX  6XMXMXMXMXMXMXMXMXMXMXMXMXMXMXMXMXMXMXMXMXMXMXMXMXMXMXMXMXMXMXMXMX",
"MXMXMXMXMXMXMXMXMXMXMXMXMXMXMXMXMXMXMXMXMXMXMXMXMXMXMXMXx ` MXMXMXMXMXMXMXMXMXMXMX  f.MXMXMXMXMXMXMXMXMXMXMXMXMXMXMXMXMXMXMXMXMXMXMXMXMXMXMXMXMXMXMXMX",
"MXMXMXMXMXMXMXMXMXMXMXMXMXMXMXMXMXMXMXMXMXMXMXMXMXMXMXMXOXa.MXMXMXMXMXMXMXMXMXMXMX  OXO MXMXMXMXMXMXMXMXMXMXMXMXMXMXMXMXMXMXMXMXMXMXMXMXMXMXMXMXMXMXMX",
"MXMXMXMXMXMXMXMXMXMXMXMXMXMXMXMXMXMXMXMXMXMXMXMXMXMXMX. eX  MXMXMXMXMXMXMXMXMXMXMXMXa.p.MXMXMXMXMXMXMXMXMXMXMXMXMXMXMXMXMXMXMXMXMXMXMXMXMXMXMXMXMXMXMX",
"MXMXMXMXMXMXMXMXMXMXMXMXMXMXMXMXMXMXMXMXMXMXMXMXMXMXMXG.B MXMX@ . MXMXMXMXMXMXMXMXMXMXuX9 MXMXMXMXMXMXMXMXMXMXMXMXMXMXMXMXMXMXMXMXMXMXMXMXMXMXMXMXMXMX",
"MXMXMXMXMXMXMXMXMXMXMXMXMXMXMXMXMXMXMXMXMXMX  MXMXMX` eXx MX  < o MXMXMXMXMXMXMXMXo   G.J.MXMXMXMXMXMXMXMXMXMXMXMXMXMXMXMXMXMXMXMXMXMXMXMXMXMXMXMXMXMX",
"MXMXMXMXMXMXMXMXMXMXMXMXMXMXMXMXMXMXMXMX  = * MXMX  8XuXMXMX  . MX  O MXMXMXo MXMX  <   eXG.MXMXMXMX@   MXMXMXMXMXMXMXMXMXMXMXMXMXMXMXMXMXMXMXMXMXMXMX",
"MXMXMXMXMXMXMXMXMXMXMXMXMXMXMXMXMXMXMXMX. * . MXMX6X8Xm MXMX. . MX. . MX. @ o * MX* . MXJ.yXMXMXMXMX@   MXMXMXMXMXMXMXMXMXMXMXMXMXMXMXMXMXMXMXMXMXMXMX",
"MXMXMXMXMXMXMXMXMXMXMXMXMXMXMXMXMXMX@ 5 . O MXo MXeXx O . . < . .   @ . * < @ .   + MXo 3 gX` MXMX+ < MX  O MXMXMXMXMXMXMXMXMXMXMXMXMXMXMXMXMXMXMXMXMX",
"MXMXMXMXMXMXMXMXMXMXMXMXMXMXMXMXMXMXMXMX* = MX+ E gXF : MX* = @ O = = 5 * * = # * o + = . [.8X+ * < = o @ @ MXMXMXMXMXMXMXMXMXMXMXMXMXMXMXMXMXMXMXMXMX",
"MXMXMXMXMXMXMXMXMXMXMXMXMXMXMXMXMX. MXMX. =   o f.gXE * MX# = = > = = # b 8 > 7 < = > @ X w.gX) 5 5 + MXMXMXMXMXMXMXMXMXMXMXMXMXMXMXMXMXMXMXMXMXMXMXMX",
"MXMXMXMXMXMXMXMXMXMXMXMXMXMXMXMX* * MXMX* = <   0XgXe.= > < > > G.* > _.[./.* f.  = > 5 : gXxX) 5 = < < @ < + MXMXMXMXMXMXMXMXMXMXMXMXMXMXMXMXMXMXMXMX",
"MXMXMXMXMXMXMXMXMXMXMXMXMXMXMXMX. < = # * < 4 > ' lXyX` : E f.eX` 5 # c.2 E n OXuXf.5 : 6XjXlX) 5 < * - * O MXMXMXMXMXMXMXMXMXMXMXMXMXMXMXMXMXMXMXMXMX",
"MXMXMXMXMXMXMXMXMXMXMXMXMXMXMXMXMXo + O O = . < m vXlXkXuXxXnXe.o 5 > b.@Xx.  c 0XkXgXgXlXkXkX+ - $ <.j t MXX MXMXMXMXMXMXMXMXMXMXMXMXMXMXMXMXMXMXMXMX",
"MXMXMXMXMXMXMXMXMXMXMXMXMXMXMXMXMXMX, & y a * * < 1 gXOXeX6 f 4 = 5 6 . N.fX  @ > f G.gXkXgX@ > & ;.$.$.@.=.O MXMXMXMXMXMXMXMXMXMXMXMXMXMXMXMXMXMXMXMX",
"MXMXMXMXMXMXMXMXMXMXMXMXMXMXMXMXMXMX%.<.:.+.@ & = < . .   < = = 5 v + 7 eX7X  @ * * + X e.. > * , $.$.%.%.& MXMXMXMXMXMXMXMXMXMXMXMXMXMXMXMXMXMXMXMXMX",
"MXMXMXMXMXMXMXMXMXMXMXMXMXMXMXMXMX, @.%.:.;.,.+ <   < + > <   = 5   * . 5 =   <   R v @ 3 > + . . $.:.$.>.,.<.<.MXMXMXMXMXMXMXMXMXMXMXMXMXMXMXMXMXMXMX",
"MXMXMXMXMXMXMXMXMXMXMXMXMXMXMXMXe @.:.$.$.:.+.< * ;.* - @ 5 v > = O v n @ m ] v + h.7 v W @   8 s k - &.- @.>.j MXMXMXMXMXMXMXMXMXMXMXMXMXMXMXMXMXMXMX",
"MXMXMXMXMXMXMXMXMXMXMXMXMXMXMXMXt 1.:.:.u e a < = f v 6 @ 5 u.@ o : [.[ W z.*Xh.+ @ ] h./ 4 ! ~ 7 4 K K Q # #.<.X MXMXMXMXMXMXMXMXMXMXMXMXMXMXMXMXMXMX",
"MXMXMXMXMXMXMXMXMXMXMXMXMXMXMX  u ;.:.< h.[ 0 @ v i.[ [ } 6 $ h.I 6 *Xh.R u.;X$X_.* 8 ! L.P.^ ~ P.! L.^ T ^ < >.C.p , % MXMXMXMXMXMXMXMXMXMXMXMXMXMXMX",
"MXMXMXMXMXMXMXMXMXMXMXMXMXMXV k $.$.>.- u.[ h.R [ [ i.[ { * * I * 7 c.[ 0 b c.^ L.. 4 P.~ T ! ~ P.! ~ P.L.K.L t ,.C.<.,.MXMXMXMXMXMXMXMXMXMXMXMXMXMXMX",
"MXMXMXMXMXMXMXMXMXMXMXMXMXMXMX@.%.$.p + u.[ u.[ [ i.W (.] o I R @ h.u.[ v I p.P.K.+ 8 P.L.P.P.I.^ K.! ! P.! J a ;.>.,.e MXMXMXMXMXMXMXMXMXMXMXMXMXMXMX",
"MXMXMXMXMXMXMXMXMXMXMXMXMXMXi C %.p ] [ u.u.u.[ [ l.].i.u.< + u.] [ [ [ 0 I ] `./ < 7 L.~ ~ K.E.~.../ ! ~ ~ K.K ,.&.p X MXMXMXMXMXMXMXMXMXMXMXMXMXMXMX",
"MXMXMXMXMXMXMXMXMXMXMXMXMXMXMX$.;.: [ h.u.u.i.].(.@X#X/.h.b * W #X@X@Xc.v I _.-X..: I.T.U.I.R.@X:XI {.P.^ P.~ T i >.,.. MXMXMXMXMXMXMXMXMXMXMXMXMXMXMX",
"MXMXMXMXMXMXMXMXMXMXMXMXMXr #.>.t l.).#X[ l.*X$X%XE =X%X=X=Xb @ b &X$X$X{ (.$X$X&XR X {.*X%X&X%X#X}.$X XE.P.L.I.I.g :.l e MXMXMXMXMXMXMXMXMXMXMXMXMXMX",
"MXMXMXMXMXMXMXMXMXMXMXMXMX- V @.b b.%X$X}.(.=X*X(.0 @X{.$X*Xv o [ %X*X$X{ x.$X&X%X[.5 + %X%X#X@Xc.{.%XT.'.Q.K.P.~.J p $.e MXMXMXMXMXMXMXMXMXMXMXMXMXMX",
"MXMXMXMXMXMXMXMXMXMXMXMXr e %.p [ -X%X%X=X[.*X%X%X4 W dXwX(.@ b ;XsXM.7 {.{.v [.sXsXl.* } sXsXM.8 {.&XR.Q.!.T I.T.I.% % & $ MXMXMXMXMXMXMXMXMXMXMXMXMX",
"MXMXMXMXMXMXMXMXMXMXMXMX, >.:.: l.=X%X%X&X%X%X%X{.4 j.b.@ @ } M P R k.h.] (.).(.z.v.M.6 + v c.).j.I ;XW.~.~.T.W.!.P % $.% MXMXMXMXMXMXMXMXMXMXMXMXMXMX",
"MXMXMXMXMXMXMXMXMXMXMXMXMXy ,.: c.=X%X}.*X%X*X*X_.I W 6 > v b.k.W h.[ [ [ u...h.l.@X-Xl.* @ sX(.%XU .XR.Q.W.U.I.Q.! % $.e MXMXMXMXMXMXMXMXMXMXMXMXMXMX",
"MXMXMXMXMXMXMXMXMXMXMXMX  1.$.+.v }.}.@ =X%X%X-Xn M = . !.j.Y M @ > > l.l.{ > > @ [ [.)._.. b #X-XP !.R.Q.Q.L.T R.^ J ,.+.j MXMXMXMXMXMXMXMXMXMXMXMXMX",
"MXMXMXMXMXMXMXMXMXMXMXMX1.:.;.- R {.$X] z.{.$Xn E = b |.!.v.!.h.N.z.z.M.E v.z.c._.E @X%X@X{ o z.b./.P ~.Q.Y.4 ^ =Xn./.s >.& MXMXMXMXMXMXMXMXMXMXMXMXMX",
"MXMXMXMXMXMXMXMXMXMXMXMXj j :.b [ {.%X$X6 h.E f * O ).`...j.i.[ I [ i.v { n { h.6 ;X&X=Xl.[ * I ].}.g 8 q.! ( /.mX6XcXs k MXMXMXMXMXMXMXMXMXMXMXMXMXMX",
"MXMXMXMXMXMXMXMXMXMXMXMX% 1.$.E }.&X%X%XW } < - * { %Xk.k.h.|.=X@X[.@X#XM.$X[.@X#X{./.(.c.%X# 6 sXM p p # Q T rXcXcXcXx +.y & MXMXMXMXMXMXMXMXMXMXMXMX",
"MXMXMXMXMXMXMXMXMXMXMXMXr %.:.} *X%X}.c.M.[ - @ 5 5 }./.(.c./ M.M.M.N.i.} u.M.(.c.W z.].]./.* 7 [.- k s ~ I.s.rXqXjXiXrX-.p X MXMXMXMXMXMXMXMXMXMXMXMX",
"MXMXMXMXMXMXMXMXMXMXMXMX1.:.y @X%X*Xh.h.{.).$ O 4 i { #X2 : * c m q 0 1 y.> h.5 B n R - l v o = c.1 ,.a ~ T.iXqXv.jXtXV.g.>.$ MXMXMXMXMXMXMXMXMXMXMXMX",
"MXMXMXMXMXMXMXMXMXMXMXMXX r W c.&X}./.%X%X$XM + < & Z Z 4.Z *.G x 9X6Xw.6X9Xc 9X1X-.J.F.G l *.l g - >.# Y.Q.8XzXtXpX1XrXg.#.X MXMXMXMXMXMXMXMXMXMXMXMX",
"MXMXMXMXMXMXMXMXMXMXMXMX1.j i.l.-X[.#X$X%X&XW * = g Z 4.6.4.s.1XA qXpXpX1XhXG.0X6XF pXJ.5.6.*.6.6.e >.# Y.W.W.wXqXhXJ.9X-.e MXMXMXMXMXMXMXMXMXMXMXMXMX",
"MXMXMXMXMXMXMXMXMXMXMXMXV , W W [.{.u.;X%X$X  Z   Z 4.S.3.*.pXA F.zXlXmXG.vXJ.pXvXg.vXvXjX* *.*.3.l p * '.T.~.!.hX4X2XrXu p MXMXMXMXMXMXMXMXMXMXMXMXMX",
"MXMXMXMXMXMXMXMXMXMXMXMX,.1  .U l.b  .M %XR Z V.3.8.S.V.8.9X7XiXtXw.pXyXe.yXG.G.0XD F.F.H.; 3.A.s.8., 1 W.~.'.I w.1XqXr.i e MXMXMXMXMXMXMXMXMXMXMXMXMX",
"MXMXMXMXMXMXMXMXMXMXe <.$.% B.XXX c XXq m b A.V.7.3X8.*.S.yXzX-.H.B >  .n 7 v P X rX5.5.*.3.*.V.4X<XC 2.T U.+ | X.: 1 >X3 9 MXMXMXMXMXMXMXMXMXMXMXMXMX",
"MXMXMXMXMXMXMXMXMXMXr #.r c B N r t _ t m.E ,X3X3X8.4.V.8.3.* 5.F.J w * > * * o t H F.g 4.3.S.6.D.,XS.%.x O.E t ) t } | H | MXMXMXMXMXMXMXMXMXMXMXMXMX",
"MXMXMXMXMXMXMXMXMXMX% >._ ) C -.-.-.-.C t m 3XV.6.Z 6.4X6.8.Z 2XiXz h Y h f l Y   hXf.l 3.4.<XV.l ,X<Xk r XXc -.-.-.-.C t 9 MXMXMXMXMXMXMXMXMXMXMXMXMX",
"MXMXMXMXMXMXMXMXMXMXO k %.u 3 ] ] u.6 A > 8.<X<XZ.C S.D.4X,X  * 6X1X9.0.q.Z 0.0.Z x jX8.A.D.,X,XZ Y 6.@  .m -.R /.].wXB H $ MXMXMXMXMXMXMXMXMXMXMXMXMX",
"MXMXMXMXMXMXMXMXMXMX%.:.:., c.#X#X[.M.* % A.<X*.*.<X3X<XG ] < pXbXJ.h 9.0.L 0.q.Y hX7X5 E } Z.,XD.Z 3.4.8.$ 6 %XM.@X$X*Xt :.$ MXMXMXMXMXMXMXMXMXMXMXMX",
"MXMXMXMXMXMXMXMXMXMXk :.:.f %X%X%X%Xu.a k V.4XD.A.,XZ.m O.l Y Y 6XG.Y 0.E.*.0.9.9.Y bX0Xc m.  s.3Xs.8.3XS.r a z.[.$X&X-Xi.@.r MXMXMXMXMXMXMXMXMXMXMXMX",
"MXMXMXMXMXMXMXMXMX  :.;.:.c wX%X&X%X@Xv :.$.Z 4X4X5.M f _ X.9.6XbXhXS A S A S -.2 bXbX6Xw _ v Y V.4X,X5XC >.i /.%X%X%X-Xi.k MXMXMXMXMXMXMXMXMXMXMXMXMX",
"MXMXMXMXMXMXMXMXMXO :.;.>.c wX%X%X%X*X#Xs ;.O 4.5.h 9.q m.X.z N hXc a.t.A x G t.d.f.aXS | q XX5 z s.,Xm k &.(.=X%X%X%X-Xi.,.MXMXMXMXMXMXMXMXMXMXMXMXMX",
"MXMXMXMXMXMXMXMXMX& :.$.;.g %X%X%X$X$X&X{ k 1 m.m.2 w l.m.) f.a.S a.r.r.f.x f.r.r.d.) w.) >Xm.N A B q w &.f %X$X&X%X%X;XE ,.MXMXMXMXMXMXMXMXMXMXMXMXMX",
"MXMXMXMXMXMXMXMX  @.%.%.:.m z.sX{ sX;X[ _.V s m.m.B | ' O.N w.r.r.r.r.S x w.9 S a.r.r.e.w O.B O.x  .m.1 a 6 x.[.=X] @X{ ] ,.e MXMXMXMXMXMXMXMXMXMXMXMX",
"MXMXMXMXMXMXMX% k $.:.$.>.m u.wX{ -X%Xw sXx &.m.D XX^._ w ) r.r.r.w.1 N ) 2 d.x 2 r.r.r.r.x XXXX| m.m.% p }.> [.l.[ #XB ] ,.i MXMXMXMXMXMXMXMXMXMXMXMX",
"MXMXMXMXMXMXMXMXO - $.;.>.g sX%Xl.@X}.[.dXC ,._ w B B r.r.w.r.r.r.a.r.1 &.:.  x w.r.r.r.r.t.A B w O.| 2 s -X} -XI [ sXx.z.,.@.  MXMXMXMXMXMXMXMXMXMXMX",
"MXMXMXMXMXMXMXMXMX, %.$.$.k z.} ).c.[.$Xn #.:.% G _ ) r.r.r.r.r.t.S N H $.$.p w.x r.r.r.r.r.t.) _ N B %.&.m }.@Xx.c.N.M.Z :.$.u MXMXMXMXMXMXMXMXMXMXMX",
"MXMXMXMXMXMXMXMX. t :.$.:.:.&., { 7 } { $.:.>.c t.d.t.t.r.r.r.r.r.r.H ,.:.%.<.H a.w.r.r.r.r.r.r.f.r.w.&.%.,.[ ' ..b.X 2.:.;.>.e MXMXMXMXMXMXMXMXMXMXMX",
"MXMXMXMXMXMXMXMXMXi $.:.;.:.;.;.$.&.$.@.$.$.,.x d.r.r.r.r.r.r.r.r.x @.:.$.$.$.a x r.r.r.r.y.r.r.r.r.w.$.$.$.$.&.@.&.%.:.%.$.$.:.* MXMXMXMXMXMXMXMXMXMX",
"MXMXMXMXMXMXMXMXX #.:.$.:.%.%.:.$.$.$.$.:.$.>.1 r.r.t.r.r.r.r.r.r.a :.:.:.:.:.:.i a.r.r.r.r.r.r.r.r.w.$.;.$.$.%.%.%.:.%.:.:.;.@.MXMXMXMXMXMXMXMXMXMXMX",
"MXMXMXMXMXMXMXMX  k $.:.:.;.$.;.:.$.:.$.:.:.$.% ) r.r.r.r.r.r.d.1 :.:.$.%.:.:.%.:.H r.y.r.r.r.t.r.d.1 :.$.;.$.:.%.%.%.:.%.:.$.$.MXMXMXMXMXMXMXMXMXMXMX",
"MXMXMXMXMXMXMXMXMX% $.$.$.:.;.:.V :.;.&.:.:.$.&.u r.t.r.r.r.r.x k :.%.:.:.:.:.%.:.i D t.r.r.r.r.t.) e &.k @.2.g :.%.:.:.:.:.:.#.% MXMXMXMXMXMXMXMXMXMX",
"MXMXMXMXMXMXMXMXMX- #.$.;.$.;.#.k   V O k %.%.:.1 r.r.r.r.r.G @.:.%.$.:.:.:.$.:.;.:.k S r.r.r.r.r.t.2 MXMX  MXX y $.$.:.;.$.$.$.  MXMXMXMXMXMXMXMXMXMX",
"MXMXMXMXMXMXMXMXMXMXf :.$.;.:.MXMXMXMXMX  r d V t a.t.t.t.r.2 %.$.:.:.:.%.:.%.:.;.;.;., w.r.) r.r.MXMXMXMXMXMXMX% $.:.:.:.%.$.$.MXMXMXMXMXMXMXMXMXMXMX",
"MXMXMXMXMXMXMXMXMXMXMXk ;.%.:.MXMXMXMXMXMX    :.i   A N S 1 @.;.;.:.:.$.:.:.:.:.:.:.;.;.: 9 3 O   MXMXMXMXMXMXMX$ V :.;.:.:.:.e MXMXMXMXMXMXMXMXMXMXMX",
"MXMXMXMXMXMXMXMXMXMXMX, V :.p & MXMXMXMXMXMXMXMXMXX 2 1 t : ,.:.;.$.:.$.$.:.$.$.;.;.:.C X f 1 1 X MXMXMXMXMXMXMXMX* :.:.:.:., X MXMXMXMXMXMXMXMXMXMXMX",
"MXMXMXMXMXMXMXMXMXMXMXMX. i - MXMXMXMXMXMXMXMXMXMX  1 1 1 $ X e :.&.:.$.%.:.$.:.:.$.e . MX: 1 1   MXMXMXMXMXMXMXMX  ,.@.$., X MXMXMXMXMXMXMXMXMXMXMXMX",
"MXMXMXMXMXMXMXMXMXMXMXMXMXMX  MXMXMXMXMXMXMXMXMXMX  2 > < MXMXy =.  @.X $.;.1 V p % MXMXMXo > 1 X MXMXMXMXMXMXMXMXo j a *   MXMXMXMXMXMXMXMXMXMXMXMXMX",
"MXMXMXMXMXMXMXMXMXMXMXMXMXMXMXMXMXMXMXMXMXMXMXMXMX  2 < O MXMXMXMXMXMXMXMXX MXMXMXMXMXMXMXMX1 2 MXMXMXMXMXMXMXMXMXMXMXMXMXMXMXMXMXMXMXMXMXMXMXMXMXMXMX",
"MXMXMXMXMXMXMXMXMXMXMXMXMXMXMXMXMXMXMXMXMXMXMXMXMX  2 1   MXMXMXMXMXMXMXMXMXMXMXMXMXMXMXMXMX: 1   MXMXMXMXMXMXMXMXMXMXMXMXMXMXMXMXMXMXMXMXMXMXMXMXMXMX",
"MXMXMXMXMXMXMXMXMXMXMXMXMXMXMXMXMXMXMXMXMXMXMXMXMX  1 1 MXMXMXMXMXMXMXMXMXMXMXMXMXMXMXMXMXMX: < X MXMXMXMXMXMXMXMXMXMXMXMXMXMXMXMXMXMXMXMXMXMXMXMXMXMX",
"MXMXMXMXMXMXMXMXMXMXMXMXMXMXMXMXMXMXMXMXMXMXMXMXMXMX1 @ MXMXMXMXMXMXMXMXMXMXMXMXMXMXMXMXMXMX. 1   MXMXMXMXMXMXMXMXMXMXMXMXMXMXMXMXMXMXMXMXMXMXMXMXMXMX",
"MXMXMXMXMXMXMXMXMXMXMXMXMXMXMXMXMXMXMXMXMXMXMXMXMXo 1 O MXMXMXMXMXMXMXMXMXMXMXMXMXMXMXMXMXMX* 1 : MXMXMXMXMXMXMXMXMXMXMXMXMXMXMXMXMXMXMXMXMXMXMXMXMXMX",
"MXMXMXMXMXMXMXMXMXMXMXMXMXMXMXMXMXMXMXMXMXMXMXMXO 1 2 f MXMXMXMXMXMXMXMXMXMXMXMXMXMXMXMXMXMX2 1 2 2 MXMXMXMXMXMXMXMXMXMXMXMXMXMXMXMXMXMXMXMXMXMXMXMXMX",
"MXMXMXMXMXMXMXMXMXMXMXMXMXMXMXMXMXMXMXMXMXMXMXO 1 2 : O MXMXMXMXMXMXMXMXMXMXMXMXMXMXMXMXMXMXo : : 1 : MXMXMXMXMXMXMXMXMXMXMXMXMXMXMXMXMXMXMXMXMXMXMXMX",
"MXMXMXMXMXMXMXMXMXMXMXMXMXMXMXMXMXMXMXMXMXMXMX    MXMXMXMXMXMXMXMXMXMXMXMXMXMXMXMXMXMXMXMXMXMXMXMX    MXMXMXMXMXMXMXMXMXMXMXMXMXMXMXMXMXMXMXMXMXMXMXMX",
"MXMXMXMXMXMXMXMXMXMXMXMXMXMXMXMXMXMXMXMXMXMXMXMXMXMXMXMXMXMXMXMXMXMXMXMXMXMXMXMXMXMXMXMXMXMXMXMXMXMXMXMXMXMXMXMXMXMXMXMXMXMXMXMXMXMXMXMXMXMXMXMXMXMXMX"
};
