/* XPM */
static char *result[] = {
/* columns rows colors chars-per-pixel */
"75 75 241 2 ",
"   c #070607",
".  c #09090A",
"X  c #080709",
"o  c #130D0B",
"O  c #170808",
"+  c #18140E",
"@  c #0D0A13",
"#  c #0E0B17",
"$  c #120D15",
"%  c #120C1C",
"&  c #1A0E17",
"*  c #0D1312",
"=  c #0F1815",
"-  c #141413",
";  c #1C1512",
":  c #1A1A14",
">  c #1A121D",
",  c #141C1B",
"<  c #1B1C1B",
"1  c #151418",
"2  c #0C110F",
"3  c #270708",
"4  c #360807",
"5  c #350A18",
"6  c #231512",
"7  c #2C1B15",
"8  c #24181A",
"9  c #331C17",
"0  c #28120C",
"q  c #14221D",
"w  c #1C2015",
"e  c #282617",
"r  c #33231D",
"t  c #3B231B",
"y  c #312F19",
"u  c #36371C",
"i  c #150D23",
"p  c #180E26",
"a  c #1A0E2C",
"s  c #141124",
"d  c #1D1323",
"f  c #17132B",
"g  c #19112C",
"h  c #1D1C23",
"j  c #1D0F31",
"k  c #1D1233",
"l  c #1F1639",
"z  c #1E193B",
"x  c #1D1932",
"c  c #23162A",
"v  c #26182B",
"b  c #2A1A2F",
"n  c #251625",
"m  c #341B21",
"M  c #211235",
"N  c #2C1C32",
"B  c #22123C",
"V  c #21193E",
"C  c #281237",
"Z  c #321E38",
"A  c #300D23",
"S  c #172B24",
"D  c #192D26",
"F  c #192722",
"G  c #1C322A",
"H  c #242322",
"J  c #29282A",
"K  c #22342D",
"L  c #2C352C",
"P  c #363628",
"I  c #352338",
"U  c #273A32",
"Y  c #343433",
"T  c #3A3C39",
"R  c #34292D",
"E  c #470706",
"W  c #4E1108",
"Q  c #6A1506",
"!  c #771604",
"~  c #6B100A",
"^  c #44261D",
"/  c #48291E",
"(  c #572C08",
")  c #772707",
"_  c #6C2F0E",
"`  c #461C2D",
"'  c #482A23",
"]  c #542D23",
"[  c #4A3429",
"{  c #5C3325",
"}  c #573629",
"|  c #423835",
" . c #583A35",
".. c #472B33",
"X. c #633526",
"o. c #643D2E",
"O. c #6A3929",
"+. c #713F2D",
"@. c #722C2F",
"#. c #6C1E30",
"$. c #2D413A",
"%. c #32453E",
"&. c #3F403C",
"*. c #45431C",
"=. c #484628",
"-. c #434537",
";. c #5A4738",
":. c #76422F",
">. c #6C4332",
",. c #684738",
"<. c #784835",
"1. c #734D34",
"2. c #6E6B33",
"3. c #251341",
"4. c #231A44",
"5. c #261B4A",
"6. c #28194C",
"7. c #2A1D53",
"8. c #2D1F59",
"9. c #3B2343",
"0. c #2D225B",
"q. c #292154",
"w. c #3F374D",
"e. c #2E2561",
"r. c #312768",
"t. c #1F1A42",
"y. c #42264D",
"u. c #462B49",
"i. c #4B314D",
"p. c #6F3243",
"a. c #384B44",
"s. c #3F524A",
"d. c #474744",
"f. c #42544D",
"g. c #53534E",
"h. c #4C5B54",
"j. c #465951",
"k. c #5B5B57",
"l. c #554C4C",
"z. c #775542",
"x. c #6D4D4A",
"c. c #53615A",
"v. c #59645C",
"b. c #666659",
"n. c #756D4B",
"m. c #5D6861",
"M. c #666864",
"N. c #6B726A",
"B. c #72716D",
"V. c #787972",
"C. c #615C61",
"Z. c #841B03",
"A. c #8A2604",
"S. c #9C3406",
"D. c #8E320D",
"F. c #AA3B05",
"G. c #AB3D0A",
"H. c #8F2E3B",
"J. c #8D490B",
"K. c #B84906",
"L. c #BD550C",
"P. c #AE4813",
"I. c #834B38",
"U. c #8C543E",
"Y. c #86523C",
"T. c #935030",
"R. c #BC5E2D",
"E. c #847839",
"W. c #B86735",
"Q. c #C85807",
"!. c #C65C14",
"~. c #C14E05",
"^. c #C9640C",
"/. c #D56709",
"(. c #DB7719",
"). c #D46A13",
"_. c #E57807",
"`. c #C86926",
"'. c #C05D20",
"]. c #892943",
"[. c #885842",
"{. c #935C43",
"}. c #995B45",
"|. c #89644D",
" X c #996349",
".X c #986C53",
"XX c #8D7052",
"oX c #A2664A",
"OX c #A66B4E",
"+X c #AB6E51",
"@X c #A46C51",
"#X c #AC7457",
"$X c #B37355",
"%X c #BC7B5B",
"&X c #B5785A",
"*X c #B96D47",
"=X c #AD6752",
"-X c #C67D55",
";X c #978938",
":X c #E68A30",
">X c #99934F",
",X c #A8934A",
"<X c #8C8B78",
"1X c #BB8363",
"2X c #BA8A6B",
"3X c #AF8467",
"4X c #C58157",
"5X c #C48463",
"6X c #C98B69",
"7X c #C99474",
"8X c #D59A76",
"9X c #D1946D",
"0X c #DEA27C",
"qX c #EAA877",
"wX c #E59452",
"eX c #8B8A87",
"rX c #94928C",
"tX c #9B9A98",
"yX c #908F88",
"uX c #AEA69E",
"iX c #A9A9A6",
"pX c #B9B8B7",
"aX c #B1B1AD",
"sX c #A09F9E",
"dX c #DBA584",
"fX c #D6B19A",
"gX c #E5AB84",
"hX c #E4A983",
"jX c #ECB28B",
"kX c #F1B68E",
"lX c #F5B98D",
"zX c #F5BB92",
"xX c #D3B6A4",
"cX c #DCC6B8",
"vX c #E7C7B3",
"bX c #CBC888",
"nX c #C7C7C5",
"mX c #D5D3D2",
"MX c #F6F6F6",
"NX c #EBEAEA",
"BX c None",
/* pixels */
"BXBXBXBXBXBXBXBXBXBXBXBXBXBXBXBXBXBXBXBXBXBXBXBXBXBXBXBXBXBXBXBXBXBXBXBXBXBXBXBXBXBXBXBXBXBXBXBXBXBXBXBXBXBXBXBXBXBXBXBXBXBXBXBXBXBXBXBXBXBXBXBXBXBXBX",
"BXBXBXBXBXBXBXBXBXBXBXBXBXBXBXBXBXBXBXBXBXBXBXBXBXBXBXBXBXBXBXBXBXBXBXBXBXBXBXX BXBXBXBXBXBXBXBXBXBXBXBXBXBXBXBXBXBXBXBXBXBXBXBXBXBXBXBXBXBXBXBXBXBXBX",
"BXBXBXBXBXBXBXBXBXBXBXBXBXBXBXBXBXBXBXBXBXBXBX- BXBXBXBXBXBXBXBXBXBXBXBXBXBXBX2 BXBXBXBXBXBXBXBXBXBXBXBXBXBXBXBXBXBXBXBXBXBXBXBXBXBXBXBXBXBXBXBXBXBXBX",
"BXBXBXBXBXBXBXBXBXBXBXBXBXBXBXBXBXBXBXBXBXBXBX&.H BXBXBXBXBXBXBXBXBXBXBXBXBXg.e BXBXBXBXBXBXBXBXBXBXBXBXBXBXBXBXBXBXBXBXBXBXBXBXBXBXBXBXBXBXBXBXBXBXBX",
"BXBXBXBXBXBXBXBXBXBXBXBXBXBXBXBXBXBXBXBXBXBXBXH M.BXBXBXBXBXBXBXBXBXBXBXBXBXk.H BXBXBXBXBXBXBXBXBXBXBXBXBXBXBXBXBXBXBXBXBXBXBXBXBXBXBXBXBXBXBXBXBXBXBX",
"BXBXBXBXBXBXBXBXBXBXBXBXBXBXBXBXBXBXBXBXBXBXBXH M.BXBXBXBXBXBXBXBXBXBXBXBXBXg.k.BXBXBXBXBXBXBXBXBXBXBXBXBXBXBXBXBXBXBXBXBXBXBXBXBXBXBXBXBXBXBXBXBXBXBX",
"BXBXBXBXBXBXBXBXBXBXBXBXBXBXBXBXBXBXBXBXBXBXBXg.b.BXBXBXBXBXX   BXX BX  BXBXH yXM.BXBXBXBXBXBXBXBXBXBXBXBXBXBXBXBXBXBXBXBXBXBXBXBXBXBXBXBXBXBXBXBXBXBX",
"BXBXBXBXBXBXBXBXBXBXBXBXBXBXBXBXBXBXBXBXBXBXBXB.Y BXBXBX  BXX   BXBX  X BXBX  Y M.: BXBX  BXBXBXBXBXBXBXBXBXBXBXBXBXBXBXBXBXBXBXBXBXBXBXBXBXBXBXBXBXBX",
"BXBXBXBXBXBXBXBXBXBXBXBXBXBXBXBXBXBXBXBXBXBXBXM.. BXBXBX  .     X     X   .     M.M.BXBX      BXBXBXBXBXBXBXBXBXBXBXBXBXBXBXBXBXBXBXBXBXBXBXBXBXBXBXBX",
"BXBXBXBXBXBXBXBXBXBXBXBXBXBXBXBXBXBXBXBXBXBX- w.BXBXBX  BXBX    X     X .       T mXpXX X BX. BXBX  BXBXBXBXBXBXBXBXBXBXBXBXBXBXBXBXBXBXBXBXBXBXBXBXBX",
"BXBXBXBXBXBXBXBXBXBXBXBXBXBXBXBXBXBXBXBXBX  aXJ BXBX.   .       .   .     .   . @ iXMXL X       BXX BXBXBXBXBXBXBXBXBXBXBXBXBXBXBXBXBXBXBXBXBXBXBXBXBX",
"BXBXBXBXBXBXBXBXBXBXBXBXBXBXBXBXBXBXBXBXBXsX<XBXBXBX      . 3X0X6 . . . . .     X < mXmX  X BXX X   BXBXBXBXBXBXBXBXBXBXBXBXBXBXBXBXBXBXBXBXBXBXBXBXBX",
"BXBXBXBXBXBXBXBXBXBXBXBXBXBXBXBXBXBXBXBXBXiXb.BXBX  . . X ,.dXlXzX@XX . . . X X X X rXNX. . X X     BXBXX   BXBXBXBXBXBXBXBXBXBXBXBXBXBXBXBXBXBXBXBXBX",
"BXBXBXBXBXBXBXBXBXBXBXBXBXBXBXBXBXBXBXBXY rX< BXBXBX1 w $ |.8X2X7X.Xr , Y :   X   < tXNXX . X . X     . X BXBXBXBXBXBXBXBXBXBXBXBXBXBXBXBXBXBXBXBXBXBX",
"BXBXBXBXBXBXBXBXBXBXBXBXBXBXBXBXBXBXBXBXY nXeXY BXY g.-.$ [.6X> r 5X[ : b.B.Y h J rXMXtX. . . . X . . BXBXBX  BXBXBXBXBXBXBXBXBXBXBXBXBXBXBXBXBXBXBXBX",
"BXBXBXBXBXBXBXBXBXBXBXBXBXBXBXBXBXBXBXBXBXiXnXeXM.k.d.< @ ,. .z.1X8X1.2 d.iXiXtXsXnXtX: X # % * @ s f % X   BXBXBXBXBXBXBXBXBXBXBXBXBXBXBXBXBXBXBXBXBX",
"BXBXBXBXBXBXBXBXBXBXBXBXBXBXBXBXBXBXBXBXBXd.sXrXd.H X @ % R [ n.|.U.>.. ; | V.aXsXk.- X . % @ f s g 0.6.f k BXBXBXBXBXBXBXBXBXBXBXBXBXBXBXBXBXBXBXBXBX",
"BXBXBXBXBXBXBXBXBXBXBXBXBXBXBXBXBXBXBXBX@ i Y w.f i @ i $ T eXrX;.7 r ' [ [...L J .   X . p s B l l 5.7.7.0.% X BXBXBXBXBXBXBXBXBXBXBXBXBXBXBXBXBXBXBX",
"BXBXBXBXBXBXBXBXBXBXBXBXBXBXBXBXBXBXBX  k 8.k 4.B k i @ 9 ,.xXdX#X1.r +X2X.X+   r o o / . @ % M 3.3.B 3.6.r.3.p BXBXBXBXBXBXBXBXBXBXBXBXBXBXBXBXBXBXBX",
"BXBXBXBXBXBXBXBXBXBXBXBXBXBXBXBXBXBX. 4.k k $ l k n & t O.7 z.#Xo.[ ; ;.1X|.} ; [ #X@ 6X|.6 O.m A n 7.6.7.8.7.6.z BXBXBXBXBXBXBXBXBXBXBXBXBXBXBXBXBXBX",
"BXBXBXBXBXBXBXBXBXBXBXBXBXBXBXBXBXM q.5.6.% q.r 8 ' + |.{.6 o ; o { 1.#X;.6X7X1.1.&Xo @X7X9 L.D.( W N 5.% 6.r.B @ BXBXBXBXBXBXBXBXBXBXBXBXBXBXBXBXBXBX",
"BXBXBXBXBXBXBXBXBXBXBXBXBXBXBXBXBXBXB > 4.O.6 { ^ . t 1X,.9 & + 0 <.dXdX} z.8X X>.OXr U.W.K.Q._.!.S.4 V . e.B 3.k @ BXBXBXBXBXBXBXBXBXBXBXBXBXBXBXBXBX",
"BXBXBXBXBXBXBXBXBXBXBXBXBXBXBXBXBXp m 1X[ <.7 X.' 7 [.0X X>.oX@X:.1XjX1X1.o .X-X@.~ ! P.~./.(.Q.!.!.F.Q W s f 6.7.q.4.BXBXBXBXBXBXBXBXBXBXBXBXBXBXBXBX",
"BXBXBXBXBXBXBXBXBXBXBXBXBXBXBXBX4.3.x.&X X6 :.+X1.t }.6X{. X+XoX+XgX0X$X:.0 E ! F._.K.`.F.K./.Q.~.Q.~.Q.~.9 8 X i # BXBXBXBXBXBXBXBXBXBXBXBXBXBXBXBXBX",
"BXBXBXBXBXBXBXBXBXBXBXBXBXBXBXBXk i 1.&X^ O.+X7X: |.6X+XU.:.I.{.$X$X1XR.L._ ( ^.).Q.Q.Q.Z.Z.~.(.)./.R.G.K.Q.! $ 7.7.t.BXBXBXBXBXBXBXBXBXBXBXBXBXBXBXBX",
"BXBXBXBXBXBXBXBXBXBXBXBXBXBXBXBXz s <.oX9 I.&X7XH .XdX7X%X[.%XgXgXlX:X_.^._ _ L.^.Q.!.F.~ W S.K.!.).Q.!.! A.A.$ 7.M t.f BXBXBXBXBXBXBXBXBXBXBXBXBXBXBX",
"BXBXBXBXBXBXBXBXBXBXBXBXBXBXBX# a $ <.<.6 $X2XdXn.z.7X9X6X#XhX0X0XlX:X/.^.( _ ^.)./.`.G.Q E W A.P.R.Q.L.! 4 W 3 g k g # BXBXBXBXBXBXBXBXBXBXBXBXBXBXBX",
"BXBXBXBXBXBXBXBXBXBXBXBXBXBXBXX k k [ +.7 U.8XzX2X;.kXhX7X X+X8XlXlXqX`.J.+ J.).(.`.Q.S.~ 3 3 3 Q Z.A.Z.E O E E A 6.8.5.BXBXBXBXBXBXBXBXBXBXBXBXBXBXBX",
"BXBXBXBXBXBXBXBXBXBXBXBXBXBXBXX i k 8 { t }.6XgX7X|.kX8X&XU.2X0XzXzXlX8X2.( /.:X_.:XK.A.! 4   O Q S.P.P.Q E _ ~ 5 3.l k BXBXBXBXBXBXBXBXBXBXBXBXBXBXBX",
"BXBXBXBXBXBXBXBXBXBXBXBXBXBXBXBXk z m {.] +X6XzXdX3XgX8X{.{ %XzXzXzXzXdX1.2.qXqXqX4XJ.}._ 7   W K.Q./.~./.S.!.A.5 4.6.4.$ BXBXBXBXBXBXBXBXBXBXBXBXBXBX",
"BXBXBXBXBXBXBXBXBXBXBXBXBXBXBXBXk f o.$X{.>.-X8X7X#X7XOX{.I.[.}.0XjXzXgXz.n.qX8X6X-X+X<.^ -   W Q./._.!._.K.K.S.5 4.4.8.5.% BXBXBXBXBXBXBXBXBXBXBXBXBX",
"BXBXBXBXBXBXBXBXBXBXBXBXBXBXBXBX. . ] +.&X7 <.%X|.[  X>.9 o X.+.:.Y.%X&X} ,.-X%X%XI.:.7 X.X.t 4 A.Q.~./.~.*XZ.S.3 f g % . BXBXBXBXBXBXBXBXBXBXBXBXBXBX",
"BXBXBXBXBXBXBXBXBXBXBXBXBXBXBXBXk i +.+X&X:.. ' ] t ^ ; [.%X[ 8 ; r O.] 9 r X.{ X.{ .  XO.>./ 3 A.!.~./.~.-X~ O 3 % 8.7.k BXBXBXBXBXBXBXBXBXBXBXBXBXBX",
"BXBXBXBXBXBXBXBXBXBXBXBXBXBXBX% f # o.oX+X+.o o.o ] I.-X6X X0XkX0X0X.X X,.o >.:.{ o [.<.t >.+ X W P.Q.^.~.F.4 E 3 i 7.6.7.%   BXBXBXBXBXBXBXBXBXBXBXBX",
"BXBXBXBXBXBXBXBXBXBXBXBXBXBXBXBXz s O.$X-X+.o 6 9 I.H.oX+XU.+X$X&XhXjXlX3Xr z.%X:.9 O.9 Y.6 X i i D.~.Q.K.S.4 ! 4 p 7.k % BXBXBXBXBXBXBXBXBXBXBXBXBXBX",
"BXBXBXBXBXBXBXBXBXBXBXBXBXBXBXBXi j n [.$X+.X 0 { @.oX+XU.<.+X#X$XoX$X2X2X,.} U.} {.} / 6 - i M k ^ D.P.Z.W ) ^.! 4 V 7.4.z BXBXBXBXBXBXBXBXBXBXBXBXBX",
"BXBXBXBXBXBXBXBXBXBXBXBXBXBXBX. g 3.g ] Y./ O W #.Y.0XgX5X X0XlXlX6X$X1.>.} 7 t { U.X.9 9 i B 3.3.j 4 E 4 Q `.).G.4 k f f 4.@ BXBXBXBXBXBXBXBXBXBXBXBX",
"BXBXBXBXBXBXBXBXBXBXBXBXBXBXBXBXg 4.i ' { o   4 @.oX8X8X$XY.6X0X0X9X+X<.t ] / o ] ] 7 7 i C 3.3.3.k 0 W O -XxXdX%XW % k V z z BXBXBXBXBXBXBXBXBXBXBXBX",
"BXBXBXBXBXBXBXBXBXBXBXBXBXBXBXBXl g @ ] X./ ^ 5 ] I.U.U.<.+.U.U.U.U.I.] ^ .X|.] +.{.X X % M 3.3.3.a Q K.W cXcXNXxXY.A 0.7.l s BXBXBXBXBXBXBXBXBXBXBXBX",
"BXBXBXBXBXBXBXBXBXBXBXBXBXBXBXBXf M 8 [. X+.6 n 3 +.@X6X&X<.6X7X7X%XY.o.1.6X1.} .. .Z N b a 3.B 3.a U.!.A.xXpXMXuX}.5 7.3.# BXBXBXBXBXBXBXBXBXBXBXBXBX",
"BXBXBXBXBXBXBXBXBXBXBXBXBXBXBXk 4.% o.+X%X:.. I . t  X5X{.] #X6X6X4X$XY.n J R u.y.Z N $ $ . i 3.3.g D.R.*XR.7XvX2XD.5 3.0.e.# BXBXBXBXBXBXBXBXBXBXBXBX",
"BXBXBXBXBXBXBXBXBXBXBXBXBXBXBX. s % { $X%X6 > N n 8 [ | ' | P [ l.l.} B.iXa.> 9.y.y.y.9.9.b $ a 3.g ) Q.W.Q.vXcXfXA.A M c M @ BXBXBXBXBXBXBXBXBXBXBXBX",
"BXBXBXBXBXBXBXBXBXBXBXBXBXBXBXBX% 1 ] :.oX+ Z b Y B.M.iXV.nXeXeXMXaXT MXnXXXiXd.% y.y.$ $ N c p 3.a E F.K.~ vXmXxX_ d s 5.e.@ BXBXBXBXBXBXBXBXBXBXBXBX",
"BXBXBXBXBXBXBXBXBXBXBXBXBXBXBXx 4.@ >. X}.+ % J b.k.g.g.cXaXV.NXnX- k.aXrXd.l.B.n c Z i.b @ $ p 3.C # Q ~ X w . ; ; - 8 M 0.7.BXBXBXBXBXBXBXBXBXBXBXBX",
"BXBXBXBXBXBXBXBXBXBXBXBXBXBXBX*.*.+ 2.e y : y.$ v Y k.w.P =.-. .-.- B.| J N N > - n > Z 9.y.Z M 3.B # <X: : ,X: n.2.=.n.J s BXBXBXBXBXBXBXBXBXBXBXBXBX",
"BXBXBXBXBXBXBXBXBXBXBXBXBXBXBXH e + 2.e e ; v n 9.d.k.Y E.,X,X,X,X< d.< N 9.y.Z d N N d b 9.9.c B R o >X: o 2 o o . . k 6.6.i BXBXBXBXBXBXBXBXBXBXBXBX",
"BXBXBXBXBXBXBXBXBXBXBXBXBXBXBXf g % t } 7 X n v N i.B.i.@.].i.].H.m B.J n Z y.y.y.9.I . . d n C C =.;   6 o.z.,.t 2 g k k q.k BXBXBXBXBXBXBXBXBXBXBXBX",
"BXBXBXBXBXBXBXBXBXBXBXBXBXBXBXs B i >.$X{.o N I r b.B.Z #.p.u.].H.d k.n 9 d I u.y.9.N d > @ . g B g i % r 8XzX0X>.> k s k k @ BXBXBXBXBXBXBXBXBXBXBXBX",
"BXBXBXBXBXBXBXBXBXBXBXBXBXBXBXk l n Y.$XOXt ; 8 -.b.yXk...x.l.p.x.Y rX-.8 &.n.P v V c g p @ X C B B 3.a [ jXzXjX[.% 6.8.6.z z BXBXBXBXBXBXBXBXBXBXBXBX",
"BXBXBXBXBXBXBXBXBXBXBXBXBXBX% l f ' #X5X] 9   e n.y Y d.k.c.h.N.V.M.g.Y J b.>Xy ` #.` ` E   & Z j 3.a ,.7XkX0XkX&X9 M 8.0.g i BXBXBXBXBXBXBXBXBXBXBXBX",
"BXBXBXBXBXBXBXBXBXBXBXBXBXBXk q.v <.1X0X1.Y ;.y ;X&.q T f.j.v.N.N.M.s.%.G =.2.u & ..J & O e J p a Z {.dXzXzX9XkX%X' j 8.5.s   BXBXBXBXBXBXBXBXBXBXBXBX",
"BXBXBXBXBXBXBXBXBXBXBXBXBXBX@ s  .OX>.$X3X;Xw 2.c.L a.K - D q q U U G - - K n.u <Xe H bX;X=.$ % $ |.gXzXzXkXhXkX7X,.a a 5.e.5.BXBXBXBXBXBXBXBXBXBXBXBX",
"BXBXBXBXBXBXBXBXBXBXBXBXBXBXz z ;.<.7 / OXe 2.L w %.G D q * .   # @ . . q a.$.2.u >X2.u P 2.X @ o.8X1X6XzXzXzXzXhXz.z f f l @ BXBXBXBXBXBXBXBXBXBXBXBX",
"BXBXBXBXBXBXBXBXBXBXBXBXBXBXk 5.p.<.>.} + . + G D D D G q , . . v N - * q q J %.e k.k.w > d c @ $ t X.1XzX6XzXkX%X[ g 5.7.% BXBXBXBXBXBXBXBXBXBXBXBXBX",
"BXBXBXBXBXBXBXBXBXBXBXBXBXBXt.z 7 Y.X. X{ { * $.G G U G q = . @ N b > S K a.$.%.h.h.V.h.S d c > a i X.dXhX6XgX%X.Xa k j 0.6.@ BXBXBXBXBXBXBXBXBXBXBXBX",
"BXBXBXBXBXBXBXBXBXBXBXBXBXBXf V B v ] >.' 9 2 a.s.a.%.G U q q - N N d q L U %.c.N.N.c.f.S < b % d ..[.{.<.%XU.U. .M i a V f . BXBXBXBXBXBXBXBXBXBXBXBX",
"BXBXBXBXBXBXBXBXBXBXBXBXBXBXz 0.3.B p # $ b . G a.$.G $.G q 2 N N N v h $.f.%.a.v.V.V.j.D q N Z c % % 8 <.' m ' i B g V 0.s BXBXBXBXBXBXBXBXBXBXBXBXBX",
"BXBXBXBXBXBXBXBXBXBXBXBXBXBXz 4.f j B 3.% % . G $.$.%.$.G S . b N N N v L v.k.f.s.N.N.a.S , N Z c a 3.B a p p $ M 4.f 4.5.f BXBXBXBXBXBXBXBXBXBXBXBXBX",
"BXBXBXBXBXBXBXBXBXBXBXBXBXBXk V p p j B p X : S $.$.$.S D = . N N N N v h %.N.N.f.j.%.U %.D d Z c a 3.3.f B k @ k l V q.l % BXBXBXBXBXBXBXBXBXBXBXBXBX",
"BXBXBXBXBXBXBXBXBXBXBXBXBXBXl z V j a B M X D D G S q , q S . b N N I N h G h.V.N.v.h.h.b.K $ I c j 3.j X 6.6.a k V V B l % BXBXBXBXBXBXBXBXBXBXBXBXBX",
"BXBXBXBXBXBXBXBXBXBXBXBXBXBXi % % # j 3.B . D G $.$.S G $.K * N N N N N n q a.c.V.V.V.V.h.J $ Z d a i i g 0.q.V 4.e.q.6.i .   BXBXBXBXBXBXBXBXBXBXBXBX",
"BXBXBXBXBXBXBXBXBXBXBXBXBXBXs k t.k a a 3.% q D G $.%.%.U F c N N Z N N b > %.c.m.N.B.c.a.F > c j C % p 0.5.g % t.q.7.q.k BXBXBXBXBXBXBXBXBXBXBXBXBXBX",
"BXBXBXBXBXBXBXBXBXBXBXBXBXBXX % 4.k i @ B B k 2 D G G q * n I N N N N N N > q K s.j.U , * d c a B 7.% j % 4.3.X . f q.k f BXBXBXBXBXBXBXBXBXBXBXBXBXBX",
"BXBXBXBXBXBXBXBXBXBXBXBXBXBXt.q.j j a 0.l B V l   .   1 N N N N N N N N N N 1 , S S X . . % i 3.3.4.i 3.3.# 4.@ 4.k V 7.% X BXBXBXBXBXBXBXBXBXBXBXBXBX",
"BXBXBXBXBXBXBXBXBXBXBXBXBXBXf 5.V 7.4.6.i B B p @ ,   . n b b b b b b b b b p $ X X . D @ B B j B B B e.3.@ q.l 4.k z 4.z BXBXBXBXBXBXBXBXBXBXBXBXBXBX",
"BXBXBXBXBXBXBXBXBXBXBXBXBXBXBX% k 7.4.B % 3.j p . =   i i @ @ @ @ @ @ @ X @ i B j X . F X B B a p p B k @ 0.t.% q.k z @ s BXBXBXBXBXBXBXBXBXBXBXBXBXBX",
"BXBXBXBXBXBXBXBXBXBXBXBXBXBXBX  t.l f g # 3.@ j * = X i B B j B 3.B B a M j j 3.k . X F # i i i p a 0.4.. r.s BX4.p @ BXBXBXBXBXBXBXBXBXBXBXBXBXBXBXBX",
"BXBXBXBXBXBXBXBXBXBXBXBXBXBXBXBXf s g k % a i a . * @ % j B @ B 3.B i % 3.p a j p @ X q S p p i 3.z 5.8.# 0.s BXs BXBXBXBXBXBXBXBXBXBXBXBXBXBXBXBXBXBX",
"BXBXBXBXBXBXBXBXBXBXBXBXBXBXBXBXBXBX% % p i B # X X i j M a % B j B i % B p a $ M a X = D i # j 4.6.s 0.@ g % BXBXBXBXBXBXBXBXBXBXBXBXBXBXBXBXBXBXBXBX",
"BXBXBXBXBXBXBXBXBXBXBXBXBXBXBXBXBXBXX X % $ p $ X @ j j B a M 3.@ 3.p $ a f a @ k 3.. X F # j p l 4.s 4.@ BXBXBXBXBXBXBXBXBXBXBXBXBXBXBXBXBXBXBXBXBXBX",
"BXBXBXBXBXBXBXBXBXBXBXBXBXBXBXBXBXBXBXBXBX  BX@ X @ j j j j B B X a a $ % p g @ M a X X * X p i @ i BXBXBXBXBXBXBXBXBXBXBXBXBXBXBXBXBXBXBXBXBXBXBXBXBX",
"BXBXBXBXBXBXBXBXBXBXBXBXBXBXBXBXBXBXBXBXBXBXBX  X X % % j i # j BXBX@ BXBX@ % BXp @ BXX     X BXBXBXBXBXBXBXBXBXBXBXBXBXBXBXBXBXBXBXBXBXBXBXBXBXBXBXBX",
"BXBXBXBXBXBXBXBXBXBXBXBXBXBXBXBXBXBXBXBXBXX X X X X BXBX@ BXBX. BX  BXBXBXBXBXBXBXBXBXX   . X BXBXBXBXBXBXBXBXBXBXBXBXBXBXBXBXBXBXBXBXBXBXBXBXBXBXBXBX",
"BXBXBXBXBXBXBXBXBXBXBXBXBXBXBXBXBXBXBXBXBXBXBXBXBXBXBXBXBXBXBXBXBXBXBXBXBXBXBXBXBXBXBXBX.   X X BXBXBXBXBXBXBXBXBXBXBXBXBXBXBXBXBXBXBXBXBXBXBXBXBXBXBX",
"BXBXBXBXBXBXBXBXBXBXBXBXBXBXBXBXBXBXBXBXBXBXBXBXBXBXBXBXBXBXBXBXBXBXBXBXBXBXBXBXBXBXBXBXBXBXBXBXBXBXBXBXBXBXBXBXBXBXBXBXBXBXBXBXBXBXBXBXBXBXBXBXBXBXBX"
};
