/* XPM */
static char *result[] = {
/* columns rows colors chars-per-pixel */
"75 75 234 2 ",
"   c #010101",
".  c #03050A",
"X  c #0C0C0B",
"o  c #070808",
"O  c #160C09",
"+  c #15110E",
"@  c #0C0A13",
"#  c #040D15",
"$  c #110E1B",
"%  c #091318",
"&  c #13131C",
"*  c #141A1D",
"=  c #171716",
"-  c #241B19",
";  c #2A1A0C",
":  c #332216",
">  c #071928",
",  c #161324",
"<  c #1A1524",
"1  c #151C20",
"2  c #1B1A24",
"3  c #19162A",
"4  c #1B1C2B",
"5  c #12192A",
"6  c #0A1D34",
"7  c #1E1B33",
"8  c #030F25",
"9  c #241D28",
"0  c #211C35",
"q  c #221E3A",
"w  c #192125",
"e  c #1C252A",
"r  c #1E282D",
"t  c #0C2335",
"y  c #072639",
"u  c #122538",
"i  c #0D2834",
"p  c #2A2D2C",
"a  c #242626",
"s  c #352926",
"d  c #3D3528",
"f  c #272539",
"g  c #372938",
"h  c #2B3234",
"j  c #323635",
"k  c #363A39",
"l  c #3A3E3D",
"z  c #3A3935",
"x  c #2C302F",
"c  c #58341D",
"v  c #463726",
"b  c #452334",
"n  c #492738",
"m  c #552A3C",
"M  c #463736",
"N  c #593937",
"B  c #502E29",
"V  c #663B27",
"C  c #683B38",
"Z  c #743E36",
"A  c #693F1E",
"S  c #3C413F",
"D  c #424128",
"F  c #48443A",
"G  c #574535",
"H  c #5B5C36",
"J  c #574E2C",
"K  c #6A4222",
"L  c #764625",
"P  c #685638",
"I  c #6E4F39",
"U  c #696935",
"Y  c #6E431D",
"T  c #042544",
"R  c #042C44",
"E  c #082C47",
"W  c #05344C",
"Q  c #08334A",
"!  c #072B5C",
"~  c #043451",
"^  c #043B54",
"/  c #06335B",
"(  c #043D5A",
")  c #0B3953",
"_  c #19344B",
"`  c #292444",
"'  c #2E294C",
"]  c #282445",
"[  c #3A3244",
"{  c #332D54",
"}  c #362F58",
"|  c #37305A",
" . c #39325D",
".. c #2D314C",
"X. c #073461",
"o. c #063D63",
"O. c #082C60",
"+. c #3C3563",
"@. c #3F3768",
"#. c #3F3869",
"$. c #231F40",
"%. c #5A2E45",
"&. c #453348",
"*. c #553547",
"=. c #4D3A52",
"-. c #533E58",
";. c #4D2F43",
":. c #61324A",
">. c #69354F",
",. c #6A3651",
"<. c #423A6C",
"1. c #453D72",
"2. c #483F77",
"3. c #04415D",
"4. c #0D425D",
"5. c #14445B",
"6. c #3E4342",
"7. c #31474D",
"8. c #264655",
"9. c #374E58",
"0. c #054462",
"q. c #06456A",
"w. c #054B6C",
"e. c #094866",
"r. c #164965",
"t. c #064D72",
"y. c #065174",
"u. c #06557A",
"i. c #06597E",
"p. c #0D5677",
"a. c #155875",
"s. c #325A69",
"d. c #326176",
"f. c #414645",
"g. c #464C4A",
"h. c #454947",
"j. c #594943",
"k. c #56415C",
"l. c #595856",
"z. c #4F5151",
"x. c #694743",
"c. c #7A4A49",
"v. c #6B564C",
"b. c #6D594E",
"n. c #655349",
"m. c #74564E",
"M. c #645754",
"N. c #735D52",
"B. c #644559",
"V. c #51665C",
"C. c #787845",
"Z. c #776055",
"A. c #796256",
"S. c #7C6759",
"D. c #6E6A4D",
"F. c #5C4562",
"G. c #5A4763",
"H. c #4A427A",
"J. c #465C66",
"K. c #644C6B",
"L. c #634A6A",
"P. c #665364",
"I. c #6D5274",
"U. c #765A7B",
"Y. c #70576A",
"T. c #506A74",
"R. c #78716C",
"E. c #797676",
"W. c #716E6E",
"Q. c #8C532A",
"!. c #9A5D2B",
"~. c #95582C",
"^. c #884C39",
"/. c #975736",
"(. c #8B5935",
"). c #A25E36",
"_. c #A7652E",
"`. c #A96632",
"'. c #B36D32",
"]. c #9F6B38",
"[. c #854647",
"{. c #82504F",
"}. c #8B464C",
"|. c #826A5C",
" X c #89734D",
".X c #886E62",
"XX c #8C7265",
"oX c #94796A",
"OX c #9A7D6D",
"+X c #927567",
"@X c #887979",
"#X c #A07F58",
"$X c #79813D",
"%X c #7D8049",
"&X c #86874C",
"*X c #A5855B",
"=X c #85817B",
"-X c #9D8172",
";X c #988377",
":X c #A38574",
">X c #AA8A79",
",X c #A78877",
"<X c #BC9668",
"1X c #065C83",
"2X c #095E84",
"3X c #135F81",
"4X c #076088",
"5X c #076087",
"6X c #186284",
"7X c #226583",
"8X c #366F87",
"9X c #7B5D84",
"0X c #577581",
"qX c #7F6088",
"wX c #81618A",
"eX c #877982",
"rX c #8C8C8B",
"tX c #888783",
"yX c #95948D",
"uX c #9C9B95",
"iX c #9C9C9C",
"pX c #969594",
"aX c #A3A29C",
"sX c #AAA9A6",
"dX c #B9B9B6",
"fX c #B1B1AD",
"gX c #A3938B",
"hX c #C6C6BD",
"jX c #C9C9C7",
"kX c #D5D4CA",
"lX c #D4D4D4",
"zX c #D8D8D8",
"xX c #DCDBD0",
"cX c None",
/* pixels */
"cXcXcXcXcXcXcXcXcXcXcXcXcXcXcXcXcXcXcXcXcXcXcXcXcXcXcXcXcXcXcXcXcXcXcXcXcXcXcXcXcXcXcXcXcXcXcXcXcXcXcXcXcXcXcXcXcXcXcXcXcXcXcXcXcXcXcXcXcXcXcXcXcXcXcX",
"cXcXcXcXcXcXcXcXcXcXcXcXcXcXcXcXcXcXcXcXcXcXcXcXcXcXcXcXcXcXcXcXcXcXcXcXcXcX XcXcXcXcXcXcXcXcXcXcXcXcXcXcXcXcXcXcXcXcXcXcXcXcXcXcXcXcXcXcXcXcXcXcXcXcX",
"cXcXcXcXcXcXcXcXcXcXcXcXcXcXcXcXcXcXcXcXcXcXcXcXcXcXcXcXcXcXcXcXcXcXcXcXcXcXcXcXcX*XcXcXcXcXcXcXcXcXcXcXcXcXcXcXcXcXcXcXcXcXcXcXcXcXcXcXcXcXcXcXcXcXcX",
"cXcXcXcXcXcXcXcXcXcXcXcXcXcXcXcXcXcXcXcXcXcXcXcXcXcXcXcXcXcXcXcXcXcXcXcXcXcXcXcXcX#XcXcXcXcXcXcXcXcXcXcXcXcXcXcXcXcXcXcXcXcXcXcXcXcXcXcXcXcXcXcXcXcXcX",
"cXcXcXcXcXcXcXcXcXcXcXcXcXcXcXcXcXcXcXcXcXcXcXcXcXcXcXcXcXcXcXcXcXcXcXcXcXcXcXcXcX*XcXcXcXcXcXcXxXcXcXcXcXcXcXcXcXcXcXcXcXcXcXcXcXcXcXcXcXcXcXcXcXcXcX",
"cXcXcXcXcXcXcXcXcXcXcXcXcXcXcXcXcXcXcXcXcXcXcXcXcXcXcXcXcXcXcXcXcXcXcX#XcXcXv   cX XcXcXP cXcXcXkXcXcXcXcXcXcXcXcXcXcXcXcXcXcXcXcXcXcXcXcXcXcXcXcXcXcX",
"cXcXcXcXcXcXcXcXcXcXcXcXcXcXcXcXcXcXcXcXcXcXcXcXcXcXcXcXcXcXcXsXcXcXcX<X  cXP   = J o cXG cXcXcXuXcXcXcXcXcXcXcXcXcXcXcXcXcXcXcXcXcXcXcXcXcXcXcXcXcXcX",
"cXcXcXcXcXcXcXcXcXcXcXcXcXcXcXcXcXcXcXcXcXcXcXcXcXcXcXcXcXcXrXg.cXcXcXP v v t.^ r.v P *XcX  cXcXcXhXcXcXcXcXcXcXcXcXcXcXcXcXcXcXcXcXcXcXcXcXcXcXcXcXcX",
"cXcXcXcXcXcXcXcXcXcXcXcXcXcXcXcXcXcXcXcXcXcXcXcXcXcXcXcXcXcXdXcX        + % i.u.u.  X           cXfXcXcXcXcXcXcXcXcXcXcXcXcXcXcXcXcXcXcXcXcXcXcXcXcXcX",
"cXcXcXcXcXcXcXcXcXcXcXcXcXcXcXcXcXcXcXcXcXcXcXcXcXcXcXcXcXkXhXcX  X M.uX  ^ r.^ 5.% o tX=XX   cXcXdXkXcXcXcXcXcXcXcXcXcXcXcXcXcXcXcXcXcXcXcXcXcXcXcXcX",
"cXcXcXcXcXcXcXcXcXcXcXcXcXcXcXcXcXcXcXcXcXcXcXcXcXcXcXcXcXyXhXxXkXuXE.+   y.j.XX9.%     E.uXyXrXdXhXkXcXcXcXcXcXcXcXcXcXcXcXcXcXcXcXcXcXcXcXcXcXcXcXcX",
"cXcXcXcXcXcXcXcXcXcXcXcXcXcXcXcXcXcXcXcXcXcXcXcXcXcXcXcXcXcXtX@XS o     R u pXgXR.8 .     + yXyXaXsXcXcXcXcXcXcXcXcXcXcXcXcXcXcXcXcXcXcXcXcXcXcXcXcXcX",
"cXcXcXcXcXcXcXcXcXcXcXcXcXcXcXcXcXcXcXcXcXcXcXcXcXcXcXcXcXcX        . y W j.OXn.oXW > #       cX= cXcXcXcXcXcXcXcXcXcXcXcXcXcXcXcXcXcXcXcXcXcXcXcXcXcX",
"cXcXcXcXcXcXcXcXcXcXcXcXcXcXcXcXcXcXcXcXcXcXcXcXcXcX    cX        T > ) z Z.    z 8.y y y       o cXcXcXcX  cXcXcXcXcXcXcXcXcXcXcXcXcXcXcXcXcXcXcXcXcX",
"cXcXcXcXcXcXcXcXcXcXcXcXcXcXcXcXcXcXcXcXcXcXcXcXcX  cXcX        T ( 0.a.s X       o d.% W 6         cX      #.H.cX0 cXcXcXcXcXcXcXcXcXcXcXcXcXcXcXcXcX",
"cXcXcXcXcXcXcXcXcXcXcXcXcXcXcXcXcXcXcXcXcXcXcXcXcXcX          # 3.0.( T.N.+       A.-XR / (   .           0 | +. .7 cXcXcXcXcXcXcXcXcXcXcXcXcXcXcXcXcX",
"cXcXcXcXcXcXcXcXcXcXcXcXcXcXcXcXcXcXcXcXcXcXcX              R . q.o.w.s ,XoX        G t.# W T T R o           } } <.cXcXcXcXcXcXcXcXcXcXcXcXcXcXcXcXcX",
"cXcXcXcXcXcXcXcXcXcXcXcXcXcXcXcXcXcXcXcXcXcX} 3 & , ,     # ( ( 0.y.7Xd >Xj.+       o E.Q / y./ ^ z O $ , , 0 } } } <.cXcXcXcXcXcXcXcXcXcXcXcXcXcXcXcX",
"cXcXcXcXcXcXcXcXcXcXcXcXcXcXcXcXcXcXcXcXcXH.| ` , , <   ,   T ( W ^ l.|.>X+Xs d   + + R.h # 7.h.L Y A $ , , {  .}  .+.cXcXcXcXcXcXcXcXcXcXcXcXcXcXcXcX",
"cXcXcXcXcXcXcXcXcXcXcXcXcXcXcXcXcXcXcX1.<.+.} 3 , , @ @ t . y.y.t.1Xj |.A.>X>Xd N.X .X3X_.- Q./.)._.: A < , 3 ' } } } +.<.cXcXcXcXcXcXcXcXcXcXcXcXcXcX",
"cXcXcXcXcXcXcXcXcXcXcXcXcXcXcXcXcXcXcXcX .| | } } , 5 T ! 0./ y.t.t.. >X>XN.oXN.j.M >Xa.Q.c.O Q._.).L C V < & < 0 } } } } cXq cXcXcXcXcXcXcXcXcXcXcXcX",
"cXcXcXcXcXcXcXcXcXcXcXcXcXcXcXcXcXcXcX3 @.| | } } } t o.1Xq.u.u.y.X.% ;X>XOXv.|.>XoX>X5Xa.'.O Z !././.L L m c < } <.+.' ' ` <.cXcXcXcXcXcXcXcXcXcXcXcX",
"cXcXcXcXcXcXcXcXcXcXcXcXcXcXcXcXcXcXcX3 +.+.{ E _ ! ( X.u.u.! u.y.5XM >X:X+Xn.|.:X>X>X-Xp.`._.O `./.V L [.}.!.L *.<.$.` 7 } <.cXcXcXcXcXcXcXcXcXcXcXcX",
"cXcXcXcXcXcXcXcXcXcXcXcXcXcXcXcXcXcXcX{ y ..~ ^ ~ W 3.1X1X1X5X5Xp.XXM >X>X|.n.N.,X>X>X>X-Xw.i.; L Q.K [ '.!._./.L V 4 ' } } @.cXcXcXcXcXcXcXcXcXcXcXcX",
"cXcXcXcXcXcXcXcXcXcXcXcXcXcXcXcXcX1.} 7 6 w.q.w.o.o.( t.1X7X7XR.>X>X= oXb.N.x.v.|.OX>X>X>X:XT.a.  M 0._ _.[.^.~.}.V <.@.} | |  .+.0 cXcXcXcXcXcXcXcXcX",
"cXcXcXcXcXcXcXcXcXcXcXcXcXcXcXcX{ { +.} ] w.w.u.o.w...9.S.XX+X.XS.N.X N.N.N b.Z.|.m.m.m.b.b.v.m.9.. ( ) ^._.}.Z !.L c <.| | | | <.cXcXcXcXcXcXcXcXcXcX",
"cXcXcXcXcXcXcXcXcXcXcXcXcXcXcXcXcX+.} } ] q.q.X.q.o.h M 8.n.v.N.Z.Z.n.B m.oXZ.>X>X>XOX+XXXA.A.A.|.) . ) !.}.^.V }.!.V H. .| | | +.cXcXcXcXcXcXcXcXcXcX",
"cXcXcXcXcXcXcXcXcXcXcXcXcXcXcXcXcX` } } ~ o.! q.o.O.( N M g.A..X+X>Xm.X |.-XN..X+X>XOX>X|.Z.A.:X,Xd.1X8 V '.^.Z !.}.Z ,  .| | | } +.} 1.cXcXcXcXcXcXcX",
"cXcXcXcXcXcXcXcXcXcXcXcXcXcXcXcXcX+.| } ( o.( w./ y.( _ c.OX:X,X>.{.I OXs >XOX>X>X>XOX.X+X+XOX>X;Xi.y.3.A ; ).A ^.^.).9 | | | | }  . .cXcXcXcXcXcXcXcX",
"cXcXcXcXcXcXcXcXcXcXcXcXcXcXcX` 1.{ } } ( i.~ X.w.! 3.0.+Xc.c.{.{.c..X>X- b.-XZ.>X>XOX>XOXgXOX>X,Xi.3.3.;.Q.c O ).~.~.s  . .| | }  .1.cXcXcXcXcXcXcXcX",
"cXcXcXcXcXcXcXcXcXcXcXcXcXcXcX@. .| | ` ( o.~ ~ ( W ^ J.:XI {.{.C v.>X|.Z.- :XoX.XOXOXOXOXOX>X>X:X5X3.^ 9 V V V O B L V } <.| | | | '  .1.cXcXcXcXcXcX",
"cXcXcXcXcXcXcXcXcXcXcXcXcXcXcX@.| | q , ~ o.o.W T ^ 3.3X,Xm.>.c.+X>X:X>X>Xs -X>X>X>XOX>X|.>XgXgX%Xe.3.^ & B V [.}.: O V < <.| | } } } } <.cXcXcXcXcXcX",
"cXcXcXcXcXcXcXcXcXcXcXcXcXcX<.|  .} , , W o.q./ E ^ ^ a.OXI }.}.I :XOX>X-XZ.s N.|.A.:XOX:X>X>X>X0X0.3.5 , , /.^.Q.^.m   & 1.1.} | | | | | <.cXcXcXcXcX",
"cXcXcXcXcXcXcXcXcXcXcXcXcX<.} } } 7 , ( o.q.0.y.5 t 3.7Xm.c.I >.c.>X:X+X|.>X- >XoX>XOX>X>X>X>X>X.X( ( , , , ).^.}.[.!.c   ` <.| | | | | | } 1.f cXcXcX",
"cXcXcXcXcXcXcXcXcXcXcXcXcXcX<.} { , 5 ~ t.q.q.o.W , ^ s.:.+X>XOXN I >X>X>X>X+Xn.>X>XOX:X>X>X>X:Xz.^ 6 , , , ~./.`.}.[.m @   <.` | | | | | | @.cXcXcXcX",
"cXcXcXcXcXcXcXcXcXcXcXcXcX1.| | , , t o.X.q.u.y.E , u R.c.>XeXOX>X>.>X>X:X=XOXo @XP.G.9Xk.B.>XS.J.^ , , , 3 B _.~.`._.V ,     < | | | | | | } <.cXcXcX",
"cXcXcXcXcXcXcXcXcXcXcXcXcXcX} 0 , , T u.u.y.y.( T , , N OXgXOX@X9XL.sXdXpXiXjXz.rXzXpXG.9XF.I.P.5.3., , , , , _.(.'.(.K , <   , } } | |  .} } ` cXcXcX",
"cXcXcXcXcXcXcXcXcXcXcXcX' +.| { 7 3 E t.y.V.u.y.5 , < 2 .XU.wXL.E.rXlXzXlXuXdXhXa zXzXlXK.U.F.wXwXk.[ , , , , t 0.y.y.u , ,   . 2. .| | } } } +.cXcXcX",
"cXcXcXcXcXcXcXcXcXcXcXcX$.| } { , 1 t 3 H v p U , , K.9X&.=.K.eXhXfXdXzXzXjXiXzX. lXzXdXfXI.I.I.K.wXL.9 , , , , t.u.y.Q , , &   , 7 @. .| | }  .cXcXcX",
"cXcXcXcXcXcXcXcXcXcXcXH.| | | ' , & J 9 < < a 2 3 g L.G.9 9XW.iXzXlXiXzXzXzXiXdXp iXzXiXlXP.U.L.9XI.qXF., , , , h 4 U H s , ,   , , <.} | |  .cXcXcXcX",
"cXcXcXcXcXcXcXcXcXcXcXcX .| } 3 d U , Q 0.3.Q , U M.I.&.U.P.jXpXzXjXrXiXjXjXtXrXv l.iXM l.9 g U.K.I.L.L.=.& & a S = , < J d 1 , , , @. .}  .} <.cXcXcX",
"cXcXcXcXcXcXcXcXcXcXcXq | | { , * d & w.w.e.0.1 k.[ L.L.F.iXlXsXiXiXfXP P P J G rXtXR.G : s -.g K.9XK.F.k.f 9 9 & ^ 3.y , , , , , ` 1.' } } } 1.cXcXcX",
"cXcXcXcXcXcXcXcXcXcXcXcX| } 3 , & , t 4X4Xy.e.k.1 1 2 G.W.l.S.P G E.eXn n n n b n W.lXb n b =.&.=.-.I.U.L.-., < Q 2X5X) , , , , , , , 3  .} } q cXcX  ",
"cXcXcXcXcXcXcXcXcXcXcXf | { , , , , Q 5X4X5X..=.1 k.1 -.- s b b b dXzX;.b n n b n E.dXfXY.b n =.n wXF.-.I.g 0 , 4.2X4X) , , , , , , , 3 +.}  .<.cXcX  ",
"cXcXcXcXcXcXcXcXcXcX' @.}  .} 7 , , e.4X5X1XG.[ * =.* 9 b b b n b fXlXb n b :.%.>.>.,.zXsXY.:.*.D.,.9XG.G.F.k., 0.u.4Xe., , , , , , , ' | | } <.cXcX  ",
"cXcXcXcXcXcXcXcXcXcX} }  .} } 3 , , 1X4X1X4X=.* * , 1 g b %.b %.n *.dXeX%.%.%.%.:.:.P.sXjXzX@X&XP a qXwXqX9XK., 2X4X4X4X, , , , , , , 1.@.| } ` cX    ",
"cXcXcXcXcXcXcXcXcX2. .1.} }  .{ , , 1Xi.i.1X5 1 [ f g b ;.%.m ,.:.rXlXlXg g M g n n j j yXzXE.S U H k.K.U.-.5 2X5X4X5X1X, , , , , , , <.3  .| 1.cX    ",
"cXcXcXcXcXcXcXcXcXcXcX@.}  .} 3 , 5 2Xy.( i * e 9XL.C.%.>.:.N j g F pXiXdXM.k j j j j j E.iXpXk &XU S , U , 2Xw.0.4Xu.y., , , , , , , , , +.}  .+.cX  ",
"cXcXcXcXcXcXcXcXcXcXcX@.| | | 0 < i.4X0.i 1 * wX9Xk.U z j j j j j j 6.iXzXl.j j j l g.S j j j j j C.&XD H < u., , 1Xi.y., , , , , , , , 7 +.| } cX  3.",
"cXcXcXcXcXcXcXcXcXcX@.cX .| | } 5 5X4X0.* rX3.F.F.j H S g.g.g.S j j l tXjXj j j j g.g.g.6.j j k 6.S %X%XH u ) , , u.u.5X, , , , , , , , @. . .' cXy 3.",
"cXcXcXcXcXcXcXcXcXcXcX| | | | | E 5X5XW W.s.^ e j C.D.g.g.g.g.g.j j j j j j j j j 6.g.g.g.g.g.g.g.g.f., , E E , , w.y.i., , , , , , , , 1.` }  .# / ^ ",
"cXcXcXcXcXcXcXcXcXcXcX . .| | | r.y e.e.Q 5.Q D U &XF g.g.g.g.h.j j j j x j j j j j g.g.g.g.g.g.g.g.g.2 , < t., , ^ e.u.6 , , , , , , , , q | | # i.cX",
"cXcXcXcXcXcXcXcXcXcXcX0  .| | | e 1 1 i.y.5.e H &X6.g.g.g.g.h.j j h w n.Z.b.j.p j k g.g.g.g.g.g.g.g.g.g., , , 4 , Q ) u.t < , , , , , , , 1.} 0 u.t.cX",
"cXcXcXcXcXcXcXcXcXcXcXcX<.| { e r 1 5 0.^ y , z 6.g.g.g.g.g.S j x = b.Z.A.A.A.Z.= x j g.g.g.g.g.g.g.g.g., , , 3 f.u.~ ) & < , , , , , , , | 7 ~ 1Xu.cX",
"cXcXcXcXcXcXcXcXcXcXcX1.| ' r r w 4 , , , , 2 g.g.g.g.g.g.S j w = & Z.Z.A.Z.A.A.b.p p j f.g.g.g.g.g.g.g.2 , , 4 ) ) t , , , , , , , , , $ . T u.u.cXcX",
"cXcXcXcXcXcXcXcXcXcXcXu f r r w 4 } , , , , p g.g.g.g.g.6.S r j p , G N.Z.Z.b.b.A.j j j j g.g.g.g.g.g.g.k , , , , , , , , , < , , , , @   w.o.3Xi.cXcX",
"cXcXcXcXcXcXcXcXcXcXcXw r r w 4 | 4 , , , , [ g.g.g.g.6.j h j h , , 9 A.A.A.A.A.A.F j k S k g.g.g.g.g.g.f., , , , , , , , , , , , $ . . / 1Xi.i.cXcXcX",
"cXcXcXcXcXcXcXcXcXcXr r r w e | | | q ` , , g.g.g.g.f.j j j j a , , , Z.v.N.A.A.b.v.a j S g.g.g.g.g.g.g.f., , , , , , , , , & , @ @ 6 t.q.y.i.s.cXcXcX",
"cXcXcXcXcXcXcXcXcXr r r 4 u }  .| | | ' , < g.g.g.g.h.k j j j , , , , j.A.A.A.A.Z.v.x j S S g.g.g.g.g.g.h $   , , , @ , , $   $ % o.p.X.1X1XW.cXcXcXcX",
"cXcXcXcXcXcXcX* a r r e & q @.} | | | q , 4 g.g.g.g.k j j j a , , , , < b.Z.A.A.Z.v.a j j f.g.g.g.g.g.6.6     $ . ,   @ $   y X.t./ q.q.i.;XcXcXcXcXcX",
"cXcXcXcXcX% e a r r w & cXH.cX1.| | | , , , 6.g.h.j j j j j & , , , , , n.A.Z.A.A.A.= j j j k 6.g.f.j h ^ y           8 t.o.u./ p./ u.0X>XcXcXcXcXcXcX",
"cXcXcXcXw e e e r w @ cXcXcXcXcX| | | } , , p j j j j j j p & , , , , , 3 N.b.v.b.A.n.* j j j j j j h T ~ W ^ W R u.u.t.1XO.u.o.y.p.:X>XcXcXcXcXcXcXcX",
"cXcXcXw r r w w w + cXcXcXcXcX' <.| }  .} 7 < p j z j x j e = 5 , , , , , F A.A.A.Z.g.W y u j j j _ ~ T ^ ~ ( ( T W 0.^ u.o.o.p.W.XXN.cXcXcXcXcXcXcXcX",
"cXw r r r r w * % cXcXcXcXcX` H.cX} @.} } } } ` , * w a p = & ^ 3 , , , , , b.v.b.A.^ ^ W Q _ A.b.l.0.^ ~ ( W ( ( T 0.~ ( 5.l.A.b.G cXcXcXcXcXcXcXcXcX",
"* e e r r e 1 1 X cXcXcXcXcXcXcXcXq { { | | | | ` < , & p = ( T 5 , , , , , < A.A.b.7.3.3.3.b.S.n.A.M.S.v.r.7.5.5.4.5.s.l.b.A.Z.cXcXcXcXcXcXcXcXcXcXcX",
"r 1 1 w e 1 * # % cXcXcXcXcXcXcXcXcX .cX+.{ { } | | 0 , t W W T , , , , , , , < Z.A.A.0.3.3.7.b.A.N.A.A.b.A.Z.A.A.A.n.A.Z.b.M cXcXcXcXcXcXcXcXcXcXcXcX",
"r e 1 e 1 1 cXcXcXcXcXcXcXcXcXcXcXcXcXcXcXcX] | f ' } $ > ( W R , , , , $ , @ cX, b.v.z.3.3.3.A.b.A.A.b.A.A.v.A.Z.Z.Z.S.v cXcXcXcXcXcXcXcXcXcXcXcXcXcX",
"r r w 1 w e cXcXcXcXcXcXcXcXcXcXcXcXcXcXcXcXcXcXcXcX7 cXt ^ ( y , @ , , cXcXcXcXcXcXcXn.3.3.0.n.A.A.b.A.A.A.Z.A.Z.F cXcXcXcXcXcXcXcXcXcXcXcXcXcXcXcXcX",
"w 1 1 1 * 1 cXcXcXcXcXcXcXcXcXcXcXcXcXcXcXcXcXcXcXcXcXcXR 3.^ cXcXcXcXcXcXcXcXcXcXcXcXcXcX0.3.3.cXcXcXs s cXcXcXcXcXcXcXcXcXcXcXcXcXcXcXcXcXcXcXcXcXcX",
"* * 1 * cXcXcXcXcXcXcXcXcXcXcXcXcXcXcXcXcXcXcXcXcXcXcXcX( 3.0.cXcXcXcXcXcXcXcXcXcXcXcXcXcX0.0.w.cXcXcXcXcXcXcXcXcXcXcXcXcXcXcXcXcXcXcXcXcXcXcXcXcXcXcX",
"1 * r cXcXcXcXcXcXcXcXcXcXcXcXcXcXcXcXcXcXcXcXcXcXcXcXcX3.3.3.cXcXcXcXcXcXcXcXcXcXcXcXcXcX~ e.0.e.cXcXcXcXcXcXcXcXcXcXcXcXcXcXcXcXcXcXcXcXcXcXcXcXcXcX",
"1 % * cXcXcXcXcXcXcXcXcXcXcXcXcXcXcXcXcXcXcXcXcXy ^ ^ e.3.3.^ cXcXcXcXcXcXcXcXcXcXcXcXcXcX> 3.y.3.w.w.y.8XcXcXcXcXcXcXcXcXcXcXcXcXcXcXcXcXcXcXcXcXcXcX",
"cXcXcXcXcXcXcXcXcXcXcXcXcXcXcXcXcXcXcXcXcXcX=XkXT.u.e.y.1Xy.W cXcXcXcXcXcXcXcXcXcXcXcXcXcXcX^ e.y.5XT.dXhXaXcXcXcXcXcXcXcXcXcXcXcXcXcXcXcXcXcXcXcXcXcX",
"cXcXcXcXcXcXcXcXcXcXcXcXcXcXcXcXcXcXcXcXcXcXcXdXV.hX8Xy.^ > cXcXcXcXcXcXcXcXcXcXcXcXcXcXcXcXcXcXcXR uXaXcXcXcXcXcXcXcXcXcXcXcXcXcXcXcXcXcXcXcXcXcXcXcX",
"cXcXcXcXcXcXcXcXcXcXcXcXcXcXcXcXcXcXcXcXcXcXcXcXcXcXcXcXcXcXcXcXcXcXcXcXcXcXcXcXcXcXcXcXcXcXcXcXcXcXcXcXcXcXcXcXcXcXcXcXcXcXcXcXcXcXcXcXcXcXcXcXcXcXcX"
};
