/* XPM */
static char *result[] = {
/* columns rows colors chars-per-pixel */
"75 75 217 2 ",
"   c #060606",
".  c #0A0A0A",
"X  c #0C0807",
"o  c #140E09",
"O  c #180907",
"+  c #1B150B",
"@  c #1A160A",
"#  c #080C15",
"$  c #080D1A",
"%  c #131313",
"&  c #1D1D1D",
"*  c #181715",
"=  c #0E1118",
"-  c #2A050A",
";  c #36050C",
":  c #291708",
">  c #351C06",
",  c #221E1E",
"<  c #2C191B",
"1  c #321117",
"2  c #3A2806",
"3  c #26221E",
"4  c #282217",
"5  c #372717",
"6  c #39311B",
"7  c #3A3207",
"8  c #060E23",
"9  c #081435",
"0  c #081026",
"q  c #242424",
"w  c #282828",
"e  c #2C2923",
"r  c #322E26",
"t  c #383527",
"y  c #333333",
"u  c #393939",
"i  c #3A3839",
"p  c #292B36",
"a  c #460303",
"s  c #530101",
"d  c #5C0407",
"f  c #470410",
"g  c #4C0D10",
"h  c #610007",
"j  c #6E010D",
"k  c #660012",
"l  c #7B0014",
"z  c #7A0217",
"x  c #70140F",
"c  c #472709",
"v  c #562B08",
"b  c #5E3007",
"n  c #523518",
"m  c #473112",
"M  c #653305",
"N  c #693508",
"B  c #753A06",
"V  c #7B3C06",
"C  c #75390A",
"Z  c #762311",
"A  c #6F2F0D",
"S  c #5A4801",
"D  c #4F430A",
"F  c #645403",
"G  c #715F0B",
"H  c #7B4A13",
"J  c #7D4409",
"K  c #7D6A13",
"L  c #494322",
"P  c #584A25",
"I  c #524833",
"U  c #645536",
"Y  c #63522B",
"T  c #776A31",
"R  c #081E57",
"E  c #081A48",
"W  c #18264F",
"Q  c #30364E",
"!  c #082061",
"~  c #09256F",
"^  c #0A297C",
"/  c #1C3479",
"(  c #2C3861",
")  c #3A4144",
"_  c #3B495B",
"`  c #474747",
"'  c #555855",
"]  c #6B6B6B",
"[  c #820016",
"{  c #850118",
"}  c #890118",
"|  c #8A0517",
" . c #94001A",
".. c #9C001B",
"X. c #940D19",
"o. c #8E1314",
"O. c #941618",
"+. c #A4001D",
"@. c #AA001E",
"#. c #B2001F",
"$. c #A1171A",
"%. c #813E07",
"&. c #873707",
"*. c #94390C",
"=. c #822C0B",
"-. c #B03F18",
";. c #960A25",
":. c #971321",
">. c #9C1331",
",. c #A00F2D",
"<. c #AA1536",
"1. c #B11A3C",
"2. c #B2293C",
"3. c #C1212A",
"4. c #894207",
"5. c #874608",
"6. c #944508",
"7. c #954808",
"8. c #994908",
"9. c #994409",
"0. c #9C530D",
"q. c #93530E",
"w. c #835415",
"e. c #944B12",
"r. c #A6550C",
"t. c #A9590C",
"y. c #B15512",
"u. c #806E17",
"i. c #816F1A",
"p. c #8A761C",
"a. c #A6610F",
"s. c #B6660F",
"d. c #A96817",
"f. c #BA6912",
"g. c #BA7715",
"h. c #8F5125",
"j. c #AD5A35",
"k. c #8C6E28",
"l. c #A36C22",
"z. c #C37513",
"x. c #CD7E16",
"c. c #C77519",
"v. c #D57B19",
"b. c #CE7B36",
"n. c #B91E43",
"m. c #C5294E",
"M. c #C33A4B",
"N. c #C82850",
"B. c #BF4547",
"V. c #BA7B40",
"C. c #857F74",
"Z. c #D25C55",
"A. c #CA4E4F",
"S. c #9A842C",
"D. c #91823B",
"F. c #A88D31",
"G. c #B88537",
"H. c #A99131",
"J. c #AF9836",
"K. c #B79F3B",
"L. c #B9A33E",
"P. c #CC881C",
"I. c #D28317",
"U. c #D58518",
"Y. c #D88818",
"T. c #D88818",
"R. c #DD9324",
"E. c #D98C28",
"W. c #E6A538",
"Q. c #9A8B41",
"!. c #A28344",
"~. c #BA9845",
"^. c #BE8942",
"/. c #B5A248",
"(. c #C99B4F",
"). c #D59C43",
"_. c #C5AD46",
"`. c #CBAB4B",
"'. c #CAB44B",
"]. c #D8B556",
"[. c #DAAA4D",
"{. c #F0B84F",
"}. c #E9BA59",
"|. c #F3BD59",
" X c #E9B04A",
".X c #DBC357",
"XX c #E5CD5E",
"oX c #F5C45D",
"OX c #F7C55C",
"+X c #F8C860",
"@X c #E8D060",
"#X c #0B2D87",
"$X c #0C3295",
"%X c #193789",
"&X c #0E37A4",
"*X c #0F39AA",
"=X c #143DAC",
"-X c #0F3DB5",
";X c #103FBC",
":X c #394B85",
">X c #1543BF",
",X c #1B47BE",
"<X c #224BBD",
"1X c #3155BC",
"2X c #3959B8",
"3X c #4B65B9",
"4X c #4F68B8",
"5X c #5068B8",
"6X c #5B6FB4",
"7X c #1040C0",
"8X c #8B8B8B",
"9X c #9A9A9A",
"0X c #999FB5",
"qX c #A4A4A4",
"wX c #FBFBFB",
"eX c gray90",
"rX c None",
/* pixels */
"rXrXrXrXrXrXrXrXrXrXrXrXrXrXrXrXrXrXrXrXrXrXrXrXrXrXrXrXrXrXrXrXrXrXrXrXrXrXrXrXrXrXrXrXrXrXrXrXrXrXrXrXrXrXrXrXrXrXrXrXrXrXrXrXrXrXrXrXrXrXrXrXrXrXrX",
"rXrXrXrXrXrXrXrXrXrXrXrXrXrXrXrXrXrXrXrXrXrXrXrXrXrXrXrXrXrXrXrXrXrXrXrXrXrXrXrXrXrXrXrXrXrXrXrXrXrXrXrXrXrXrXrXrXrXrXrXrXrXrXrXrXrXrXrXrXrXrXrXrXrXrX",
"rXrXrXrXrXrXrXrXrXrXrXrXrXrXrXrXrXrXrXrXrXrXrXrXrXrXrXrXrXrXrXrXrXrXrXrXrXrXrXrXrXrXrXrXrXrXrXrXrXrXrXrXrXrXrXrXrXrXrXrXrXrXrXrXrXrXrXrXrXrXrXrXrXrXrX",
"rXrXrXrXrXrXrXrXrXrXrXrXrXrXrXrXrXrXrXrXrXrXrXrXrXrXrXrXrXrXrXrXrXrXrXrXrXrXrX  rXrXrXrXrXrXrXrXrXrXrXrXrXrXrXrXrXrXrXrXrXrXrXrXrXrXrXrXrXrXrXrXrXrXrX",
"rXrXrXrXrXrXrXrXrXrXrXrXrXrXrXrXrXrXrXrXrXrXrXrXrXrXrXrXrXrXrXrXrXrXrXrX  rXrX  rXrXrXrXrXrXrXrXrXrXrXrXrXrXrXrXrXrXrXrXrXrXrXrXrXrXrXrXrXrXrXrXrXrXrX",
"rXrXrXrXrXrXrXrXrXrXrXrXrXrXrXrXrXrXrXrXrXrXrXrXrXrXrXrXrXrXrXrXrXrXrXrX. rXrX  . rXrXrX. rXrXrXrXrXrXrXrXrXrXrXrXrXrXrXrXrXrXrXrXrXrXrXrXrXrXrXrXrXrX",
"rXrXrXrXrXrXrXrXrXrXrXrXrXrXrXrXrXrXrXrXrXrXrXrXrXrXrXrXrXrXrXrXrX  rXrX  . . .   . rXrX  rXrXrXrXrXrXrXrXrXrXrXrXrXrXrXrXrXrXrXrXrXrXrXrXrXrXrXrXrXrX",
"rXrXrXrXrXrXrXrXrXrXrXrXrXrXrXrXrXrXrXrXrXrXrXrXrXrXrXrXrXrXrX. rXrX.   .   .   .   .   . rXrXrXrXrXrXrXrXrXrXrXrXrXrXrXrXrXrXrXrXrXrXrXrXrXrXrXrXrXrX",
"rXrXrXrXrXrXrXrXrXrXrXrXrXrXrXrXrXrXrXrXrXrXrXrXrXrXrXrXrXrXrX. . .   . .   . .   .   . . rXrX. rXrXrXrXrXrXrXrXrXrXrXrXrXrXrXrXrXrXrXrXrXrXrXrXrXrXrX",
"rXrXrXrXrXrXrXrXrXrXrXrXrXrXrXrXrXrXrXrXrX. o . . . rXrXrXrXrXrX.   .     . .   .   .     . .   rXrXrXrXrXrXrXrXrXrXrXrXrXrXrXrXrXrXrXrXrXrXrXrXrXrXrX",
"rXrXrXrXrXrXrXrXrXrXrXrXrXrXrXrXrXrXrXX @ p._.XXL.G . rXrXrXrXrXrX.   . .   . . .     . .   . rXrXrXrXrXrXrXrXrXrXrXrXrXrXrXrXrXrXrXrXrXrXrXrXrXrXrXrX",
"rXrXrXrXrXrXrXrXrXrXrXrXrXrXrXrXrXrXo u.L.XXXX.X].}.G.: rXrXrX  .   .     o . o X .   .   .   rXrXrXrXrXrXrXrXrXrXrXrXrXrXrXrXrXrXrXrXrXrXrXrXrXrXrXrX",
"rXrXrXrXrXrXrXrXrXrXrXrXrXrXrXrXrXrX+ /..X`.`.F.A.N.m.:.rXrX. .   . .   . v b J 2 . . . .   rXrXrXrXrXrXrXrXrXrXrXrXrXrXrXrXrXrXrXrXrXrXrXrXrXrXrXrXrX",
"rXrXrXrXrXrXrXrXrXrXrXrXrXrXrXrXrXo K `.j.Z.m.A.A.Z.~..XL L . . .   . . . H H v E.P o A > . . rXrXrXrXrXrXrXrXrXrXrXrXrXrXrXrXrXrXrXrXrXrXrXrXrXrXrXrX",
"rXrXrXrXrXrXrXrXrXrXrXrXrXrXrXrXrX+ J.j.M.M.A.G.'.'./.k./.'.@ .     . : . H w.p n ).: %.7..     rXrXrXrXrXrXrXrXrXrXrXrXrXrXrXrXrXrXrXrXrXrXrXrXrXrXrX",
"rXrXrXrXrXrXrXrXrXrXrXrXrXrXrXrXrXO h.;.2.(.'.D.Y 7 .   2 7 7 . % . o 0.2 w.k.0X_ c c V v   rXrXrXrXrXrXrXrXrXrXrXrXrXrXrXrXrXrXrXrXrXrXrXrXrXrXrXrXrX",
"rXrXrXrXrXrXrXrXrXrXrXrXrXrXrXrXrXf | j.h.T T & ; f f f - . . % q * % B q.k./.C.y c a.5..   rXrXrXrXrXrXrXrXrXrXrXrXrXrXrXrXrXrXrXrXrXrXrXrXrXrXrXrXrX",
"rXrXrXrXrXrXrXrXrXrXrXrXrXrXrXrX. ; ; P 6 * * . 1 z <.n.s & w y w w w , m h. X~.l.f.U.5.  rXrXrXrXrXrXrXrXrXrXrXrXrXrXrXrXrXrXrXrXrXrXrXrXrXrXrXrXrXrX",
"rXrXrXrXrXrXrXrXrXrXrXrXrXrXrXrXo Q.. * * w w & & 1 ;.m.l % w q q y u & = N c.l.w.5.5.> .   . rXrXrXrXrXrXrXrXrXrXrXrXrXrXrXrXrXrXrXrXrXrXrXrXrXrXrXrX",
"rXrXrXrXrXrXrXrXrXrXrXrXrXrXrX  /.6 & q w w & & & & z ;.n.a % q q w q q 5 m b f.g.g.7.O ; a a   rXrXrXrXrXrXrXrXrXrXrXrXrXrXrXrXrXrXrXrXrXrXrXrXrXrXrX",
"rXrXrXrXrXrXrXrXrXrXrXrXrXrXrX  H.. w w w q & q w & , [ N.{ % . & & & y 5 C 2 + @ @ o o X l s .   rXrXrXrXrXrXrXrXrXrXrXrXrXrXrXrXrXrXrXrXrXrXrXrXrXrX",
"rXrXrXrXrXrXrXrXrXrXrXrXrXrX  S.* & w y q q w u i w w [ N.} & . % w e [.f.V B : M &.b , & } [ . &   rXrXrXrXrXrXrXrXrXrXrXrXrXrXrXrXrXrXrXrXrXrXrXrXrX",
"rXrXrXrXrXrXrXrXrXrXrXrXrXrX. H.  w u q & y u y w w & q N.} # % . % 3 U  XV V : N 8.M M & } } . & %   rXrXrXrXrXrXrXrXrXrXrXrXrXrXrXrXrXrXrXrXrXrXrXrX",
"rXrXrXrXrXrXrXrXrXrXrXrXrXrXrX. q w w q w y w q q & & & } } & & & w . m x.V V > c M 4 3 3 { { % w *   rXrXrXrXrXrXrXrXrXrXrXrXrXrXrXrXrXrXrXrXrXrXrXrX",
"rXrXrXrXrXrXrXrXrXrXrXrXrXrXrX  & w w w i q & w w w i u } } & & q w w * . + > o A I.T.Y.3 } } # & w   rXrXrXrXrXrXrXrXrXrXrXrXrXrXrXrXrXrXrXrXrXrXrXrX",
"rXrXrXrXrXrXrXrXrXrXrXrXrXrXrX. & w & w q q w y u u u & } s & q & & & n T.s.4.4.z.T.8.4 & s } % & w &   rXrXrXrXrXrXrXrXrXrXrXrXrXrXrXrXrXrXrXrXrXrXrX",
"rXrXrXrXrXrXrXrXrXrXrXrXrXrX. & & w & w w w y u Q w w a } s , } & r }.U {.T.T.T.T.t q , & s [ & & w &   rXrXrXrXrXrXrXrXrXrXrXrXrXrXrXrXrXrXrXrXrXrXrX",
"rXrXrXrXrXrXrXrXrXrXrXrXrXrX  & & w w w w q w w r w w s } s w I.e w e oXOXW.T.t.z.|.|.:., s & & & & &   rXrXrXrXrXrXrXrXrXrXrXrXrXrXrXrXrXrXrXrXrXrXrX",
"rXrXrXrXrXrXrXrXrXrXrXrXrXrX. q q w w w w q w w e w & z } q w w |.< , U oXW.Y.a.c.{.X.|.s } % q q & &   rXrXrXrXrXrXrXrXrXrXrXrXrXrXrXrXrXrXrXrXrXrXrX",
"rXrXrXrXrXrXrXrXrXrXrXrXrXrX. & w 3 w w q w w & & & & [ l q g.I R.E.O...3.E.Y.t.f.X.O.U.s } q & & & .   rXrXrXrXrXrXrXrXrXrXrXrXrXrXrXrXrXrXrXrXrXrXrX",
"rXrXrXrXrXrXrXrXrXrXrXrXrX. & w w w w w & & & q & . O z a e , ].].].Y.:.@.-.c.r.o.@.v.R.s z & & & &   rXrXrXrXrXrXrXrXrXrXrXrXrXrXrXrXrXrXrXrXrXrXrXrX",
"rXrXrXrXrXrXrXrXrXrXrXrX. q w y y w w & & & * * % ; [ s 5 n n , q e !.b.} +...,.+.o.s.!.}   % q * . . rXrXrXrXrXrXrXrXrXrXrXrXrXrXrXrXrXrXrXrXrXrXrXrX",
"rXrXrXrXrXrXrXrXrXrXrXrX# w w u w w w & & = . - - l l h M %.5.5 m m n y.o...+.@. .=.8.5 } X * q # %   rXrXrXrXrXrXrXrXrXrXrXrXrXrXrXrXrXrXrXrXrXrXrXrX",
"rXrXrXrXrXrXrXrXrXrXrX  w i u y q w q * . ; k >.;.| d 5 M M M N C A B V A k l #...a B M } ; . q 3 & . rXrXrXrXrXrXrXrXrXrXrXrXrXrXrXrXrXrXrXrXrXrXrXrX",
"rXrXrXrXrXrXrXrXrXrXrX% w y u w w w q *   h } n.;.j 1 , a.a.V V %.%.%.=.x k l +.| A v M } s . & w q * . rXrXrXrXrXrXrXrXrXrXrXrXrXrXrXrXrXrXrXrXrXrXrX",
"rXrXrXrXrXrXrXrXrXrX  q w q w w w & & O s } ,.,.j < , , t I.x.I.x.x.x.y...[ k +...*.> + } s   3 & w &   rXrXrXrXrXrXrXrXrXrXrXrXrXrXrXrXrXrXrXrXrXrXrX",
"rXrXrXrXrXrXrXrXrX  * y i w w & q & # s l } ,.;.h < J C g.{.{.t.T.U.t.$.@.} [  .+.9.> , } l   & & q & . . rXrXrXrXrXrXrXrXrXrXrXrXrXrXrXrXrXrXrXrXrXrX",
"rXrXrXrXrXrXrXrXrX  w u u w w w q & . - { <.N.;.h &.I.U.Y.OX+XI.8.9.| @.[ e.I.Z z | 6.3 s }   % % & & & * rXrXrXrXrXrXrXrXrXrXrXrXrXrXrXrXrXrXrXrXrXrX",
"rXrXrXrXrXrXrXrXrX  q w w w & w w w & O h <.N.;.h 4.8.I.OX+XOXY.9. .#.o.&.Z s.x.Z +.| < s }   % & & & & & rXrXrXrXrXrXrXrXrXrXrXrXrXrXrXrXrXrXrXrXrXrX",
"rXrXrXrXrXrXrXrX  & & w w w & w & w q - d <.1.} *.8.8.I.OXOXOX8.7.} | 8.8.9.7.8.x } } , s s X # & & & q & %   rXrXrXrXrXrXrXrXrXrXrXrXrXrXrXrXrXrXrXrX",
"rXrXrXrXrXrXrXrX  & & w & & w q w & q * O } } h =.8.I.T.OXY.8.Y.} X.I.5.B s.T.T.t.8.| 6.7.s . % & & & q w %   rXrXrXrXrXrXrXrXrXrXrXrXrXrXrXrXrXrXrXrX",
"rXrXrXrXrXrXrXrX  & & & & & u w w & w q O j } h V 8.I.T.Y.Y.M 8.T.T.I.5.J T.T.t.B 7.8.8.M .   . q & & q w q % rXrXrXrXrXrXrXrXrXrXrXrXrXrXrXrXrXrXrXrX",
"rXrXrXrXrXrXrXrX  & w & q w u u w w w & O s s &.7.8.8.I.Y.M 8.8.8.8.8.7.8.8.8.B M 4.8.8.M   . o & & % & , q % rXrXrXrXrXrXrXrXrXrXrXrXrXrXrXrXrXrXrXrX",
"rXrXrXrXrXrXrXrX  * w q & u u u w w w * o 4.9.7.8.8.8.I.Y.M 8.Y.T.T.I.M J T.T.t.B 6.6.8.. rX. # % & % & & w q % rXrXrXrXrXrXrXrXrXrXrXrXrXrXrXrXrXrXrX",
"rXrXrXrXrXrXrXrX. & w & & w u w w w w % . > B 6.8.8.7.I.OXN M I.x.I.I.B r.I.I.r.C 6.4.b . rXrX. . & & % & q q # rXrXrXrXrXrXrXrXrXrXrXrXrXrXrXrXrXrXrX",
"rXrXrXrXrXrXrX  * & w & & w u & w w w   rX  : 4.7.7.8.I.OXN 8.0.r.8.8.7.8.8.0.8.Q H W . rXrXrX  % & & q & w q . rXrXrXrXrXrXrXrXrXrXrXrXrXrXrXrXrXrXrX",
"rXrXrXrXrXrXrX  % q w q w & w & w w w   rXrXrX2 S 5.q.g.P.Q P.}.}.P.P.0.a.P.P.0.y W 4 rXrXrXrX. . % & & & & q & . rXrXrXrXrXrXrXrXrXrXrXrXrXrXrXrXrXrX",
"rXrXrXrXrXrXrX  % w w w w q & & w q &   rXrXrX  7 S G G K J.K.L.K.K.K.K.L.K.S.u.u.F J.rXrXrXrX. . % & q q & & % . rXrXrXrXrXrXrXrXrXrXrXrXrXrXrXrXrXrX",
"rXrXrXrXrXrXrX  * w w w w w & w w q &   rXrXrXrX  S p.p./.L.L.L.L.L.L.L.L.L.L.L.L.D .XK rXrXrXrX. % * & & & q = # rXrXrXrXrXrXrXrXrXrXrXrXrXrXrXrXrXrX",
"rXrXrXrXrXrXrX  * w w w w w w y y w *   rXrXrXrX  Q ' _ _ ' _ _ _ _ ' _ _ ) ) Q t % /.'.rXrXrXrX. . % * * & & & & %   rXrXrXrXrXrXrXrXrXrXrXrXrXrXrXrX",
"rXrXrXrXrXrXrX  * w w w w w w w y & * .   rXrXrX  =X4X1X1X4X1X1X1X1X3X>X>X#X&X$X$X$ S..XF rXrXrX. . % * & & * * & q %   rXrXrXrXrXrXrXrXrXrXrXrXrXrXrX",
"rXrXrXrXrXrXrX  = & w w w w w w w y y y w % rX  ( 2X4X5X<X<X/ / <X<X,X^ #X*X&X*X>XR 6 K _.rXrXrX  % & & & & * * & q w *   rXrXrXrXrXrXrXrXrXrXrXrXrXrX",
"rXrXrXrXrXrXrX  % & q w w w w w w u u u u w %   %X<X<X4X2X7X$X! ^ ^ ^ 8 9 #X#X1X,X&X$ p.L.m rXrX. % & & & * % % & % q & . rXrXrXrXrXrXrXrXrXrXrXrXrXrX",
"rXrXrXrXrXrXrX  * q w w w w w w i u w y u u w % :X4X3X4X5X7X>X>X! R # $ R ! ! =X2X3X>X* H..XrXrX  # % % % % % % * & & . & . rXrXrXrXrXrXrXrXrXrXrXrXrX",
"rXrXrXrXrXrXrX  * w w w w w w w u w w q q w y % %X,X3X4X7X7X7X~ # $ rX. 0 ! #X;X>X3X>X. H.@XrXrX    . . . . . . % & & . &   rXrXrXrXrXrXrXrXrXrXrXrXrX",
"rXrXrXrXrXrXrX  * w w w & w w u u w & * % * q % :X4X4X4X7X7X! . rXrXrXrXrX9 R *X7X>X3X>X. F.rX  % & . % * . % q w & %   q . rXrXrXrXrXrXrXrXrXrXrXrXrX",
"rXrXrXrXrXrXrX  * w q w & w w u w q & % q * * # :X5X4X4X7X7X. rXrXrXrXrXrX  9 ! &X7X3X>X. F rX. & & . q * % & & & % . . & . rXrXrXrXrXrXrXrXrXrXrXrXrX",
"rXrXrXrXrXrXrX  * w = q & w w u w w % % q & % ] 9X6X>X;X! . rXrXrXrXrXrXrXrXrXE ! -X7X3X7X  rX  & % = * % . . . . . . % & . rXrXrXrXrXrXrXrXrXrXrXrXrX",
"rXrXrXrXrXrXrX  * & = w & w w w w & % * = % ` eXwXwXqX>X. rXrXrXrXrXrXrXrXrXrX  E = 8X9X9X9X. . . % . % . % * . . % . & . rXrXrXrXrXrXrXrXrXrXrXrXrXrX",
"rXrXrXrXrXrXrX  & & & & & & w w w & & w & %   . . 8XwXqX. rXrXrXrXrXrXrXrXrXrX  ` 8X] . . .   rX. . . % % . * . . & % .   rXrXrXrXrXrXrXrXrXrXrXrXrXrX",
"rXrXrXrXrXrXrXrX  * & & & & & % & w & * . % & w q . . ` . rXrXrXrXrXrXrXrXrXrXrX  ` % . & q . rXrX.   . % . . %   % # . rXrXrXrXrXrXrXrXrXrXrXrXrXrXrX",
"rXrXrXrXrXrXrXrXrX  . & & q & % & & .   rX% q w 3 . . . rXrXrXrXrXrXrXrXrXrXrXrXrX. . % & &   rXrXrXrXrX  .   .   X   rXrXrXrXrXrXrXrXrXrXrXrXrXrXrXrX",
"rXrXrXrXrXrXrXrXrXrXrX          .   rXrX. w w & % rXrXrXrXrXrXrXrXrXrXrXrXrXrXrX. & q & & 8   rXrXrXrXrXrXrXrXrXrXrXrXrXrXrXrXrXrXrXrXrXrXrXrXrXrXrXrX",
"rXrXrXrXrXrXrXrXrXrXrXrXrXrXrXrXrXrXrXrX. w w & . rXrXrXrXrXrXrXrXrXrXrXrXrXrX  * & w q .   rXrXrXrXrXrXrXrXrXrXrXrXrXrXrXrXrXrXrXrXrXrXrXrXrXrXrXrXrX",
"rXrXrXrXrXrXrXrXrXrXrXrXrXrXrXrXrXrXrXrX% y & . rXrXrXrXrXrXrXrXrXrXrXrXrXrXrX  * w q & . rXrXrXrXrXrXrXrXrXrXrXrXrXrXrXrXrXrXrXrXrXrXrXrXrXrXrXrXrXrX",
"rXrXrXrXrXrXrXrXrXrXrXrXrXrXrXrXrXrXrXrX* y * rXrXrXrXrXrXrXrXrXrXrXrXrXrXrXrX  % w & .   rXrXrXrXrXrXrXrXrXrXrXrXrXrXrXrXrXrXrXrXrXrXrXrXrXrXrXrXrXrX",
"rXrXrXrXrXrXrXrXrXrXrXrXrXrXrXrXrXrXrX% y & . rXrXrXrXrXrXrXrXrXrXrXrXrXrXrXrXrX  & q . rXrXrXrXrXrXrXrXrXrXrXrXrXrXrXrXrXrXrXrXrXrXrXrXrXrXrXrXrXrXrX",
"rXrXrXrXrXrXrXrXrXrXrXrXrXrXrXrXrXrX  q u %   rXrXrXrXrXrXrXrXrXrXrXrXrXrXrXrXrX  & &   rXrXrXrXrXrXrXrXrXrXrXrXrXrXrXrXrXrXrXrXrXrXrXrXrXrXrXrXrXrXrX",
"rXrXrXrXrXrXrXrXrXrXrXrXrXrXrXrXrXrX. w u *   rXrXrXrXrXrXrXrXrXrXrXrXrXrXrXrXrX  & & & . rXrXrXrXrXrXrXrXrXrXrXrXrXrXrXrXrXrXrXrXrXrXrXrXrXrXrXrXrXrX",
"rXrXrXrXrXrXrXrXrXrXrXrXrXrXrXrXrX. & i i q % rXrXrXrXrXrXrXrXrXrXrXrXrXrXrXrXrX  & q & &   rXrXrX      rXrXrXrXrXrXrXrXrXrXrXrXrXrXrXrXrXrXrXrXrXrXrX",
"rXrXrXrXrXrXrXrXrXrXrXrXrXrXrXrX. q i y w q % rXrXrXrXrXrXrXrXrXrXrXrXrXrXrXrX  * & q w w q     . . & %   rXrXrXrXrXrXrXrXrXrXrXrXrXrXrXrXrXrXrXrXrXrX",
"rXrXrXrXrXrXrXrXrXrXrXrXrXrXrX  w w w w q u q rXrXrXrXrXrXrXrXrXrXrXrXrXrXrXrX  * q q q w w q q . & w &   rXrXrXrXrXrXrXrXrXrXrXrXrXrXrXrXrXrXrXrXrXrX",
"rXrXrXrXrXrXrXrXrXrXrXrXrXrX. w u w i & w u w rXrXrXrXrXrXrXrXrXrXrXrXrXrXrXrX. * & & & q & & & & & & &   rXrXrXrXrXrXrXrXrXrXrXrXrXrXrXrXrXrXrXrXrXrX",
"rXrXrXrXrXrXrXrXrXrXrXrXrXrX  w u w i q w w * rXrXrXrXrXrXrXrXrXrXrXrXrXrXrXrXrX  . . .   . . . .       rXrXrXrXrXrXrXrXrXrXrXrXrXrXrXrXrXrXrXrXrXrXrX",
"rXrXrXrXrXrXrXrXrXrXrXrXrXrXrX. . . . . . .   rXrXrXrXrXrXrXrXrXrXrXrXrXrXrXrXrXrXrXrXrXrXrXrXrXrXrXrXrXrXrXrXrXrXrXrXrXrXrXrXrXrXrXrXrXrXrXrXrXrXrXrX"
};
