/* XPM */
static char *result[] = {
/* columns rows colors chars-per-pixel */
"75 75 248 2 ",
"   c #150E0E",
".  c #190A09",
"X  c #17100F",
"o  c #1C110E",
"O  c #1B1412",
"+  c #171010",
"@  c #290E0A",
"#  c #28120D",
"$  c #33110B",
"%  c #3D130B",
"&  c #34180D",
"*  c #211816",
"=  c #291C17",
"-  c #391B13",
";  c #2D211D",
":  c #342318",
">  c #382A24",
",  c #2F2120",
"<  c #44150C",
"1  c #4C160B",
"2  c #431C0C",
"3  c #53170C",
"4  c #5C1A0C",
"5  c #57190B",
"6  c #481D12",
"7  c #581D16",
"8  c #64190C",
"9  c #69190B",
"0  c #771B0B",
"q  c #6F1C11",
"w  c #48220E",
"e  c #5B250D",
"r  c #452518",
"t  c #552614",
"y  c #553713",
"u  c #66260D",
"i  c #782A0D",
"p  c #742A16",
"a  c #75361A",
"s  c #6B3311",
"d  c #493528",
"f  c #462737",
"g  c #53362D",
"h  c #753826",
"j  c #653E35",
"k  c #67481C",
"l  c #754A11",
"z  c #56442E",
"x  c #77482A",
"c  c #654C36",
"v  c #6D5137",
"b  c #613B52",
"n  c #6E554F",
"m  c #736A57",
"M  c #746B4D",
"N  c #735662",
"B  c #7C6A6B",
"V  c #5D5050",
"C  c #831D0B",
"Z  c #881B09",
"A  c #921D09",
"S  c #9C1C07",
"D  c #AB1C04",
"F  c #A41D08",
"G  c #B81C05",
"H  c #872D0B",
"J  c #95290C",
"K  c #88320B",
"L  c #97390A",
"P  c #843816",
"I  c #953916",
"U  c #892C15",
"Y  c #A8210B",
"T  c #BA220A",
"R  c #A53B09",
"E  c #B72715",
"W  c #A83B15",
"Q  c #B93C13",
"!  c #9C3827",
"~  c #C41B03",
"^  c #CA1D06",
"/  c #D71E06",
"(  c #C8220A",
")  c #D4250D",
"_  c #D72A14",
"`  c #C73A10",
"'  c #D02A15",
"]  c #E1260F",
"[  c #E32812",
"{  c #D73522",
"}  c #964B0D",
"|  c #984B19",
" . c #924D10",
".. c #A84309",
"X. c #B94607",
"o. c #B95207",
"O. c #A6471C",
"+. c #AF5013",
"@. c #8D6718",
"#. c #B7640A",
"$. c #AA6413",
"%. c #BB7B1D",
"&. c #A86E12",
"*. c #874A28",
"=. c #935637",
"-. c #944D2C",
";. c #AD4A21",
":. c #B94E22",
">. c #B0542E",
",. c #85673C",
"<. c #936F38",
"1. c #BC6639",
"2. c #AA7830",
"3. c #C54D06",
"4. c #C75708",
"5. c #CF5112",
"6. c #C8760D",
"7. c #CF740F",
"8. c #E56D05",
"9. c #C45424",
"0. c #C95A29",
"q. c #D55925",
"w. c #C3572A",
"e. c #E35B23",
"r. c #D4622C",
"t. c #DA6527",
"y. c #C46939",
"u. c #D76A35",
"i. c #D46E33",
"p. c #E9672C",
"a. c #E86B32",
"s. c #ED7B3C",
"d. c #E77639",
"f. c #F17839",
"g. c #8D4F49",
"h. c #AF4E44",
"j. c #947748",
"k. c #927353",
"l. c #AF734B",
"z. c #885C73",
"x. c #8A6978",
"c. c #937176",
"v. c #AC746E",
"b. c #D67B44",
"n. c #CF7B4A",
"m. c #EB7D42",
"M. c #E67842",
"N. c #F37D42",
"B. c #C34F40",
"V. c #BC9429",
"C. c #B9952E",
"Z. c #D68414",
"A. c #D39218",
"S. c #EB9214",
"D. c #EEA919",
"F. c #C58B26",
"G. c #D99C28",
"H. c #C89C31",
"J. c #E98733",
"K. c #D4AC33",
"L. c #E8B53A",
"P. c #EEB727",
"I. c #D4A519",
"U. c #F4C721",
"Y. c #E3CA29",
"T. c #ECD232",
"R. c #98834B",
"E. c #A98753",
"W. c #AE9351",
"Q. c #B7AD56",
"!. c #AA8973",
"~. c #B2926C",
"^. c #B8A673",
"/. c #84806C",
"(. c #C7874D",
"). c #D4834C",
"_. c #DA9A59",
"`. c #CC8653",
"'. c #EC8344",
"]. c #EB884B",
"[. c #F28747",
"{. c #EA9758",
"}. c #F39453",
"|. c #F39D5B",
" X c #F59756",
".X c #F28F50",
"XX c #D0B552",
"oX c #F4A25E",
"OX c #F8A65D",
"+X c #EAAD54",
"@X c #CF9670",
"#X c #ED9D67",
"$X c #C9A667",
"%X c #CEAE76",
"&X c #E9A765",
"*X c #F3A461",
"=X c #F5AB64",
"-X c #F5AE67",
";X c #F4B46C",
":X c #F5B96C",
">X c #F6B568",
",X c #F5BC72",
"<X c #F8BC73",
"1X c #EBB96A",
"2X c #EECB4C",
"3X c #DACB74",
"4X c #F5C373",
"5X c #F8C879",
"6X c #F9D17C",
"7X c #F4C371",
"8X c #F5EF71",
"9X c #ECD74E",
"0X c #9E7787",
"qX c #9B6B88",
"wX c #A87696",
"eX c #A2738F",
"rX c #B7959A",
"tX c #AC8C96",
"yX c #BBA685",
"uX c #B897A3",
"iX c #B3A9AC",
"pX c #96868D",
"aX c #CAB38B",
"sX c #F1BA83",
"dX c #C392B1",
"fX c #C9ABB7",
"gX c #D3B5BD",
"hX c #CAB0AD",
"jX c #D0CA93",
"kX c #F5C985",
"lX c #FAD482",
"zX c #FADB87",
"xX c #F0D095",
"cX c #F7EC8C",
"vX c #D0C7B5",
"bX c #FAF0B5",
"nX c #F9DCB1",
"mX c #D3BCC6",
"MX c #DDC7D1",
"NX c #E7CAD4",
"BX c #E6D7D9",
"VX c #F0D4C0",
"CX c #EFD9E2",
"ZX c #FEFEFE",
"AX c #F7F2F4",
"SX c #F0E9E8",
"DX c #F2E4CC",
"FX c None",
/* pixels */
"FXFXFXFXFXFXFXFXFXFXFXFXFXFXFXFXFXFXFXFXFXFXFXFXFXFXFXFXFXFXFXFXFXFXFXFXFXFXFXFXFXFXFXFXFXFXFXFXFXFXFXFXFXFXFXFXFXFXFXFXFXFXFXFXFXFXFXFXFXFXFXFXFXFXFX",
"FXFXFXFXFXFXFXFXFXFXFXFXFXFXFXFXFXFXFXFXFXFXFXFXFXFXFXFXFXFXFXFXFXFXFXFXFXFXFXFXFXFXFXFXFXFXFXFXFXFXFXFXFXFXFXFXFXFXFXFXFXFXFXFXFXFXFXFXFXFXFXFXFXFXFX",
"FXFXFXFXFXFXFXFXFXFXFXFXFXFXFXFXFXFXFXFXFXFXFXFXFXFXFXFXFXFXFXFXFXFXFXFXFXFXFXFXFXFXFXFXFXFXFXFXFXFXFXFXFXFXFXFXFXFXFXFXFXFXFXFXFXFXFXFXFXFXFXFXFXFXFX",
"FXFXFXFXFXFXFXFXFXFXFXFXFXFXFXFXFXFXFXFXFXFXFXFXFXFXFXFXFXFXFXFXFXFXFXFXFXFXFXFXFXFXFXFXFXFXFXFXFXFXFXFXFXFXFXFXFXFXFXFXFXFXFXFXFXFXFXFXFXFXFXFXFXFXFX",
"FXFXFXFXFXFXFXFXFXFXFXFXFXFXFXFXFXFXFXFXFXFXFXFXFXFXFXFXFXFXFXFXFXFXFXFXFXFXFXFXFXFXFXFXFXFXFXFXFXFXFXFXFXFXFXFXFXFXFXFXFXFXFXFXFXFXFXFXFXFXFXFXFXFXFX",
"FXFXFXFXFXFXFXFXFXFXFXFXFXFXFXFXFXFXFXFXFXFXFXFXFXFXFXFXFXFXFXFXFXFXFXFXFXFXFXFXFXFXFXFXFXFXFXFXFXFXFXFXFXFXFXFXFXFXFXFXFXFXFXFXFXFXFXFXFXFXFXFXFXFXFX",
"FXFXFXFXFXFXFXFXFXFXFXFXFXFXFXFXFXFXFXFXFXFXFXFXFXFXFXFXFXFXFXFXFXFXFXFXFXFXFXFXFXFXFXFXFXFXFXFXFXFXFXFXFXFXFXFXFXFXFXFXFXFXFXFXFXFXFXFXFXFXFXFXFXFXFX",
"FXFXFXFXFXFXFXFXFXFXFXFXFXFXFXFXFXFXFXFXFXFXFXFXFXFXFXFXFXFXFXFXFXFXFXFXFXFXFXFXFXFXFXFXFXFXFXFXFXFXFXFXFXFXFXFXFXFXFXFXFXFXFXFXFXFXFXFXFXFXFXFXFXFXFX",
"FXFXFXFXFXFXFXFXFXFXFXFXFXFXFXFXFXFXFXFXFXFXFXFXFXFXFXFXFXFXFXFXFXFXFXFXFXFXFXFXFXFXFXFXFXFXFXFXFXFXFXFXFXFXFXFXFXFXFXFXFXFXFXFXFXFXFXFXFXFXFXFXFXFXFX",
"FXFXFXFXFXFXFXFXFXFXFXFXFXFXFXFXFXFXFXFXFXFXFXFXFXFXFXFXFXFXFXFXFXFXFXFXFXFXFXFXFXFXFXFXFXFXFXFXFXFXFXFXFXFXFXFXFXFXFXFXFXFXFXFXFXFXFXFXFXFXFXFXFXFXFX",
"FXFXFXFXFXFXFXFXFXFXFXFXFXFXFXFXFXFXFXFXFXFXFXFXFXFXFXFXFXFXFXFXFXFXFXFXFXFXFXFXFXFXFXFXFXFXFXFXFXFXFXFXFXFXFXFXFXFXFXFXFXFXFXFXFXFXFXFXFXFXFXFXFXFXFX",
"FXFXFXFXFXFXFXFXFXFXFXFXFXFXFXFXFXFXFXFXFXFXFXFXFXFXFXFXFXFXFXFXFXFXFXFXg FXFXFXO FXFXFXFXFXFXFXFXFXFXFXFXFXFXFXFXFXFXFXFXFXFXFXFXFXFXFXFXFXFXFXFXFXFX",
"FXFXFXFXFXFXFXFXFXFXFXFXFXFXFXFXFXFXFXFXFXFXFXFXFXFXFXFXFXFXFXFXFXFXz f FX> ; FXO FXFXFXFXFXFXFXFXFXFXFXFXFXFXFXFXFXFXFXFXFXFXFXFXFXFXFXFXFXFXFXFXFXFX",
"FXFXFXFXFXFXFXFXFXFXFXFXFXFXFXFXFXFXFXFXFXFXFXFXFXFXFXFXFXFXFXFXd n c g > > ; ; O FXFXFXFXFXFXFXFXFXFXFXFXFXFXFXFXFXFXFXFXFXFXFXFXFXFXFXFXFXFXFXFXFXFX",
"FXFXFXFXFXFXFXFXFXFXFXFXFXFXFXFXFXFXFXFXFXFXFXFXFXFXFXFXFXFXFXFX, g d > > , * O O O FXFXFXFXFXFXFXFXFXFXFXFXFXFXFXFXFXFXFXFXFXFXFXFXFXFXFXFXFXFXFXFXFX",
"FXFXFXFXFXFXFXFXFXFXFXFXFXFXFXFXFXFXFXFXFXFXFXFXFXFXFXFXFXFXFXFX> > , = O O O O O O FXFXFXFXFXFXFXFXFXFXFXFXFXFXFXFXFXFXFXFXFXFXFXFXFXFXFXFXFXFXFXFXFX",
"FXFXFXFXFXFXFXFXFXFXFXFXFXFXFXFXFXFXFXFXFXFXFXFXFXFXFXFXFXFXFX> > ; * O O +     X O O FXFXFXFXFXFXFXFXFXFXFXFXFXFXFXFXFXFXFXFXFXFXFXFXFXFXFXFXFXFXFXFX",
"FXFXFXFXFXFXFXFXFXFXFXFXFXFXFXFXFXFXFXFXFXFXFXFXFXFXFXFXm K.z > = * + # + +     X O O FXFXFXFXFXFXFXFXFXFXFXFXFXFXFXFXFXFXFXFXFXFXFXFXFXFXFXFXFXFXFXFX",
"FXFXFXFXFXFXFXFXFXFXFXFXFXFXFXFXFXFXFXFXFXFXFXFXFXFXFXjX2XV.l = O + t o # +     X X O FXFXFXFXFXFXFXFXFXFXFXFXFXFXFXFXFXFXFXFXFXFXFXFXFXFXFXFXFXFXFXFX",
"FXFXFXFXFXFXFXFXFXFXFXFXFXFXFXFXFXFXFXFXFXFXFXFXFXFXjXXXP. .- O + X &X> n.+ w t t O ; FXFXFXFXFXFXFXFXFXFXFXFXFXFXFXFXFXFXFXFXFXFXFXFXFXFXFXFXFXFXFXFX",
"FXFXFXFXFXFXFXFXFXFXFXFXFXFXFXFXFXFXFXFXFXFXFXFXFXc.8X9XG.6.y + # r bXc 7Xd -.| r ; d > FXFXFXFXFXFXFXFXFXFXFXFXFXFXFXFXFXFXFXFXFXFXFXFXFXFXFXFXFXFXFX",
"FXFXFXFXFXFXFXFXFXFXFXFXFXFXFXFXFXFXFXFXFXFXFXFXFX3X3XK.A.P s O = x &Xj.lX&X1.y.1.r g xXFXFXFXFXFXFXFXFXFXFXFXFXFXFXFXFXFXFXFXFXFXFXFXFXFXFXFXFXFXFXFX",
"FXFXFXFXFXFXFXFXFXFXFXFXFXFXFXFXFXFXFXFXFXFXFXFXk.T.L.G.K s r =.d l.mXE.).1.v.iX@X7 I |.MXFXFXFXFXFXFXFXFXFXFXFXFXFXFXFXFXFXFXFXFXFXFXFXFXFXFXFXFXFXFX",
"FXFXFXFXFXFXFXFXFXFXFXFXFXFXFXFXFXFXFXFXFXFXFXFXG.V.A.} s & (.q.*.k.AXCX;._.hXBXn.a L #X1XkXm FXFXFXFXFXFXFXFXFXFXFXFXFXFXFXFXFXFXFXFXFXFXFXFXFXFXFXFX",
"FXFXFXFXFXFXFXFXFXFXFXFXFXFXFXFXFXFXFXFXFXFXFXFX&.%.$. .- k.4.R b.j {.,X)._.7Xk.| } H M.#X;X5XkXM FXFXFXFXFXFXFXFXFXFXFXFXFXFXFXFXFXFXFXFXFXFXFXFXFXFX",
"FXFXFXFXFXFXFXFXFXFXFXFXFXFXFXFXFXFXFXFXFXFXFXFXA.$.} e - 3.5.7.x =.j.x.!.tXiX=.7.Z. .I 9.].&X;X6XzX^.FXFXFXFXFXFXFXFXFXFXFXFXFXFXFXFXFXFXFXFXFXFXFXFX",
"FXFXFXFXFXFXFXFXFXFXFXFXFXFXFXFXFXFXFXFXFXFXFXFX} }  .w W.J.8.F.7.6.a d k =.c q.S.D.@.& I 9.0.].*X;X5XzX3XFXFXFXFXFXFXFXFXFXFXFXFXFXFXFXFXFXFXFXFXFXFX",
"FXFXFXFXFXFXFXFXFXFXFXFXFXFXFXFXFXFXFXFXFXFXFXFX&.$. .w $X0.w.7.H.I.Y.d.k.g j.;.U.U.l FXFXFXFXFX;.9.b.{.lXjXFXFXFXFXFXFXFXFXFXFXFXFXFXFXFXFXFXFXFXFXFX",
"FXFXFXFXFXFXFXFXFXFXFXFXFXFXFXFXFXFXFXFXFXFXFXFX6.#.w w ).nXm.:.6.Y.&.T.m.y.b.H.W.A.FXFXFXFXFXFXFXFXFX).:X6XFXFXFXFXFXFXFXFXFXFXFXFXFXFXFXFXFXFXFXFXFX",
"FXFXFXFXFXFXFXFXFXFXFXFXFXFXFXFXFXFXFXFXFXFXFXFX$.y e - @X4X.Xp.:.U.Y.Y.C.u.<.9XG.@.FXFXFXFXFXFXFXFXFX>.*X,X%XFXFXFXFXFXFXFXFXFXFXFXFXFXFXFXFXFXFXFXFX",
"FXFXFXFXFXFXFXFXFXFXFXFXFXFXFXFXFXFXFXFXFXFXFXFXFX} e s VX&X|.d.q.6.A.%.8Xz Q.9XV.FXFXFXFXFXFXFXFXFXFXFX{.;XzXFXFXFXFXFXFXFXFXFXFXFXFXFXFXFXFXFXFXFXFX",
"FXFXFXFXFXFXFXFXFXFXFXFXFXFXFXFXFXFXFXFXFXFXFXFXFXFX} K &Xk.|.M.q.H #.G.8XcX8X9XY.FXFXFXFXFXFXFXFXFXFXFX=.*X5Xz FXFXFXFXFXFXFXFXFXFXFXFXFXFXFXFXFXFXFX",
"FXFXFXFXFXFXFXFXFXFXFXFXFXFXFXFXFXFXFXFXFXFXFXFXFXFXFXFXDXb.+X'.0.i L } 2XQ.XXL.FXFXFXFXFXFXFXFXFXFXFXFXFX{.;X7XFXFXFXFXFXFXFXFXFXFXFXFXFXFXFXFXFXFXFX",
"FXFXFXFXFXFXFXFXFXFXFXFXFXFXFXFXFXFXFXFXFXFXFXFXFXFXFXFXtX].=X{.t.u H $.C.| X.4.FXFXFXFXFXFXFXFXFXFXFXFXFXh |.,XFXFXFXFXFXFXFXFXFXFXFXFXFXFXFXFXFXFXFX",
"FXFXFXFXFXFXFXFXFXFXFXFXFXFXFXFXFXFXFXFXFXFXFXFXFXFXFXFX+.].>XoXd.H i $.R ..X.K.Q.bX8XcXFXFXFXFXFXFXFXFXFXFX'.*Xj.FXFXFXFXFXFXFXFXFXFXFXFXFXFXFXFXFXFX",
"FXFXFXFXFXFXFXFXFXFXFXFXFXFXFXFXFXFXFXFXFXFXFXFXFXFXFXL L !.>XOXm.P H i R L ..7.I.U.P.L.FXFXFXFXFXFXFXFXFXFXe .X-XFXFXFXFXFXFXFXFXFXFXFXFXFXFXFXFXFXFX",
"FXFXFXFXFXFXFXFXFXFXFXFXFXFXFXFXFXFXFXFXFXFXFXFXFXl.S.4.i vX&X-X[.O.J u i K ..} 4.D.4.S.FXFXFXFXFXFXFXFXFXFXFXr.|.FXFXFXFXFXFXFXFXFXFXFXFXFXFXFXFXFXFX",
"FXFXFXFXFXFXFXFXFXFXFXFXFXFXFXFXFXFXFXFXFXFXFXFXc J *.8.o.!.&X>X}.t.J %.I K ..6.o.X...7.l FXFXFXFXFXFXFXFXFXFXa '._.FXFXFXFXFXFXFXFXFXFXFXFXFXFXFXFXFX",
"FXFXFXFXFXFXFXFXFXFXFXFXFXFXFXFXFXFXFXFXFXFXFX0 9 8 1 } S.6.;X,X*Xd.H Q K L ..o...X.X.3.s FXFXFXFXFXFXFXFXFXFXFX9.OXFXFXFXFXFXFXFXFXFXFXFXFXFXFXFXFXFX",
"FXFXFXFXFXFXFXFXFXFXFXFXFXpXAXBXV FX7 W T D D S D 8 A 3 D.P.xX4X-XM.i C.R ..X.4.8.4.3.7.4 C U >.h FXFXFXFXFXFXFX1._.%XFXFXFXFXFXFXFXFXFXFXFXFXFXFXFXFX",
"FXFXFXFXFXFXFXFXFXFXFXN SXZXZXZX0XC ~ ~ D G ^ ~ ~ ~ D Z s 9XaX,X:X].I L R R 4.7.8.8.4.0 C A S F Y E w.h.g FXn n.{.>XzXz.FXFXFXFXFXFXFXFXFXFXFXFXFXFXFX",
"FXFXFXFXFXFXFXFXFXFXFXNX0XBXAXZXZXh.^ G G / / / / / / / 9 8XG.5X:X{.;.$ $ @ x 8XU.F.9 C A F Y G G ^ E 9 8 aX@X{._.>.v.eXMXFXFXFXFXFXFXFXFXFXFXFXFXFXFX",
"FXFXFXFXFXFXFXFXFXFXFXx.,X].rXZXAXgXE ^ / ] ] ] [ ] ] _ H ,.Z.%X;X{.u.% $ % % - bX< C A S D T ( ) ( E 0 E.1X{.&Xg.wXn N fXFXFXFXFXFXFXFXFXFXFXFXFXFXFX",
"FXFXFXFXFXFXFXFXFXFXeXnX-X` ` rXAXCXv.Z Y ( ] ] [ [ [ [ S 5 8.t -X*Xu.5 1 1 % < r 1 C S D T ( T ' ' _ { l.{.0.y.*.w.*XxXz.FXFXFXFXFXFXFXFXFXFXFXFXFXFX",
"FXFXFXFXFXFXFXFXFXFXc.lX).a.` U CXNXc.^ ] ] ] ] ] _ _ ( Y 8 4 5 {.-Xr.3 % < 3 0 C A A Y Y T ( ) _ _ { { uXI O.W Q :._.kXx.FXFXFXFXFXFXFXFXFXFXFXFXFXFX",
"FXFXFXFXFXFXFXFXFXFXB zX{.|.W W fXmXuXS ^ Y Y F S Z 0 0 8 3 3 3 >.kXb.W < % 1 3 4 0 A Z A T T ( ' _ { h.fXrXg.i W i.;.5XaXFXFXFXFXFXFXFXFXFXFXFXFXFXFX",
"FXFXFXFXFXFXFXFXFXFXvXlX<X X:.0 0XgXqXA ^ ^ F 0 9 4 4 9 1 @   FXg xX*X:.o . @ < 1 < 1 3 8 C 3 3 0 T ) p mXmXuXP I i.*X4XkXFXFXFXFXFXFXFXFXFXFXFXFXFXFX",
"FXFXFXFXFXFXFXFXFXFXcXlX;X}.:.f c.hXtX8 9 3 3 1 5 % FXFXFXFXFXFXFXlX=XM.e FXFXFXFXo @ % < < < < < 3 4 8 mXNXtX4 I i.*X,XzXFXFXFXFXFXFXFXFXFXFXFXFXFXFX",
"FXFXFXFXFXFXFXFXFXFXzXlX;X].I f z.mXtXr 3 8 1 FXFXFXFXFXFXFXFXFXFX,X;X}.:.FXFXFXFXFXFXFXFX@ $ $ % < 1 4 fXCXuXf p b.|.,XlXFXFXFXFXFXFXFXFXFXFXFXFXFXFX",
"FXFXFXFXFXFXFXFXFXFXzX6X=X'.h f qXtXwX6 FXFXFXFXFXFXFXFXFXFXFXFXFX>X:X|.q.FXFXFXFXFXFXFXFXFXFXFXFX7 < $ qXCXMXf f 0.].;X5XyXFXFXFXFXFXFXFXFXFXFXFXFXFX",
"FXFXFXFXFXFXFXFXFXn zX5XoXd.N wXdXdXqXFXFXFXFXFXFXFXFXFXFXFXFXFXFX&X<X|.d.FXFXFXFXFXFXFXFXFXFXFXFXFXFXFXg MXtXb f 9.m.*X5XcXFXFXFXFXFXFXFXFXFXFXFXFXFX",
"FXFXFXFXFXFXFXFXFXaX6X4X}.9.FXFXV FXFXFXFXFXFXFXFXFXFXFXFXFXFXFXFX,.4XoXs.FXFXFXFXFXFXFXFXFXFXFXFXFXFXFXFXwXwXqXeX! d.*X<XzXFXFXFXFXFXFXFXFXFXFXFXFXFX",
"FXFXFXFXFXFXFXFXFXzX6X*XN.FXFXFXFXFXFXFXFXFXFXFXFXFXFXFXFXFXFXFXFXFX4X=X'.FXFXFXFXFXFXFXFXFXFXFXFXFXFXFXFXFXFXwXFXFXr.{.,XlXFXFXFXFXFXFXFXFXFXFXFXFXFX",
"FXFXFXFXFXFXFXFXFX6X4X Xq.FXFXFXFXFXFXFXFXFXFXFXFXFXFXFXFXFXFXFXFXFX5X-X[.FXFXFXFXFXFXFXFXFXFXFXFXFXFXFXFXFXFXFXFXFXt J.=X6XaXFXFXFXFXFXFXFXFXFXFXFXFX",
"FXFXFXFXFXFXFXFXFX6X=XJ.e FXFXFXFXFXFXFXFXFXFXFXFXFXFXFXFXFXFXFXFXFXE.>X.XFXFXFXFXFXFXFXFXFXFXFXFXFXFXFXFXFXFXFXFXFXFXq..X<XcXFXFXFXFXFXFXFXFXFXFXFXFX",
"FXFXFXFXFXFXFXFXm 5X Xp.FXFXFXFXFXFXFXFXFXFXFXFXFXFXFXFXFXFXFXFXFXFXFX5X|.a FXFXFXFXFXFXFXFXFXFXFXFXFXFXFXFXFXFXFXFXFX5 s.=XlXFXFXFXFXFXFXFXFXFXFXFXFX",
"FXFXFXFXFXFXFXFXaX>X[.L FXFXFXFXFXFXFXFXFXFXFXFXFXFXFXFXFXFXFXFXFXFXFX4XOX>.FXFXFXFXFXFXFXFXFXFXFXFXFXFXFXFXFXFXFXFXFXFX9.}.<XFXFXFXFXFXFXFXFXFXFXFXFX",
"FXFXFXFXFXFXFXFX4XOXf.FXFXFXFXFXFXFXFXFXFXFXFXFXFXFXFXFXFXFXFXFXFXFXFX_.*Xa.FXFXFXFXFXFXFXFXFXFXFXFXFXFXFXFXFXFXFXFXFXFX5 J.-X^.FXFXFXFXFXFXFXFXFXFXFX",
"FXFXFXFXFXFXFXFX<X}.t.FXFXFXFXFXFXFXFXFXFXFXFXFXFXFXFXFXFXFXFXFXFXFXFX*.*Xd.FXFXFXFXFXFXFXFXFXFXFXFXFXFXFXFXFXFXFXFXFXFXFXq. XkXFXFXFXFXFXFXFXFXFXFXFX",
"FXFXFXFXFXFXFXFX>X[.} FXFXFXFXFXFXFXFXFXFXFXFXFXFXFXFXFXFXFXFXFXFXFXFXFX*Xs.FXFXFXFXFXFXFXFXFXFXFXFXFXFXFXFXFXFXFXFXFXFXFX4 [.>XFXFXFXFXFXFXFXFXFXFXFX",
"FXFXFXFXFXFXFXFXOX[.< FXFXFXFXFXFXFXFXFXFXFXFXFXFXFXFXFXFXFXFXFXFXFXFXFX Xf.e FXFXFXFXFXFXFXFXFXFXFXFXFXFXFXFXFXFXFXFXFXFXFXd.oXyXFXFXFXFXFXFXFXFXFXFX",
"FXFXFXFXFXFXFX~.|.J.FXFXFXFXFXFXFXFXFXFXFXFXFXFXFXFXFXFXFXFXFXFXFXFXFXFX].N.;.FXFXFXFXFXFXFXFXFXFXFXFXFXFXFXFXFXFXFXFXFXFXFX0. XkXFXFXFXFXFXFXFXFXFXFX",
"FXFXFXFXFXFXFX5X Xf.FXFXFXFXFXFXFXFXFXFXFXFXFXFXFXFXFXFXFXFXFXFXFXFXFXFXq.[.O.FXFXFXFXFXFXFXFXFXFXFXFXFXFXFXFXFXFXFXFXFXFXFX*.[.7XM FXFXFXFXFXFXFXFXFX",
"FXFXFXFXFXFXn >X[.a.FXFXFXFXFXFXFXFXFXFXFXFXFXFXFXFXFXFXFXFXFXFXFXFXFXFXM.}.a.FXFXFXFXFXFXFXFXFXFXFXFXFXFXFXFXFXFXFXFXFXFXFX9.[.>XzXFXFXFXFXFXFXFXFXFX",
"FXFXFXFXFXFX=X XN.Q FXFXFXFXFXFXFXFXFXFXFXFXFXFXFXFXFXFXFXFXFXFXFXFXFXFX*X Xf.| FXFXFXFXFXFXFXFXFXFXFXFXFXFXFXFXFXFXFXFXFXFXW s.=X6XcXFXFXFXFXFXFXFXFX",
"FXFXFXFXFXk.k.l.s.Q FXFXFXFXFXFXFXFXFXFXFXFXFXFXFXFXFXFXFXFXFXFXFXFXFXW &XoXN.f.FXFXFXFXFXFXFXFXFXFXFXFXFXFXFXFXFXFXFXFXFXFXi f.OX4X6XxXFXFXFXFXFXFXFX",
"FXFXFXFXn `.b.M.-.e.FXFXFXFXFXFXFXFXFXFXFXFXFXFXFXFXFXFXFXFXFXFXFXFXFX$X4X*XM.N.a.FXFXFXFXFXFXFXFXFXFXFXFXFXFXFXFXFXFXFXFXFX5.f.}._.R.`.@XFXFXFXFXFXFX",
"FXFXFX%X$X7 M.y.h p.J FXFXFXFXFXFXFXFXFXFXFXFXFXFXFXFXFXFXFXFXFXFXFXsXaX;XI FXy.f.FXFXFXFXFXFXFXFXFXFXFXFXFXFXFXFXFXFXFXFXFXe.a.J.>.k.v r <.= FXFXFXFX",
"k.E.l.~.~.n.M.p.;.;.5.FXFXFXFXFXFXFXFXFXFXFXFXFXFXFXFXFXFXFXFXFXg @XsX9.FXFXFXFX[.FXFXFXFXFXFXFXFXFXFXFXFXFXFXFXFXFXFXFXFXFXq.p.y r  XoX1Xl.aXyXvXFXFX",
"!.=.*.=.a | s p k k j.y FXFXFXFXFXFXFXFXFXFXFXFXFXFXFXFXFXFXFXd #X!.;.FXFXFXFXFX@X<.FXFXFXFXFXFXFXFXFXFXFXFXFXFXFXFXFXFXFXR.x k - x | :.;.).y.i.(.c FX",
"FXFXFXFXFXFXFXFXFXFXFXFXFXFXFXFXFXFXFXFXFXFXFXFXFXFXFXFXFXFXFXP P I FXFXFXFXFXFXFXx FXFXFXFXFXFXFXFXFXFXFXFXFXFXFXFXFXFXFXFXr <.<.R.W.W.R.~.R.W.Q.k.FX",
"FXFXFXFXFXFXFXFXFXFXFXFXFXFXFXFXFXFXFXFXFXFXFXFXFXFXFXFXFXFXFXFXFXFXFXFXFXFXFXFXFXFXFXFXFXFXFXFXFXFXFXFXFXFXFXFXFXFXFXFXFXFXFXFXFXFXFXFXFXFXFXFXFXFXFX",
"FXFXFXFXFXFXFXFXFXFXFXFXFXFXFXFXFXFXFXFXFXFXFXFXFXFXFXFXFXFXFXFXFXFXFXFXFXFXFXFXFXFXFXFXFXFXFXFXFXFXFXFXFXFXFXFXFXFXFXFXFXFXFXFXFXFXFXFXFXFXFXFXFXFXFX",
"FXFXFXFXFXFXFXFXFXFXFXFXFXFXFXFXFXFXFXFXFXFXFXFXFXFXFXFXFXFXFXFXFXFXFXFXFXFXFXFXFXFXFXFXFXFXFXFXFXFXFXFXFXFXFXFXFXFXFXFXFXFXFXFXFXFXFXFXFXFXFXFXFXFXFX",
"FXFXFXFXFXFXFXFXFXFXFXFXFXFXFXFXFXFXFXFXFXFXFXFXFXFXFXFXFXFXFXFXFXFXFXFXFXFXFXFXFXFXFXFXFXFXFXFXFXFXFXFXFXFXFXFXFXFXFXFXFXFXFXFXFXFXFXFXFXFXFXFXFXFXFX"
};
