/* XPM */
static char *result[] = {
/* columns rows colors chars-per-pixel */
"75 75 204 2 ",
"   c black",
".  c #181818",
"X  c #2A1606",
"o  c #2C1807",
"O  c #2E1A09",
"+  c #2A1708",
"@  c #361B05",
"#  c #381C06",
"$  c #311D0B",
"%  c #35220D",
"&  c #39250F",
"*  c #3A2610",
"=  c #3E2913",
"-  c gray14",
";  c #323232",
":  c #4D2504",
">  c #422E15",
",  c #463116",
"<  c #493417",
"1  c #4E391B",
"2  c #4C3719",
"3  c #523D1D",
"4  c #573C11",
"5  c #7D3F0E",
"6  c #57401B",
"7  c #7F410F",
"8  c #5A4522",
"9  c #5E4925",
"0  c #574220",
"q  c #5C4C3E",
"w  c #604A26",
"e  c #634E28",
"r  c #6A542C",
"t  c #6A5329",
"y  c #745B2B",
"u  c #725C30",
"i  c #7D5638",
"p  c #6E4F36",
"a  c #7C6434",
"s  c #7B653A",
"d  c #7D652C",
"f  c #464646",
"g  c gray35",
"h  c #735B46",
"j  c #745D49",
"k  c #705742",
"l  c #615042",
"z  c #626565",
"x  c #696C6E",
"c  c #6F7273",
"v  c #717475",
"b  c #727778",
"n  c #76797A",
"m  c #7B7D7E",
"M  c #8C4B1C",
"N  c #9B4E13",
"B  c #914E1C",
"V  c #9B5014",
"C  c #95511C",
"Z  c #99531C",
"A  c #9D5B19",
"S  c #975D1D",
"D  c #8F5908",
"F  c #AC5B1F",
"G  c #B25E1F",
"H  c #926616",
"J  c #AB7309",
"K  c #BA631E",
"L  c #BE6E1F",
"P  c #B7621F",
"I  c #BB731A",
"U  c #A77119",
"Y  c #9B5C24",
"T  c #945722",
"R  c #835633",
"E  c #845B3A",
"W  c #A45722",
"Q  c #A65923",
"!  c #AC5C21",
"~  c #A95F29",
"^  c #B15E20",
"/  c #99652D",
"(  c #98792F",
")  c #86663B",
"_  c #967B39",
"`  c #896320",
"'  c #AE6125",
"]  c #AC6129",
"[  c #A5672B",
"{  c #B46222",
"}  c #B86322",
"|  c #BE6A20",
" . c #B46628",
".. c #B46C29",
"X. c #BC6C2A",
"o. c #B26B27",
"O. c #AE732F",
"+. c #A37F27",
"@. c #B77022",
"#. c #BC7222",
"$. c #B4712C",
"%. c #BA742D",
"&. c #A66C31",
"*. c #AD7432",
"=. c #A57035",
"-. c #BD7B33",
";. c #B97630",
":. c #C16E1F",
">. c #C1711F",
",. c #C37E03",
"<. c #C16D24",
"1. c #C27423",
"2. c #C3762C",
"3. c #C67B2B",
"4. c #C87D2B",
"5. c #C57827",
"6. c #986B48",
"7. c #8C715B",
"8. c #A97246",
"9. c #A9744A",
"0. c #A67B58",
"q. c #817E7B",
"w. c #BB840B",
"e. c #BD8610",
"r. c #B7882F",
"t. c #BD963A",
"y. c #B0873D",
"u. c #C1860C",
"i. c #C78A08",
"p. c #DC9C03",
"a. c #D39C14",
"s. c #DEA503",
"d. c #E7A804",
"f. c #F7BA03",
"g. c #F9BD06",
"h. c #F5BA09",
"j. c #E8AE16",
"k. c #EBB514",
"l. c #F4BF1E",
"z. c #C38D36",
"x. c #CAA23A",
"c. c #FCC20C",
"v. c #FACA39",
"b. c #978148",
"n. c #BD885E",
"m. c #B9865B",
"M. c #B59559",
"N. c #BEA54B",
"B. c #82817E",
"V. c #BC8B64",
"C. c #BB8760",
"Z. c #AA8F6C",
"A. c #BCAA6C",
"S. c #C1905D",
"D. c #D3B858",
"F. c #CAAC55",
"G. c #E5B847",
"H. c #C29360",
"J. c #D3BC63",
"K. c #C9B267",
"L. c #FCD348",
"P. c #FBD859",
"I. c #F2CB4A",
"U. c #D0C27E",
"Y. c #E7C566",
"T. c #FCDD6C",
"R. c #F9D968",
"E. c #F4D974",
"W. c #FFE271",
"Q. c #7E8182",
"!. c #828585",
"~. c #888786",
"^. c #898885",
"/. c #858788",
"(. c #86898A",
"). c #8A8C8D",
"_. c #878886",
"`. c #8B8E90",
"'. c #8D9192",
"]. c #929596",
"[. c #939798",
"{. c #96999A",
"}. c #999C9D",
"|. c #9B9FA1",
" X c #9EA2A3",
".X c #A3A4A5",
"XX c #A3A7A8",
"oX c #A5A9A9",
"OX c #ABACAC",
"+X c #AEB1B2",
"@X c #B2B4B4",
"#X c #B5B8B9",
"$X c #BABBBB",
"%X c #B7B7B8",
"&X c #B0B0AF",
"*X c #CBBB82",
"=X c #F1DA94",
"-X c #FFE886",
";X c #BABBC0",
":X c #BEC0C0",
">X c #CBCCCC",
",X c #C7C9CE",
"<X c #D0D0D0",
"1X c None",
/* pixels */
"1X1X1X1X1X1X1X1X1X1X1X1X1X1X1X1X1X1X1X1X1X1X1X1X1X1X1X1X1X1X1X1X1X1X1X1X1X1X1X1X1X1X1X1X1X1X1X1X1X1X1X1X1X1X1X1X1X1X1X1X1X1X1X1X1X1X1X1X1X1X1X1X1X1X1X",
"1X1X1X1X1X1X1X1X1X1X1X1X1X1X1X1X1X1X1X1X1X1X1X1X1X1X1X1X1X1X1X1X1X1X1X1X1X1X1X1X1X1X1X1X1X1X1X1X1X1X1X1X1X1X1X1X1X1X1X1X1X1X1X1X1X1X1X1X1X1X1X1X1X1X1X",
"1X1X1X1X1X1X1X1X1X1X1X1X1X1X1X1X1X1X1X1X1X1X1X1X1X1X1X1X1X1X1X1X1X1X1X1X1X1X1X1X1X1X1X1X1X1X1X1X1X1X1X1X1X1X1X1X1X1X1X1X1X1X1X1X1X1X1X1X1X1X1X1X1X1X1X",
"1X1X1X1X1X1X1X1X1X1X1X1X1X1X1X1X1X1X1X1X1X1X1X1X1X1X1X1X1X1X1X1X1X1X1X1X1X1X1X1X1X1X1X1X1X1X1X1X1X1X1X1X1X1X1X1X1X1X1X1X1X1X1X1X1X1X1X1X1X1X1X1X1X1X1X",
"1X1X1X1X1X1X1X1X1X1X1X1X1X1X1X1X1X1X1X1X1X1X1X1X1X1X1X1X1X1X1X1X1X1X1X1X1X1X1X1X1X1X1X1X1X1X1X1X1X1X1X1X1X1X1X1X1X1X1X1X1X1X1X1X1X1X1X1X1X1X1X1X1X1X1X",
"1X1X1X1X1X1X1X1X1X1X1X1X1X1X1X1X1X1X1X1X1X1X1X1X1X1X1X1X1X1X1X1X1X1X1X1X1X1X1X1X1X1X1X1X1X1X1X1X1X1X1X1X1X1X1X1X1X1X1X1X1X1X1X1X1X1X1X1X1X1X1X1X1X1X1X",
"1X1X1X1X1X1X1X1X1X1X1X1X1X1X1X1X1X1X1X1X1X1X1X1X1X1X1X1X1X1X1X1X1X1X1X1X1X1X1X1X1X1X1X1X1X1X1X1X1X1X1X1X1X1X1X1X1X1X1X1X1X1X1X1X1X1X1X1X1X1X1X1X1X1X1X",
"1X1X1X1X1X1X1X1X1X1X1X1X1X1X1X1X1X1X1X1X1X1X1X1X1X1X1X1X1X1X1X1X1X1X1X1X1X1X1X1X1X1X1X1X1X1X1X1X1X1X1X1X1X1X1X1X1X1X1X1X1X1X1X1X1X1X1X1X1X1X1X1X1X1X1X",
"1X1X1X1X1X1X1X1X1X1X1X1X1X1X1X1X1X1X1X1X1X1X1X1X1X1X1X1X1X1X1X1X1X1X1X1X1X1X1X1X1X1X1X1X1X1X1X1X1X1X1X1X1X1X1X1X1X1X1X1X1X1X1X1X1X1X1X1X1X1X1X1X1X1X1X",
"1X1X1X1X1X1X1X1X1X1X1X1X1X1X1X1X1X1X1X1X1X1X1X1X1X1X1X1X1X1X1X1X1X1X1X1X1X1X1X1X1X1X1X1X1X1X1X1X1X1X1X1X1X1X1X1X1X1X1X1X1X1X1X1X1X1X1X1X1X1X1X1X1X1X1X",
"1X1X1X1X1X1X1X1X1X1X1X1X1X1X1X1X1X1X1X1X1X1X1X1X1X1X1X1X1X1X1X1X1X1X1X1X1X1X1X1X1X1X1X1X1X1X1X1X1X1X1X1X1X1X1X1X1X1X1X1X1X1X1X1X1X1X1X1X1X1X1X1X1X1X1X",
"1X1X1X1X1X1X1X1X1X1X1X1X1X1X1X1X1X1X1X1X1X1X1X1X1X1X1X1X1X1X1X1X1X1X1X1X1X1X1X1X1X1X1X1X1X1X1X1X1X1X1X1X1X1X1X1X1X1X1X1X1X1X1X1X1X1X1X1X1X1X1X1X1X1X1X",
"1X1X1X1X1X1X1X1X1X1X1X1X1X1X1X1X1X1X1X1X1X1X1X1X1X1X1X1X1X1X1X1X1X1X1X1X1X1X1X1X1X1X1X1X1X1X1X1X1X1X1X1X1X1X1X1X1X1X1X1X1X1X1X1X1X1X1X1X1X1X1X1X1X1X1X",
"1X1X1X1X1X1X1X1X1X1X1X1X1X1X1X1X1X1X1X1X1X1X1X1X1X1X1X1X1X1X1X1X1X1X1X1X1X1X1X1X1X1X1X1X1X1X1X1X1X1X1X1X1X1X1X1X1X1X1X1X1X1X1X1X1X1X1X1X1X1X1X1X1X1X1X",
"1X1X1X1X1X1X1X1X1X1X1X1X1X1X1X1X1X1X1X1X1X1X1X1X1X1X1X1X1X1X1X1X1X1X1X1X1X1X1X1X1X1X1X1X1X1X1X1X1X1X1X1X1X1X1X1X1X1X1X1X1X1X1X1X1X1X1X1X1X1X1X1X1X1X1X",
"1X1X1X1X1X1X1X1X1X1X1X1X1X1X1X1X1X1X1X1X1X1X1X1X1X1X1X1X1X1X1X1X1X1X1X1X1X1X1X1X1X1X1X1X1X1X1X1X1X1X1X1X1X1X1X1X1X1X1X1X1X1X1X1X1X1X1X1X1X1X1X1X1X1X1X",
"1X1X1X1X1X1X1X1X1X1X1X1X1X1X1X1X1X1X1X1X1X1X1X1X1X1X1X1X1X1X1X1X1X1X1X1X1X1X1X1X1X1X1X1X1X1X1X1X1X1X1X1X1X1X1X1X1X1X1X1X1X1X1X1X1X1X1X1X1X1X1X1X1X1X1X",
"1X1X1X1X1X1X1X1X1X1X1X1X1X1X1X1X<X:X#X#X1X1X1X1X1X1X1X1X1X1X1X1X1X1X1X1X1X1X1X1X1X1X1X1X1X1X1X1X1X1X1X1X1X1X1X1X>X:X#X X1X1X1X1X1X1X1X1X1X1X1X1X1X1X1X",
"1X1X1X1X1X1X1X1X1X1X1X1X1X1X1X1X#XOX(.'.) S [ I | #.#.@.#.1.#.@.1.#.#.#.5.I @.#.#.@.#.1.#.#.#.#.#.#.#.@.#.#.#.H. XXXQ.!.1X1X1X1X1X1X1X1X1X1X1X1X1X1X1X",
"1X1X1X1X1X1X1X1X1X1X1X1X1X1X1X1X@X}.}.'.i M M ! ! ! ! ! ! Q F ! F ' F ^ { { G { P ' F ^ ! ! G ' F ^ ^ { { { { V. X X}.Q.1X1X1X1X1X1X1X1X1X1X1X1X1X1X1X",
"1X1X1X1X1X1X1X1X1X1X1X1X1X1X1X1X+X|. X'.E T B  . .{ '  . .^ ~ [ Q Q ] Q Q ] ] F Q ' ~ ! [ ' P  . .{ {  . .}  .V. X X XQ.1X1X1X1X1X1X1X1X1X1X1X1X1X1X1X",
"1X1X1X1X1X1X1X1X1X1X1X1X1X1X1X1X+X$X'.).|.|..X@X'.|. X X|.OX). X X X%X'.[. X X.X#X(. X X X#X].|. X XXXOX`.}.[.]. X#X!.Q.1X1X1X1X1X1X1X1X1X1X1X1X1X1X1X",
"1X1X1X1X1X1X1X1X1X1X1X1X1X1X1X1X@X X!.).}.}.|.|.). X X X|.].Q. X X X X_.}. X X X X(. X X X X(. X.X X X}.'. X}.]. X|.!.Q.1X1X1X1X1X1X1X1X1X1X1X1X1X1X1X",
"1X1X1X1X1X1X1X1X1X1X1X1X1X1X1X1XOX'.}.].}.`.].[.'.].}.].].].[.[.[.].].].[.[.[.[.'.].].[.].].].[.].[.[.'.].}.[.'. X'.}.(.1X1X1X1X1X1X1X1X1X1X1X1X1X1X1X",
"1X1X1X1X1X1X1X1X1X1X1X1X1X1X1X1Xv b v b b b b b b c b b b v b b b b n b b n b b b b b b b b b b b b b b b b b c b b b c 1X1X1X1X1X1X1X1X1X1X1X1X1X1X1X",
"1X1X1X1X1X1X1X1X1X1X1X1X1X1X1X1Xz z z z z z z z z z z z z z z z z z z z z z z z z x z z z z z z z z z z z z z z z z z z 1X1X1X1X1X1X1X1X1X1X1X1X1X1X1X",
"1X1X1X1X1X1X1X1X1X1X1X1X1X1X1X1X: : : : @ X X + + O O O $ % & * = = = = = = = , = = = = * * % $ $ O o o + + X # : : : : 1X1X1X1X1X1X1X1X1X1X1X1X1X1X1X",
"1X1X1X1X1X1X1X1X1X1X1X1X1X1X1X1X: : : : @ X X X + O O % % & = , , < 1 1 0 2 0 1 2 2 2 = = = * % % O o + X X X @ : : : : 1X1X1X1X1X1X1X1X1X1X1X1X1X1X1X",
"1X1X1X1X1X1X1X1X1X1X1X1X1X1X1X1X: : : : $ X X X O $ & & = > < 1 0 0 8 8 9 e e 9 9 8 0 6 1 < , = & % O O X X X # : : : : 1X1X1X1X1X1X1X1X1X1X1X1X1X1X1X",
"1X1X1X1X1X1X1X1X1X1X1X1X1X1X1X1X: : : : @ X O O O % & = < 1 0 9 e r w.w.w.` d u u u r e 9 0 1 < = * % $ O X X # : : : : 1X1X1X1X1X1X1X1X1X1X1X1X1X1X1X",
"1X1X1X1X1X1X1X1X1X1X1X1X1X1X1X1X: : : : @ X + O % & = < 1 0 9 r u ` c.f.f.c.j.b.) d a r r w 0 1 < = * % + X X # : : : : 1X1X1X1X1X1X1X1X1X1X1X1X1X1X1X",
"1X1X1X1X1X1X1X1X1X1X1X1X1X1X1X1X: : : : @ + O $ & = < 3 9 t u u.u.J D E.-XW.P.P.Y.i.w.r.s u t 9 1 < = % % O + # : : : : 1X1X1X1X1X1X1X1X1X1X1X1X1X1X1X",
"1X1X1X1X1X1X1X1X1X1X1X1X1X1X1X1X: : : : % o O % & , 2 8 e a R g.c.f.d.a.j.v.G.z.h.g.g.c.k._ a e 8 2 = * % O o % : : : : 1X1X1X1X1X1X1X1X1X1X1X1X1X1X1X",
"1X1X1X1X1X1X1X1X1X1X1X1X1X1X1X1X: : : : # o O % & 2 6 t y d ( r.L.P.R./ G.I.I.r.m.R.E.T.P.T.6.u w 0 < = % O o % : : : : 1X1X1X1X1X1X1X1X1X1X1X1X1X1X1X",
"1X1X1X1X1X1X1X1X1X1X1X1X1X1X1X1X: : : : # o O % 4 i.p.d.d.u.d.f.J >X<X>X>X>X>X>X>X,X}.Y.=Xt.d.( ` J H 6 % O o # : : : : 1X1X1X1X1X1X1X1X1X1X1X1X1X1X1X",
"1X1X1X1X1X1X1X1X1X1X1X1X1X1X1X1X: : : : % D J e.k.v.v.d.p.w.H P.P.:XOX&XOX).].OX&XoX`.p.h.R.T.L.R.c.c.c.c.a.& % : : : : 1X1X1X1X1X1X1X1X1X1X1X1X1X1X1X",
"1X1X1X1X1X1X1X1X1X1X1X1X1X1X1X1Xj j h p q x.x.x.t.F.U.t.z.t.y.M.K.%X.X.Xq.- - ].oX.X~.F.D.K.K.K.Z.D.J.Y.D.D.A.q j j j p 1X1X1X1X1X1X1X1X1X1X1X1X1X1X1X",
"1X1X1X1X1X1X1X1X1X1X1X1X1X1X1X1X@XOXXX]..XXXOXXXoXoXoXoXoXXXXXXXoX&X.X.Xf     z .X.X~.]..XXXXXXXXX XXXXX X X X].oXoX XQ.1X1X1X1X1X1X1X1X1X1X1X1X1X1X1X",
"1X1X1X1X1X1X1X1X1X1X1X1X1X1X1X1X+X$X{.'.{._.'.@X].(.'.'.).OXm ].`.%X.X.Xg     c OX.X~.!.`.%X].).'.'.].OXQ.`.Q.(.XX:X).!.1X1X1X1X1X1X1X1X1X1X1X1X1X1X1X",
"1X1X1X1X1X1X1X1X1X1X1X1X1X1X1X1X@XoX).'.{.!.(.].!.).'.'.~.].m `.~.%X.XoXXX. ; @XXX|.~.m `.}.!.~.'.`.'.'.m '.).(.XXXX(.Q.1X1X1X1X1X1X1X1X1X1X1X1X1X1X1X",
"1X1X1X1X1X1X1X1X1X1X1X1X1X1X1X1X@X.X X[.].q.!.!.B._.(.^.^.!.!.~.!.%X|.OX.Xf c OX.X.X^.q.~.!.!.!.~./._.B.!._.^.).XXXX X!.1X1X1X1X1X1X1X1X1X1X1X1X1X1X1X",
"1X1X1X1X1X1X1X1X1X1X1X1X1X1X1X1X+XXXoX{.E C Z Z S Q Y [ [ [ *.*.*.%X|..XXXoX.XoX.X.X^.Y =.&./ [ Y Y T C C B C 0.oXXXXX/.1X1X1X1X1X1X1X1X1X1X1X1X1X1X1X",
"1X1X1X1X1X1X1X1X1X1X1X1X1X1X1X1X+XXXOX{.R B V K K K } <.<.2.2.2.%.|.~.~.(././.(./.).`. .2.2.2.<.| | K K K K K m.oXoXoXQ.1X1X1X1X1X1X1X1X1X1X1X1X1X1X1X",
"1X1X1X1X1X1X1X1X1X1X1X1X1X1X1X1X@XOX].].i S S o...%...%.%.%.-.-.-.O.*...*.*.*.*.*.*.O.-.-.-.%.;.;...$.@.o.o.o.V. X+X].Q.1X1X1X1X1X1X1X1X1X1X1X1X1X1X1X",
"1X1X1X1X1X1X1X1X1X1X1X1X1X1X1X1X+X$X`.`.E A A :.I <.1.1.1.5.5.5.5.3.3.3.4.4.4.4.3.3.2.2.5.5.#.#.| | #.L | | L n.XX@XQ.Q.1X1X1X1X1X1X1X1X1X1X1X1X1X1X1X",
"1X1X1X1X1X1X1X1X1X1X1X1X1X1X1X1X+X X X[.E M B F ' { ^ ^ { ] '  . .X.X.X.X.X.X.X.X..... . .{  .{  .{ { { { { { C.oX X XQ.1X1X1X1X1X1X1X1X1X1X1X1X1X1X1X",
"1X1X1X1X1X1X1X1X1X1X1X1X1X1X1X1X@XXXoX}.i M M Q Q Q Q Q Q W W Q Q ~ '  . . . . . . . .{  . .} } } {  .} } }  .V.oXoXXXQ.1X1X1X1X1X1X1X1X1X1X1X1X1X1X1X",
"1X1X1X1X1X1X1X1X1X1X1X1X1X1X1X1X+XXXoX].R C V K P K K P } } P P ^ ^ ^ { { ^ { ^ ^ ^ ^ P ^ P P P } } K K K K K V.oXoXXX/.1X1X1X1X1X1X1X1X1X1X1X1X1X1X1X",
"1X1X1X1X1X1X1X1X1X1X1X1X1X1X1X1X+XoX}.[.p 7 M N N N N N N N N N V N V V V V V N V V V V N V N V N N N N N N N 0.OXOX}.!.1X1X1X1X1X1X1X1X1X1X1X1X1X1X1X",
"1X1X1X1X1X1X1X1X1X1X1X1X1X1X1X1X+X$X).`.) A A <.L I L L :.:.<.>.1.I >.<.1.>.1.>.1.>.>.>.>.>.>.>.>.>.>.>.1.<.:.S..X@XQ.Q.1X1X1X1X1X1X1X1X1X1X1X1X1X1X1X",
"1X1X1X1X1X1X1X1X1X1X1X1X1X1X1X1X+X}.'.[.R B B ^ ^ ^ F G ^ ^ ! ^ ! ! ! { { P P } K } { { } K  .^ } { } K ^ } ^ S..X}.].Q.1X1X1X1X1X1X1X1X1X1X1X1X1X1X1X",
"1X1X1X1X1X1X1X1X1X1X1X1X1X1X1X1X+XXXXX[.R Z Z } } } } ^ ^  .}  .} { { { { {  .' ! ! ! ! Q W W W W W Q W W Q ! 0.oXoX.X!.1X1X1X1X1X1X1X1X1X1X1X1X1X1X1X",
"1X1X1X1X1X1X1X1X1X1X1X1X1X1X1X1X+XoXoX}.R C C } } } } } } G ^ ^ ^ ! ! F ! ! ! ! ! ! ! Q ! ! ! ^ P { } ^ { K  .n.XXoXoXQ.1X1X1X1X1X1X1X1X1X1X1X1X1X1X1X",
"1X1X1X1X1X1X1X1X1X1X1X1X1X1X1X1X@XoX.X[.7.6.6.9.8.8.8.9.8.8.8.9.8.8.9.8.8.8.8.8.9.9.8.8.9.8.8.8.9.8.9.9.8.8.9.Z.XXOX XQ.1X1X1X1X1X1X1X1X1X1X1X1X1X1X1X",
"1X1X1X1X1X1X1X1X1X1X1X1X1X1X1X1X+X:X'.).}.{.}.[.[.{.}.[.}.{.{.{.{.{.{.{.}.[.[.}.}.[.[.[.[.}.}.[.[.[.}.[.[.[.`.).XX#X!.!.1X1X1X1X1X1X1X1X1X1X1X1X1X1X1X",
"1X1X1X1X1X1X1X1X1X1X1X1X1X1X1X1X@X}.^.].].m ~.@X{.Q./.~.@X[.v ~./.).%Xb !././..X.Xb ~.(.~.oX!.~./.~.[.}.Q.!.m !.oX[.`.!.1X1X1X1X1X1X1X1X1X1X1X1X1X1X1X",
"1X1X1X1X1X1X1X1X1X1X1X1X1X1X1X1XoX}.}.'.'.m Q.(.m Q.!.!.).Q.n ~./.!.'.b !.!.!.~.(.m !.!.!.(.n !.!.!.!.m Q.!.Q.!.|.}.}.Q.1X1X1X1X1X1X1X1X1X1X1X1X1X1X1X",
"1X1X1X1X1X1X1X1X1X1X1X1X1X1X1X1X+XOXOXXX'.x b b c b n v c n c v b b v b b v v b v v b b c b b b v b b v b n n (.OXOX+X[.1X1X1X1X1X1X1X1X1X1X1X1X1X1X1X",
"1X1X1X1X1X1X1X1X1X1X1X1X1X1X1X1X+X.XOX[.1X1X1X1X1X1X1X1X1X1X1X1X1X1X1X1X1X1X1X1X1X1X1X1X1X1X1X1X1X1X1X1X1X1X1X1XXXXXoX/.1X1X1X1X1X1X1X1X1X1X1X1X1X1X1X",
"1X1X1X1X1X1X1X1X1X1X1X1X1X1X1X1X X'.].'.1X1X1X1X1X1X1X1X1X1X1X1X1X1X1X1X1X1X1X1X1X1X1X1X1X1X1X1X1X1X1X1X1X1X1X1X'.'.[.Q.1X1X1X1X1X1X1X1X1X1X1X1X1X1X1X",
"1X1X1X1X1X1X1X1X1X1X1X1X1X1X1X1X1X1X1X1X1X1X1X1X1X1X1X1X1X1X1X1X1X1X1X1X1X1X1X1X1X1X1X1X1X1X1X1X1X1X1X1X1X1X1X1X1X1X1X1X1X1X1X1X1X1X1X1X1X1X1X1X1X1X1X",
"1X1X1X1X1X1X1X1X1X1X1X1X1X1X1X1X1X1X1X1X1X1X1X1X1X1X1X1X1X1X1X1X1X1X1X1X1X1X1X1X1X1X1X1X1X1X1X1X1X1X1X1X1X1X1X1X1X1X1X1X1X1X1X1X1X1X1X1X1X1X1X1X1X1X1X",
"1X1X1X1X1X1X1X1X1X1X1X1X1X1X1X1X1X1X1X1X1X1X1X1X1X1X1X1X1X1X1X1X1X1X1X1X1X1X1X1X1X1X1X1X1X1X1X1X1X1X1X1X1X1X1X1X1X1X1X1X1X1X1X1X1X1X1X1X1X1X1X1X1X1X1X",
"1X1X1X1X1X1X1X1X1X1X1X1X1X1X1X1X1X1X1X1X1X1X1X1X1X1X1X1X1X1X1X1X1X1X1X1X1X1X1X1X1X1X1X1X1X1X1X1X1X1X1X1X1X1X1X1X1X1X1X1X1X1X1X1X1X1X1X1X1X1X1X1X1X1X1X",
"1X1X1X1X1X1X1X1X1X1X1X1X1X1X1X1X1X1X1X1X1X1X1X1X1X1X1X1X1X1X1X1X1X1X1X1X1X1X1X1X1X1X1X1X1X1X1X1X1X1X1X1X1X1X1X1X1X1X1X1X1X1X1X1X1X1X1X1X1X1X1X1X1X1X1X",
"1X1X1X1X1X1X1X1X1X1X1X1X1X1X1X1X1X1X1X1X1X1X1X1X1X1X1X1X1X1X1X1X1X1X1X1X1X1X1X1X1X1X1X1X1X1X1X1X1X1X1X1X1X1X1X1X1X1X1X1X1X1X1X1X1X1X1X1X1X1X1X1X1X1X1X",
"1X1X1X1X1X1X1X1X1X1X1X1X1X1X1X1X1X1X1X1X1X1X1X1X1X1X1X1X1X1X1X1X1X1X1X1X1X1X1X1X1X1X1X1X1X1X1X1X1X1X1X1X1X1X1X1X1X1X1X1X1X1X1X1X1X1X1X1X1X1X1X1X1X1X1X",
"1X1X1X1X1X1X1X1X1X1X1X1X1X1X1X1X1X1X1X1X1X1X1X1X1X1X1X1X1X1X1X1X1X1X1X1X1X1X1X1X1X1X1X1X1X1X1X1X1X1X1X1X1X1X1X1X1X1X1X1X1X1X1X1X1X1X1X1X1X1X1X1X1X1X1X",
"1X1X1X1X1X1X1X1X1X1X1X1X1X1X1X1X1X1X1X1X1X1X1X1X1X1X1X1X1X1X1X1X1X1X1X1X1X1X1X1X1X1X1X1X1X1X1X1X1X1X1X1X1X1X1X1X1X1X1X1X1X1X1X1X1X1X1X1X1X1X1X1X1X1X1X",
"1X1X1X1X1X1X1X1X1X1X1X1X1X1X1X1X1X1X1X1X1X1X1X1X1X1X1X1X1X1X1X1X1X1X1X1X1X1X1X1X1X1X1X1X1X1X1X1X1X1X1X1X1X1X1X1X1X1X1X1X1X1X1X1X1X1X1X1X1X1X1X1X1X1X1X",
"1X1X1X1X1X1X1X1X1X1X1X1X1X1X1X1X1X1X1X1X1X1X1X1X1X1X1X1X1X1X1X1X1X1X1X1X1X1X1X1X1X1X1X1X1X1X1X1X1X1X1X1X1X1X1X1X1X1X1X1X1X1X1X1X1X1X1X1X1X1X1X1X1X1X1X",
"1X1X1X1X1X1X1X1X1X1X1X1X1X1X1X1X1X1X1X1X1X1X1X1X1X1X1X1X1X1X1X1X1X1X1X1X1X1X1X1X1X1X1X1X1X1X1X1X1X1X1X1X1X1X1X1X1X1X1X1X1X1X1X1X1X1X1X1X1X1X1X1X1X1X1X",
"1X1X1X1X1X1X1X1X1X1X1X1X1X1X1X1X1X1X1X1X1X1X1X1X1X1X1X1X1X1X1X1X1X1X1X1X1X1X1X1X1X1X1X1X1X1X1X1X1X1X1X1X1X1X1X1X1X1X1X1X1X1X1X1X1X1X1X1X1X1X1X1X1X1X1X",
"1X1X1X1X1X1X1X1X1X1X1X1X1X1X1X1X1X1X1X1X1X1X1X1X1X1X1X1X1X1X1X1X1X1X1X1X1X1X1X1X1X1X1X1X1X1X1X1X1X1X1X1X1X1X1X1X1X1X1X1X1X1X1X1X1X1X1X1X1X1X1X1X1X1X1X",
"1X1X1X1X1X1X1X1X1X1X1X1X1X1X1X1X1X1X1X1X1X1X1X1X1X1X1X1X1X1X1X1X1X1X1X1X1X1X1X1X1X1X1X1X1X1X1X1X1X1X1X1X1X1X1X1X1X1X1X1X1X1X1X1X1X1X1X1X1X1X1X1X1X1X1X"
};
