/* XPM */
static char *result[] = {
/* columns rows colors chars-per-pixel */
"75 75 249 2 ",
"   c #1D0000",
".  c #280A0A",
"X  c #200200",
"o  c #210301",
"O  c #2E0F0D",
"+  c #290A08",
"@  c #240502",
"#  c #2A0B08",
"$  c #2C0D0A",
"%  c #2D0E0B",
"&  c #2F100D",
"*  c #290A07",
"=  c #220402",
"-  c #2D0F0D",
";  c #240604",
":  c #30110E",
">  c #230401",
",  c #2C0E0C",
"<  c #270907",
"1  c #2B0D0B",
"2  c #2A0C0A",
"3  c #220301",
"4  c #250604",
"5  c #260905",
"6  c #2E110D",
"7  c #250804",
"8  c #220501",
"9  c #210200",
"0  c #2C0D0B",
"q  c #2C0C0D",
"w  c #240405",
"e  c #230304",
"r  c #230402",
"t  c #2A0806",
"y  c #250400",
"u  c #290801",
"i  c #32110A",
"p  c #32140C",
"a  c #31130B",
"s  c #341510",
"d  c #361712",
"f  c #371816",
"g  c #2B0C0A",
"h  c #260806",
"j  c #1C0000",
"k  c #290C08",
"l  c #210400",
"z  c #290C06",
"x  c #361913",
"c  c #341210",
"v  c #2E0C0A",
"b  c #2D0B09",
"n  c #300F0A",
"m  c #2C0E06",
"M  c #30130D",
"N  c #341711",
"B  c #321412",
"V  c #2E100E",
"C  c #200403",
"Z  c #1E0000",
"A  c #1F0100",
"S  c #2E0F0C",
"D  c #280906",
"F  c #280A08",
"G  c #260705",
"H  c #280B07",
"J  c #240703",
"K  c #230602",
"L  c #2B0C09",
"P  c #240503",
"I  c #270806",
"U  c #2A0B09",
"Y  c #2B0B0C",
"T  c #260402",
"R  c #290803",
"E  c #381710",
"W  c #33150D",
"Q  c #30120A",
"!  c #33140F",
"~  c #351611",
"^  c #331412",
"/  c #230503",
"(  c #200300",
")  c #2A0D07",
"_  c #351812",
"`  c #33110F",
"'  c #2F0E09",
"]  c #2D0F07",
"[  c #31140E",
"{  c #311311",
"}  c #1E0201",
"|  c #200202",
" . c #270909",
".. c #2F100E",
"X. c #290B09",
"o. c #270805",
"O. c #2A0D09",
"+. c #2D100C",
"@. c #2D0E0C",
"#. c #280907",
"$. c #280604",
"%. c #35170F",
"&. c #2D100A",
"*. c #331610",
"=. c #32100E",
"-. c #2D0E09",
";. c #2E1008",
":. c #301210",
">. c #220404",
",. c #31120F",
"<. c #250603",
"1. c #2B0E0A",
"2. c #2C0F0B",
"3. c #260704",
"4. c #250506",
"5. c #33120D",
"6. c #361810",
"7. c #2F120C",
"8. c #2F1109",
"9. c #240606",
"0. c #260808",
"q. c #30110F",
"w. c #30110C",
"e. c #32130E",
"r. c #270A06",
"t. c #220500",
"y. c #2F0D0B",
"u. c #2E0F0A",
"i. c #2F110F",
"p. c #250707",
"a. c #311210",
"s. c #250705",
"d. c #220300",
"f. c #361714",
"g. c #331411",
"h. c #240701",
"j. c #31120D",
"k. c #321310",
"l. c #341513",
"z. c #341512",
"x. c #280904",
"c. c #1F0000",
"v. c #270A04",
"b. c #200100",
"n. c #2B0C07",
"m. c #2A0B06",
"M. c #280B05",
"N. c #2E110B",
"B. c #230505",
"V. c #321311",
"C. c #1E0100",
"Z. c #180000",
"A. c #2C0D08",
"S. c #1B0000",
"D. c #260607",
"F. c #1F0200",
"G. c #1A0000",
"H. c #210303",
"J. c #2F100B",
"K. c #290B0B",
"L. c #2F120E",
"P. c #1D0100",
"I. c #1D0002",
"U. c #1F0101",
"Y. c #220203",
"T. c #270708",
"R. c #250802",
"E. c #2B0D0D",
"W. c #1C0001",
"Q. c #1F0302",
"!. c #210102",
"~. c #280809",
"^. c #2A0A0B",
"/. c #30130F",
"(. c #26080A",
"). c #280A0C",
"_. c #240500",
"`. c #2C0F09",
"'. c #250709",
"]. c #27090B",
"[. c #2C0A08",
"{. c #270803",
"}. c #2D0B0A",
"|. c #2A0807",
" X c #29090A",
".X c #351614",
"XX c #220406",
"oX c #230507",
"OX c #2C0A09",
"+X c #280605",
"@X c #1F0103",
"#X c #2B0908",
"$X c #270504",
"%X c #230400",
"&X c #1D0001",
"*X c #290706",
"=X c #351613",
"-X c #1E0002",
";X c #371815",
":X c #371813",
">X c #200204",
",X c #240203",
"<X c #270506",
"1X c #32150F",
"2X c #260405",
"3X c #230102",
"4X c #200001",
"5X c #321511",
"6X c #290A05",
"7X c #250304",
"8X c #220001",
"9X c #2D0D0E",
"0X c #341614",
"qX c #2E0E0F",
"wX c #34160E",
"eX c #230600",
"rX c #32140A",
"tX c #2B0D05",
"yX c #210305",
"uX c #290B03",
"iX c #260702",
"pX c #311410",
"aX c #1F0204",
"sX c #240608",
"dX c #310F0D",
"fX c #220000",
"gX c #27070A",
"hX c #1E0103",
"jX c #250302",
"kX c #260403",
"lX c #1E0200",
"zX c #250601",
"xX c #2B0E08",
"cX c #32150D",
"vX c #260903",
"bX c #331612",
"nX c #31140C",
"mX c #2A0C04",
"MX c #33160E",
"NX c #32160B",
"BX c #33150B",
"VX c #301011",
"CX c #341713",
"ZX c #381916",
"AX c #240407",
"SX c #230306",
"DX c #250508",
"FX c #220205",
"GX c white",
/* pixels */
"  . X o O + @ # $ % & * = - ; = : # > # , ,   ; , < 1 2 3 4 % * 5 6 7 8 % $ 4 9 4 0 + 0 q w e r t y u i p a s d f g h j k l z x c v b n m m M N B V C ",
"Z . A o O + @ # $ S & D = - ; = : # @ # , 1   ; , F 2 F 3 G % D H 6 J K S L P 3 I g U 0 Y e e r T R i E W Q ! ~ ^ U / j k ( ) _ ` b b ' ] ] [ N { 1 } ",
"|  .A = ..+ @ * % S & D / - / = : * @ # - 2 Z / 1 X.2 h 9 I $ o.O.+.K 7 & D 3 4 + U g @.#.3 w r $.' %.%.a a ~ d O #.X Z k ( &.*.=.b L -.] ;.! ~ :.F j ",
">. .A / ..+ @ * % S S o./ , = / ,.D <.# - X.A = 1 1 2 ; 9 #.L <.1.2.8 5 & 3.9 I g + g 0 4 3 4.P b 5.! Q a 6.d ,.U I   X H ( 7.[ =.v L -.] 8.! s { h j ",
"9.0.Z ; q.#.> * S S % 3./ , o ; ,.o.3.* - F A o 2 1 F = r #.* > +.k 8 H % > 3 + 0 + 0 g P 3 4 G % ! ! w.e.d ,.o.#.4   / r.t.M M ` y.$ u.] 8.e.e.i./ Z ",
" .p.  h a.#.> D S S L <.; , o s.,.3.o.* V < X X < F s.o 4 + o.> +.7 8 O.# d.4 U 0 + 0 + P r 4 + ,.f.g.-.-.u.# 3.I 3 Z ; 7 h.M 7.,.y.% u.;.Q e.j., A Z ",
"F s.  h a.#.r #.@.O # <.; , o h k.<.D * V h o A / s.= X I U o.<.- = = , I 9 + U g U 0 I P P P @.l.z.& * x.x.D # G c.Z ; 8 v.7.M : % % -.;.a ! j.2 Z | ",
"X.s.  < a.#.r #.@.O # @ s.- o h k.<.D D V h o A o = A X + U o.o.- A = - P b.g U g g g 4 4 4 P ..q...# * n.m.D # P j Z / l M.N.[ & $ $ -.;.p s e.1 Z B.",
"2 X   X.V.U 3 4 0 0 I r 1.H C.k ,.<.D # i.< X o X o Z / @.U 3.% 1 A s.2 4 9 O U g #.g 4 r G + l.- X.O.1.H 7 = A Z Z.4.G 9 A.! j.S $ % -.;.p s j.h X B.",
"X.X   X.V.U 3 P + #.4 P 1.r.C.O.: <.D # i.< o X o X A s.@.+ 3.% 2 A F X.P r @.U g U U 4 r I 0 ^ 2 F F r.l   Z Z   S.D.P 3 u.! w.% $ % -.;.p s j.s.X 9.",
"F A   X.V.g 3 P G P 3 4 2.5 F.2.& @ D * V < o X o X X < @.I 3.S F X , < r 4 g g U 0 D @ d.o.: a.X.; = X j G.j     H.D.9 r w.! J.% $ % u.8.p s w.4 9 4.",
"< A   F V.g r r r 3 b.I 6 7 ( 6 S @ D * V < o X o Z o X.0 I o.& s.o i.s.3 #.U 0 U @.3.> > * g...K.| j j j C.Z j   p.4.c.G ! ! u.$ $ % u.8.p ! w.P b.D.",
"r.F.  F V.0 w e r 3 9 U 6 K l L.% @ D * V F = X X Z / 1 g G * : ; >.:.; r + U g g 0 @ d.> L z.0 0.P.S.j   Z A j Z  .w c.U s e.-.$ $ % u.8.p ! w.P b.D.",
"r.(   < V.@.4.w r r 3 g 6 K K L.% @ D * V X.= X A Z h - + G L & B.9.V / 4 + g g 0 + @ > <.S g.F H.I.Z U.j j Z Z H. .Y.9 @.! j.A.% $ % u.8.p s w.P b.T.",
"H (   h a.O D.4.Y.w 3 0 +.8 R.7.$ <.* * V 2 / X Z A X.- #.G $ % >.0.E.B.#.#.0 U 0 4 <.> 3.: : h U.W.} Q.  Z >.9.B.p.c.4 q.e.w.n.% $ % -.;.p s j.P 9 T.",
"X.o   h a.O I 4 !.P r g 2.8 5 L.$ <.* * i.2 / X A o 1 V G G $ L = < K.9.+ #.0 U @.3 <.@ o.k.S s.U.G.S.} H.9.. K.p.B.Z I k.,.J.m.S 0 % -.u.p s j.@ 9 G ",
"Y 4 S.I ..V.G <.3 9 @ & I P #.a.+ r + + : # @ > d.o.S # I 4 O o.F.2.< = ~.^.q q U 4 > @ H /.- o A Z o p.9.(.). .B.j X 2.,.S v b @.+ $ J.-.j.s w._.c.I ",
"Y 4.j 4 @.^ D <.@ > <.S G P #.^ U P + + & L 3.3.@ D S L I 4 O 3.F.`.< = ~.^.Y Y #.P > <.O./., X c.b.;  .'.(.].p.H.  K +.,.S v [.U I # % A.w.~ j.{.c.4 ",
"Y T.Z 3 L g.$ <.<.<.D % P P + l.g P + + & $ * o.<.# & L #.G @.@ ( `.< = ~.^.^.^.G r d.o.2./.X.Z Z > <  .'.'.'.H.Z X r.L.: S }.|.#.4 D $ A.w.s ! m.b.9 ",
" X~.9 b.D k.& 3.@ <.# S r P #..Xg r + + & % # o.3.L & * #.I @.@ ( &.< = ~.^.Y ^.P 3 > D 6 L.h j b.3.. 0.XXoXXXZ S./ 2./.: S OX+X#.4 o.L n.J.! ! -.9 Z ",
"I I P Z <.: k.D d.3.S S d.<.I l.U 3 + U & S L <.o.$ % o.#.I @.> l &.< = ~.^.Y ^.r 3 > # L.+./ j > D  .>.@X@XZ j S.h L./.& $ #X$X+ G o.L L % j.! J.%Xj ",
"P G G   > S z.L > o.,.& 9 <.I l.U 3 + + S & $ <.D S % <.#.#.@.P 8 +.< o ~.^. X~.3 3 <.$ /.O.o j o.* 9.Z &X&Xj j Z k /.L.S L *X$X#.G 3.# L $ w.s w.{.  ",
"3 4 #.Z d.L =XS 3.L =X& c.<.G l.g 3 #.#.% : : * $ ,.S @ #.+ O P K 6 h X D.T.D.4.3 @ o.% L.r.A Z D D H.  -X&Xj Z = 2./.N.% * +X+XG P P #.L L J.~ j.n.c.",
"b.P + Z 9 * =X& # S ;X& Z @ G .X0 3 I G $ ,.g.$ S g.& @ #.U O P K 6 h X 4.4.w 3 d.@ D S L.h Z U.+ I U.  @X-X  A ; +.M &.$ D $X+Xr 3 3 I # L w.:Xj.u.9 ",
"3 Z #.P   D : g.s s k.% 9 @ o.=XU 9 D L D & k.S : k.L D @ * a.4 ( L.2 = e Y.r 3 <.9 n.g.+.; Z | g 4 U.Z >X>XZ   < 2.7.`.* o.$X,X4 9 b.P D L : =Xk.S * ",
"G c.4 4 Z <.: k.s s k.$ 9 @ o.=XU 9 o.# * & ,.S : ,.# o.<.* a.4 ( L.2 = Y.Y.P 3 <.d.-.s , /   H.g 4 Z   @XU.Z   H 6 M `.* o.<X,X3 9 9 r o.# & k.f.g.& ",
"@.3 3 I c.9 J.j.s ! ,.$ b.> o.z.g 9 o.# * S w.J.w.j.* o.<.# a.4 ( +.2 = !.Y.4 3 <.<.w.s , =   >.g P Z   Z Z     1./.1X&.* 3.2X3X4X!.3 3 P + % S k.: u.",
"^ 4 c.#.9 Z -.w.s ! ,.L c.> o.z.0 9 3.# # % J.w.j.w.o.o.<.# a.4 l O.1 / !.e 4 r @ o.e.! 2 =   B.U P     Z Z A A +.5XN N.* 3.2X3X4Xe P 9 3 I $ $ ,.: w.",
"f + b.I >   6Xu.! ! w.n.c.d.3.z.@.3 <.# # $ -.w.j.w.o.o.<.* a.G l r., < e 4.G P @ 6X! j.F o   B.+ P Z Z U.| X o 6 *._ 7.* <.7X3Xe T.T.!.b.G L $ ,.k.! ",
"f @.r 4 @ c._.u.! e.j.n.c.> 3.g...r <.# L L n.w.j.w.D D <.o.q.I l K , , D.D.G <.o.-.s J.< o &XoX XP U.U.| | o l +.*._ 7.* 4 7X8XD.^.^.w b.P * L S : e.",
".Xa.D d.<.d.b.-.e.e.j.A.b.> 3.g.q.r @ # L * 6Xw.j.w.* D @ <...I = A , { ^.T.4 o.L j.d u.< o &XoX^.4.H.| | | A ( 1.1X_ M # 4 7X8X~.q 9XT.r r G #.% : e.",
"g.g.L b.<.@ Z -.e.e.j.-.9 > 3.k.a.P @ # L * x.w.w.w.* * @ @ ..#.=   - 0X@.#.4 D J.s :Xu.r.=   >.^.D.H.H.| A Z C.) [ N M U 4 e 4X~.q qX^.P 3 P G L % : ",
"! e.: d.G 9 > L ! w.! n.9 d.I q.k.o.@ L $ o.D S k.S L 3.o.9 S & J 8 s.- l.g.: e.a a wXA.r.o H.  I #.#.P b.c.c.b.eX[ N 7.1 ; H.w  X+ U @.0 3 c.G g 0 @.",
"p a : > G 3 > L e.w.s -.d.d.G O g.D @ # L o.D S ,.: L 3.o.9 % : J K = 1 k.,.! ! p rXW tXH o |   I L g G 3 b.c.  l 7.*.M , ; yX9.~.#.#.g 0 P b.P + U 0 ",
"Q a ,.3.I r > L w.w.~ w.@ 9 P 0 z.* > o.L D D % : k.$ 3.D > L g.5 K A < ..& ~ ! p wXW uXk o Z   r * 0 + D.4 r c.F.`.*.[ , s.>Xp.~.#.I + g #.r 3 #.+ g ",
"8.a k.# G r d.# j.j.~ j.3.b.P U =XL > <.# * * % : g.S o.D @ D g.O.8 A = #...,.! j.wXa {.O.=     c.3.g U  X^.T.r C.M.1X[ , s.| 0.+ #.G I g g G b.#.+ g ",
";.a g.% 4 r 9 D ! e.! j.o.b.P + =X% > > * * * % : z.& # * o.3.k.6 ( / Z 3 @.L w.w.e.J.iX1./ Z   Z ; K.. ).K. ./ c.<.e.! O I !.T.g + I I U @.#.b.G #.+ ",
"m w.g.& P r 9 D s e.j.e.* b.P I z.S <.> * * D % : k.: S # # <.S pXK s.Z c.+ D $ % u.-.3.1 p.>X&X  X B.p.(.].. < 9 > w.e.& + !.T.g + #.I + @.g r P 4 I ",
"m.J.g.: r P 9 * s e.w.s $ d.P P k.& 3.> D * D % ,.: : ,.# $ @ * pXk ; = c.r + o.# * # o.1 0.oXj j j I.aXXXsX .1 P 9 J.e.dX[.fX+X+ #.I I I g 0 G r P G ",
"6Xu.k.,.3 P 3 # g.j.J.~ & > r 9 ,.: o.> D D D % ,.& ,.g.L % @ 3./.6 / s.9 Z @.4 * 3.* o.2  .'.j C P.S.I.@X>X9.K.G 9 u.e.=.b fX+X#.G I G G U @.+ P 4 G ",
"{.-.g.,.P r 9 $ f.x.x.J.g.@ r 3 % : L 9 D $ 3.& ,.o.# k.S * D > $ =Xg 3 K.S.X < k r.1.6 g ~.gX'.P.P.I.hX-X&XU.9.g 9 _.d dXb jXkX+ #.#.#.G G U ..P 9 G ",
"{.A.k.,.P r 3 0 z.{.iXA.g.3.3 r % ,.L 9 D $ o.& : o.D & & L D <.# g.@.3 . Z A h k k +.pX..g  XD.= lXS.W.-X&X    #.@ > s ` b kXkXU + + #.I G U O 4 3 G ",
"iXA.k.,.P r r O : 3.%Xx.g.* 3 P L ,.L d.D $ D : S o.3.L & $ D o.D & ..P 0.H.  / k O.7.N g...U G X./ Z j S.S.j j P 3.> w.k.$ G r g U U + I G + O G 3 G ",
"zXn.k.,.P r P q.S o.d.iXk.% !.w + k.L d.* $ # : L 3.> o.% % * * 3.L a.G 9.p.j o r.) 7.*.s ,.$ D k r.7 = Z j Z Z b.D d.n.z.S + r 0 g U + I G + @.I 3 4 ",
"zXn.k.: P P 4 a.% o.d.zX: : Y.w #.V.g r + g g q.#.4 9 r U 0 g U <.o.a.+ >. .j A r.xX7.cXwX! w.u.x.x.L g D.e !.    5 t.vXbXL.k 8 0 g g U #.G + @.#.9 P ",
"_.n.k.: r P 4 V.$ 3.%XzX$ ,.e e G ^ g r + U g ..G r b.9 4 U 0 U <.<...0 H.0.  C.H N.nXcXwXwX! W 8.mX6X* G ~.T.b.C.8 h.eX5XpXk K g g U U #.I + @.+ 9 r ",
"_.n.k.: r r 4 ^ * > %XzXD k.w e 4 l.g P #.+ g ..4 9 b.b.b.#.@.U 4 4 9XqX| 9.A F.r.7.MXNXBXBXW %.6.8.n.* G U 0 G ( C.R.l /.bXk J g U U U #.I + @.g 3 r ",
"zXn.k.: r r G ^ I 9 d.<.<.V.4 r P l.g P #.+ g O P c.b.b.Z G O U G 4 g VX| B.X A 7 7.MXnXp a w.s %.p W j.# $ % o.8 S.vXl L.CXk 7 U + U + #.I U @.0 3 r ",
"zXn.k.: 3 3 U ..I 3 3 3 4 @.g 3 r : S @ #.I @.0 3 b.b.3 9 P + @.3.<.# a.G P 3 b.I g.g.S + r U ,.j.%.%.p ! d e.6XiX9 %X9 S z.% D o.# * D U + #.0 0 b.r ",
"zXn.k.& 3 3 U O D.Y.Y.Y.4 0 0 3 > : & @ + #.O 0 9 3 4 G r 3 #...o.3.# ,.G 4 3 9 + l.q.U T.e 4.U j.wXW a p %.! u.6X%X9 %X# =XS D 3.# # * + #.#.0 g b.P ",
"iXn.g.S r 3 g O w Y.r r P g 0 3 @ : & @ + + O U c.P U g G 9 4 q.o.3.* ,.I 4 3 3 g .X0 4 T.w e 4 D -.j.! s ~ ! w.A.zXc.<.3.f.& o.4 + g U + I + @.U 9 P ",
"iXn.g.$ r 3 0 0 e e P 4 r + O 3 @ & & <.+ + ..+ c.G 0 @.+ 9 r ..D o.* ,.#.4 9 r g .XU r ~.T.4.G > iXL J.j.j.e.! w.x.Z 3.d.f.: o.P #.g U #.I + @.#.9 4 ",
"{.A.=X# r 3 @.U 3 4 G I 3 #...3 @ & & <.#.U ..G b.#.U 0 g r 9 g * o.D : + 4 9 P 0 l.U r T.D.4.T.G <.4 3.3.* & z.k.$ c.3.b.z.,.D r I g g #.I + 0 G 3 G ",
"x.A.f.D r 3 O + 3 I + + 3 I a.3 > S & <.#.U ..P 9 + #.#.0 G 9 #.# D o.& + 4 b.P O a.#.r w Y.e w I G 4 r r <.D $ g.& 9 > 9 ,.k.# r 4 U g #.I U g P 3 G ",
"6X-.;Xo.@ d.O I r + g g 3 G V.r > % S <.I g ..3 3 g I P g #.3 #.# D 3.& U 4 c.4 a.O 4 P e 4Xe !.w 4.D.D.D.G 4 P V.a.@ b.> S g.$ r P + g #.#.U U r r I ",
"6Xu.ZX3.@ d.O G r U 0 0 3 G ^ r > % S @ I g ..9 9 @.#.3 U + r + # D 3.S U 4 c.4 l.0 r 4 w Y.4.Y.e 4.D.D.T.~.I P a.V.o.Z <.L g.% P P #.g #.+ g + 3 r I ",
"6Xe.=X3.> @ ..P 4 U @.g G P : > > % & @ U + @.9 I G + #.I + 4 4 $ o.@ S U P c.#.^ #.r 4 w !.Y.e AXSXSXDXD.4.4.D.g ^ * b.3.* f.& I Y.I 0 + U g #.3 G #.",
"6X! z.3.d.<...P G U @.g G P : > > % S <.U U 0 9 #.I U #.#.+ 4 4 $ o.@ & U P b.+ V.I r 4 w Y.Y.e AXSXFXAXD.4.4.4.U V.# b.<.D =X& ~.Y.G 0 0 0 U P r G + ",
"m.s ! zXd.o.O r I U @.g I P : @ > S % <.U U g 3 + I U + #.+ P 4 $ 3.<.& + P 3 g a.G 3 P w Y.e e AXFXFXAX4.w w 4.#.a.$ 9 @ 3.g.:  XY.w Y 9X9X#.b.P I # ",
"A.~ j._.d.* @.3 #.g @.0 #.P & @ > & $ 3.+ g U 3 U #.g U + #.P G $ 3.<.& + P P @...4 3 P 4.w w Y.AXFXFXSXw e e 4.G q.% d.> @ ,.,.^.e e ~.^.^.G c.4 #.L ",
"u.d u._.d.# 0 r U g @.0 #.P & @ > & # 3.+ g #.3 U #.g g U #.P G $ <.<.& #.P 4 ..0 P 3 4 T.D.4.e e Y.Y.Y.e Y.r 4 4 ..& > > @ & k.^.4.e 4.4.4.P 9 4 + $ ",
"w.d m._.> L U P g g @.@.+ P & @ > : D o.+ 0 G 3 U I g g g #.r G % <.3.: I P I q.U r 3 I  X XT.e w Y.Y.Y.Y.!.r 4 4 @.: @ > @ S g.Y D.e e Y.!.3 r I U % ",
"e.~ {.zX@ L + 4 0 0 @.@.* @ & <.@ ,.o.o.+ 0 4 r U I U 0 g #.r G % <.3.: G r #.a.I 3 r #.q q  Xe w Y.Y.Y.9 9 r 4 4 @.: @ @ @ % g.q ~.w Y.Y.!.3 P #.0 S ",
"! s zXzX<.L #.G @.0 @.@.# @ & <.@ ,.o.o.+ @.P r U G U 0 g #.r I % <.3.: 4 r #.V.G 3 P + 9XqX^.w w e Y.Y.9 9 r G 4 0 : <.@ <.% g.@.#.w e w e 3 P + @.: ",
"g.: > <.3 ..4 I @.g O 0 D 3.u._.zXJ.D o.L % 3 4 #.g g @.o.# d.* % * * : 3.b.% : > d.#.@.U U U r Y.e e Y.!.!.e D.4 @.k.o.9 iXn.g.2.O.I r 9 3 r 4 # & ,.",
"g.& d.@ 3 ..P 4 0 g O 0 D 3.u._.zXJ.D o.L % 3 4 #.g g 0 o.* d.* % * L & @ 9 % S > d.#.@.g g U r e e Y.Y.Y.Y.w 4.4 @.k.o.9 iXn.s +.O.o.@ r r 4 I L : k.",
"g.$ 9 d.r ..P P g U O 0 D 3.u.%XiXJ.D o.g 0 3 4 + U g g D D d.* $ * S S 9 d.& L 3 3 + O 0 g + r e Y.Y.Y.e w 4 4 P O g.D d.<.m.s & $ D <.P 4 #.+ $ ,.k.",
"g.# 9 9 4 q.r P U U ..0 D o.u.d.{.J.D o.g 0 3 4 U + U U * o.> # * * : $ c.<.: D 3 r U ..@.g #.r e Y.Y.e w D.4 4 4 ..g.o.d.<.m.~ : % * 3.4 I + g S k.k.",
"k.o.3 9 I a.P 4 U g ..g D o.S 9 D & o.o.0 0 9 4 g #.U #.U G @ L o.D : * c.* ,.3.3 4 g ..@.U I 3 e e Y.w 4 G G 4 3.,.g.3.d.3.# =Xk.S * 3.<.o.* L S k.,.",
": @ P 9 + q.r G g 0 q.g o.o.S 9 * & o.D 0 0 9 G g G + I g G <.$ <.D S 3.b.$ & <.3 G g O @.+ 4 3 e e w 4.G G G 4 * g.k.@ d.3.* =Xg.& * 3.3.D # L & k.: ",
"O 3 P b.+ ..r I 0 @.a.U 3.o.S 9 # & 3.D @.0 9 G g 4 + G g 4 3.% <.* % > d.S 0 r r I g @.0 #.P 9 e w G G G G <.<.$ z.,.> d.o.* =Xg.& * 3.o.* $ % : k.: ",
"0 b.P b.+ O 3 I @.O a.U 3.o.& 9 # & 3.D @.0 9 G g P #.4 0 4 3.% 3.# $ 9 @ : U 3 P #.g @.0 #.r 9 Y.4.I I G <.<.3.S =X: 9 > D * z.z.& * o.o.L S & ,.g.: ",
"9 r P c.O g 4 + U @...U r g G 3 S $ @ L @.g 9 P Y ~.G U I 4 0 g <.S + 3 + O #.3 P U g ..O 4 r 3 4 I G 4 <.> <.n.d ! n.9 <.@ L z.z.% $ % $ $ & ,.k.=XO.",
"9 r P c.O g 4 + U @...U r g G 3 S $ @ L @.g 9 P q ~.G U I 4 0 g <.S + 3 + O I 3 P g g O @.4 r r 4 G G o.* D m.w.d e.n.b.<.@ L =Xg.$ L % $ $ : k.: ,.J ",
"!.e P c.O g 4 + # % ..U r g G 3 S $ @ L @.g !.w 9X~.I g G P 0 U G ..+ 3 U O G 3 G g g O 0 P r r 4 G <.D % J.j.~ ~ j.m.b.<.> g .Xk.L # % A.-.j.! M 7.8 "
};
