/* XPM */
static char *result[] = {
/* columns rows colors chars-per-pixel */
"75 75 53 1 ",
"  c #1F0C01",
". c #240E01",
"X c #2B0F01",
"o c #271001",
"O c #2D1201",
"+ c #341502",
"@ c #391702",
"# c #371802",
"$ c #3C1A03",
"% c #421E04",
"& c #462105",
"* c #4B2505",
"= c #4E2807",
"- c #502706",
"; c #532A07",
": c #592E07",
"> c #552C08",
", c #5A2E08",
"< c #5B3007",
"1 c #563009",
"2 c #5D3209",
"3 c #63350A",
"4 c #68370B",
"5 c #66390B",
"6 c #6B3C0C",
"7 c #703F0D",
"8 c #6E410D",
"9 c #74430E",
"0 c #79460F",
"q c #7B490F",
"w c #794710",
"e c #7D4B10",
"r c #804C0F",
"t c #824E11",
"y c #855112",
"u c #8A5513",
"i c #8E5914",
"p c #865418",
"a c #935C15",
"s c #966017",
"d c #996217",
"f c #9E6817",
"g c #95611B",
"h c #9C6519",
"j c #9F681A",
"k c #A16717",
"l c #A46C1A",
"z c #A86F1B",
"x c #A7701E",
"c c #AA711C",
"v c #B1761E",
"b c #956422",
"n c #A77020",
/* pixels */
"hdatq9632,=;-%++%*=;2677900qttttuttttttupwteetrewe7w66643,=+4wyuuuiiiuytyty",
"hduew6332,=;=%++$%*=>2367900etyyttututttpwtwteqw99776452,>&$6wtyuuuuuyyyqyy",
"hate9633<,*=*#+++@$&=;,33699wwettttttttttwwwewwww774443:,;$=6etuuyyuyyreeqr",
"datq6532,;*&&+++$%$%%=;,,366999ettettetewwwtwww7776442,>;*+>0eetyuyyyrrette",
"air9632<>-*&#+#%&*&%%$&=>,3367799w9wwwwep7ww777664433,>>=%$290qqtttrtyrrqqe",
"auq6532:;=%%+#$******&$%=;:,34679799799977w776644433,>>-*$$236699000r7rr0qq",
"ut9632<;=*%++#&=*-*;*=*%%*=;;,366666766677777644432,>;-=$#$;235556444677999",
"rr732<>=*%++$%***;;;;;;;&%%=-;:233323245446446433::>;--%#O+;<<<344443424367",
"e933,;-*%@++%**-;>>>:<,>>*$%&*-;->>;>,,3344333,,,,>;==*$Oo+$*=,:2232<2<:,34",
"e632,-=&$++#&=-;><<<<2333<;&$&&&**=-;->,,,322,,>;>==**$o.oOO++#$%%%*%*%%%%%",
"73,;-&%$++@%=;>:<22355555532*$$&*-**----;,,,,>>>===*&$+..o++#+#++++X@+++@XX",
"4<;;-&$++@%*-:,23256686766665<&$%%%***=*--;-----=*&&$#ooO$$&%$$#@+@+++++@@+",
"2;*=&%++++&;::23469qqqqqqqq0086>@$&&&*****>---*%*%%$#+%1<3322>=*%%%%X%+@+%X",
";**%%+OO+$*>:33679qyiiiuyyyrrqq05$#%%%**-%%-%%%%$$@@#2eeyrq0w96334--**%%%%*",
"*&$$#OOo+$;,25669qyiaaaiaiuuuyytw6%#%%&%%%%%%%%%$@+@2iiiiuurqq0097744343334",
"+#+##$Oo+$>23569qyaadsssaaiiuuyytw6&@$%%%%%%%%%@@++5uasaaaiutteqww977777474",
"=**&%$$#+$>3368qyiaddddasaaauuuyyyq81#$$%%%$$$#+++5isddsaaiuyrtqwwww7w77777",
"653:>*%$$$>256qrissdsdddssaaiuuyyyee8*$$$$%$$#++O>ushhhhsaauyyyrttttrrt7twt",
"ee0963:&$$=349riassddddddaaaiuuyyyyeq92%$$$$#+++:ushhhhhsaiuuyyetttttrr7wtt",
"auyt976:*$&<6qyiasdddddsaaiauuuuyyyyee02%$$#++O8ishhhhsgaaiuuyyyttytttrrttt",
"hhaite06:$%<7qyuaaaaaasaaaiiupyuryyyyqe9;++OOo5asddhddsaaiuuyyyyttyttytttty",
"llhsiue93&$;49qyuiaaaaaaiiiuuyuyyyyryerq4$o. #usddhddgsaiuuuyyyrryyttttttpy",
"vclhaiue9:$*370qruiiuiiipuuuuytyyyyyyyrq9;o.o1ysdddsssiauuuyyytyyyyyytttyty",
"vvxkhgiyq6%$:379qryyuuuuuuuyyyuyeyyyyyyq05$oo2ysddsssiiuuuyttttyyyytyytpyty",
"vvzkhgiutw>#*<6690qrtyyyuuyyuttyyyypyyee07*oO<rssdgsaiiuyteyyyytttyytyyytuy",
"vvxllaautt6%%-,366qqtttytyyyttteeyeeeyyeq9,+O;eiaaaaauurqetyyyyypyyyyyyttty",
"vcxlkaiuyte2$%;<3390qeettttttutupyyyyyee06,+#,eiaaiiiuyyyyttyytyyyyttytytut",
"cxnkhaauyte6=$%;>25690ettttytyttyyyyyyye76:++;qiiaiiuyuyuyytttyytyyyyyyyttt",
"lzlhgaiyyt093&$&>,34690eettyytyytytuyeee76;++*9iiiuupyyytupeyyyyyyyytytyttt",
"klkdaauuyq0962%$&;,3679wqwqtyttttttteye973-++&9yuyuyuyyyttytytyttytyytuyutu",
"hhgdaiuttq9996;$%*;,34690eeettttytyteew86<*+@&60qtrttttytyyyyyytyyytyyyytut",
"hgaaiurqq00965,&$$*;3346990eeetrteeeew963,&+@&3790eqeeetettyttyytyyyyyypttt",
"aaaiureee00863<=@@%*>244677eweeteeeq09662-%++%:44677wrwrrrettttttytttuyytyy",
"aiiuttee0086552,%@+@%;,3446779wreww99743,-%+++-<3346777rwwetrrtttttyttyyyyt",
"auiyqq099666553<>%@+%%;,3344679796774432;*$+@+%--:2234677wwweeeeqttettetttt",
"iiuteeq096666532>*@@+%*-,,2344666663423,;%@X@+@%*--->:344767777790q0etetttt",
"uuytqqq966686532:=%++@%**->2333344332,,>*%$+#+#%%*---->:,,334444568680qeeee",
"tyttqq0768866532>>*@@@%%**->,3333,,>;:--*%+X+O+#%%%%**-;:>::,,2,23333690ww0",
"tutt009969666532:-*$OO@%%*%>;,3<,>>----%&%++OOO+%%%%%%**--;>>>,,,<<<:236777",
"utte97769668633<:>%%@XX@%*%--;,,;;--*---&$OoooOO+++@%%%%%%%%*==;>>11::1<233",
"tttw977786685321;=%%+XXXO#&=*=;;;;>;===*%@XX..o++++oO++++++@#$%&****=**&&&*",
"tte97776666532<>=*@+XXXX.o#&*==;;;>*;-**%+O.+%==1211=&;=*%##++++######OO+##",
"yt97866666532<,;%%XXOOX.ooO$&*=;>>;-;;-=$+O%8qyuiaaiuuuute862=%@O++OoooooO+",
"tt9666665532<:=&@+X+#&262=#O$&*=;>-->-=%+O&eshhhddddsdsaaaaiiye951$oo  O&==",
"q0666555222<;=%#OOO*esfhsue1##$&*-;-=*&@O+9asddddsssgssssassgaaiiye8=Oo#189",
"q955533<<,>;*$+OO+:alxllkhsi9&+#@%%%%$+XO;passsssaasaaaaaaagssssaaaie8#$5wq",
"9523<<<,>:*&#OO+*qhzzcccxffdie2$++O+OO+O+9iiiaaiaiaiiiiiiiiiaaaissssge2$50q",
"62<,<>;;=&$++O%9dxzzlcclllfdgau6$......O2yiiiiiiiiiiiiuuuiuuiiiiaasggaq$>80",
"3<>;;-=*%@+O$5slzzccczlkllhhhaau8#    o1euiiiiiuiuuuuuuuyyyuuuuiiiaaauq=&89",
":,===&%$+++*ujxxzznznnlkkhhhhaaae2o  o*0uiiiiiuuuypuyyyyyyyyyypuuuiiir0:$26",
":-%*&$#+X+8hlzzxznnnlllghhgdaaaiie=. $8yuuuiiuuuupuyuyyyyyeyyypyyuuurq6;$:3",
"*%%%$#OO*tflzzzzlnllkkhhdhgaaaaiipw%o&0ruyuuuuuyyyyyypeyyyyyypeetyte096=#*>",
"%%@@+X+1sflczzzlnjjlkkhhgaaaaaiiiie5O&8qryuyuyyuyepepyuyyyyeeeeeqqq9882&#*=",
"@@++++5dflzczzlljllhhhghdgaaaaiiiaie=$<0qyryqyyryyyuyyeeqee0eqew0086531$+&*",
"XX++%9dlzzcclxlfkhhhggaaaaaaiauaiiiu9&&50qqq00qeeyeeeeqqe9999988665632&+O#$",
"@@+,uhllzlklffhhdhadaaaaaaaaauiuuiiiy3%*3996669900eqeeq9888666865553<=$OO++",
"&O:hlllxklhhhhdaaaaaaiuuuuuuuuuuuuiuee1#=3356666899q00986686655532<<*#+#%%%",
"68sllclkhhdggbgaaiaiiuuuuruuuuuuuuuuie8%+*,35665555866566655332<,;*$##&=;::",
"ifllllkhddssgiiuuuuuuuttqeeyyyyueueiieq5%#&:2335565665553322<:>=&$###&1<232",
"dkllkfhgsiuiuuupuuuyutteqq0qqqeeeeeeeee82$+&=:133333333<2<:;=*$$#+$%*:23344",
"dkkkfhsaiuuuuuuyttttte0009w0000qqqqqeeeq7-@+#%&;>><<,,>>;=&&$###$%*>2336446",
"dkkkhaauuyyyeeeqteee009989999009000qeeqq74%@+O+$$&&****&&$#+#$%&-><33666677",
"ahfhaaiyyyeeeqqqwww99997996989990800000097:$OoO++$++++##+#$&&;,2356699wwete",
"ahdsauytte00999999999999679999989w000q80972%++++++++#+#$$&;<3536670qrrttttt",
"adaiuyrrwwww77777w7w7w777w799999w7rw7w7w774%@+X++++@%%%-,3446667eqrttttyyyy",
"aaaiuyyrtt777777779wwww77ww7w9997w7rwwww774*+@@%@%%*-,234766779tttuttuyuyyu",
"iiuyyrrq77777777w7w7w7wwwwwwwwww09w7ww07763%$%%--:2446777777etttutuuyuuuuup",
"uyrrqq007777777wwwwwwww7w7w9w9ww00wwww00973$%%-,44477790wryrtppttuutuuuuuiu",
"we9w9997777777777wwwwwwww990ww00ewwwwrrw971+$*,34777rrryyypuuyyyyuuuuuiaiii",
"464776664777ww77wwtwwtww0w909w00eweerwwwq7<+#=,347wwrryyyyyytyyyuuuuuiiiaia",
"4446444477777w7twwwtwwew0ww000q0wwwwwtww09<+$=,4670rttyttyytyyyuuuuiiiiaaaa",
"444767667777w7t7wwwwwwww0000000qewwtrwwtq93+$-24779qrtyyytyyyyuuuuiuiiiiiia",
"7677777777w777rw990w0q0q0000w00w7trrrrrwrw4%%-:477eertyyttyyyyuuuuuuuiiiiia",
"6767777w777wr7779900q0qw00q00qwrrrrtttttrr7*X%-4779etytyytyyyyuyuuuuiuiiiii",
"4777777777wwr77rww000qww00qqwwrrtrrttttttt7-X@-477rrtyyytyyyyyupuuuuuiiiiii"
};
