/* XPM */
static char *result[] = {
/* columns rows colors chars-per-pixel */
"75 75 240 2 ",
"   c #5C3F34",
".  c #594232",
"X  c #594233",
"o  c #5A4232",
"O  c #5A4233",
"+  c #5A4333",
"@  c #5B4333",
"#  c #5B4433",
"$  c #5B4334",
"%  c #5C4034",
"&  c #5C4134",
"*  c #5C4234",
"=  c #5C4334",
"-  c #5D4235",
";  c #5B4434",
":  c #5C4434",
">  c #5C4534",
",  c #5D4534",
"<  c #5E4535",
"1  c #5C4634",
"2  c #5E4635",
"3  c #5F4636",
"4  c #5C4834",
"5  c #5C4934",
"6  c #5D4934",
"7  c #5D4B34",
"8  c #5D4C34",
"9  c #5D4D34",
"0  c #5D4E34",
"q  c #5D5034",
"w  c #5D5134",
"e  c #5D5234",
"r  c #5E5234",
"t  c #5E5434",
"y  c #5E5634",
"u  c #5E5734",
"i  c #5E5834",
"p  c #5E5934",
"a  c #5E5D34",
"s  c #5F5D34",
"d  c #604736",
"f  c #614837",
"g  c #624837",
"h  c #624937",
"j  c #634937",
"k  c #624838",
"l  c #644A38",
"z  c #644A39",
"x  c #644B39",
"c  c #654B39",
"v  c #664B39",
"b  c #674C3A",
"n  c #684D3A",
"m  c #694D3B",
"M  c #6A4E3C",
"N  c #6B4F3C",
"B  c #6B4F3D",
"V  c #6C4F3C",
"C  c #6C4F3D",
"Z  c #6D503D",
"A  c #6F523E",
"S  c #70523E",
"D  c #70523F",
"F  c #71543F",
"G  c #5F6033",
"H  c #5F6133",
"J  c #5F6233",
"K  c #5F6333",
"L  c #5F6433",
"P  c #5F6633",
"I  c #5E6134",
"U  c #5F6A33",
"Y  c #606833",
"T  c #606A33",
"R  c #606D33",
"E  c #606F33",
"W  c #607033",
"Q  c #607133",
"!  c #607233",
"~  c #617533",
"^  c #617733",
"/  c #617833",
"(  c #617933",
")  c #617B33",
"_  c #617C33",
"`  c #617D33",
"'  c #627C33",
"]  c #627D33",
"[  c #627F33",
"{  c #725440",
"}  c #735440",
"|  c #735540",
" . c #735541",
".. c #745541",
"X. c #765742",
"o. c #775742",
"O. c #785843",
"+. c #795944",
"@. c #7A5944",
"#. c #7B5A45",
"$. c #7C5B45",
"%. c #7C5B46",
"&. c #7D5C46",
"*. c #7E5C46",
"=. c #805E47",
"-. c #815E48",
";. c #815F48",
":. c #825F48",
">. c #836049",
",. c #836149",
"<. c #85614A",
"1. c #85624A",
"2. c #86624A",
"3. c #86624B",
"4. c #86634B",
"5. c #87634B",
"6. c #89654C",
"7. c #8A654D",
"8. c #8A664D",
"9. c #8B664D",
"0. c #8D674F",
"q. c #8E684F",
"w. c #916A51",
"e. c #926B51",
"r. c #926B52",
"t. c #936B52",
"y. c #926C51",
"u. c #936C52",
"i. c #956E53",
"p. c #966E53",
"a. c #976F54",
"s. c #986F54",
"d. c #996F55",
"f. c #9A6F55",
"g. c #987055",
"h. c #997055",
"j. c #997155",
"k. c #9A7055",
"l. c #9A7155",
"z. c #9A7156",
"x. c #9B7156",
"c. c #9B7256",
"v. c #9B7257",
"b. c #9C7256",
"n. c #9C7257",
"m. c #628133",
"M. c #628333",
"N. c #628532",
"B. c #628533",
"V. c #628633",
"C. c #638733",
"Z. c #628833",
"A. c #638833",
"S. c #638933",
"D. c #638D33",
"F. c #638F33",
"G. c #649033",
"H. c #639633",
"J. c #649532",
"K. c #649632",
"L. c #649732",
"P. c #649832",
"I. c #649932",
"U. c #649A32",
"Y. c #649B32",
"T. c #659C32",
"R. c #659D32",
"E. c #649E32",
"W. c #659F32",
"Q. c #65A032",
"!. c #65A232",
"~. c #65A332",
"^. c #65A432",
"/. c #66A532",
"(. c #66A433",
"). c #66A632",
"_. c #66A732",
"`. c #65A832",
"'. c #66A832",
"]. c #66A932",
"[. c #65AA32",
"{. c #66AA32",
"}. c #66AB32",
"|. c #66AC32",
" X c #67AC32",
".X c #66AD32",
"XX c #67AC33",
"oX c #67AD33",
"OX c #66AE32",
"+X c #66AF32",
"@X c #68AD33",
"#X c #68AE33",
"$X c #69AF33",
"%X c #68AE34",
"&X c #69AE34",
"*X c #68AF34",
"=X c #69AF34",
"-X c #66B032",
";X c #69B034",
":X c #6AB034",
">X c #6BB134",
",X c #6AB135",
"<X c #6BB135",
"1X c #6BB235",
"2X c #6CB336",
"3X c #6CB436",
"4X c #6DB436",
"5X c #6DB537",
"6X c #6DB637",
"7X c #6EB637",
"8X c #6EB837",
"9X c #6FB838",
"0X c #70B938",
"qX c #71BA39",
"wX c #71BB39",
"eX c #72BB39",
"rX c #72BB3A",
"tX c #72BC39",
"yX c #72BC3A",
"uX c #73BD3A",
"iX c #73BE3A",
"pX c #74BD3B",
"aX c #74BE3A",
"sX c #74BF3A",
"dX c #74BE3B",
"fX c #74BF3B",
"gX c #75BF3B",
"hX c #75C03B",
"jX c #76C13B",
"kX c #76C13C",
"lX c #77C13C",
"zX c #76C23C",
"xX c #77C23C",
"cX c #77C33C",
"vX c #76C23D",
"bX c #77C33D",
"nX c #78C33D",
"mX c #78C43D",
"MX c #78C53D",
"NX c #79C53D",
/* pixels */
"mXmXmXmXmXmXmXmXmXmXmXmXmXmXmXmXmXmXmXmXmXmXmXmXmXmXmXmXmXmXmXmXmXmXmXmXmXmXmXmXmXmXmXmXmXmXmXmXmXmXmXmXmXmXmXmXmXmXmXmXmXmXmXmXmXmXmXmXmXmXmXmXmXmXvX",
"mXmXmXmXmXmXmXmXmXmXmXmXmXmXmXmXmXmXmXmXmXmXmXmXmXmXmXmXmXmXmXmXmXmXmXmXmXmXmXmXmXmXmXmXmXmXmXmXmXmXmXmXmXmXmXmXmXmXmXmXmXmXmXmXmXmXmXmXmXmXmXmXmXmXvX",
"mXmXmXmXmXmXmXmXmXmXmXmXmXmXmXmXmXmXmXmXmXmXmXmXmXmXmXmXmXmXmXmXmXmXmXmXmXmXmXmXmXmXmXmXmXmXmXmXmXmXmXmXmXmXmXmXmXmXmXmXmXmXmXmXmXmXmXmXmXmXmXmXmXmXvX",
"mXmXmXmXmXmXmXmXmXmXmXmXmXmXmXmXmXmXmXmXmXmXmXmXmXmXmXmXmXmXmXmXmXmXmXmXmXmXmXmXmXmXmXmXmXmXmXmXmXmXmXmXmXmXmXmXmXmXmXmXmXmXmXmXmXmXmXmXmXmXmXmXmXmXlX",
"mXmXmXmXmXmXmXmXmXmXmXmXmXmXmXmXmXmXmXmXmXmXmXmXmXmXmXmXmXmXmXmXmXmXmXmXmXmXmXmXmXmXmXmXmXmXmXmXmXmXmXmXmXmXmXmXmXmXmXmXmXmXmXmXmXmXmXmXmXmXmXmXmXmXlX",
"mXmXmXmXmXmXmXmXmXmXmXmXmXmXmXmXmXmXmXmXmXmXmXmXmXmXmXmXmXmXmXmXmXmXmXmXmXmXmXmXmXmXmXmXmXmXmXmXmXmXmXmXmXmXmXmXmXmXmXmXmXmXmXmXmXmXmXmXmXmXmXmXmXmXxX",
"mXNXmXmXmXmXmXmXmXmXmXmXmXmXmXmXmXmXmXmXmXmXmXmXmXmXmXmXmXmXmXmXMXNXMXnXxXxXhXjXxXmXNXMXmXmXmXmXmXmXmXmXmXmXmXmXmXmXmXmXmXmXmXmXmXmXmXmXmXmXmXMXNXbXpX",
"2XyXzXmXNXmXmXmXmXmXmXmXmXmXmXmXmXmXmXmXmXmXmXmXmXMXNXNXmXcXzXkXiX9X3X,X&XoX|. X%X1X8XdXzXcXMXNXmXmXmXmXmXmXmXmXmXmXmXmXmXmXmXmXmXmXmXmXMXNXcXfX7X=X(.",
"[.}.#X1XeXzXmXNXmXmXmXmXmXmXmXmXmXmXMXNXNXmXnXxXkXfX0X4X1X=X#XXX}.[.[.{.}.}.}.}.}.[.[.}.oX;X3XqXhXxXmXNXNXmXmXmXmXmXmXmXmXmXmXmXmXMXNXxXaX4X=X|.[.{.~.",
"}.}.}.[.}.#X1XwXzXmXNXMXNXNXMXmXcXkXsXqX5X1X:X$XXX}.{.[.[.{.}.}.}.}.}.}.}.}.}.}.}.}.}.}.}.{.[.{. X=X1X6XuXkXbXMXNXMXmXmXmXmXNXMXxXuX4X=X}.[.}.}.}.}.~.",
"}.}.}.}.}.}.[.{.#X1XqXgXtX7X1X,X=X@X}.{.[.[.{.}.}.}.}.}.}.}.}.}.}.}.}.}.}.}.}.}.}.}.}.}.}.}.}.}.}.}.[.[.}.@X:X1X9XfXxXmXmXxXrX2X*X}.[.}.}.}.}.}.}.}.~.",
"}.}.}.}.}.}.}.}.}.[.}.}.[.[.[.[.{.}.}.}.}.}.}.}.}.}.}.}.}.}.}.}.}.}.}.}.}.}.}.}.}.}.}.}.}.}.}.}.}.}.}.}.}.}.{.[.[.}.&X>X<X&X}.[.}.}.}.}.}.}.}.}.}.}.~.",
"}.}.}.}.}.}.}.}.}.}.}.}.}.}.}.}.}.}.}.}.}.}.}.}.}.}.}.}.}.}.}.}.}.}.}.}.}.}.}.}.}.}.}.}.}.}.}.}.}.}.}.}.}.}.}.}.}.}.}.[.[.}.}.}.}.}.}.}.}.}.}.}.}.}.~.",
"}.}.}.}.}.}.}.}.}.}.}.}.}.}.}.}.}.}.}.}.}.}.}.}.}.}.}.}.}.}.}.}.}.}.}.}.}.}.}.}.}.}.}.}.}.}.}.}.}.}.}.}.}.}.}.}.}.}.}.}.}.}.}.}.}.}.}.}.}.}.}.}.}.}.~.",
"}.}.}.}.}.}.}.}.}.}.}.}.}.}.}.|..X]..X}.}.}.}.}.}.}.}.}.}.}.}.}.}.}.}.}.}.}.}.}.}.}.}.}.}.}.}.}.}.}.}.}.}.}.}.}.}.}.}.}.}.}.}.}.}.}.}.}.}.}.}.}.}.}.~.",
"}.}.}.}.}.}.}.}.}.}.}.}.}.}..X}.` i N.OX|.}.}.}.}.}.}.}.}.}.}.}.}.}.}.}.}.}.}.}.}.}.}.}.}.}.}.}.}.}.}.}.}.}.}.}.}.}.}.}.}.}.}.}.}.}.}.}.}.}.}.}.}.}.~.",
"}.}.}.}.}.}.}.}.}.}.}.}.|.+XP.G * & > ! {..X}.}.}.}.}.}.}.}.}.}.}.}.}.}.}.}.}.}.}.}.}.}.}.}.}.}.}.}.}.}.}.}.}.}.}.}.}.}.}.}.}.}.}.}.}.}.}.}.}.}.}.}.~.",
"}.}.}.}.}.}.}.}.}.}.}..X|.] 0 % : @ = & I E.+X}.}.}.}.}.}.}.}.}.}.}.}.}.}.}.}.}.}.}.}.}.}.}.}.}.}.}.}.}.}.}.}.}.}.}.}.}.}.}.}.}.}.}.}.}.}.}.}.}.}.}.^.",
"OX|.}.}.}.}.}.}.}.}.+XU.J * * @ : b : $ % e D.+X|.}.}.}.}.}.}.}.}.}.}.}.}.}.}.}.}.}.}.}.}.}.}.}.}.}.}.}.}.}.}.}.}.}.}.}.}.}.}.}.}.}.}.}.}.}.}.}.|.+XW.",
"Z._.+X.X}.}.}.}..X|.[ 0 % : . z 1.s.=.< + & 6 ' .X.X}.}.}.}.}.}.}.}.}.}.}.}.}.}.}.|.OX+X.X}.}.}.}.}.}.}.}.}.}.}.}.}.}.}.}.}.}.}.}.}.}.}.}.}.|.+X/.( t ",
"* i ^ R.+XOX|.+XY.L * * @ # | w.c.k.v.7.v O = = U ^.OX}.}.}.}.}.}.}.}.}.}.}.}..X+X'.B.) R.OX+X|.}.}.}.}.}.}.}.}.}.}.}.}.}.}.}.}.}.}.}.}.}.OX].m.u & - ",
": * % 9 R G.{.m.0 % : + l ,.z.z.h.h.h.x.r.A O = % p H.+X}.}.}.}.}.}.}.}.|.OXOXI.^ p * % 8 Y M.!.+XOX|.}.}.}.}.}.}.}.}.}.}.}.}.}.}.}.}.OX|.A.s * * : 3 ",
"+ + : = % > i : * @ @ { e.b.h.h.h.h.h.h.z.a.@.: @ % 7 V.OX|.}.}.}.}..X+X_.C.Y 5 % * : : = & % q E S.).+XOX}.}.}.}.}.}.}.}.}.}.}.}.OX.XF.K = & : + : S ",
"$.C : O ; : * = O x >.k.z.h.h.h.h.h.h.h.h.l.x.<.k + * : ~ `..X|.+X.XL.( i & & = : + + @ O $ : * % & y ~ F.{.+XOX}.}.}.}.}.}.}..XOXJ.T > & : + @ N 2.j.",
"c.h.3.{ d X + $ F w.n.h.h.h.h.h.h.h.h.h.h.h.h.n.q.N O = % H E.'.A.T 4 % * : $ O : V &.;.} j O O : : * % : a _ K.|.+X.X}.}..X+XY.Q 4 % = @ O n -.s.b.h.",
"h.h.x.c.q.o.B :.z.z.h.h.h.h.h.h.h.h.h.h.h.h.h.h.x.i...@ $ & w i & % = : + X h  .4.h.b.c.x.e.*.D 3 X + : : &   1 P m.T.OX-XQ./ 8 % = ; O l %.p.c.h.k.h.",
"h.h.h.h.z.x.h.x.h.h.h.h.h.h.h.h.h.h.h.h.h.h.h.h.h.l.l.*.2 + = * : $ O : M #.e.c.x.h.h.h.h.l.c.z.q.+.C , X @ : = & % 7 W ] r % = ; o f O.u.b.k.h.h.k.h.",
"h.h.h.h.h.h.h.h.h.h.h.h.h.h.h.h.h.h.h.h.h.h.h.h.h.h.h.x.8.v O + X g ..5.g.c.z.h.h.h.h.h.h.h.h.h.z.c.h.9.O.m : O @ : = % % * : X d X.w.c.l.h.h.h.h.k.f.",
"h.h.h.h.h.h.h.h.h.h.h.h.h.h.h.h.h.h.h.h.h.h.h.h.h.h.h.h.x.t.D m $.y.x.x.h.h.h.h.h.h.h.h.h.h.h.h.h.h.h.x.x.a.4...c @ O $ : + < { 0.x.z.h.h.h.h.h.h.k.d.",
"h.h.h.h.h.h.h.h.h.h.h.h.h.h.h.h.h.h.h.h.h.h.h.h.h.h.h.h.h.l.h.s.x.l.h.h.h.h.h.h.h.h.h.h.h.h.h.h.h.h.h.h.h.h.x.x.p.>.D g : Z 6.z.z.h.h.h.h.h.h.h.h.k.f.",
"h.h.h.h.h.h.h.h.h.h.h.h.h.h.h.h.h.h.h.h.h.h.h.h.h.h.h.h.h.h.h.h.h.h.h.h.h.h.h.h.h.h.h.h.h.h.h.h.h.h.h.h.h.h.h.h.k.x.z.e.6.h.x.h.h.h.h.h.h.h.h.h.h.k.d.",
"h.h.h.h.h.h.h.h.h.h.h.h.h.h.h.h.h.h.h.h.h.h.h.h.h.h.h.h.h.h.h.h.h.h.h.h.h.h.h.h.h.h.h.h.h.h.h.h.h.h.h.h.h.h.h.h.h.h.h.l.x.h.h.h.h.h.h.h.h.h.h.h.h.k.h.",
"h.h.h.h.h.h.h.h.h.h.h.h.h.h.h.h.h.h.h.h.h.h.h.h.h.h.h.h.h.h.h.h.h.h.h.h.h.h.h.h.h.h.h.h.h.h.h.h.h.h.h.h.h.h.h.h.h.h.h.h.h.h.h.h.h.h.h.h.h.h.h.h.h.k.h.",
"h.h.h.h.h.h.h.h.h.h.h.h.h.h.h.h.h.h.h.h.h.h.h.h.h.h.h.h.h.h.h.h.h.h.h.h.h.h.h.h.h.h.h.h.h.h.h.h.h.h.h.h.h.h.h.h.h.h.h.h.h.h.h.h.h.h.h.h.h.h.h.h.h.k.d.",
"h.h.h.h.h.h.h.h.h.h.h.h.h.h.h.h.h.h.h.h.h.h.h.h.h.h.h.h.h.h.h.h.h.h.h.h.h.h.h.h.h.h.h.h.h.h.h.h.h.h.h.h.h.h.h.h.h.h.h.h.h.h.h.h.h.h.h.h.h.h.h.h.h.k.k.",
"h.h.h.h.h.h.h.h.h.h.h.h.h.h.h.h.h.h.h.h.h.h.h.h.h.h.h.h.h.h.h.h.h.h.h.h.h.h.h.h.h.h.h.h.h.h.h.h.h.h.h.h.h.h.h.h.h.h.h.h.h.h.h.h.h.h.h.h.h.h.h.h.h.k.k.",
"h.h.h.h.h.h.h.h.h.h.h.h.h.h.h.h.h.h.h.h.h.h.h.h.h.h.h.h.h.h.h.h.h.h.h.h.h.h.h.h.h.h.h.h.h.h.h.h.h.h.h.h.h.h.h.h.h.h.h.h.h.h.h.h.h.h.h.h.h.h.h.h.h.k.k.",
"h.h.h.h.h.h.h.h.h.h.h.h.h.h.h.h.h.h.h.h.h.h.h.h.h.h.h.h.h.h.h.h.h.h.h.h.h.h.h.h.h.h.h.h.h.h.h.h.h.h.h.h.h.h.h.h.h.h.h.h.h.h.h.h.h.h.h.h.h.h.h.h.h.k.d.",
"h.h.h.h.h.h.h.h.h.h.h.h.h.h.h.h.h.h.h.h.h.h.h.h.h.h.h.h.h.h.h.h.h.h.h.h.h.h.h.h.h.h.h.h.h.h.h.h.h.h.h.h.h.h.h.h.h.h.h.h.h.h.h.h.h.h.h.h.h.h.h.h.h.k.h.",
"h.h.h.h.h.h.h.h.h.h.h.h.h.h.h.h.h.h.h.h.h.h.h.h.h.h.h.h.h.h.h.h.h.h.h.h.h.h.h.h.h.h.h.h.h.h.h.h.h.h.h.h.h.h.h.h.h.h.h.h.h.h.h.h.h.h.h.h.h.h.h.h.h.k.h.",
"h.h.h.h.h.h.h.h.h.h.h.h.h.h.h.h.h.h.h.h.h.h.h.h.h.h.h.h.h.h.h.h.h.h.h.h.h.h.h.h.h.h.h.h.h.h.h.h.h.h.h.h.h.h.h.h.h.h.h.h.h.h.h.h.h.h.h.h.h.h.h.h.h.k.d.",
"h.h.h.h.h.h.h.h.h.h.h.h.h.h.h.h.h.h.h.h.h.h.h.h.h.h.h.h.h.h.h.h.h.h.h.h.h.h.h.h.h.h.h.h.h.h.h.h.h.h.h.h.h.h.h.h.h.h.h.h.h.h.h.h.h.h.h.h.h.h.h.h.h.k.k.",
"h.h.h.h.h.h.h.h.h.h.h.h.h.h.h.h.h.h.h.h.h.h.h.h.h.h.h.h.h.h.h.h.h.h.h.h.h.h.h.h.h.h.h.h.h.h.h.h.h.h.h.h.h.h.h.h.h.h.h.h.h.h.h.h.h.h.h.h.h.h.h.h.h.k.f.",
"h.h.h.h.h.h.h.h.h.h.h.h.h.h.h.h.h.h.h.h.h.h.h.h.h.h.h.h.h.h.h.h.h.h.h.h.h.h.h.h.h.h.h.h.h.h.h.h.h.h.h.h.h.h.h.h.h.h.h.h.h.h.h.h.h.h.h.h.h.h.h.h.h.k.d.",
"h.h.h.h.h.h.h.h.h.h.h.h.h.h.h.h.h.h.h.h.h.h.h.h.h.h.h.h.h.h.h.h.h.h.h.h.h.h.h.h.h.h.h.h.h.h.h.h.h.h.h.h.h.h.h.h.h.h.h.h.h.h.h.h.h.h.h.h.h.h.h.h.h.k.h.",
"h.h.h.h.h.h.h.h.h.h.h.h.h.h.h.h.h.h.h.h.h.h.h.h.h.h.h.h.h.h.h.h.h.h.h.h.h.h.h.h.h.h.h.h.h.h.h.h.h.h.h.h.h.h.h.h.h.h.h.h.h.h.h.h.h.h.h.h.h.h.h.h.h.k.h.",
"h.h.h.h.h.h.h.h.h.h.h.h.h.h.h.h.h.h.h.h.h.h.h.h.h.h.h.h.h.h.h.h.h.h.h.h.h.h.h.h.h.h.h.h.h.h.h.h.h.h.h.h.h.h.h.h.h.h.h.h.h.h.h.h.h.h.h.h.h.h.h.h.h.k.d.",
"h.h.h.h.h.h.h.h.h.h.h.h.h.h.h.h.h.h.h.h.h.h.h.h.h.h.h.h.h.h.h.h.h.h.h.h.h.h.h.h.h.h.h.h.h.h.h.h.h.h.h.h.h.h.h.h.h.h.h.h.h.h.h.h.h.h.h.h.h.h.h.h.h.k.d.",
"h.h.h.h.h.h.h.h.h.h.h.h.h.h.h.h.h.h.h.h.h.h.h.h.h.h.h.h.h.h.h.h.h.h.h.h.h.h.h.h.h.h.h.h.h.h.h.h.h.h.h.h.h.h.h.h.h.h.h.h.h.h.h.h.h.h.h.h.h.h.h.h.h.k.k.",
"h.h.h.h.h.h.h.h.h.h.h.h.h.h.h.h.h.h.h.h.h.h.h.h.h.h.h.h.h.h.h.h.h.h.h.h.h.h.h.h.h.h.h.h.h.h.h.h.h.h.h.h.h.h.h.h.h.h.h.h.h.h.h.h.h.h.h.h.h.h.h.h.h.k.k.",
"h.h.h.h.h.h.h.h.h.h.h.h.h.h.h.h.h.h.h.h.h.h.h.h.h.h.h.h.h.h.h.h.h.h.h.h.h.h.h.h.h.h.h.h.h.h.h.h.h.h.h.h.h.h.h.h.h.h.h.h.h.h.h.h.h.h.h.h.h.h.h.h.h.k.d.",
"h.h.h.h.h.h.h.h.h.h.h.h.h.h.h.h.h.h.h.h.h.h.h.h.h.h.h.h.h.h.h.h.h.h.h.h.h.h.h.h.h.h.h.h.h.h.h.h.h.h.h.h.h.h.h.h.h.h.h.h.h.h.h.h.h.h.h.h.h.h.h.h.h.k.h.",
"h.h.h.h.h.h.h.h.h.h.h.h.h.h.h.h.h.h.h.h.h.h.h.h.h.h.h.h.h.h.h.h.h.h.h.h.h.h.h.h.h.h.h.h.h.h.h.h.h.h.h.h.h.h.h.h.h.h.h.h.h.h.h.h.h.h.h.h.h.h.h.h.h.k.h.",
"h.h.h.h.h.h.h.h.h.h.h.h.h.h.h.h.h.h.h.h.h.h.h.h.h.h.h.h.h.h.h.h.h.h.h.h.h.h.h.h.h.h.h.h.h.h.h.h.h.h.h.h.h.h.h.h.h.h.h.h.h.h.h.h.h.h.h.h.h.h.h.h.h.k.h.",
"h.h.h.h.h.h.h.h.h.h.h.h.h.h.h.h.h.h.h.h.h.h.h.h.h.h.h.h.h.h.h.h.h.h.h.h.h.h.h.h.h.h.h.h.h.h.h.h.h.h.h.h.h.h.h.h.h.h.h.h.h.h.h.h.h.h.h.h.h.h.h.h.h.k.f.",
"h.h.h.h.h.h.h.h.h.h.h.h.h.h.h.h.h.h.h.h.h.h.h.h.h.h.h.h.h.h.h.h.h.h.h.h.h.h.h.h.h.h.h.h.h.h.h.h.h.h.h.h.h.h.h.h.h.h.h.h.h.h.h.h.h.h.h.h.h.h.h.h.h.k.d.",
"h.h.h.h.h.h.h.h.h.h.h.h.h.h.h.h.h.h.h.h.h.h.h.h.h.h.h.h.h.h.h.h.h.h.h.h.h.h.h.h.h.h.h.h.h.h.h.h.h.h.h.h.h.h.h.h.h.h.h.h.h.h.h.h.h.h.h.h.h.h.h.h.h.k.f.",
"h.h.h.h.h.h.h.h.h.h.h.h.h.h.h.h.h.h.h.h.h.h.h.h.h.h.h.h.h.h.h.h.h.h.h.h.h.h.h.h.h.h.h.h.h.h.h.h.h.h.h.h.h.h.h.h.h.h.h.h.h.h.h.h.h.h.h.h.h.h.h.h.h.k.h.",
"h.h.h.h.h.h.h.h.h.h.h.h.h.h.h.h.h.h.h.h.h.h.h.h.h.h.h.h.h.h.h.h.h.h.h.h.h.h.h.h.h.h.h.h.h.h.h.h.h.h.h.h.h.h.h.h.h.h.h.h.h.h.h.h.h.h.h.h.h.h.h.h.h.k.h.",
"h.h.h.h.h.h.h.h.h.h.h.h.h.h.h.h.h.h.h.h.h.h.h.h.h.h.h.h.h.h.h.h.h.h.h.h.h.h.h.h.h.h.h.h.h.h.h.h.h.h.h.h.h.h.h.h.h.h.h.h.h.h.h.h.h.h.h.h.h.h.h.h.h.k.h.",
"h.h.h.h.h.h.h.h.h.h.h.h.h.h.h.h.h.h.h.h.h.h.h.h.h.h.h.h.h.h.h.h.h.h.h.h.h.h.h.h.h.h.h.h.h.h.h.h.h.h.h.h.h.h.h.h.h.h.h.h.h.h.h.h.h.h.h.h.h.h.h.h.h.k.d.",
"h.h.h.h.h.h.h.h.h.h.h.h.h.h.h.h.h.h.h.h.h.h.h.h.h.h.h.h.h.h.h.h.h.h.h.h.h.h.h.h.h.h.h.h.h.h.h.h.h.h.h.h.h.h.h.h.h.h.h.h.h.h.h.h.h.h.h.h.h.h.h.h.h.k.d.",
"h.h.h.h.h.h.h.h.h.h.h.h.h.h.h.h.h.h.h.h.h.h.h.h.h.h.h.h.h.h.h.h.h.h.h.h.h.h.h.h.h.h.h.h.h.h.h.h.h.h.h.h.h.h.h.h.h.h.h.h.h.h.h.h.h.h.h.h.h.h.h.h.h.k.d.",
"h.h.h.h.h.h.h.h.h.h.h.h.h.h.h.h.h.h.h.h.h.h.h.h.h.h.h.h.h.h.h.h.h.h.h.h.h.h.h.h.h.h.h.h.h.h.h.h.h.h.h.h.h.h.h.h.h.h.h.h.h.h.h.h.h.h.h.h.h.h.h.h.h.k.d.",
"h.h.h.h.h.h.h.h.h.h.h.h.h.h.h.h.h.h.h.h.h.h.h.h.h.h.h.h.h.h.h.h.h.h.h.h.h.h.h.h.h.h.h.h.h.h.h.h.h.h.h.h.h.h.h.h.h.h.h.h.h.h.h.h.h.h.h.h.h.h.h.h.h.k.h.",
"h.h.h.h.h.h.h.h.h.h.h.h.h.h.h.h.h.h.h.h.h.h.h.h.h.h.h.h.h.h.h.h.h.h.h.h.h.h.h.h.h.h.h.h.h.h.h.h.h.h.h.h.h.h.h.h.h.h.h.h.h.h.h.h.h.h.h.h.h.h.h.h.h.k.h.",
"h.h.h.h.h.h.h.h.h.h.h.h.h.h.h.h.h.h.h.h.h.h.h.h.h.h.h.h.h.h.h.h.h.h.h.h.h.h.h.h.h.h.h.h.h.h.h.h.h.h.h.h.h.h.h.h.h.h.h.h.h.h.h.h.h.h.h.h.h.h.h.h.h.k.d.",
"h.h.h.h.h.h.h.h.h.h.h.h.h.h.h.h.h.h.h.h.h.h.h.h.h.h.h.h.h.h.h.h.h.h.h.h.h.h.h.h.h.h.h.h.h.h.h.h.h.h.h.h.h.h.h.h.h.h.h.h.h.h.h.h.h.h.h.h.h.h.h.h.h.k.k.",
"h.h.h.h.h.h.h.h.h.h.h.h.h.h.h.h.h.h.h.h.h.h.h.h.h.h.h.h.h.h.h.h.h.h.h.h.h.h.h.h.h.h.h.h.h.h.h.h.h.h.h.h.h.h.h.h.h.h.h.h.h.h.h.h.h.h.h.h.h.h.h.h.h.k.k.",
"h.h.h.h.h.h.h.h.h.h.h.h.h.h.h.h.h.h.h.h.h.h.h.h.h.h.h.h.h.h.h.h.h.h.h.h.h.h.h.h.h.h.h.h.h.h.h.h.h.h.h.h.h.h.h.h.h.h.h.h.h.h.h.h.h.h.h.h.h.h.h.h.h.k.d.",
"h.h.h.h.h.h.h.h.h.h.h.h.h.h.h.h.h.h.h.h.h.h.h.h.h.h.h.h.h.h.h.h.h.h.h.h.h.h.h.h.h.h.h.h.h.h.h.h.h.h.h.h.h.h.h.h.h.h.h.h.h.h.h.h.h.h.h.h.h.h.h.h.h.k.d.",
"h.h.h.h.h.h.h.h.h.h.h.h.h.h.h.h.h.h.h.h.h.h.h.h.h.h.h.h.h.h.h.h.h.h.h.h.h.h.h.h.h.h.h.h.h.h.h.h.h.h.h.h.h.h.h.h.h.h.h.h.h.h.h.h.h.h.h.h.h.h.h.h.h.k.h.",
"h.h.h.h.h.h.h.h.h.h.h.h.h.h.h.h.h.h.h.h.h.h.h.h.h.h.h.h.h.h.h.h.h.h.h.h.h.h.h.h.h.h.h.h.h.h.h.h.h.h.h.h.h.h.h.h.h.h.h.h.h.h.h.h.h.h.h.h.h.h.h.h.h.k.h.",
"h.h.h.h.h.h.h.h.h.h.h.h.h.h.h.h.h.h.h.h.h.h.h.h.h.h.h.h.h.h.h.h.h.h.h.h.h.h.h.h.h.h.h.h.h.h.h.h.h.h.h.h.h.h.h.h.h.h.h.h.h.h.h.h.h.h.h.h.h.h.h.h.h.k.d.",
"h.h.h.h.h.h.h.h.h.h.h.h.h.h.h.h.h.h.h.h.h.h.h.h.h.h.h.h.h.h.h.h.h.h.h.h.h.h.h.h.h.h.h.h.h.h.h.h.h.h.h.h.h.h.h.h.h.h.h.h.h.h.h.h.h.h.h.h.h.h.h.h.h.k.k."
};
