/* XPM */
static char *result[] = {
/* columns rows colors chars-per-pixel */
"75 75 77 1 ",
"  c DimGray",
". c #6A6A6A",
"X c gray42",
"o c #6C6C6C",
"O c #6D6D6D",
"+ c gray43",
"@ c #6F6F6F",
"# c gray44",
"$ c #717171",
"% c #727272",
"& c gray45",
"* c #747474",
"= c gray46",
"- c #767676",
"; c #777777",
": c gray47",
"> c #797979",
", c gray48",
"< c #7B7B7B",
"1 c #7C7C7C",
"2 c gray49",
"3 c #7E7E7E",
"4 c gray50",
"5 c #808080",
"6 c #818181",
"7 c gray51",
"8 c #838383",
"9 c #848484",
"0 c gray52",
"q c #868686",
"w c gray53",
"e c #888888",
"r c #898989",
"t c gray54",
"y c #8B8B8B",
"u c gray55",
"i c #8D8D8D",
"p c #8E8E8E",
"a c gray56",
"s c #909090",
"d c gray57",
"f c #929292",
"g c #939393",
"h c gray58",
"j c #959595",
"k c gray59",
"l c #979797",
"z c #989898",
"x c gray60",
"c c #9A9A9A",
"v c #9B9B9B",
"b c gray61",
"n c #9D9D9D",
"m c gray62",
"M c #9F9F9F",
"N c #A0A0A0",
"B c gray63",
"V c #A2A2A2",
"C c gray64",
"Z c #A4A4A4",
"A c #A5A5A5",
"S c gray65",
"D c #A7A7A7",
"F c gray66",
"G c #A9A9A9",
"H c #AAAAAA",
"J c gray67",
"K c #ACACAC",
"L c gray68",
"P c #AEAEAE",
"I c #AFAFAF",
"U c gray69",
"Y c #B1B1B1",
"T c #B2B2B2",
"R c gray70",
"E c #B4B4B4",
"W c gray71",
/* pixels */
"qq00000qqwwweerrrtttyuuuiiipppasdghhjjkjjjjhhhhhhhhhhhhhhhhhhhhhhhhjjjjkkkk",
"q9%.XXXXooooOO+++@+@@@###$$$$%%%,shjkkja644333333333333333333333333345uklll",
"0.   ....XXXXoooOOOO++@@@@@###$$$&gkzlp22111111111111111111111111111123rzxx",
"2  ......XXXooOOOO+++@@@@@###$$$%%0lzl521<<,,,,,,,,,,,,,,,,,,,,,,,,<<124zxx",
":  ....XXXooooOOOO+++@@@@##$$$%%%%5kzl421<<,,,,,,,,,,,,,,,,,,,,,,,,,<124lcx",
":.....XXoooOOOO+++@@@@###$$$$%%%&&5lxz521<<<<<<<<<<<<<<<<<<<<<<<<<<<<124zvc",
":....XXXoooOOOO+++@@@####$$%%%%&&&6zcz521<<<<<<<<<<<<<<<<<<<<<<<<<<<<134zvv",
":.XXXoooOOOO+++@@@@###$$$%%%&&&***6xvx6321111111111111111111111111111245xbv",
">XXXooOOOOO++@@@###$$$%%%%&&*****=7cbc7432222222222222222222222222222356cnn",
">XoooOOOO+++@@@@#$#$$%%%&%&****===8cnv7543333333333333333333333333333457vmm",
",oooOOOO+++@@@@##$$$%%%%&&&***===-8vnb8543333333333333333333333333333458bMm",
",oooOOO+++@@@####$$%%%&&&***===---9bmb8654444444444444444444444444444568nMM",
",oOOO+++@@@@###$$%%%%&&&***===---;9nMn9754444444444444444444444444444579mBN",
"<OOO++@@@@###$$%%%&&&****===-;;;;:qmNM0865555555555555555555555555555680MVB",
"1O+++@@@@###$$%%%&&&***===--;;;;::qMBN0876666666666666666666666666666780NCV",
"1O+@@@@####$%%%%&&***====--;;;::>>wNVNq98777777777777777777777777777779qBZC",
"1++@@@###$$$%%&&&&**===---;;;::>>>wNCBw98777777777777777777777777777780wBZZ",
"2+@@@@##$$$%%%&&***===---;;;:::>,>eBZVw09888888888888888888888888888880wVAZ",
"2@@@##$$%%%&&&***====-;;;;::>>>,,,rVACeq099999999999999999999999999990qeZSS",
"3@###$$%%%%&&***===--;;:::>>>,,,<<rCSZrwq99999999999999999999999999990wrZFD",
"4@#$$$$%%&&&***==---;;;:::>>,,<<<<tZDAtwq0000000000000000000000000000qwtAFD",
"4##$$$%%%&&&**===--;;;;:>>>,,,<<11tADAteq0000000000000000000000000000qetSGF",
"4#$$$%%%&&***==---;;;::>>>,,<<1111ySFSyewqqqqqqqqqqqqqqqqqqqqqqqqqqqqwryDHG",
"5$$$%%%&****==--;;;;:>>>,,,<111122uDGDyrewwwwwwwwwwwwwwwwwwwwwwwwwwwweryFJH",
"5$%%%%&***===-;;;;::>>,,,,<1112233iFHFuteeeeeeeeeeeeeeeeeeeeeeeeeeeeeetuGKJ",
"6$%%%&&***=---;;;::>>,,,<<<1112234iFJGitreeeeeeeeeeeeeeeeeeeeeeeeeeeeryiGKK",
"6%%&&***===--;;:::>>,,<<<111223344pGKHpytrrrrrrrrrrrrrrrrrrrrrrrrrrrrtypHLL",
"7%%&&**==---;;::>>>,,,<11112333445aHLJputrrrrrrrrrrrrrrrrrrrrrrrrrrrrtupJPP",
"7%&&**===--;;;::>>>,,<<11122334445aJLJauyttttttttttttttttttttttttttttyuaKIP",
"8&***===--;;:::>>,,<<1111223444556sJPKsiuyttttttttttttttttttttttttttyuisLUU",
"9***==--;;::>>>,,<<111233334456667dLUPdpiuuuuuuuuuuuuuuuuuuuuuuuuuuuuiadPTY",
"0**==---;;:::>>,<<1111233344556667fPUPdapiuuuuuuuuuuuuuuuuuuuuuuuuuuiiadIRT",
"e**==---;;::>>>,<<1112233344556667jPUIfaaiiiiiiiiiiiiiiiiiiiiiiiiiiiipsfURT",
"g**==---;;::>>>,<<1112233344556667SIYUnssaaapppppppppppppppppppppppaasdlTRT",
"ly===---;;::>>>,<<111223334455666vLUYYUxffdddddddddddddddddddddddddddflUTRT",
"xzljhjjklllzzxxvvbnnmmMNNBBVCCZDHLIUYYTYUPPPLLLLLLLPPPLLLLLPPLPPPPLPPIYTTTR",
"xxcccvvbnnmMMNNBVVCZAASDDFFGHJJKLPIIUYTYTTYYYYYTYYYYYYYYYYYYYYYTTTYYYYTTRRR",
"xxvvbbnnmMMNNBVCZZASSSDFFHHJJLLPPIIIUUYKJHHHHHHHJJJJJKJKKKKKLLLLLLLLPITRRRR",
"zxccccvvbbnmMMNBVCCZAASDDFFGHJJKLPIIUUKGGFFFFFFFFFFFFGGGGGGGGGFFFFFFGHJYTTT",
"zzzpwwetuupsdfhjlzccbmMNBVCZASDGHKPIUIGFDDDDDDDDDDDDDDDDDDDDDSSSSSDDDFGKTTT",
"zl41<<1122333445667788990qqqweertpFPUIGSDSSSSSSSSSSSSSSSSSSAAAAASSSSSDFHYTT",
"ly<,>,,,<<112233445566777889900wwruLIIFSSSSSSSSSSSSSSSSSSAAAAASSSSSSSDDHYTT",
"l9,>>>>,<<<<1123344455666778890qqetZIIGSSSSSSSSSSSSSSSSAAAAASSSSSSSSSSDHYTT",
"l7,>:::>,,,<<1122333445556778880qwtBPIFSSSSSSSSSSSSSSAAAAASSSSSSSSSSSDDHYTT",
"k6>>:::>,,,<<11222334455566788890wrBPIFSSSSSSSSSSSSAAAAASSSSSSSSSSSSSDDHYTT",
"k6>>:::>,,,<<11222334455566788890wrVPIFSSSSSSSSSSAAAAASSSSSSSSSSSSSSSDDJYTR",
"k5>>:::>,,,<<11222334455566788890wrVPIFSSSSSSSSSAAAASSSSSSSSSSSSSSSSSDFHTRR",
"k4>>:::>,,,<<11222334455566788890wrCPIGSSSSSSSAAAAASSSSSSSSSSSSSSSSSSDFKTRR",
"k4>>:::>,,,<<11222334455566788890wrZPIGSSSSSSAAAASSSSSSSSSSSSSSSSSSSDFGKTTT",
"k3>>:::>,,,<<11222334455566788890wrAPPGSSSSAAAASSSSSSSSSSSSSSSSSSSDDDFGJTTT",
"k3>>:::>,,,<<11222334455566788890wrSPPFSSSAAAASSSSSSSSSSSSSSSSSSSDDDDDFJTTT",
"k2>>:::>,,,<<11222334455566788890wtDPLFSAAAASSSSSSSSSSSSSSSSSSSDDDDSSDFJTTT",
"k2>>:::>,,,<<11222334455566788890wrFPLFAAAASSSSSSSSSSSSSSSSSSDDDDDSSSDFKTTT",
"k1>>:::>,,,<<11222334455566788890wtFPKDAAASSSSSSSSSSSSSSSSSSDDDDSSSSSDFKYTT",
"k1>>:::>,,,<<11222334455566788890wtFLKDASSSSSSSSSSSSSSSSSSDDDDSSSSSSDDFKYTT",
"j1>>:::>,,,<<11222334455566788890wtFLKDSSSSSSSSSSSSSSSSSSDDDDSSSSSSSSDFKYTR",
"j<>>:::>,,,<<11222334455566788890wrFLKFSSSSSSSSSSSSSSSSDDDDSSSSSSDSSSDFKTRR",
"j<>>:::>,,,<<11222334455566788890qrFPLFSSSSSSSSSSSSSSSDDDSSSSSSDSSSSSDGPRRT",
"j<>>:::>,,,<<11222334455566788899qrHPLFSSSSSSSSSSSSSDDDDSSSSSSSSSSSSSFGPTTT",
"j<>>:::>,,,<<11222334455566788799qtHILFSSSSSSSSSSSSDDDDSSSSSDSSSSSSDDFGLTRT",
"j<>>:::>,,,<<11222334455566787790wtHPKFSSSSSSSSSSSDDDSSSSSSSSSSSSSDDDDFPRTY",
"j<>>:::>,,,<<1122233445556677779qwtJPJDSSSSSSSSSDDDDSSSSSDSSSSSSDDDSSDGPTTT",
"j,>>:::>,,,<<1122233445556667770qwtJIJDSSSSSSSSDDDDSSSSSDSSSSSSDDDSSDFGPTTY",
"j,>>:::>,,,<<1122233445556567780qetKPJDSSSSSSSDDDSSSSSSSSSSSSDDDSSSDSDFPTTY",
"h,>>:::>,,,<<1122233445555567880qwyKPJDSSSSSSDDDSSSSSDSSSSSSDDDSSDDSSDGIYTT",
"h,>>:::>,,,<<1122233445555568880qeyKPHDSSSSDDDDSSSSSDSSSSSDDDDSSDSSSDFGITRY",
"h,>>:::>,,,<<1122233445545578880qeyKPJDSSSDDDDSSSSSDSSSSSDDDSSDDSSSDDFGUTTT",
"h,>::::>,,,<<1122233444445678880qeyKIJFSSDDDDSSSSSSSSSSSDDDSSDSSSDDDDFHITRY",
"g,>::::>,,,<<1122233444446678880qeyKIKGSFFDDSSSSDSSSSSSDDDSSDSSSDDDSFFGUTTY",
"h,>>::>>,,,<<1122333444456678880qeuKIIHGGFFDDDDFDDDDDDFFFDFFDDDFFFFFDGJYRRR",
"h<>>>>>,<<<<11233344445567788990qeuLIUYJJHGHHGHHGGGGGHHGGHHGGGGGGHHGHJPRRRR",
"l1<,>,,,<<112233445555677889900qqraPUYTTTYYYYTYYYYYTTTYUYYUUUUUUUIPIIYRREER",
"ld11<<11223333455565667889990qqweyBPYYTTTTTTTTTTTTRRRTTRTTTTTTTRTTTTTREEEEW",
"zzldapiiiiuuyyyyytrrerrrrrrrrtrtiNLUYYTYTTTRTTTTTRRRTTRTTTTTTTRTTTTTRREEWWW",
"zxxxxcvvbbnmmMMNBBBBVZZAASSSDGGHJLIUYYYYTTRTTTTTRRRTTRTTTTTTRRTRRTRRREEWWPS"
};
