/* XPM */
static char *result[] = {
/* columns rows colors chars-per-pixel */
"75 75 217 2 ",
"   c #060606",
".  c #0A0A0A",
"X  c #0C0807",
"o  c #140E09",
"O  c #180907",
"+  c #1B150B",
"@  c #1A160A",
"#  c #080C15",
"$  c #080D1A",
"%  c #131313",
"&  c #1D1D1D",
"*  c #181715",
"=  c #0E1118",
"-  c #2A050A",
";  c #36050C",
":  c #291708",
">  c #351C06",
",  c #221E1E",
"<  c #2C191B",
"1  c #321117",
"2  c #3A2806",
"3  c #26221E",
"4  c #282217",
"5  c #372717",
"6  c #39311B",
"7  c #3A3207",
"8  c #060E23",
"9  c #081435",
"0  c #081026",
"q  c #242424",
"w  c #282828",
"e  c #2C2923",
"r  c #322E26",
"t  c #383527",
"y  c #333333",
"u  c #393939",
"i  c #3A3839",
"p  c #292B36",
"a  c #460303",
"s  c #530101",
"d  c #5C0407",
"f  c #470410",
"g  c #4C0D10",
"h  c #610007",
"j  c #6E010D",
"k  c #660012",
"l  c #7B0014",
"z  c #7A0217",
"x  c #70140F",
"c  c #472709",
"v  c #562B08",
"b  c #5E3007",
"n  c #523518",
"m  c #473112",
"M  c #653305",
"N  c #693508",
"B  c #753A06",
"V  c #7B3C06",
"C  c #75390A",
"Z  c #762311",
"A  c #6F2F0D",
"S  c #5A4801",
"D  c #4F430A",
"F  c #645403",
"G  c #715F0B",
"H  c #7B4A13",
"J  c #7D4409",
"K  c #7D6A13",
"L  c #494322",
"P  c #584A25",
"I  c #524833",
"U  c #645536",
"Y  c #63522B",
"T  c #776A31",
"R  c #081E57",
"E  c #081A48",
"W  c #18264F",
"Q  c #30364E",
"!  c #082061",
"~  c #09256F",
"^  c #0A297C",
"/  c #1C3479",
"(  c #2C3861",
")  c #3A4144",
"_  c #3B495B",
"`  c #474747",
"'  c #555855",
"]  c #6B6B6B",
"[  c #820016",
"{  c #850118",
"}  c #890118",
"|  c #8A0517",
" . c #94001A",
".. c #9C001B",
"X. c #940D19",
"o. c #8E1314",
"O. c #941618",
"+. c #A4001D",
"@. c #AA001E",
"#. c #B2001F",
"$. c #A1171A",
"%. c #813E07",
"&. c #873707",
"*. c #94390C",
"=. c #822C0B",
"-. c #B03F18",
";. c #960A25",
":. c #971321",
">. c #9C1331",
",. c #A00F2D",
"<. c #AA1536",
"1. c #B11A3C",
"2. c #B2293C",
"3. c #C1212A",
"4. c #894207",
"5. c #874608",
"6. c #944508",
"7. c #954808",
"8. c #994908",
"9. c #994409",
"0. c #9C530D",
"q. c #93530E",
"w. c #835415",
"e. c #944B12",
"r. c #A6550C",
"t. c #A9590C",
"y. c #B15512",
"u. c #806E17",
"i. c #816F1A",
"p. c #8A761C",
"a. c #A6610F",
"s. c #B6660F",
"d. c #A96817",
"f. c #BA6912",
"g. c #BA7715",
"h. c #8F5125",
"j. c #AD5A35",
"k. c #8C6E28",
"l. c #A36C22",
"z. c #C37513",
"x. c #CD7E16",
"c. c #C77519",
"v. c #D57B19",
"b. c #CE7B36",
"n. c #B91E43",
"m. c #C5294E",
"M. c #C33A4B",
"N. c #C82850",
"B. c #BF4547",
"V. c #BA7B40",
"C. c #857F74",
"Z. c #D25C55",
"A. c #CA4E4F",
"S. c #9A842C",
"D. c #91823B",
"F. c #A88D31",
"G. c #B88537",
"H. c #A99131",
"J. c #AF9836",
"K. c #B79F3B",
"L. c #B9A33E",
"P. c #CC881C",
"I. c #D28317",
"U. c #D58518",
"Y. c #D88818",
"T. c #D88818",
"R. c #DD9324",
"E. c #D98C28",
"W. c #E6A538",
"Q. c #9A8B41",
"!. c #A28344",
"~. c #BA9845",
"^. c #BE8942",
"/. c #B5A248",
"(. c #C99B4F",
"). c #D59C43",
"_. c #C5AD46",
"`. c #CBAB4B",
"'. c #CAB44B",
"]. c #D8B556",
"[. c #DAAA4D",
"{. c #F0B84F",
"}. c #E9BA59",
"|. c #F3BD59",
" X c #E9B04A",
".X c #DBC357",
"XX c #E5CD5E",
"oX c #F5C45D",
"OX c #F7C55C",
"+X c #F8C860",
"@X c #E8D060",
"#X c #0B2D87",
"$X c #0C3295",
"%X c #193789",
"&X c #0E37A4",
"*X c #0F39AA",
"=X c #143DAC",
"-X c #0F3DB5",
";X c #103FBC",
":X c #394B85",
">X c #1543BF",
",X c #1B47BE",
"<X c #224BBD",
"1X c #3155BC",
"2X c #3959B8",
"3X c #4B65B9",
"4X c #4F68B8",
"5X c #5068B8",
"6X c #5B6FB4",
"7X c #1040C0",
"8X c #8B8B8B",
"9X c #9A9A9A",
"0X c #999FB5",
"qX c #A4A4A4",
"wX c #FBFBFB",
"eX c gray90",
"rX c None",
/* pixels */
"rXrXrXrXrXrXrXrXrXrXrXrXrXrXrXrXrXrXrXrXrXrXrXrXrXrXrXrXrXrXrXrXrXrXrXrXrXrXrXrXrXrXrXrXrXrXrXrXrXrXrXrXrXrXrXrXrXrXrXrXrXrXrXrXrXrXrXrXrXrXrXrXrXrXrX",
"rXrXrXrXrXrXrXrXrXrXrXrXrXrXrXrXrXrXrXrXrXrXrXrXrXrXrXrXrXrXrXrXrXrXrXrXrXrXrXrXrXrXrXrXrXrXrXrXrXrXrXrXrXrXrXrXrXrXrXrXrXrXrXrXrXrXrXrXrXrXrXrXrXrXrX",
"rXrXrXrXrXrXrXrXrXrXrXrXrXrXrXrXrXrXrXrXrXrXrXrXrXrXrXrXrXrXrXrXrXrXrXrXrXrXrXrXrXrXrXrXrXrXrXrXrXrXrXrXrXrXrXrXrXrXrXrXrXrXrXrXrXrXrXrXrXrXrXrXrXrXrX",
"rXrXrXrXrXrXrXrXrXrXrXrXrXrXrXrXrXrXrXrXrXrXrXrXrXrXrXrXrXrXrXrXrXrXrX  rXrXrXrXrXrXrXrXrXrXrXrXrXrXrXrXrXrXrXrXrXrXrXrXrXrXrXrXrXrXrXrXrXrXrXrXrXrXrX",
"rXrXrXrXrXrXrXrXrXrXrXrXrXrXrXrXrXrXrXrXrXrXrXrXrXrXrXrXrXrXrXrXrXrXrX  rXrX  rXrXrXrXrXrXrXrXrXrXrXrXrXrXrXrXrXrXrXrXrXrXrXrXrXrXrXrXrXrXrXrXrXrXrXrX",
"rXrXrXrXrXrXrXrXrXrXrXrXrXrXrXrXrXrXrXrXrXrXrXrXrXrXrXrXrXrX. rXrXrX. . rXrX. rXrXrXrXrXrXrXrXrXrXrXrXrXrXrXrXrXrXrXrXrXrXrXrXrXrXrXrXrXrXrXrXrXrXrXrX",
"rXrXrXrXrXrXrXrXrXrXrXrXrXrXrXrXrXrXrXrXrXrXrXrXrXrXrXrXrXrX. rXrX. .   .     rXrX  rXrXrXrXrXrXrXrXrXrXrXrXrXrXrXrXrXrXrXrXrXrXrXrXrXrXrXrXrXrXrXrXrX",
"rXrXrXrXrXrXrXrXrXrXrXrXrXrXrXrXrXrXrXrXrXrXrXrXrXrXrXrXrXrX.   .     .   .   . . rXrX. rXrXrXrXrXrXrXrXrXrXrXrXrXrXrXrXrXrXrXrXrXrXrXrXrXrXrXrXrXrXrX",
"rXrXrXrXrXrXrXrXrXrXrXrXrXrXrXrXrXrXrXrXrXrXrXrXrXrXrX  rXrX  .   .   .   .     .   .   rXrXrXrXrXrXrXrXrXrXrXrXrXrXrXrXrXrXrXrXrXrXrXrXrXrXrXrXrXrXrX",
"rXrXrXrXrXrXrXrXrXrXrXrXrXrXrXrXrXrXrXrXrXrXrXrXrXrXrX. .   .   .   .   .   . .   . . rXrXrXrXrXrX. . . o X rXrXrXrXrXrXrXrXrXrXrXrXrXrXrXrXrXrXrXrXrX",
"rXrXrXrXrXrXrXrXrXrXrXrXrXrXrXrXrXrXrXrXrXrXrXrXrXrXrXrX  .   .   X   .   . .   .   rXrXrXrXrXrXo G /.@X_.p.@ X rXrXrXrXrXrXrXrXrXrXrXrXrXrXrXrXrXrXrX",
"rXrXrXrXrXrXrXrXrXrXrXrXrXrXrXrXrXrXrXrXrXrXrXrXrXrXrXrX  . . . . . X o o o   .   . .   rXrXrX+ F.}.}..XXXXXL.u.. rXrXrXrXrXrXrXrXrXrXrXrXrXrXrXrXrXrX",
"rXrXrXrXrXrXrXrXrXrXrXrXrXrXrXrXrXrXrXrXrXrXrXrXrXrXrXrXrX  . X   . c C b v .   .     . . rXrXO.m.N.A.F.`.`.]./.@ rXrXrXrXrXrXrXrXrXrXrXrXrXrXrXrXrXrX",
"rXrXrXrXrXrXrXrXrXrXrXrXrXrXrXrXrXrXrXrXrXrXrXrXrXrXrXrX. . > N o P G.v w.H . .   . .     L L .X~.Z.A.M.m.Z.G.`.K o rXrXrXrXrXrXrXrXrXrXrXrXrXrXrXrXrX",
"rXrXrXrXrXrXrXrXrXrXrXrXrXrXrXrXrXrXrXrXrXrXrXrXrXrXrX    . 7.%.* ).N p w.H . : .   . . @ '._.k./.'.'.^.A.m.N.j.H.@ rXrXrXrXrXrXrXrXrXrXrXrXrXrXrXrXrX",
"rXrXrXrXrXrXrXrXrXrXrXrXrXrXrXrXrXrXrXrXrXrXrXrXrXrXrXrXrX. v V v c _ 0Xk.w.2 0.o . %   7 2 7   o 7 Y D.`.(.2.;.h.o rXrXrXrXrXrXrXrXrXrXrXrXrXrXrXrXrX",
"rXrXrXrXrXrXrXrXrXrXrXrXrXrXrXrXrXrXrXrXrXrXrXrXrXrXrXrXrX    5.a.c p C.(.k.q.B * % q % . . - f f f ; @ T T h.j.| f rXrXrXrXrXrXrXrXrXrXrXrXrXrXrXrXrX",
"rXrXrXrXrXrXrXrXrXrXrXrXrXrXrXrXrXrXrXrXrXrXrXrXrXrXrXrXrXrX  4.U.f.l.~. XK m < w q w y w & s 1.<.z : % * * 6 P ; ; . rXrXrXrXrXrXrXrXrXrXrXrXrXrXrXrX",
"rXrXrXrXrXrXrXrXrXrXrXrXrXrXrXrXrXrXrXrXrXrXrXrXrXrXrXrX.     2 5.5.w.l.g.n % & u y & w y % z m.;.< & & q w & * . Q.. rXrXrXrXrXrXrXrXrXrXrXrXrXrXrXrX",
"rXrXrXrXrXrXrXrXrXrXrXrXrXrXrXrXrXrXrXrXrXrXrXrXrXrXrX  a a a . 7.g.c.f.b v 5 q q w w w . a n.;.z , & & & q w q & 6 /.  rXrXrXrXrXrXrXrXrXrXrXrXrXrXrX",
"rXrXrXrXrXrXrXrXrXrXrXrXrXrXrXrXrXrXrXrXrXrXrXrXrXrX  . s [ X # o + + + 2 B 5 y 3 , , . . { N.{ 3 q q q , q w w w . H.  rXrXrXrXrXrXrXrXrXrXrXrXrXrXrX",
"rXrXrXrXrXrXrXrXrXrXrXrXrXrXrXrXrXrXrXrXrXrXrXrXrXX & . [ } & , M 5.b : B J f.[.e q % # & } N.{ w w i i p q w y w & * S.. rXrXrXrXrXrXrXrXrXrXrXrXrXrX",
"rXrXrXrXrXrXrXrXrXrXrXrXrXrXrXrXrXrXrXrXrXrXrXrX  . & % { { & M N 8.A : V V  XU & % % . % { N.3 , w w p u y & q u w   H.. rXrXrXrXrXrXrXrXrXrXrXrXrXrX",
"rXrXrXrXrXrXrXrXrXrXrXrXrXrXrXrXrXrXrXrXrXrXrXrX  & w . } { & 3 4 N c : V B x.m % w & & & { } & , , , q w y w q w w 3 . rXrXrXrXrXrXrXrXrXrXrXrXrXrXrX",
"rXrXrXrXrXrXrXrXrXrXrXrXrXrXrXrXrXrXrXrXrXrXrXrX  w & . { { & Y.Y.I.N o > :   * w w & , , { { u u w w w , , y w w w & . rXrXrXrXrXrXrXrXrXrXrXrXrXrXrX",
"rXrXrXrXrXrXrXrXrXrXrXrXrXrXrXrXrXrXrXrXrXrXrX  & w & % { s , q 8.Y.z.*.4.s.Y.n & & & , & s { 3 u u u y w q w w & w & . rXrXrXrXrXrXrXrXrXrXrXrXrXrXrX",
"rXrXrXrXrXrXrXrXrXrXrXrXrXrXrXrXrXrXrXrXrXrXrX  & w & q { s , , 3 6 Y.T.T.T.OXY }.r , } , s { g w w u u p w w w 3 q & & . rXrXrXrXrXrXrXrXrXrXrXrXrXrX",
"rXrXrXrXrXrXrXrXrXrXrXrXrXrXrXrXrXrXrXrXrXrXrX  & & & & & s , O.|.OXz.t.T.W.oXoXe w w I.w s { s w w w w w w w q w w , , . rXrXrXrXrXrXrXrXrXrXrXrXrXrX",
"rXrXrXrXrXrXrXrXrXrXrXrXrXrXrXrXrXrXrXrXrXrXrX  & & , & = { s }.X.{.z.r.T.W.+XU , q |.w r , } { & w w w w w w w w w & &   rXrXrXrXrXrXrXrXrXrXrXrXrXrX",
"rXrXrXrXrXrXrXrXrXrXrXrXrXrXrXrXrXrXrXrXrXrXrX  . & , , w { s I.O.X.s.r.T.E.1. .O.E.E.I g.q l z & & & & w w q w w q w q % rXrXrXrXrXrXrXrXrXrXrXrXrXrX",
"rXrXrXrXrXrXrXrXrXrXrXrXrXrXrXrXrXrXrXrXrXrXrXrX. & q & & z s R.v.#.o.r.c.-.@.$.P.].].].& w s z o . & & & & & q w w w w & . rXrXrXrXrXrXrXrXrXrXrXrXrX",
"rXrXrXrXrXrXrXrXrXrXrXrXrXrXrXrXrXrXrXrXrXrXrXrX  . * & *   } !.f.O.+...+... .b.V.w q q n m 5 s { ; % * * & & q w w y y w q . rXrXrXrXrXrXrXrXrXrXrXrX",
"rXrXrXrXrXrXrXrXrXrXrXrXrXrXrXrXrXrXrXrXrXrXrXrX  % % & * X } 5 7.=. .#.+...o.y.n m m 5 %.4.M d l l - - . = * & w w w u w w % rXrXrXrXrXrXrXrXrXrXrXrX",
"rXrXrXrXrXrXrXrXrXrXrXrXrXrXrXrXrXrXrXrXrXrXrXrX. & & & o ; } M B g  .#.l h B B B B A M M N M 5 s } ;.>.k ; . & q q w p u y q . rXrXrXrXrXrXrXrXrXrXrX",
"rXrXrXrXrXrXrXrXrXrXrXrXrXrXrXrXrXrXrXrXrXrXrX  * q w & . s { M c A | +.l k x =.%.%.%.%.%.a.a., g j ;.n.} k X * & w w w u y w % rXrXrXrXrXrXrXrXrXrXrX",
"rXrXrXrXrXrXrXrXrXrXrXrXrXrXrXrXrXrXrXrXrXrXrX  & w q , . s { : c *. .@.j [ ..y.x.x.x.x.x.U.t & & < j ,.,.} s O & & w w w w w q   rXrXrXrXrXrXrXrXrXrX",
"rXrXrXrXrXrXrXrXrXrXrXrXrXrXrXrXrXrXrXrXrXrX  . & , & q . l } & c *.+. .{ { ,.$.r.U.Y.t.{.{.l.V C 3 h ;.<.} l s % & q & w w y y *   rXrXrXrXrXrXrXrXrX",
"rXrXrXrXrXrXrXrXrXrXrXrXrXrXrXrXrXrXrXrXrXrX& & & , % #   { s 3 &.| l Z I.e.[ #.| 7.8.U.OXOXY.T.x.%.k ;.m.<.} -   & q w w w u u q   rXrXrXrXrXrXrXrXrX",
"rXrXrXrXrXrXrXrXrXrXrXrXrXrXrXrXrXrXrXrXrXrX& & & & & % . } s , X.@.A I.s.Z &.o.#. .8.Y.+X+XOXI.8.4.h ;.m.<.h - & q w w & w w w w   rXrXrXrXrXrXrXrXrX",
"rXrXrXrXrXrXrXrXrXrXrXrXrXrXrXrXrXrXrXrX  % & & q & & .   s s , } [ x 8.8.8.9.9.| } 8.8.+X+X+XU.8.8.*.} <.<.h O q w q w & w w w & &   rXrXrXrXrXrXrXrX",
"rXrXrXrXrXrXrXrXrXrXrXrXrXrXrXrXrXrXrXrX  % w , , q & % . s 7.6.| 8.t.T.T.f.B 4.I.o.} T.8.Y.OXY.I.8.&.h } } - * w & w & w & q w & &   rXrXrXrXrXrXrXrX",
"rXrXrXrXrXrXrXrXrXrXrXrXrXrXrXrXrXrXrXrX* q w q & & & . . . M 8.8.6.B t.Y.Y.J 5.I.T.Y.7.M Y.Y.Y.I.8.=.h { j X & w & w w u & & & , *   rXrXrXrXrXrXrXrX",
"rXrXrXrXrXrXrXrXrXrXrXrXrXrXrXrXrXrXrXrX= q , & % * & .   . M 8.8.6.M B 8.8.8.8.8.8.8.8.8.M Y.I.8.7.7.&.s s O & w w w u u w & q w &   rXrXrXrXrXrXrXrX",
"rXrXrXrXrXrXrXrXrXrXrXrXrXrXrXrXrXrXrX. q w q & % & % % . rX  8.8.4.B t.Y.T.J M I.T.T.T.8.M Y.I.9.7.7.8.8.%.+ * w w w u u u & & w &   rXrXrXrXrXrXrXrX",
"rXrXrXrXrXrXrXrXrXrXrXrXrXrXrXrXrXrXrX. q q & * & & % . rXrX. b 5.6.N r.v.I.r.B x.I.I.x.M M OXT.8.8.7.7.B 2   * q w w w u w & q w &   rXrXrXrXrXrXrXrX",
"rXrXrXrXrXrXrXrXrXrXrXrXrXrXrXrXrXrXrX% q q q & & & %   rXrXrX. W H Q 8.8.8.8.8.8.8.0.0.0.M OXT.8.8.6.4.:   rX  w w w q u w q & w , *   rXrXrXrXrXrXrX",
"rXrXrXrXrXrXrXrXrXrXrXrXrXrXrXrXrXrX. & & & & & & % %   rXrXrXrX, W i 0.I.P.a.0.P.P.{.}.P.Q g.g.7.5.S 2 rXrXrX  q w w & w & w q q , &   rXrXrXrXrXrXrX",
"rXrXrXrXrXrXrXrXrXrXrXrXrXrXrXrXrXrX. % q & q & & % . . rXrXrXrXJ.F u.u.F.L.L.J.L.K.L.K.L.K.u.G G S 2   rXrXrX  & q w & & & w w w w *   rXrXrXrXrXrXrX",
"rXrXrXrXrXrXrXrXrXrXrXrXrXrXrXrXrXrX. % & q & & & # . rXrXrXrXu..XD L./.L.L.L.L.L.L.L./.L.L./.p.p.D   rXrXrXrX  & w e w q w w w w q *   rXrXrXrXrXrXrX",
"rXrXrXrXrXrXrXrXrXrXrXrXrXrXrXrX  * & & & & & * = . . rXrXrXrX'./.# t u ) ) _ _ ' _ _ _ _ ' _ _ ' ) . rXrXrXrX  * w p y q w w w w w *   rXrXrXrXrXrXrX",
"rXrXrXrXrXrXrXrXrXrXrXrXrXrXrX  = q q * * * & * % .   rXrXrXF @XS.# $X$X&X#X-X>X4X1X1X1X2X4X1X1X3X&X  rXrXrX  % * q y y w w w w w w &   rXrXrXrXrXrXrX",
"rXrXrXrXrXrXrXrXrXrXrXrXrXrX  & w & & * * & & & & % . rXrXrX/.K 6 R 7X*X&X-X#X^ <X<X<X/ / <X<X5X4X2X(   rX. w y y y q w w w w q w & #   rXrXrXrXrXrXrX",
"rXrXrXrXrXrXrXrXrXrXrXrXrXrX. & q = & * * * & & & %   rXrXm L.p.# $X,X1X$X^ 9 8 ~ ^ ^ ! &X7X2X4X<X<X%X  % w u u u u w q w q w w w & %   rXrXrXrXrXrXrX",
"rXrXrXrXrXrXrXrXrXrXrXrXrX. & . , & * % % % % % % . . rXrX.XH.* >X3X2X>X! ! R 8 # R ! -X7X7X5X5X3X4X:X% y u u p w u u w w w w w w q *   rXrXrXrXrXrXrX",
"rXrXrXrXrXrXrXrXrXrXrXrXrX  & . & & %         .       rXrX@XH.# >X2X>X>X#X! 0 . rX# # ~ ;X7X,X5X3X,X%X% w w q , w w u w w w w w w q &   rXrXrXrXrXrXrX",
"rXrXrXrXrXrXrXrXrXrXrXrXrX. & . % & w w % . & . % & %   rXH.. >X3X>X>X$X! 9 rXrXrXrXrX  ! 7X7X5X4X4X:X% q * % * & w u u w w & w w w *   rXrXrXrXrXrXrX",
"rXrXrXrXrXrXrXrXrXrXrXrXrX  ,   % % & & & % & q . & &   rXF . 7X3X>X&X! 9   rXrXrXrXrXrX. 7X7X4X4X4X:X* * * q % & w w u w w & q 3 w *   rXrXrXrXrXrXrX",
"rXrXrXrXrXrXrXrXrXrXrXrXrX. & %         .   . & % % &   rX. 7X4X>X>X! E rXrXrXrXrXrXrXrXrX. ! 7X7X6XqX] # * q % % q w u w w & w # w *   rXrXrXrXrXrXrX",
"rXrXrXrXrXrXrXrXrXrXrXrXrXrX  ,   % . . * * # . . % %   . 9X9X9X8X# E   rXrXrXrXrXrXrXrXrXrX. ,XqXwXwXeX` % % & % & w w w w & w % & &   rXrXrXrXrXrXrX",
"rXrXrXrXrXrXrXrXrXrXrXrXrXrX  % % & % . * . % % . . . rX. . . . ' 9X)   rXrXrXrXrXrXrXrXrXrX  qXwX8X.     % & w & & w w q q & & & & *   rXrXrXrXrXrXrX",
"rXrXrXrXrXrXrXrXrXrXrXrXrXrXrX. % . . % . . % . .   rXrX  , , . % `   rXrXrXrXrXrXrXrXrXrXrX  '   . q w & *   * & w & % & & & q & &   rXrXrXrXrXrXrXrX",
"rXrXrXrXrXrXrXrXrXrXrXrXrXrXrXrX. .   . .     rXrXrXrXrX  & , # %   rXrXrXrXrXrXrXrXrXrXrXrXrX.   . & w q % rX    & & % q & & & .   rXrXrXrXrXrXrXrXrX",
"rXrXrXrXrXrXrXrXrXrXrXrXrXrXrXrXrXrXrXrXrXrXrXrXrXrXrXrX  8 & & q & . rXrXrXrXrXrXrXrXrXrXrXrXrXrXrX. q w q . rXrX              rXrXrXrXrXrXrXrXrXrXrX",
"rXrXrXrXrXrXrXrXrXrXrXrXrXrXrXrXrXrXrXrXrXrXrXrXrXrXrXrXrX  % & w & * . rXrXrXrXrXrXrXrXrXrXrXrXrXrX. & q w % rXrXrXrXrXrXrXrXrXrXrXrXrXrXrXrXrXrXrXrX",
"rXrXrXrXrXrXrXrXrXrXrXrXrXrXrXrXrXrXrXrXrXrXrXrXrXrXrXrXrXrX. & w w *   rXrXrXrXrXrXrXrXrXrXrXrXrXrXrX. q y % rXrXrXrXrXrXrXrXrXrXrXrXrXrXrXrXrXrXrXrX",
"rXrXrXrXrXrXrXrXrXrXrXrXrXrXrXrXrXrXrXrXrXrXrXrXrXrXrXrXrXrX  . & w %   rXrXrXrXrXrXrXrXrXrXrXrXrXrXrXrX* w & rXrXrXrXrXrXrXrXrXrXrXrXrXrXrXrXrXrXrXrX",
"rXrXrXrXrXrXrXrXrXrXrXrXrXrXrXrXrXrXrXrXrXrXrXrXrXrXrXrXrXrXrX. & q   rXrXrXrXrXrXrXrXrXrXrXrXrXrXrXrXrX. & y % rXrXrXrXrXrXrXrXrXrXrXrXrXrXrXrXrXrXrX",
"rXrXrXrXrXrXrXrXrXrXrXrXrXrXrXrXrXrXrXrXrXrXrXrXrXrXrXrXrXrXrX. & &   rXrXrXrXrXrXrXrXrXrXrXrXrXrXrXrXrX  * y q   rXrXrXrXrXrXrXrXrXrXrXrXrXrXrXrXrXrX",
"rXrXrXrXrXrXrXrXrXrXrXrXrXrXrXrXrXrXrXrXrXrXrXrXrXrXrXrXrXrX. & & &   rXrXrXrXrXrXrXrXrXrXrXrXrXrXrXrXrX  * i p . rXrXrXrXrXrXrXrXrXrXrXrXrXrXrXrXrXrX",
"rXrXrXrXrXrXrXrXrXrXrXrXrXrXrXrXrXrXrXrXrXrXrX      rXrXrX  & & q &   rXrXrXrXrXrXrXrXrXrXrXrXrXrXrXrXrX% & i u q   rXrXrXrXrXrXrXrXrXrXrXrXrXrXrXrXrX",
"rXrXrXrXrXrXrXrXrXrXrXrXrXrXrXrXrXrXrXrXrXrX  * & .   .   q q w w & *   rXrXrXrXrXrXrXrXrXrXrXrXrXrXrXrX% q w y u q . rXrXrXrXrXrXrXrXrXrXrXrXrXrXrXrX",
"rXrXrXrXrXrXrXrXrXrXrXrXrXrXrXrXrXrXrXrXrXrX  & w &   q q w w w q , *   rXrXrXrXrXrXrXrXrXrXrXrXrXrXrXrXq u q w w w w . rXrXrXrXrXrXrXrXrXrXrXrXrXrXrX",
"rXrXrXrXrXrXrXrXrXrXrXrXrXrXrXrXrXrXrXrXrXrX  & & q & q & q & & & q *   rXrXrXrXrXrXrXrXrXrXrXrXrXrXrXrXq u w , i w i q   rXrXrXrXrXrXrXrXrXrXrXrXrXrX",
"rXrXrXrXrXrXrXrXrXrXrXrXrXrXrXrXrXrXrXrXrXrXrX        .   .   .   .   rXrXrXrXrXrXrXrXrXrXrXrXrXrXrXrXrX& w w q u w u w . rXrXrXrXrXrXrXrXrXrXrXrXrXrX",
"rXrXrXrXrXrXrXrXrXrXrXrXrXrXrXrXrXrXrXrXrXrXrXrXrXrXrXrXrXrXrXrXrXrXrXrXrXrXrXrXrXrXrXrXrXrXrXrXrXrXrXrX  .   . . .     rXrXrXrXrXrXrXrXrXrXrXrXrXrXrX"
};
