/* XPM */
static char *result[] = {
/* columns rows colors chars-per-pixel */
"75 75 255 2 ",
"   c #070609",
".  c #16080A",
"X  c #070617",
"o  c #0B0C13",
"O  c #160B1A",
"+  c #0F1018",
"@  c #13131B",
"#  c #181418",
"$  c #280908",
"%  c #2D1413",
"&  c #241418",
"*  c #33251A",
"=  c #0E0D23",
"-  c #0A0926",
";  c #140E25",
":  c #171625",
">  c #14132B",
",  c #1D1C2C",
"<  c #0E1033",
"1  c #1A1836",
"2  c #271A26",
"3  c #2D1927",
"4  c #221D38",
"5  c #2C222C",
"6  c #3B2428",
"7  c #232234",
"8  c #29283A",
"9  c #352A37",
"0  c #393131",
"q  c #4A1011",
"w  c #680407",
"e  c #760A0A",
"r  c #472416",
"t  c #592815",
"y  c #513316",
"u  c #723419",
"i  c #471926",
"p  c #452826",
"a  c #572B23",
"s  c #553929",
"d  c #483530",
"f  c #463836",
"g  c #70322A",
"h  c #524836",
"j  c #564834",
"k  c #6A4D23",
"l  c #734E31",
"z  c #161746",
"x  c #201B43",
"c  c #1A274A",
"v  c #2B2A46",
"b  c #322D47",
"n  c #38374A",
"m  c #3A3A56",
"M  c #152A64",
"N  c #43384A",
"B  c #563941",
"V  c #423E54",
"C  c #443F62",
"Z  c #3F425A",
"A  c #274F77",
"S  c #564648",
"D  c #474659",
"F  c #544655",
"G  c #53525D",
"H  c #6B504C",
"J  c #6A5455",
"K  c #75694A",
"L  c #484866",
"P  c #4D4D6C",
"I  c #58566A",
"U  c #585877",
"Y  c #705A6B",
"T  c #696678",
"R  c #726872",
"E  c #8E090D",
"W  c #A71715",
"Q  c #AE1A12",
"!  c #883017",
"~  c #B03117",
"^  c #A71927",
"/  c #8A352E",
"(  c #B93729",
")  c #AE3530",
"_  c #CB2D15",
"`  c #C83619",
"'  c #FE370D",
"]  c #CB3926",
"[  c #844B19",
"{  c #AE5813",
"}  c #8E5130",
"|  c #885635",
" . c #B05637",
".. c #936E31",
"X. c #AF6836",
"o. c #CE5318",
"O. c #FF4406",
"+. c #FF5901",
"@. c #FF4A1A",
"#. c #FE5913",
"$. c #FD6805",
"%. c #FE7906",
"&. c #F96815",
"*. c #D5532D",
"=. c #D9532B",
"-. c #FC5724",
";. c #EC5532",
":. c #DE6B35",
">. c #FC6828",
",. c #E36B38",
"<. c #F57335",
"1. c #CD3F48",
"2. c #8B504C",
"3. c #AF5848",
"4. c #916D52",
"5. c #AF6F50",
"6. c #B77456",
"7. c #A35C6D",
"8. c #916E6B",
"9. c #B07969",
"0. c #D0524D",
"q. c #CA6D52",
"w. c #FC6848",
"e. c #E97748",
"r. c #F97847",
"t. c #FA7556",
"y. c #C46E6F",
"u. c #F47E6C",
"i. c #A88430",
"p. c #FF8802",
"a. c #FD9804",
"s. c #FC9017",
"d. c #D5B31C",
"f. c #FFA901",
"g. c #FFB402",
"h. c #FFBC02",
"j. c #FFB208",
"k. c #FBAC17",
"l. c #CE8F2B",
"z. c #F3922C",
"x. c #FD8834",
"c. c #EA9A39",
"v. c #F0A63A",
"b. c #FFC605",
"n. c #FFD805",
"m. c #FFCE15",
"M. c #FEE806",
"N. c #FFF20E",
"B. c #FFE918",
"V. c #FCCF2C",
"C. c #FFEF2D",
"Z. c #B68D52",
"A. c #A68769",
"S. c #A49061",
"D. c #B8906C",
"F. c #C28659",
"G. c #D29554",
"H. c #E68948",
"J. c #FC8549",
"K. c #F6964F",
"L. c #E28A57",
"P. c #E89653",
"I. c #C8A954",
"U. c #F1A94C",
"Y. c #EEA55B",
"T. c #F4B85C",
"R. c #C88964",
"E. c #CF9470",
"W. c #FC8767",
"Q. c #EE976D",
"!. c #FE8C79",
"~. c #F99778",
"^. c #D3AB73",
"/. c #F4AB62",
"(. c #F4B66A",
"). c #E8A778",
"_. c #F1B073",
"`. c #F8DA58",
"'. c #FDF057",
"]. c #ECC970",
"[. c #F6C577",
"{. c #FEF673",
"}. c #235F9C",
"|. c #176CA7",
" X c #405C9F",
".X c #536E91",
"XX c #706C8A",
"oX c #7A7895",
"OX c #5076B5",
"+X c #7C7AA1",
"@X c #897689",
"#X c #6889BD",
"$X c #299CE5",
"%X c #7090C9",
"&X c #66ADF2",
"*X c #28C1FA",
"=X c #8E8896",
"-X c #948A99",
";X c #AA9290",
":X c #B8A585",
">X c #9491AF",
",X c #A290A8",
"<X c #B0AAB2",
"1X c #C49395",
"2X c #FB9886",
"3X c #CEAB89",
"4X c #D8A984",
"5X c #F0AC89",
"6X c #E8B789",
"7X c #FAA799",
"8X c #E9BA95",
"9X c #FAB799",
"0X c #D2B4A9",
"qX c #F5AEA5",
"wX c #F8B4A7",
"eX c #F4BBB3",
"rX c #D7C59F",
"tX c #F7CC84",
"yX c #F0CA94",
"uX c #F9ED88",
"iX c #E9C9A7",
"pX c #F7D3A4",
"aX c #F0CFB3",
"sX c #F8C6BA",
"dX c #F7F0B7",
"fX c #979DC8",
"gX c #ADB0CB",
"hX c #C2BFCA",
"jX c #B2C0DA",
"kX c #C8C5CA",
"lX c #D5D0CE",
"zX c #DBD8DA",
"xX c #F8CCC5",
"cX c #ECD9C7",
"vX c #F7D3CB",
"bX c #EADAD8",
"nX c #F7DAD5",
"mX c #F0E7D1",
"MX c #F9E3DB",
"NX c #D2D8E2",
"BX c #E9E4E4",
"VX c #EDEDED",
"CX c #F7E9E7",
"ZX c #FCECEB",
"AX c #EDF0EC",
"SX c #F4F1ED",
"DX c #EDEEF0",
"FX c #F8EFF2",
"GX c #EEF1F3",
"HX c #EEF5F9",
"JX c #F4F4F4",
"KX c #FBF7F6",
"LX c #F4F7F9",
"PX c #F5FAFC",
"IX c #FCFCFC",
/* pixels */
"JXJXLXKXJXJXKXLXJXKXIXJXJXKXLXJXLXKXJXJXLXLXVXLXIXJXJXKXKXJXJXKXLXJXKXIXGXJXKXLXDXIX2X-.MXPXLXSXLXIXJXJXIXKXVXJXIXJXGXKXKXGXLXKXLXDXKXKXJXJXIXJXDXKXKX",
"VXVXKXIXVXJXIXLXVXKXIXDXJXIXLXVXKXIXDXJXIXKXVXKXIXJXVXIXIXVXJXIXJXVXIXIXVXJXIXLXDXIXnXO.w.KXKXVXKXIXVXJXIXKXVXLXIXJXVXIXIXDXLXIXJXVXIXIXVXSXIXJXVXKXIX",
"IXIXJXGXIXKXVXJXIXJXVXIXKXVXJXIXJXVXIXIXDXJXIXJXVXIXIXDXSXIXLXVXPXZXeXCXIXIXGXIXZXxXSX7X&.wXPXIXJXDXKXIXVXLXIXLXVXKXIXSXJXIXKXVXLXIXJXSXIXKXDXLXIXLXVX",
"IXKXJXJXIXLXSXLXIXJXGXKXIXSXJXIXJXJXKXKXSXLXIXJXGXKXKXJXJXIXJXJXPXwXu.nXnXwXeXxX2XwXxX7XsXnXPXIXJXJXKXPXSXJXIXJXJXLXKXJXJXKXLXJXLXKXJXJXKXPXJXLXIXLXJX",
"VXVXIXIXVXSXIXKXVXKXIXVXDXIXKXVXKXIXDXVXIXKXVXLXIXJXVXIXIXVXJXIXJXAXIXPXvX7Xt.' ' <.KXu.@.7XPXVXKXIXVXDXIXKXVXJXIXJXVXIXIXVXSXIXJXVXIXIXVXSXIXJXVXJXIX",
"LXLXJXLXJXLXLXKXLXLXKXLXLXLXLXJXJXLXLXLXKXJXJXKXLXLXJXLXJXLXJXLXJXKXSXAXHXPXPXvX!.@.!.qX7XO.xXPXJXCXLXLXKXLXLXJXKXJXLXLXLXLXLXKXLXLXJXJXLXLXKXLXJXJXLX",
"IXIXJXVXIXIXVXJXIXJXVXIXIXVXJXIXJXVXIXIXVXJXIXLXVXKXIXVXDXIXKXVXPXIXlXyXrXmXBXPXKXeXw.O.t.&.@.vXJX2XZXPXVXJXIXKXVXKXIXDXDXIXKXVXLXIXVXVXIXIXVXJXIXLXVX",
"JXJXLXKXJXJXKXLXSXLXKXJXJXKXLXJXPXKXJXJXKXLXSXLXKXJXLXKXKXJXLXKXKXBX/.U.T.,.L.6XrXcXbXt.+.p.$.t.CXnXLXJXKXLXJXLXKXJXJXKXKXJXJXLXJXJXKXKXJXJXKXLXJXKXKX",
"VXVXIXIXVXJXIXLXVXKXIXSXJXIXPXVXPXIXDXDXIXIXVXKXIXGXSXPXPXVXKXIXHX8X:.:.Y.(.*._ ` o.,.P.z.a.p.-.ZX!.cXHXIXKXVXJXIXJXVXIXIXVXJXIXJXVXKXIXVXJXIXKXVXJXIX",
"IXIXJXDXIXKXDXJXIXJXDXIXKXDXLXIXJXVXIXIXDXJXIXJXGXKXIXGXFXIXKXFXcXH.=.:.H.].tXL.` Q ` o.P.v.%.#.7X;.7XIXVXLXIXKXVXPXKXJXJXIXLXDXKXIXGXJXIXLXDXLXIXLXSX",
"IXIXJXGXIXKXDXKXIXJXDXIXKXDXJXIXLXSXIXKXSXLXIXJXSXLXSXAXGXIXLXlXe.=.=.:.H.Y.(.tXtXL.H.H.].K.>.7XW.O.W.PXSXLXIXJXJXLXIXSXJXIXKXVXPXIXJXSXKXPXVXKXIXJXDX",
"VXVXKXIXVXJXIXJXVXKXIXDXJXIXKXVXKXIXSXDXIXKXVXLXIXBXcXiXiXiX0Xu.] =.*.,.H.P.Y.(._.tXtXtX(.5XFXHX~.$.wXJXIXLXVXJXIXJXVXIXIXVXLXIXJXVXKXIXVXJXIXLXVXKXIX",
"JXLXKXKXJXJXKXLXSXLXKXLXLXLXJXJXKXPXJXLXKXLXJXLXKXDXcX[.P.*.W 0.~ ] =.,.e.P.P.U.(.[.(.T.U.H.nXIXCXr.MXHXKXLXJXLXKXLXJXKXKXLXLXKXLXJXLXKXJXLXKXJXJXKXLX",
"IXIXGXVXIXIXVXJXIXJXVXIXIXVXJXIXGXVXPXIXVXJXIXJXVXIXBXyX(.*.W ^ 0.( ] 7.<XjX0XH././.U.P.c.$.&.9XLXsXZXIXVXJXIXKXVXKXIXVXVXIXKXVXKXIXDXVXIXKXVXLXIXLXVX",
"LXLXLXKXJXLXKXJXLXLXKXLXLXKXKXJXKXKXJXLXLXJXGXKXLXKXSXcXtXL.( E 1.) ) OX$X$X&X#XP.G.E.8XG.<.a.$.vXPXLXJXKXLXJXJXPXLXJXLXKXJXJXLXJXJXLXKXLXJXKXLXJXKXKX",
"VXVXKXIXVXJXIXLXVXKXIXVXSXIXLXVXKXIXDXGXIXKXVXKXIXSXDXSXdX[.e.] E ^ 7.}.}.*X$X#X5.=X&X&X;X8X-.Q.ZXIXVXSXIXLXVXJXIXJXVXIXIXVXJXIXJXVXKXIXVXJXIXJXVXLXIX",
"IXIXJXJXKXKXDXLXIXJXDXKXIXSXJXIXJXSXIXPXDXJXIXJXSXKXPXKX<X6X].,.( W 2.#X|.|.M OX7.OX|.|.OXq.Y.aXxX7XPXKXSXLXIXKXGXKXIXDXJXIXKXDXKXKXJXJXKXPXDXJXIXLXSX",
"IXIXJXDXIXPXDXJXIXJXVXIXKXVXJXIXLXVXIXKXDXJXIXLXAXPXPXIXH } 6X[.J.*.) <XfX#X#X+Xy.}.}.OX X .:.T.).+.sXPXDXLXIXFXbXPXIXDXDXIXKXDXLXIXJXVXIXLXDXJXIXKXVX",
"DXVXKXIXVXSXIXKXVXLXIXDXJXIXPXVXKXIXJXVXIXKXVXJXIXJXHX;X. 5.2.H 6X/.,.0.,X>X@XW ^ OX%X%X@XQ =.v.].%.W.PXIXKXCXJXW.vXGXIXIXVXLXIXJXVXIXIXVXJXIXLXVXKXIX",
"JXSXPXKXJXLXKXLXJXKXIXJXJXKXLXJXLXKXJXJXKXLXJXKXKXPX<XS 6 ^.|   & A._.t.=.] Q Q ^ 2.%X%X .] :.c.].wXwXPXPXPXqXvXw.u.PXKXKXJXLXIXJXJXKXKXJXJXKXLXJXLXIX",
"IXIXJXVXIXIXVXJXIXJXVXIXIXVXLXIXJXVXIXKXVXJXIXLXVXIXKX<X8.E.|     o H E.Q.r.=.] ` ~ ( ] ` *.,.c._.bXIXIXVXPXW.~.>.#.ZXDXDXIXKXVXLXIXSXDXIXKXVXKXIXJXVX",
"KXJXLXPXLXJXKXJXLXLXJXJXJXJXLXJXLXLXJXJXLXKXJXLXLXLXkXS :XZ.9.. $ r I R 2.Z.P.r.;.=.*.;.e.H.P.(.Y.cXCXCXJXPXQ.%.$.O.xXPXKXJXLXLXLXJXLXLXLXJXJXJXJXLXLX",
"VXVXKXIXVXDXIXLXVXPXIXVXSXIXKXVXKXIXqXxXIXKXVXJXIXJXDXmXiXrXiX4.2.j ^.:X6.5.4.9.E.L.R.Q.^._.].V.&.ZXnX7XIXLXBXK.<.wXBXIXIXVXJXIXJXVXIXIXVXJXIXLXVXJXIX",
"IXKXJXJXKXKXSXLXKXJXJXKXKXJXLXPXJXJXKXKXJXJXKXJXSXPXKXcX6X8X8X).Z.9.dXpX8X5XE.D.4.# u <.k.M.M.f.<.eX7Xw.CXJXIXvX<.xXsXLXJXKXKXJXLXKXJXJXKXKXJXLXKXLXJX",
"IXIXJXVXIXKXVXLXIXJXVXIXIXVXJXIXJXBXxXZXJXJXIXJXDXIXKXaX6XE.).q.6.8XdXpX9XpXpXpX9.  { g.b.h.j.p.&.#.#.-.bXLXIXnXk.r.2XHXGXIXPXAXKXIXSXDXIXIXVXLXIXLXVX",
"GXVXKXIXVXJXIXPXDXKXIXSXJXIXKXGXnX!.w.t.wXnXDXIXMX3.0X8X6X6.5...Z.6X3XyX4XyXpXpXH 3 4.z.>.>.%.a.a.h.%.W.IXPXcX2Xx.7XvXIXIXDXJXIXLXVXKXIXVXJXIXJXVXKXIX",
"JXJXKXIXJXJXIXKXDXLXIXJXJXPXKXJXwX2Xp.s.<.sXGXPXQ.w E.6X8X3...y | 9.8X4X3X4XE.K i 4 4.c.xXnX%.m.M.b.%.xXIXCX-.W.nXIXJXKXKXJXLXIXLXDXKXKXJXJXIXJXDXKXIX",
"IXIXGXDXIXKXVXJXIXJXVXIXKXVXJXIXFXVXx.T.VXDXIXbX_ e 5.6XD.t ... k | R.6X4XE.6 i # 5 ..F.IXcXp.M.b.p.wXIXVXt.' sXaX9XIXDXVXIXKXVXKXIXJXVXIXKXVXLXIXJXVX",
"KXPXLXJXKXLXLXJXKXLXLXKXLXJXLXLXLXPXvXK.CXKXPX2XE w e ! % . t * r 3.2.3.5.3.g i = a t R.PX~.a.M.f.%.9XwXx.p.+.W.xXsXPXLXLXKXLXJXLXLXJXLXKXLXJXLXKXLXJX",
"VXVXIXIXVXDXIXJXVXKXIXVXJXIXLXVXKXIXGXBXIXIXFXq.e w w E e w ! I.* ^ 0.( q.1.^ ; ; u u E.pX%.g.M.n.f.p.p.f.h.+.7XIXJXVXIXIXVXJXIXJXVXIXIXVXSXIXLXVXLXIX",
"KXKXLXJXKXPXJXJXKXLXJXKXKXJXJXIXLXJXKXIXCXCXVX2.e w w w E E Z.Z.0 X.)  .W ) q.p ; a I.iXr.%.b.N.N.h.n.M.n.p.<.CXLXKXKXJXLXKXLXJXPXKXJXJXKXLXJXLXKXJXJX",
"IXIXJXVXIXKXVXLXIXJXVXIXKXVXJXIXJXVXIXIXbXt.E.F q w w w E w j 6 f I.^.5.q.F.8X5.O ; d ].K.p.b.N.B.M.M.n.h.$.2XPXVXKXIXVXSXIXKXVXKXIXVXJXIXKXVXKXIXJXVX",
"JXDXPXIXDXJXIXJXDXKXKXJXJXIXKXVXKXIXJXGXIXcX4.8 = O q w q ; < z f ..4.E.pXE.D.E.& 3 i X.a.f.h.B.C.B.N.h.p.#.qXLXIXJXDXIXKXDXJXIXJXVXKXIXDXJXIXJXDXLXIX",
"VXDXKXKXDXSXIXLXVXPXIXGXJXIXLXSXKXPXDXJXFX3XF 4 ; - < = - < 1 x z t | 4.rXS.} Z.% u o.f.j.b.k.C.B.B.b.%.r.xXDXJXIXJXDXIXIXDXJXIXJXJXIXKXVXJXIXJXSXKXIX",
"IXIXJXVXIXIXVXJXIXLXVXIXKXVXJXIXJXVXIXIXCX9.9 > = = < - X ; 4 1 z 3 [ u S.4.[ F.u l.j.b.h.C.B.M.f.f.p.J.DXPXIXLXVXLXIXDXJXIXKXVXKXIXSXDXIXKXVXJXIXJXVX",
"IXKXJXJXKXKXJXJXKXJXJXKXLXJXJXLXJXJXIXPXIX<X4 - = - v @XN - 1 v F d Z.6.! u F.6Xj I.B.N.m.'.C.h.p.%.#.xXLXKXKXJXJXJXKXLXJXKXJXJXLXKXJXJXPXLXLXLXKXJXJX",
"VXVXIXIXDXGXIXLXVXIXIXVXGXIXPXVXPXIXJXVXCXFXXX5 6 / Q.IX-X- - j K f Z.5XE.5.6X).p ..V.C.C.{.m.a.x.sXsXJXIXKXVXJXIXJXVXIXIXVXJXIXJXVXKXIXVXJXIXJXVXLXIX",
"KXPXLXLXKXLXLXKXLXJXLXKXKXJXLXKXJXLXvXnXu.FXZX#.$.sXMXLXkX; < 0 l s Z.E.^.{ R.8Xl y z.`.uX'.b.p.9XPXPXJXGXKXPXJXJXLXKXLXLXKXLXJXLXKXLXLXLXKXJXLXLXKXJX",
"IXIXDXVXIXKXVXLXIXJXVXIXKXVXJXIXJXDXZX!.t.w.2X%.p.vXxXeXDXV - > < 1 Z.R.^.3.q.E.8.8.G.v.dX'.m.s.cXPXZXqXVXJXIXKXVXKXIXDXJXIXKXVXKXIXGXVXIXKXVXJXIXJXVX",
"LXSXKXIXSXJXKXLXGXKXKXJXJXIXKXDXLXKXLXeX-.O.+.j.g.r.-.xXIXXXX : H l S.9.;X=X4.R L j I.{.mX{.m.s.MX9X>.sXIXKXGXLXKXJXSXPXKXGXJXKXLXGXKXKXJXJXIXJXJXJXIX",
"DXDXLXIXVXJXIXLXVXPXIXJXJXIXLXVXPXIXDXLXZXvX<.a.n.f.%.nXIX<X- d h k S.L Z 0 G oX4.k d.{.mX'.N.a.~.9XaXJXIXKXVXJXIXLXVXIXIXVXJXIXJXVXPXIXVXJXIXLXVXKXIX",
"IXIXJXSXIXIXVXJXIXJXVXIXKXVXLXIXJXVXIXIXDXLXKXJ.%.f.f.~.JXT X j K k ..h ..;X;X8.8.d i.'.{.C.M.f.9XxXIXKXVXLXIXKXVXKXIXGXJXIXKXVXKXIXJXVXIXKXVXKXIXLXVX",
"IXKXJXJXKXLXSXLXKXLXJXKXPXJXLXKXLXJXKXIXJXJXIXJX9X7Xx.x.gX1 > : & s l.k Y -X} 7.T 9 K `.C.N.M.j.s.~.IXPXJXJXPXLXJXLXKXJXJXKXLXJXJXKXJXJXIXLXSXLXKXLXJX",
"DXVXIXIXVXSXIXKXVXKXIXVXDXIXKXVXKXIXGXcXZXKXVXKXIXHXxXx.H > ; > > u 6 j | =XR D 5 N J I.B.N.b.k.U.MXGXSXIXLXVXJXIXJXVXIXIXVXJXIXJXVXIXIXVXJXIXLXVXLXIX",
"LXKXLXLXLXLXKXLXLXLXJXKXLXJXKXLXKXLXPXwXqXKXLXLXCXFXIX=X> > > = & a P I.u I 0 8 n f f | d.n.g.%.vXPXKXLXJXJXJXKXLXKXJXLXLXKXLXLXLXJXLXKXJXLXKXJXJXLXLX",
"IXIXDXVXIXIXVXJXIXJXVXIXIXVXJXIXJXVXIXKXVXDXIXCXw.eXgX4 > > > @ u D.].i.0 8 Z Z 9 5 p H [ a.%.K.MXSXIXPXVXLXIXKXVXKXIXVXDXIXKXVXKXIXVXVXIXKXVXLXIXKXVX",
"JXJXLXKXJXJXKXLXJXLXKXJXJXKXLXJXLXKXJXJXPXPXJXPXsXE.m 1 1 > ; t { i.i.h L 8 5 5 # & 6 Y h E.nXVXPXKXJXJXIXKXJXJXKXLXJXLXKXJXJXKXJXJXLXKXJXJXIXJXJXLXKX",
"VXVXKXIXVXJXIXKXDXKXIXVXJXIXLXVXKXIXVXJXIXIXvXMXNXL 1 , : > r r * n D 8 7 @ , o # & 0 F b S.PXAXPXIXVXJXIXJXVXLXIXJXVXIXIXVXLXIXJXVXIXIXVXJXIXJXVXKXIX",
"IXIXJXDXIXKXGXJXIXJXGXIXKXVXLXIXJXDXPXIXDXJXZX1XP v 4 1 1 r r > n U Z 8 : + +     # * * L h mXPXJXSXIXKXVXJXIXKXVXKXIXCXJXIXPXVXKXIXJXDXIXKXVXKXIXJXVX",
"IXIXJXSXKXKXGXLXIXJXGXKXIXGXLXIXJXSXIXIXSXKXgXP v 4 1 > a t 1 b L .XU 8 @ + o     # Z G .X@ ^.HXJXSXKXPXDXLXIXKXSXPXIXDXJXKXLXJXLXKXJXDXIXPXDXLXIXKXSX",
"VXVXKXIXVXJXIXJXVXKXIXVXJXIXKXVXKXIXDXDXIXhXP b 7 , > d [ 4 b m Z 8 8 : o c M M c A OXA Z   S.AXKXIXVXJXIXPXVXJXIXJXVXIXKXVXJXIXJXVXIXIXVXJXIXJXVXLXIX",
"JXLXPXKXJXLXKXLXJXJXKXJXJXKXJXJXLXKXLXLXzXU v 1 , 7 f X.8 v L XXZ 8 7 @ + < z M M v c , 0   k SXIXLXJXJXKXJXJXLXPXLXJXLXKXJXLXKXJXJXKXLXJXJXKXLXJXPXKX",
"IXIXJXVXIXKXVXJXIXJXVXIXKXVXJXIXJXVXIXKXoXc 7 7 1 0 ..F m P .XU Z Z , 7 :       + @ 8 5 5 o 0 mXLXVXIXIXVXLXIXKXVXKXIXVXGXIXPXVXLXIXJXVXIXKXVXKXIXLXVX",
"JXLXKXLXJXJXKXJXJXLXKXLXLXKXLXJXKXPXPXkXn 7 v 8 h Z.F x U oX@XU Z 8 Z , : @ o o o + , D R , % rXIXLXJXJXKXJXJXJXKXJXLXKXKXJXJXLXJXJXLXKXLXJXLXLXJXJXKX",
"DXVXKXIXDXJXIXLXVXKXIXVXJXIXKXVXKXIXDXXX1 v b 0 i.0 L I m +XXXD n Z 7 # + o + + + , D U .X8 o :XIXIXDXDXIXLXVXJXIXJXVXIXIXVXJXIXJXVXKXIXVXJXIXLXVXKXIX",
"IXIXJXSXIXKXGXLXIXJXGXIXKXDXJXIXJXSXJXD 4 n b ..r 6 n +XXXF 8 8 Z 8 7 + .       + : 8 Z I ,   S.KXJXIXPXJXJXIXKXVXPXIXDXJXIXLXSXLXIXJXJXKXKXSXLXIXJXDX",
"IXIXJXJXKXKXVXJXIXJXJXKXIXGXJXIXLXJXKXR v m l [ $ % B XXfX>XXXXX0 , * l 5.| a +   @ D J r .   4.JXJXIXKXDXJXIXKXVXKXIXGXJXIXPXVXJXIXSXJXIXKXVXKXIXLXDX",
"DXVXLXIXDXJXIXLXVXKXIXDXGXIXKXVXKXIXJX=Xm n Z.:X9./ g @XfXfX>X@XU b ,XKXAX;X3.} g A.LXAX0Xl % K KXIXVXSXIXLXVXJXIXLXVXIXKXVXLXIXJXVXPXIXVXJXIXLXVXLXIX",
"JXSXLXKXLXJXKXLXJXLXKXJXJXKXLXJXLXKXIX<XC S ).vXIXeX*.H @XfXXXL 8 0 BXPXFX@X3.q.E.0XPXJXIXBXZ...CXPXJXJXIXJXJXJXKXJXJXKXKXJXLXKXLXJXPXKXJXJXKXJXJXLXKX",
"IXIXSXVXIXIXVXLXIXJXVXIXIXVXJXIXJXJXIXmXI S.mX>.5XiXQ.0.2.2.8.F 5 R SXAXIX,XJ 8.;X,XzXIXIXGXJXrXbXAXIXIXVXJXIXLXVXKXIXGXDXIXKXVXKXIXDXDXIXKXVXLXIXJXVX",
"KXLXLXJXJXJXLXKXLXPXLXLXLXKXLXLXPXLXLXSXA.^.sXJ. .P.(._.L.E.DXVXzXBXLXLXIX8.2 9 P <XVXLXLXKXPXLXJXKXJXJXLXKXLXJXJXJXLXPXLXLXJXJXJXJXKXKXJXJXLXJXJXLXJX",
"DXVXIXIXVXJXIXLXVXKXIXVXDXIXJXVXKXIXDXVXmXyX>.>. .3.P./.E.bXLXIXJXDXIXKXVXY & & 9 T zXDXJXIXLXVXPXIXAXJXIXKXVXJXIXJXVXIXIXVXJXIXLXBXIXIXVXJXIXJXVXKXIX",
"IXKXJXJXIXKXSXJXKXJXJXKXKXSXJXIXJXGXIXIXzX).$.&.) ;.q.5.8.FXKXSXJXKXJXJXVXB 6 . & N >XBXKXJXLXKXJXJXKXPXSXJXIXLXJXKXKXJXJXIXKXJXLXIXJXJXKXKXJXLXIXJXJX",
"IXIXSXDXIXKXVXLXIXJXVXIXIXDXJXIXJXDXIX9XQ.iXa.k.&.>.9.a ;XIXLXDXPXIXJXPXzXB 6 $ * 8.#X>XlXzXJXIXSXSXIXPXVXLXIXKXVXLXIXVXSXIXLXVXLXIXGXJXIXKXVXKXIXJXVX",
"JXVXKXIXDXJXIXLXVXKXIXGXJXIXKXVXLXIXJXcXsXZXv.m.V.<.! ~ aXVXLXIXJXVXKXIXVXJ & & N 9 V >XgXgXzXGXKXIXVXJXIXLXVXLXIXLXVXKXIXVXJXIXJXVXIXIXVXGXIXLXVXKXIX",
"JXJXKXIXJXJXIXLXJXKXKXJXJXKXLXSXKXKXDXLXPXPXQ.k.C.z.~ ~.PXGXLXIXJXJXKXKXJXkX6 3 f . 9 U U L =XLXPXIXJXJXKXPXDXJXKXJXJXKXPXJXJXIXJXDXKXKXJXJXIXLXSXJXIX",
"IXIXSXVXIXKXBXKXIXJXVXIXIXVXJXIXJXVXIXIXDXnX:.z.'.`.z.D.KXIXLXBXKXIXVXDXIXIXlXJ d 5 # O o   I IXJXVXIXKXVXJXIXKXVXKXIXVXVXIXKXVXKXIXSXVXIXKXBXKXIXLXVX",
"LXLXLXJXPXKXJXLXJXJXLXLXLXLXJXLXJXLXLXKXLXY.%.k.'.uXv.9.qXxXPXKXLXKXJXJXLXJXKXGX;XR F n n S #XSXLXJXLXKXJXLXLXKXLXLXKXLXLXLXLXJXKXLXLXJXKXJXLXLXJXLXJX",
"VXVXIXIXVXJXIXLXVXKXIXVXJXIXLXVXKXIXDXDXIX9X) L.`.uX].U.x.cXKXIXJXVXPXIXVXJXIXLXLXJXkX-X=X>XgXAXIXIXVXSXIXLXVXJXIXJXVXIXIXVXJXIXJXVXIXIXVXJXIXLXVXLXIX",
"KXKXJXJXKXLXJXJXKXLXJXPXKXSXJXIXJXJXLXKXJX;X2.y.G.R.6.5.iXIXLXJXKXIXJXJXLXKXJXLXLXJXKXIXIXPXIXKXLXJXLXPXJXKXKXJXJXLXKXJXJXKXLXJXLXKXLXJXKXPXSXLXKXKXJX",
"IXIXJXVXIXIXVXJXIXJXVXIXKXVXJXIXJXVXIXIXVXH q u / u q i lXIXKXVXKXIXDXDXIXKXVXKXIXJXDXIXIXVXJXIXJXVXIXKXVXJXIXKXVXPXIXGXVXIXKXVXKXIXDXDXIXKXVXLXIXLXVX",
"JXJXKXIXDXJXIXJXDXKXIXGXJXIXKXVXKXIXDXJXLXY $ $ $ $ . J BXDXLXIXJXDXIXIXVXJXIXJXDXKXIXDXJXIXLXVXKXIXGXJXIXKXVXLXKXJXJXIXKXJXLXIXLXVXIXKXJXJXIXJXVXKXIX",
"VXJXKXIXJXJXKXLXDXKXKXJXJXIXLXDXKXIXGXFXIX-XY f i S Y ,XIXDXKXIXLXDXIXKXVXLXIXLXDXKXIXJXJXIXKXDXKXKXGXJXKXPXDXLXIXJXSXKXKXJXJXIXJXSXKXIXJXJXIXJXVXKXIX",
"IXIXJXDXIXKXVXLXIXJXVXIXIXVXJXIXGXVXIXIXDXzX<X@X@X@X<XzXLXIXLXVXIXIXDXSXIXKXVXPXIXDXVXIXKXVXLXIXJXVXIXKXVXLXIXKXVXKXIXGXJXIXLXVXKXIXGXDXIXIXVXLXIXLXVX",
"IXIXJXVXIXIXVXPXIXJXVXIXIXVXPXIXJXDXIXIXVXJXIXBXkXKXIXFXJXIXKXVXKXIXVXJXIXIXVXKXIXLXVXIXIXVXKXIXJXGXIXIXVXKXIXLXVXPXIXJXVXIXKXVXKXIXJXVXIXKXVXPXIXLXVX"
};
