/* XPM */
static char *result[] = {
/* columns rows colors chars-per-pixel */
"75 75 15 1 ",
"  c #987055",
". c #997055",
"X c #987155",
"o c #9A7055",
"O c #9A7056",
"+ c #9A7156",
"@ c #9B7156",
"# c #9B7256",
"$ c #9C7257",
"% c #9D7357",
"& c #9E7357",
"* c #9E7358",
"= c #9E7458",
"- c #9F7459",
"; c None",
/* pixels */
";o.XX. .. X.... XX. ..XX. ...XX... XX  ...X ....XX...  X. ...X ... .X... . ",
";-+++++++++++++++++++++++++++++++++++++++++++++++++++++++++++++++++++++++++",
";*.........................................................................",
";*.........................................................................",
";=.........................................................................",
";=.........................................................................",
";=.........................................................................",
";=.........................................................................",
";*.........................................................................",
";*.........................................................................",
";*.........................................................................",
";*.........................................................................",
";*.........................................................................",
";*.........................................................................",
";*.........................................................................",
";*.........................................................................",
";*.........................................................................",
";*.........................................................................",
";*.........................................................................",
";$.........................................................................",
";@.........................................................................",
";%.........................................................................",
";*.........................................................................",
";#.........................................................................",
";@.........................................................................",
";@.........................................................................",
";@.........................................................................",
";#.........................................................................",
";#.........................................................................",
";#.........................................................................",
";#.........................................................................",
";@.........................................................................",
";@.........................................................................",
";@.........................................................................",
";#.........................................................................",
";#.........................................................................",
";#.........................................................................",
";@.........................................................................",
";@.........................................................................",
";@.........................................................................",
";#.........................................................................",
";#.........................................................................",
";#.........................................................................",
";#.........................................................................",
";@.........................................................................",
";@.........................................................................",
";@.........................................................................",
";#.........................................................................",
";#.........................................................................",
";#.........................................................................",
";@.........................................................................",
";@.........................................................................",
";@.........................................................................",
";#.........................................................................",
";#.........................................................................",
";#.........................................................................",
";#.........................................................................",
";@.........................................................................",
";@.........................................................................",
";@.........................................................................",
";#.........................................................................",
";#.........................................................................",
";#.........................................................................",
";@.........................................................................",
";@.........................................................................",
";@.........................................................................",
";#.........................................................................",
";#.........................................................................",
";#.........................................................................",
";#.........................................................................",
";@.........................................................................",
";@.........................................................................",
";#.........................................................................",
";&#########################################################################",
";Oooooooooooooooooooooooooooooooooooooooooooooooooooooooooooooooooooooooooo"
};
