/* XPM */
static char *result[] = {
/* columns rows colors chars-per-pixel */
"75 75 180 2 ",
"   c black",
".  c #010000",
"X  c #000100",
"o  c #010100",
"O  c #010101",
"+  c #020101",
"@  c #010201",
"#  c #020201",
"$  c #030201",
"%  c #020102",
"&  c #020202",
"*  c #030202",
"=  c #030302",
"-  c #030203",
";  c gray1",
":  c #040202",
">  c #040302",
",  c #040203",
"<  c #040303",
"1  c #050303",
"2  c #040403",
"3  c #050403",
"4  c #040304",
"5  c #050304",
"6  c #050404",
"7  c #050504",
"8  c #050405",
"9  c gray2",
"0  c #060404",
"q  c #060504",
"w  c #060405",
"e  c #060505",
"r  c #070505",
"t  c #070605",
"y  c #070506",
"u  c #070606",
"i  c #080506",
"p  c #080606",
"a  c #080706",
"s  c #080607",
"d  c #090607",
"f  c #080707",
"g  c #090707",
"h  c #0A0707",
"j  c #090807",
"k  c #090708",
"l  c #0A0708",
"z  c #0B0708",
"x  c #0A0709",
"c  c #090808",
"v  c #0A0808",
"b  c #0B0808",
"n  c #0B0908",
"m  c #0A0809",
"M  c #0B0809",
"N  c #0B0909",
"B  c #0B090A",
"V  c #0C0809",
"C  c #0C0909",
"Z  c #0C080A",
"A  c #0C090A",
"S  c #0D090A",
"D  c #0C090B",
"F  c #0D090B",
"G  c #0C0A0A",
"H  c #0D0A0A",
"J  c #0C0A0B",
"K  c #0D0A0B",
"L  c #0D0B0B",
"P  c #0E0A0B",
"I  c #0E0B0B",
"U  c #0E0C0B",
"Y  c #0D0A0C",
"T  c #0D0B0C",
"R  c #0E0A0C",
"E  c #0E0B0C",
"W  c #0F0B0C",
"Q  c #0F0B0D",
"!  c #0E0C0C",
"~  c #0F0C0C",
"^  c #0E0C0D",
"/  c #0F0C0D",
"(  c #0F0C0E",
")  c #0F0D0E",
"_  c #100C0D",
"`  c #100D0D",
"'  c #100C0E",
"]  c #110C0E",
"[  c #100D0E",
"{  c #110D0E",
"}  c #100D0F",
"|  c #110D0F",
" . c #120D0E",
".. c #120D0F",
"X. c #110E0E",
"o. c #100E0F",
"O. c #110E0F",
"+. c #120E0E",
"@. c #120E0F",
"#. c #130E0F",
"$. c #130F0F",
"%. c #120E10",
"&. c #130E10",
"*. c #120F10",
"=. c #130F10",
"-. c #130F11",
";. c #140F10",
":. c #140F11",
">. c #131011",
",. c #141010",
"<. c #141011",
"1. c #151011",
"2. c #151111",
"3. c #141012",
"4. c #151012",
"5. c #151112",
"6. c #151013",
"7. c #151113",
"8. c #161012",
"9. c #161112",
"0. c #161113",
"q. c #171113",
"w. c #151213",
"e. c #161212",
"r. c #161213",
"t. c #171213",
"y. c #161214",
"u. c #171214",
"i. c #171314",
"p. c #171315",
"a. c #181214",
"s. c #181314",
"d. c #191314",
"f. c #181215",
"g. c #181315",
"h. c #191315",
"j. c #181415",
"k. c #191415",
"l. c #181416",
"z. c #191416",
"x. c #191516",
"c. c #1A1416",
"v. c #1B1416",
"b. c #1A1516",
"n. c #1B1516",
"m. c #1A1417",
"M. c #1B1417",
"N. c #1A1517",
"B. c #1B1517",
"V. c #1A1617",
"C. c #1B1617",
"Z. c #1C1517",
"A. c #1C1617",
"S. c #1B1518",
"D. c #1A1618",
"F. c #1B1618",
"G. c #1C1518",
"H. c #1C1618",
"J. c #1D1618",
"K. c #1C1718",
"L. c #1D1718",
"P. c #1C1619",
"I. c #1D1619",
"U. c #1C1719",
"Y. c #1D1719",
"T. c #1E1719",
"R. c #1D171A",
"E. c #1E171A",
"W. c #1E1819",
"Q. c #1D181A",
"!. c #1E181A",
"~. c #1F181A",
"^. c #1F191A",
"/. c #1F181B",
"(. c #1F191B",
"). c #20191B",
"_. c #20191C",
"`. c #21191C",
"'. c #201A1C",
"]. c #211A1C",
/* pixels */
"< * & & + # # # # # # # # # # # # # # # # # # # # # # # # # # # # # # # # # # # # # # # # # # # # # # # # # # # # # # # # # # # # # # # # # + & & * < ",
"< < < ; : > > > > > > > > > > > > > > > > > > > > > > > > > > > > > > > > > > > > > > > > > > > > > > > > > > > > > > > > > > > > > > > > > : ; < < < ",
"< e p k l l l l l v b b b v v v v b b v v l l l l v v v l l l l b b b v v v v v b b b l l l l v v v l l l l v v b b v v v v b b b v l l l l l k p e < ",
"6 g E @.=.=.*.=.=.>.<.<.<.>.>.>.<.<.1.<.-.=.*.*.=.-.>.=.=.*.*.=.<.<.<.>.>.>.>.>.<.<.<.=.*.*.=.=.>.-.=.*.*.=.-.<.1.<.<.>.>.>.<.<.<.>.=.=.*.=.=.@.E g 6 ",
"6 B <.b.H.B.B.B.B.B.H.H.F.F.F.F.F.F.H.B.B.B.N.B.B.B.C.B.N.N.B.B.F.F.F.F.F.F.F.F.F.F.F.B.B.N.N.B.C.B.B.B.N.B.B.B.H.F.F.F.F.F.F.H.H.B.B.B.B.B.H.b.<.B 6 ",
"6 H 9.Y.(.(.~.Y.B.c.z.z.z.c.c.b.c.z.j.g.c.H.R.Y.H.b.c.B.J.T.Y.B.z.k.k.k.z.z.z.c.z.z.z.B.I.T.J.B.c.b.H.Y.R.H.c.g.j.z.c.b.c.c.z.z.z.c.B.Y.~.(.(.Y.9.H 6 ",
"0 H 0.Y._.].(.U.a.&.{ ' [ { X.X.X.[ / / &.h.!.Q.j.=.X.0.B.Y.B.7.O._ _ _ ' ' { { { ` O.7.B.Y.B.0.X.=.j.Q.!.h.&./ / [ X.X.X.{ [ ' { &.a.U.(.]._.Y.0.H 0 ",
"0 G 5.H.)._.!.c.&.v y y u a a f p t 8 e A 4.Y.F.>.N f _ g.H.g./ g e e y y y u p t e g / g.H.g._ f N >.F.Y.4.A e 8 t p f a a u y y v &.c.!._.).H.5.G 0 ",
"0 G 5.H.!.Y.B.9.P 0 + O & * * * * * * < v @.h.u.~ 0 < H t.B.0.N < O * 1 1 ; = * O . < N 0.B.t.H < 0 ~ u.h.@.v < * * * * * * & O + 0 P 9.B.Y.!.H.5.G 0 ",
"0 H 9.H.Z.a.=.E f < + + # & O   O 6 k K [ @.#._ k < < H t.B.0.b ; ; g P K s *       ; C 0.B.t.H < < k _ #.@.[ K k 6 O   O & # + + < f E =.a.Z.H.9.H 0 ",
"0 K 0.B.z.| M r 2 < * * = ; +   + f @.u.t.O.M y < & 6 E i.C.0.m < r _ a.9.E 6     . 5 A q.C.i.E 6 & < y M O.t.u.@.f +   + ; = * * < 2 r M | z.B.0.K 0 ",
"6 K t.H.g.P 0 + + < < < < < * * 0 G 9.B.s./ w + . + 6 / g.C.0.M 5 p @.B.c.@.k < + + 6 D q.C.g./ 6 + . + w / s.B.9.G 0 * * < < < < < + + 0 P g.H.t.K 6 ",
"6 P u.H.u.K 4 X + < < * * < e c K [ 3.0.$.C 1 O   + 0 ~ g.F.0.Z 5 e I 2.0.=./ C u < 6 A 0.F.g.~ 0 +   O 1 C $.0.3.[ K c e < * * < < + X 4 K u.H.u.P 6 ",
"6 P u.F.u.Y 8 O # < , + O < b $.t.0.{ H g e < # + + 0 ~ g.F.0.A 6 = e v E =.t.9.E e 5 V 0.F.g.~ 0 + + # < e g H { 0.t.$.b < O + , < # O 8 Y u.F.u.P 6 ",
"6 K y.F.a.E e # & < < * * 6 I t.B.u.I e * * < * # # 0 ! p.F.q.A 6 + O * g @.c.B.@.p 5 M 9.F.p.! 0 # # * < * * e I u.B.t.I 6 * * < < & # e E a.F.y.K 6 ",
"0 K y.F.s.E e + + * < e g A { 9.u.$.v * . + < * # # 0 ~ g.F.q.A 4       6 K 1.0.W e < m 9.F.g.~ 0 # # * < + . * v $.u.9.{ A g e < * + + e E s.F.y.K 0 ",
"0 K y.F.s.E e + . . < N +.1.<.X.E N e * + * < * # # 0 ~ g.F.0.N ;       * u N S p = ; b 9.F.g.~ 0 # # * < * + * e N E X.<.1.+.N < . . + e E s.F.y.K 0 ",
"0 K y.F.s.E e +   O e ~ s.B.4.G 9 < < < < < < * # # 0 ~ g.F.0.A < O O * = ; < 1 & @ 2 A 0.F.g.~ 0 # # * < < < < < < 9 G 4.B.s.~ e O   + e E s.F.y.K 0 ",
"6 P u.F.u.L 0 * < u B O.a.h.@.g * o * < < < < * # # 0 W u.F.g.[ v u p g f s p u r t v [ g.F.u.W 0 # # * < < < < * o * g @.h.a.O.B u < * 0 L u.F.u.P 6 ",
"6 P u.H.r.A < < l { =.-.@.` N e * + * < < < < * # # 0 E t.H.S.y.=.@.@.&.%.@...X.O.O.=.u.F.H.t.E 0 # # * < < < < * + * e N ` @.-.=.{ l < < A r.H.u.P 6 ",
"6 K u.H.r.B < 0 W h.k.:.A r 3 < < * < < < < < * # # 0 T r.H.T.F.N.c.c.c.c.m.c.c.c.c.N.H.T.H.r.T 0 # # * < < < < < * < < 3 r A :.k.h.W 0 < B r.H.u.K 6 ",
"0 K r.B.a.E s g @.c.k.+.p + . * < < < < < < < * # # 0 E r.H.T.H.B.b.N.V.D.V.D.D.N.b.B.H.T.H.r.E 0 # # * < < < < < < < * . + p +.k.c.@.g s E a.B.r.K 0 ",
"0 H 9.H.B.8.| _ @.=.{ C 6 + + * < < < < < < < * # # 0 E t.H.B.q.=.@.@.*.*.*.*.*.@.@.=.q.B.H.t.E 0 # # * < < < < < < < * + + 6 C { =.@._ | 8.B.H.9.H 0 ",
"0 G 5.F.Y.Y.c.0.{ M p 0 < * ; < < < < < < < < * # # 0 E u.B.s._ v p p g g g g g p p v _ s.B.u.E 0 # # * < < < < < < < < ; * < 0 p M { 0.c.Y.Y.F.5.G 0 ",
"0 G 5.H.!.!.H.t.W w & # < < < < < < < < < < < * # # 0 ~ g.A.t.A 6 O + * : * : * + O 6 A t.A.g.~ 0 # # * < < < < < < < < < < < # & w W t.H.!.!.H.5.G 0 ",
"0 G 5.H.H.c.t.@.n 6 + + * < < < < < < < < < < * # # 0 ~ g.H.0.Z ;   . # # # # # .   ; Z 0.H.g.~ 0 # # * < < < < < < < < < < * + + 6 n @.t.c.H.H.5.G 0 ",
"0 H 9.G.c.=.K g e < * * < < < < < < < < < < < * # # 0 ~ g.F.0.A 2 o + * * * * * + o 2 A 0.F.g.~ 0 # # * < < < < < < < < < < < * * < e g K =.c.G.9.H 0 ",
"6 P u.F.f.E e $ * < < < < < < < < < < < < < < * # # 0 ~ p.F.q.S 6 # & < < < < < & # 6 S q.F.p.~ 0 # # * < < < < < < < < < < < < < < * $ e E f.F.u.P 6 ",
"6 P u.H.t.G <   . * = , * * * * * * * * * * * * + + 1 E i.F.q.A < O # * ; ; ; * # O < A q.F.i.E 1 + + * * * * * * * * * * * * , = * .   < G t.H.u.P 6 ",
"6 P u.H.t.G ;     # $ * * & & & & & & & & & & + . . < P i.C.0.N ;   o & & & & & o   ; N 0.C.i.P < . . + & & & & & & & & & & * * # #     ; G t.H.u.P 6 ",
"6 P u.F.u.L 6 + O * * * * * * * * * * * * * * * # & 6 E s.C.0.A 1 O % * * * * * % O 1 A 0.C.s.E 6 & # * * * * * * * * * * * * * * * + + 6 L u.F.u.P 6 ",
"0 H 0.F.z.O.N p s g g k l l l g g k k l l l g g s s M @.z.H.a./ l i s l v v v l g p v _ s.H.k.X.v p p g l l g g k l l l k g k k l k d i M [ k.C.0.H 0 ",
"0 G 5.H.H.g.<.%.O.@.@.%.=.;.=.@.@.%.&.;.;.$.@.@.@.#.<.i.B.H.c.4.@.{ @.=.,.,.;.;.=.*.:.t.c.H.b.e.@.| @.=.;.=.@.@.%.=.;.=.#.@.@.%.=.;.@. .=.r.B.H.9.G 0 ",
"0 G 5.H.T.J.B.c.z.z.z.c.N.v.c.c.z.c.N.M.c.c.z.z.c.b.n.C.H.H.B.c.z.k.c.N.n.n.n.n.c.c.N.C.H.H.A.b.z.c.m.N.v.c.c.z.c.N.M.c.c.z.c.c.m.v.x.k.c.S.Y.H.5.A 0 ",
"0 G 5.F.T.H.b.b.H.T.!.Y.B.c.B.Y.!.Y.H.c.N.H.T.!.U.B.c.N.F.H.H.T.!.Y.H.B.c.b.b.b.c.c.c.N.H.H.Y.!.!.Y.H.B.c.F.Y.!.Y.B.c.B.H.!.T.H.B.c.H.Y.!.~.!.F.4.C 0 ",
"0 H 9.H.b.5.@.=.k.~.E.k.*.[ 5.G.~.H.4.{ *.g.~.T.g.%.{ :.h.H.!.).(.H.u.-.@.| %.O.{ _ { <.h.H.!.(.(.H.t.@.O.r.I.~.B.:.[ -.c.~.Y.t.O.O.t.K.(._./.F.4.A 0 ",
"0 K r.C.s.E p l ;.H.H.<.v u W h.T.k.I u v :.L.A.=.v u I 0.P.~._.~.z.O.x y u s p r 0 p P 0.F.(.'.(.c.[ f u { B.Y.t.G u A 0.Y.n.{ g p [ z.(._.~.F.4.C 0 ",
"0 K r.C.u.K e u _ g.g.{ a 6 G 4.z.4.N q p { h.a.` p 8 H 0.H.T.Y.B.4.A 5 + O # * * = e K 9.B.T.T.B.5.K y e I t.h.=.v 6 v =.z.r.E t e L 7.B.Y.T.H.5.A 0 ",
"0 K 0.Z.z.@.J N E ..| / G A I { @.' K A H ~ @.{ E A D @.h.H.B.t.=.P i *       + 5 s G @.s.C.B.u.&._ P A A U { ..( K A H ` @.} E A A I ` =.u.B.H.7.J 0 ",
"0 G 5.H.H.c.u.=.I g j E -.4.X.N f N | 4.:.I g k K @.0.N.H.C.t./ k 6 * + .   . * l { q.b.H.H.u./ k l W :.4.` v g G %.6.=.H g v / 3.4.Q k k / g.B.0.K 0 ",
"0 A 4.H.~.~.Y.i.E 6 e ~ g.B.:.v 3 v 2.B.g.W 6 e E u.Y.(.~.B.4.A 6 * * < < * * w E u.Y.^.~.P.5.G 6 p X.c.B.@.p 6 C t.B.q.H 6 p @.c.c.{ y 6 S u.C.r.K 0 ",
"0 C 4.F./._.(.C.=.B G =.H.!.a./ N / k.W.H.=.B G =.B.(.'.~.H.q._ C l M G D A A Y <.B.(.).~.H.u._ N T 9.L.T.0.L N { b.~.c.| N I r.Y.T.9.K A { k.C.r.K 0 ",
"0 C 4.F./.).(.Y.k.5.5.k.T.~.B.u.4.u.H.~.Y.h.5.9.k.Y.(.(.!.H.c.u.4.1.1.w.7.5.9.y.z.Y.(.~.Q.H.c.u.4.0.N.!.~.m.0.5.s.Y.~.H.g.4.r.B.!.!.b.r.5.s.A.H.5.H 0 ",
"0 A 4.F.!.T.J.H.H.B.H.H.U.H.H.Z.B.H.H.U.H.H.B.H.H.Y.H.Y.H.H.H.F.F.B.B.C.C.C.Z.H.H.H.K.H.H.H.H.F.B.H.H.U.H.H.B.G.H.U.U.H.H.B.H.H.U.H.H.C.H.I.T.F.5.G 0 ",
"0 G 5.H.H.c.u.t.i.d.g.u.u.u.u.s.h.g.u.u.u.s.h.g.u.u.u.k.B.H.B.b.g.f.g.h.h.k.g.g.u.t.t.g.B.H.C.b.h.s.u.u.u.s.s.g.a.u.u.u.s.h.g.u.u.u.u.u.h.B.Y.H.5.G 0 ",
"0 H 9.Z.b.<.Q K P W W E T I E W W W E L I W W E K K E <.c.H.k.;./ I E W ~ ~ ~ W Y K W %.h.H.c.4._ R K I I W W W W E L E W W W E E L K K [ 5.N.H.9.H 0 ",
"6 K r.F.g./ p 5 6 e r e e e r r r r e e e r r q 6 6 p _ g.H.u.I p 6 6 r r r r r 6 5 y E u.H.g.' s 6 6 q e r r r r e e e r r r e e e 6 6 f / g.F.r.K 6 ",
"6 P u.F.u.H <     + # & & & & # # # # & & & & # o O < P i.C.0.N :   o # & + & # o   > N 0.C.i.P < O o # & & # # # # & & # # # & $ +     < H u.F.u.P 6 ",
"6 P u.H.t.G ;     # * * * & & & & & & & & & & + . . < I s.C.0.C ;   o & & & & & o   ; C 0.C.s.I < . . + & & & & & & & & & & * * * #     ; G t.H.u.P 6 ",
"6 P u.F.u.G <   O = < < < < < < < < < < < < < * # # 0 E p.F.q.S 5 + & < < < < < & + 5 S q.F.p.E 0 # # * < < < < < < < < < < < < < = O   < G u.F.u.P 6 ",
"6 K r.F.h._ g 3 < < < < < < < < < < < < < < < * # # 0 ~ g.F.q.D 6 + & , < , < , & + 6 D q.F.g.~ 0 # # * < < < < < < < < < < < < < < < 3 g _ h.F.r.K 6 ",
"0 H 9.H.B.0.{ G p < * * < < < < < < < < < < < * # # 0 ~ g.F.0.A < o + & * & * & + o < A 0.F.g.~ 0 # # * < < < < < < < < < < < * * < p G { 0.B.H.9.H 0 ",
"0 G 5.H.Y.H.c.<.H 6 + + * < < < < < < < < < < * # # 0 ~ g.H.0.Z <   . # # # # # .   < Z 0.H.g.~ 0 # # * < < < < < < < < < < * + + 6 H <.c.H.Y.H.5.G 0 ",
"0 G 5.F.!.(.Y.a._ y < * < < < < < < < < < < < * # # 0 ^ i.B.t.K e * * 1 1 1 1 1 * * e K t.B.i.^ 0 # # * < < < < < < < < < < < * < y _ a.Y.(.!.F.5.G 0 ",
"0 H 5.H.H.c.q.:.@.W C a 6 * & ; < < < < < < < * # # 0 E u.H.k.&.E A A K K K K K A A E &.k.H.u.E 0 # # * < < < < < < < ; & * 6 a C W @.:.q.c.H.H.5.H 0 ",
"0 K 0.Z.z.&.K K @.0.1.E e + O * < < < < < < < * # # 0 E t.H.H.h.t.9.r.y.y.y.y.y.r.9.t.h.H.H.t.E 0 # # * < < < < < < < * O + e E 1.0.@.K K &.z.Z.0.K 0 ",
"0 K r.B.u.F w u { c.c.=.g * + * < < < < < < < * # # 0 T r.H.T.H.F.C.C.F.F.F.F.F.C.C.H.J.T.H.r.T 0 # # * < < < < < < < * + * g =.c.c.{ u w F u.B.r.K 0 ",
"6 P u.H.r.B < 1 K 9.a.:.E v u 6 < * < < < < < * # # 0 T r.H.I.m.g.u.u.a.a.u.u.t.u.u.g.B.Y.H.r.T 0 # # * < < < < < * < 6 u v E :.a.9.K 1 < B r.H.u.P 6 ",
"6 P u.F.u.G 6 * u G _ %.4.<.~ p * o * < < < < * # # 0 E t.H.c.>.~ K L R Y K F J G H ~ >.c.H.t.E 0 # # * < < < < * o * p ~ <.4.%._ G u * 6 G u.F.u.P 6 ",
"6 K y.F.s.I q + & < g { h.n.;.v ; + * < < < < * # # 0 W s.F.u.E r < 6 w e 6 0 6 < 2 t E u.F.s.W 0 # # * < < < < * + ; v ;.n.h.{ g < & + q I s.F.y.K 6 ",
"0 K y.F.s.! e +   . 6 I e.z.4.E f e 6 < ; < < * # # 0 ~ g.F.0.N *     + # 2 w r < O = N 0.F.g.~ 0 # # * < < ; < 6 e f E 4.z.e.I 6 .   + e ! s.F.y.K 0 ",
"0 K y.F.s.E e + . + < g I { =.=.@.I p * + & < * # # 0 ~ g.F.0.A <       ; l / ] M < ; b 9.F.g.~ 0 # # * < & + * p I @.=.=.{ I g < + . + e E s.F.y.K 0 ",
"0 K y.F.a.E e + & < < 1 0 f / u.c.9.C < . + < * # # 0 ! p.F.q.S 6 O   . e _ s.c. .i 1 m 9.F.p.! 0 # # * < + . < C 9.c.u./ f 0 1 < < & + e E a.F.y.K 0 ",
"6 K u.F.a.T 8 # & < < & + < H 9.c.u./ f 6 < < * # # 0 ~ g.F.q.D 6 # * q N %.h.c.{ p 5 M 0.F.g.~ 0 # # * < < 6 f / u.c.9.H < + & < < & # 8 T a.F.u.K 6 ",
"6 P u.H.u.K 6 O # < < & + < g ~ =.:.%.[ K f < # o + 0 ~ g.F.0.A 6 2 k ~ O.-.:.@.A 6 6 A 0.F.g.~ 0 + o # < f K [ %.:.=.~ g < + & < < # O 6 K u.H.u.P 6 ",
"6 P u.H.u.K 5 o + < < < * < 6 e v ! 5.h.9.I 6 O   + 0 ~ g.F.0.M 5 y _ s.a.=.G a 6 * 6 A 0.F.g.~ 0 +   O 6 I 9.h.5.! v e 6 < * < < < + o 5 K u.H.u.P 6 ",
"0 K r.B.g.E r : * < < < < < * + < N 5.B.h.[ y - + + 6 ^ i.C.9.M 1 p @.B.k.X.p +   O 6 S q.C.i.^ 6 + + - y [ h.B.5.N < + * < < < < < * : r E g.B.r.K 0 ",
"0 H 0.G.c.:.W l e ; * $ * & O   O r E =.<.@.E M w * < K u.B.0.M < 6 H ;.@.N <       < A 0.B.t.K < * w M E @.<.=.E r O   O & * $ * ; e l W :.c.G.0.H 0 ",
"0 H 9.H.H.m.t.@.M < O o @ & + . O ; w g K @.9.=.A < ; S q.B.0.M = & e h d q & .     = N 0.B.q.S ; < A =.9.@.K g w ; O . + & @ o O < M @.t.m.H.H.9.H 0 ",
"0 G 5.H.~.~.Y.s._ r * & ; < < 1 < < * < k =.B.z.{ p 6 P u.B.u.K 7 & * 1 < < 2 < * & 6 H u.B.u.P 6 p { z.B.=.k < * < < 1 < < ; & * r _ s.Y.~.~.H.5.G 0 ",
"0 G 5.J.)._./.B.3.K z l m N N N N v s k R 0.!.U.7.E N ..h.H.z.O.G g g k l m m M v v G O.l.H.h...N E 7.U.!.0.R k s v N N N N m l z K 3.B./._.).J.5.G 0 ",
"0 H 0.Y._.`.(.Y.c.y.4.4.4.8.9.9.9.4.<.<.q.B.!.!.N.t.9.h.H.T.H.g.0.1.1.1.4.4.4.8.4.4.0.g.H.T.H.h.9.t.N.!.!.B.q.<.<.4.9.9.9.8.4.4.4.y.c.Y.(.`._.Y.0.H 0 ",
"6 A 5.H.!.E.Y.Y.H.B.B.S.S.S.F.F.F.S.C.B.B.H.U.Y.H.C.C.H.H.Y.I.H.S.B.B.B.B.S.S.S.S.S.S.H.I.I.H.H.C.C.H.Y.U.H.B.B.C.S.F.F.F.S.S.S.B.B.H.Y.Y.E.!.H.5.A 6 ",
"6 m O.t.g.a.u.a.s.g.k.z.l.l.l.l.l.z.z.h.g.s.u.u.a.g.j.s.u.u.a.s.g.z.z.l.l.l.l.l.l.z.g.s.a.u.u.s.j.g.a.u.u.s.g.h.z.z.l.l.l.l.l.z.k.g.s.a.u.a.g.t.O.m 6 ",
"6 p G / [ [ ) [ { o.O.@.O.O.O.o.O.@.@.O.{ [ [ ) [ | O.{ [ ) [ [ { @.O.O.O.O.O.O.O.@.{ [ [ ) [ { O.| [ ) [ [ { O.@.@.O.o.O.O.O.@.O.o.{ [ ) [ [ / G p 6 "
};
