/* XPM */
static char *result[] = {
/* columns rows colors chars-per-pixel */
"75 75 72 1 ",
"  c #935329",
". c #935429",
"X c #945429",
"o c #955429",
"O c #955529",
"+ c #965529",
"@ c #95552A",
"# c #96552A",
"$ c #97552A",
"% c #96562A",
"& c #97562A",
"* c #98562A",
"= c #98572A",
"- c #99572A",
"; c #98562B",
": c #99572B",
"> c #9A572B",
", c #9A582B",
"< c #9B582B",
"1 c #9B592B",
"2 c #9C592B",
"3 c #9C582C",
"4 c #9C592C",
"5 c #9D592C",
"6 c #9D5A2C",
"7 c #9E5A2C",
"8 c #9F5A2C",
"9 c #9E5A2D",
"0 c #9F5A2D",
"q c #9F5B2D",
"w c #A05B2D",
"e c #A15B2D",
"r c #A15C2D",
"t c #A15C2E",
"y c #A25C2E",
"u c #A35C2E",
"i c #A35D2E",
"p c #A45D2E",
"a c #A55D2E",
"s c #A55D2F",
"d c #A55E2F",
"f c #A65E2F",
"g c #A75E2F",
"h c #A65F2F",
"j c #A75F2F",
"k c #A85F2F",
"l c #A75F30",
"z c #A85F30",
"x c #A86030",
"c c #A96030",
"v c #A96130",
"b c #AA6030",
"n c #AA6130",
"m c #AB6130",
"M c #AB6131",
"N c #AB6230",
"B c #AC6131",
"V c #AC6230",
"C c #AD6230",
"Z c #AD6330",
"A c #AC6231",
"S c #AD6231",
"D c #AD6331",
"F c #AE6330",
"G c #AE6331",
"H c #AE6431",
"J c #AF6431",
"K c #B06431",
"L c #B06531",
"P c #B16531",
"I c #B16631",
"U c #B26631",
/* pixels */
"ccccccccccccccccccccccccccccccccccccccccccccccccccccccccccccccccccccccccccc",
"ccccccccccccccccccccccccccccccccccccccccccccccccccccccccccccccccccccccccccc",
"ccccccccccccccccccccccccccccccccccccccccccccccccccccccccccccccccccccccccccc",
"ccccccccccccccccccccccccccccccccccccccccccccccccccccccccccccccccccccccccccc",
"ccccccccccccccccccccccccccccccccccccccccccccccccccccccccccccccccccccccccccc",
"ccccccccccccccccccccccccccccccccccccccccccccccccccccccccccccccccccccccccccc",
"ccccccccccccccccccccccccccccccccccccccccccccccccccccccccccccccccccccccccccc",
"ccccccccccccccccccccccccccccccccccccccccccccccccccccccccccccccccccccccccccc",
"ccccccccccccbbccccccccccccccccccccccccccccccccccccccccccccccccccccccccccccc",
"ccccccccccVJPPLSccccccccccccccccccccccccccccccccccccccccccccccccccccccccccc",
"cccccccccJUUUUUUJcccccccccccccccccccccccccccccccccccccccccccccccccccccccccc",
"ccccccccHUUUUUUUUGccccccccccccccccbbccccccccccccccccccccccccccccccccccccccc",
"cccccccnUUUUUUUUUPnccccccccccccccdudccccccccccccccccccccccccccccccccccccccc",
"cccccccVUUUUUUUUUUZccccccccccccc5X.X>fccccccccccccccccccccccccccccccccccccc",
"cccccccCUUUUUUUUUULcccccccccccbw.XXX.*kcccccccccccccccccccccccccccccccccccc",
"cccccccmUUUUUUUUUUInccccccccccc*XXXXX.wbccccccccccccccccccccccccccccccccccc",
"ccccccccLUUUUUUUUUPnccccccccccx$XXXXX.:cccccccccccccccccccccccccccccccccccc",
"ccccccccVUUUUUUUUUJcccccccccccc-.XXXXX#zccccccccccccccccccccccccccccccccccc",
"cccccccccLUUUUUUUUNcccccccccccb5.XXXXXofccccccccccccccccccccccccccccccccccc",
"cccccccccnLUUUUUPVccccccccccccby.XXXXXOjccccccccccccccccccccccccccccccccccc",
"ccccccccccbZLLKVbccccccccccccccc>.XXX.,cccccccccccccccccccccccccccccccccccc",
"ccccccccccccccccccccccccccccccccj>X .;fcccccccccccccccccccccccccccccccccccc",
"ccccccccccccccccccccccccccccccccccpeixccccccccccccccccccccccccccccccccccccc",
"ccccccccccccccccccccccccccccccccccbbbcccccccccccccccccccccccccccccccccccccc",
"ccccccccccccccccccccccccccccccccccccccccccccccccccccccccccbbccccccccccccccc",
"cccccccccccccccccccccccccccccccccccccccccccccccccccccccbcjssjcbcccccccccccc",
"ccccccccccccccccccccccccccccccccccccccccccccccccccccccbp,OXX#<sbccccccccccc",
"ccccccccccccccccccccccccccccccccccccccccccccccccccccccwX.XXXX.Xebcccccccccc",
"ccccccccccccccccccccccccccccccccccccccccccccccccccccbrXXXXXXXXXXubccccccccc",
"ccccccccccccccccccccccnbccccccccccccccccccccccccccccj%XXXXXXXXX.*zccccccccc",
"ccccccccccccccccccccmKIPHccccccccccccccccccccccccccb8.XXXXXXXXXX.ubcccccccc",
"cccccccccccccccccccnPUUUUJcccccccccccccccccccccccccj+XXXXXXXXXXX.8ncccccccc",
"cccccccccccccccccccVUUUUUUVcccccccccccccccccccccccb0.XXXXXXXXXXX 6ncccccccc",
"cccccccccccccccccccVUUUUUUJcccccccccccccccccccccccc:.XXXXXXXXXXX.0bcccccccc",
"cccccccccccccccccccnPUUUUUPcccccccccccccccccccccccz$XXXXXXXXXXXXXpbcccccccc",
"ccccccccccccccccccccDUUUUUJcccccccccccccccccccccccx&XXXXXXXXXXX.:cccccccccc",
"cccccccccccccccccccccJUUUPmcccccccccccccccccccccccc>.XXXXXXXXXXXubccccccccc",
"ccccccccccccccccccccccVGDnccccccccccccccccccccccccbe.XXXXXXXXX.,ccccccccccc",
"cccccccccccccccccccccccccccccccccccccccccccccccccccz;.XXXXXXXXoabcccccccccc",
"ccccccccccccccccccccccccccccccccccccccccccccccccccccf&.XXXXX.Xtbccccccccccc",
"ccccccccccccccccccccccccccccccccccccccccccccccccccccbg1O. .X=pbcccccccccccc",
"cccccccccccccccccccccccccccccccccccccccccccccccccccccccfr0wpcbccccccccccccc",
"ccccccccccccccccccccccccccccccccccccccccccccccccccccccccbbnbccccccccccccccc",
"ccccccccccccccccccccccccccccccccccbbxxbbccccccccccccccccccccccccccccccccccc",
"cccccccccccccccccccccccccccccccccbp<&*4pbcccccccccccccccccccccccccccccccccc",
"cccccccccccccbccbcccccccccccccccb0X.XX.Xebccccccccccccccccccccccccccccccccc",
"cccccccccccbf2*=qccccccccccccccbiXXXXXXXXibcccccccccccccccccccccccccccccccc",
"ccccccccccbp@.X..4cccccccccccccc>.XXXXXX.&jcccccccccccccccccccccccccccccccc",
"ccccccccccj%.XXXXXsbcccccccccccz#XXXXXXXX.4bccccccccccccccccccccccccccccccc",
"cccccccccb<.XXXXX.ebcccccccccccz#XXXXXXXXX+jccccccccccccccccccccccccccccccc",
"cccccccccfoXXXXXX.ybcccccccccccc:.XXXXXXXXXdccccccccccccccccccccccccccccccc",
"ccccccccbpXXXXXXX#lccccccccccccbt.XXXXXXXXofccccccccccccccccccccccccccccccc",
"ccccccccchOXXXXXXybcccccccccccccc<.XXXXXX.:cccccccccccccccccccccccccccccccc",
"cccccccccb7.XXX.0bcccccccccccccccj&.XXXXXXybccccccccccccccccVJJJVcccccccccc",
"ccccccccccx9&@*rccccccccccccccccccf=....OwccccccccccccccccnLUUUUUKncccccccc",
"cccccccccccbzjcbccccccccccccccccccbze3<9dccccccccccccccccvLUUUUUUULbccccccc",
"ccccccccccccccccccccccccccccccccccccbbbbcccccccccccccccccJUUUUUUUUUZccccccc",
"ccccccccccccccccccccccccccccccccccccccccccccccccccccccccVUUUUUUUUUULccccccc",
"ccccccccccccccccccccccccccccccccccccccccccccccccccccccccPUUUUUUUUUUPccccccc",
"cccccccccccccccccccccccccccccccccccccccccccccccccccccccmUUUUUUUUUUULccccccc",
"cccccccccccccccccccccccccccccccccccccccccccccccccccccccmUUUUUUUUUUUFccccccc",
"ccccccccccccccccccccccmGLJDncccccccccccccccccccccccccccnUUUUUUUUUUInccccccc",
"cccccccccccccccccccccJUUUUUPAcccccccccccccccccccccccccccKUUUUUUUUUCcccccccc",
"ccccccccccccccccccccJUUUUUUUUmccccccccccccccccccccccccccmUUUUUUUUHccccccccc",
"cccccccccccccccccccVUUUUUUUUUJcccccccccccccccccccccccccccVPUUUUUJcccccccccc",
"cccccccccccccccccccHUUUUUUUUUUncccccccccccccccccccccccccccnDJLJVccccccccccc",
"cccccccccccccccccccJUUUUUUUUUUFcccccccccccccccccccccccccccccccccccccccccccc",
"cccccccccccccccccccGUUUUUUUUUULcccccccccccccccccccccccccccccccccccccccccccc",
"cccccccccccccccccccmUUUUUUUUUUKcccccccccccccccccccccccccccccccccccccccccccc",
"ccccccccccccccccccccJUUUUUUUUUFcccccccccccccccccccccccccccccccccccccccccccc",
"ccccccccccccccccccccmUUUUUUUUIncccccccccccccccccccccccccccccccccccccccccccc",
"cccccccccccccccccccccZUUUUUUPVccccccccccccccccccccccccccccccccccccccccccccc",
"ccccccccccccccccccccccVJIUPFncccccccccccccccccccccccccccccccccccccccccccccc",
"ccccccccccccccccccccccccnnccccccccccccccccccccccccccccccccccccccccccccccccM",
"cccccccccccccccccccccccccccccccccccccccccccccccccccccccccccccccccccccccccBn"
};
